%TF.GenerationSoftware,KiCad,Pcbnew,7.0.10*%
%TF.CreationDate,2024-01-23T11:20:41-03:00*%
%TF.ProjectId,PCB,5043422e-6b69-4636-9164-5f7063625858,V1.0*%
%TF.SameCoordinates,Original*%
%TF.FileFunction,Soldermask,Top*%
%TF.FilePolarity,Negative*%
%FSLAX46Y46*%
G04 Gerber Fmt 4.6, Leading zero omitted, Abs format (unit mm)*
G04 Created by KiCad (PCBNEW 7.0.10) date 2024-01-23 11:20:41*
%MOMM*%
%LPD*%
G01*
G04 APERTURE LIST*
G04 Aperture macros list*
%AMRoundRect*
0 Rectangle with rounded corners*
0 $1 Rounding radius*
0 $2 $3 $4 $5 $6 $7 $8 $9 X,Y pos of 4 corners*
0 Add a 4 corners polygon primitive as box body*
4,1,4,$2,$3,$4,$5,$6,$7,$8,$9,$2,$3,0*
0 Add four circle primitives for the rounded corners*
1,1,$1+$1,$2,$3*
1,1,$1+$1,$4,$5*
1,1,$1+$1,$6,$7*
1,1,$1+$1,$8,$9*
0 Add four rect primitives between the rounded corners*
20,1,$1+$1,$2,$3,$4,$5,0*
20,1,$1+$1,$4,$5,$6,$7,0*
20,1,$1+$1,$6,$7,$8,$9,0*
20,1,$1+$1,$8,$9,$2,$3,0*%
%AMFreePoly0*
4,1,6,1.000000,0.000000,0.500000,-0.750000,-0.500000,-0.750000,-0.500000,0.750000,0.500000,0.750000,1.000000,0.000000,1.000000,0.000000,$1*%
%AMFreePoly1*
4,1,6,0.500000,-0.750000,-0.650000,-0.750000,-0.150000,0.000000,-0.650000,0.750000,0.500000,0.750000,0.500000,-0.750000,0.500000,-0.750000,$1*%
G04 Aperture macros list end*
%ADD10R,1.300000X1.400000*%
%ADD11C,1.750000*%
%ADD12C,4.000000*%
%ADD13C,2.500000*%
%ADD14RoundRect,0.237500X0.250000X0.237500X-0.250000X0.237500X-0.250000X-0.237500X0.250000X-0.237500X0*%
%ADD15RoundRect,0.237500X-0.250000X-0.237500X0.250000X-0.237500X0.250000X0.237500X-0.250000X0.237500X0*%
%ADD16FreePoly0,0.000000*%
%ADD17FreePoly1,0.000000*%
%ADD18C,3.987800*%
%ADD19C,3.048000*%
%ADD20R,2.000000X1.200000*%
%ADD21O,2.000000X1.200000*%
%ADD22R,1.000000X1.000000*%
%ADD23C,1.000000*%
%ADD24R,0.914000X1.000000*%
G04 APERTURE END LIST*
D10*
%TO.C,D17*%
X65881250Y-58925000D03*
X65881250Y-55375000D03*
%TD*%
%TO.C,D71*%
X51593750Y-135125000D03*
X51593750Y-131575000D03*
%TD*%
D11*
%TO.C,S16*%
X33020000Y-57150000D03*
D12*
X38100000Y-57150000D03*
D11*
X43180000Y-57150000D03*
D13*
X34290000Y-54610000D03*
X40640000Y-52070000D03*
%TD*%
D10*
%TO.C,D24*%
X199231250Y-58925000D03*
X199231250Y-55375000D03*
%TD*%
%TO.C,D13*%
X275431250Y-39875000D03*
X275431250Y-36325000D03*
%TD*%
D14*
%TO.C,R26*%
X345281250Y-68583796D03*
X343456250Y-68583796D03*
%TD*%
D11*
%TO.C,S77*%
X256857500Y-133350000D03*
D12*
X261937500Y-133350000D03*
D11*
X267017500Y-133350000D03*
D13*
X258127500Y-130810000D03*
X264477500Y-128270000D03*
%TD*%
D15*
%TO.C,R36*%
X332335500Y-53340000D03*
X334160500Y-53340000D03*
%TD*%
D10*
%TO.C,D12*%
X256381250Y-39875000D03*
X256381250Y-36325000D03*
%TD*%
%TO.C,D57*%
X51593750Y-116075000D03*
X51593750Y-112525000D03*
%TD*%
%TO.C,D22*%
X161131250Y-58925000D03*
X161131250Y-55375000D03*
%TD*%
D15*
%TO.C,R30*%
X332335500Y-63500000D03*
X334160500Y-63500000D03*
%TD*%
D10*
%TO.C,D60*%
X108743750Y-116075000D03*
X108743750Y-112525000D03*
%TD*%
D16*
%TO.C,J3V1*%
X343643750Y-88900000D03*
D17*
X345093750Y-88900000D03*
%TD*%
D11*
%TO.C,S19*%
X90170000Y-57150000D03*
D12*
X95250000Y-57150000D03*
D11*
X100330000Y-57150000D03*
D13*
X91440000Y-54610000D03*
X97790000Y-52070000D03*
%TD*%
D10*
%TO.C,D9*%
X199231250Y-39875000D03*
X199231250Y-36325000D03*
%TD*%
D14*
%TO.C,R18*%
X345281250Y-76203796D03*
X343456250Y-76203796D03*
%TD*%
D10*
%TO.C,D3*%
X84931250Y-39875000D03*
X84931250Y-36325000D03*
%TD*%
%TO.C,D33*%
X113506250Y-77975000D03*
X113506250Y-74425000D03*
%TD*%
%TO.C,D10*%
X218281250Y-39875000D03*
X218281250Y-36325000D03*
%TD*%
D11*
%TO.C,S74*%
X94932500Y-133350000D03*
D12*
X100012500Y-133350000D03*
D11*
X105092500Y-133350000D03*
D13*
X96202500Y-130810000D03*
X102552500Y-128270000D03*
%TD*%
D10*
%TO.C,D29*%
X313531250Y-58925000D03*
X313531250Y-55375000D03*
%TD*%
D15*
%TO.C,R2*%
X332335500Y-86360000D03*
X334160500Y-86360000D03*
%TD*%
D10*
%TO.C,D43*%
X313531250Y-77975000D03*
X313531250Y-74425000D03*
%TD*%
D11*
%TO.C,S80*%
X318770000Y-133350000D03*
D12*
X323850000Y-133350000D03*
D11*
X328930000Y-133350000D03*
D13*
X320040000Y-130810000D03*
X326390000Y-128270000D03*
%TD*%
D14*
%TO.C,R24*%
X345281250Y-45723796D03*
X343456250Y-45723796D03*
%TD*%
D11*
%TO.C,S46*%
X85407500Y-95250000D03*
D12*
X90487500Y-95250000D03*
D11*
X95567500Y-95250000D03*
D13*
X86677500Y-92710000D03*
X93027500Y-90170000D03*
%TD*%
D10*
%TO.C,D27*%
X256381250Y-58925000D03*
X256381250Y-55375000D03*
%TD*%
%TO.C,D78*%
X294481250Y-135125000D03*
X294481250Y-131575000D03*
%TD*%
D16*
%TO.C,J5V2*%
X343643750Y-38100000D03*
D17*
X345093750Y-38100000D03*
%TD*%
D10*
%TO.C,D64*%
X184943750Y-116075000D03*
X184943750Y-112525000D03*
%TD*%
D11*
%TO.C,S39*%
X213995000Y-76200000D03*
D12*
X219075000Y-76200000D03*
D11*
X224155000Y-76200000D03*
D13*
X215265000Y-73660000D03*
X221615000Y-71120000D03*
%TD*%
D11*
%TO.C,S42*%
X271145000Y-76200000D03*
D12*
X276225000Y-76200000D03*
D11*
X281305000Y-76200000D03*
D13*
X272415000Y-73660000D03*
X278765000Y-71120000D03*
%TD*%
D11*
%TO.C,S30*%
X37782500Y-76200000D03*
D12*
X42862500Y-76200000D03*
D11*
X47942500Y-76200000D03*
D13*
X39052500Y-73660000D03*
X45402500Y-71120000D03*
%TD*%
D18*
%TO.C,H4*%
X300069250Y-122525000D03*
D19*
X300069250Y-107315000D03*
D18*
X276193250Y-122525000D03*
D19*
X276193250Y-107315000D03*
%TD*%
D10*
%TO.C,D44*%
X61118750Y-97025000D03*
X61118750Y-93475000D03*
%TD*%
D11*
%TO.C,S36*%
X156845000Y-76200000D03*
D12*
X161925000Y-76200000D03*
D11*
X167005000Y-76200000D03*
D13*
X158115000Y-73660000D03*
X164465000Y-71120000D03*
%TD*%
D10*
%TO.C,D31*%
X75406250Y-77975000D03*
X75406250Y-74425000D03*
%TD*%
D11*
%TO.C,S43*%
X294957500Y-76200000D03*
D12*
X300037500Y-76200000D03*
D11*
X305117500Y-76200000D03*
D13*
X296227500Y-73660000D03*
X302577500Y-71120000D03*
%TD*%
D11*
%TO.C,S32*%
X80701250Y-76200000D03*
D12*
X85781250Y-76200000D03*
D11*
X90861250Y-76200000D03*
D13*
X81971250Y-73660000D03*
X88321250Y-71120000D03*
%TD*%
D15*
%TO.C,R3*%
X343456250Y-73663796D03*
X345281250Y-73663796D03*
%TD*%
D11*
%TO.C,S23*%
X166370000Y-57150000D03*
D12*
X171450000Y-57150000D03*
D11*
X176530000Y-57150000D03*
D13*
X167640000Y-54610000D03*
X173990000Y-52070000D03*
%TD*%
D20*
%TO.C,U1*%
X350192731Y-91395876D03*
D21*
X350192731Y-88855876D03*
X350192731Y-86315876D03*
X350192731Y-83775876D03*
X350192731Y-81235876D03*
X350192731Y-78695876D03*
X350192731Y-76155876D03*
X350192731Y-73615876D03*
X350192731Y-71075876D03*
X350192731Y-68535876D03*
X350192731Y-65995876D03*
X350192731Y-63455876D03*
X350192731Y-60915876D03*
X350192731Y-58375876D03*
X350192731Y-55835876D03*
X350192731Y-53295876D03*
X350192731Y-50755876D03*
X350192731Y-48215876D03*
X350192731Y-45675876D03*
X350196411Y-43138596D03*
X350196411Y-40598596D03*
X350196411Y-38058596D03*
X327332731Y-38055876D03*
X327332731Y-40595876D03*
X327332731Y-43135876D03*
X327332731Y-45675876D03*
X327332731Y-48215876D03*
X327332731Y-50755876D03*
X327332731Y-53295876D03*
X327332731Y-55835876D03*
X327332731Y-58375876D03*
X327332731Y-60915876D03*
X327332731Y-63455876D03*
X327332731Y-65995876D03*
X327332731Y-68535876D03*
X327332731Y-71075876D03*
X327332731Y-73615876D03*
X327332731Y-76155876D03*
X327332731Y-78695876D03*
X327332731Y-81235876D03*
X327332731Y-83775876D03*
X327332731Y-86315876D03*
X327332731Y-88855876D03*
X327332731Y-91395876D03*
%TD*%
D11*
%TO.C,S45*%
X66357500Y-95250000D03*
D12*
X71437500Y-95250000D03*
D11*
X76517500Y-95250000D03*
D13*
X67627500Y-92710000D03*
X73977500Y-90170000D03*
%TD*%
D14*
%TO.C,R25*%
X345281250Y-43183796D03*
X343456250Y-43183796D03*
%TD*%
D10*
%TO.C,D34*%
X132556250Y-77975000D03*
X132556250Y-74425000D03*
%TD*%
D14*
%TO.C,R17*%
X345281250Y-78743796D03*
X343456250Y-78743796D03*
%TD*%
D10*
%TO.C,D63*%
X165893750Y-116075000D03*
X165893750Y-112525000D03*
%TD*%
D15*
%TO.C,R6*%
X332335500Y-43180000D03*
X334160500Y-43180000D03*
%TD*%
D10*
%TO.C,D77*%
X270668750Y-135125000D03*
X270668750Y-131575000D03*
%TD*%
%TO.C,D38*%
X208756250Y-77975000D03*
X208756250Y-74425000D03*
%TD*%
D11*
%TO.C,S26*%
X223520000Y-57150000D03*
D12*
X228600000Y-57150000D03*
D11*
X233680000Y-57150000D03*
D13*
X224790000Y-54610000D03*
X231140000Y-52070000D03*
%TD*%
D10*
%TO.C,D35*%
X151606250Y-77975000D03*
X151606250Y-74425000D03*
%TD*%
%TO.C,D16*%
X46831250Y-58925000D03*
X46831250Y-55375000D03*
%TD*%
D22*
%TO.C,GND*%
X342392000Y-29718000D03*
%TD*%
D11*
%TO.C,S55*%
X256857500Y-95250000D03*
D12*
X261937500Y-95250000D03*
D11*
X267017500Y-95250000D03*
D13*
X258127500Y-92710000D03*
X264477500Y-90170000D03*
%TD*%
D10*
%TO.C,D39*%
X227806250Y-77975000D03*
X227806250Y-74425000D03*
%TD*%
D11*
%TO.C,S29*%
X290195000Y-57150000D03*
D12*
X295275000Y-57150000D03*
D11*
X300355000Y-57150000D03*
D13*
X291465000Y-54610000D03*
X297815000Y-52070000D03*
%TD*%
D11*
%TO.C,S13*%
X261620000Y-38100000D03*
D12*
X266700000Y-38100000D03*
D11*
X271780000Y-38100000D03*
D13*
X262890000Y-35560000D03*
X269240000Y-33020000D03*
%TD*%
D15*
%TO.C,R5*%
X343456250Y-71123796D03*
X345281250Y-71123796D03*
%TD*%
D14*
%TO.C,R20*%
X345281250Y-55883796D03*
X343456250Y-55883796D03*
%TD*%
D10*
%TO.C,D21*%
X142081250Y-58925000D03*
X142081250Y-55375000D03*
%TD*%
%TO.C,D48*%
X137318750Y-97025000D03*
X137318750Y-93475000D03*
%TD*%
%TO.C,D40*%
X246856250Y-77975000D03*
X246856250Y-74425000D03*
%TD*%
%TO.C,D45*%
X80168750Y-97025000D03*
X80168750Y-93475000D03*
%TD*%
D11*
%TO.C,S69*%
X283051250Y-114300000D03*
D12*
X288131250Y-114300000D03*
D11*
X293211250Y-114300000D03*
D13*
X284321250Y-111760000D03*
X290671250Y-109220000D03*
%TD*%
D14*
%TO.C,R23*%
X345281250Y-48263796D03*
X343456250Y-48263796D03*
%TD*%
D11*
%TO.C,S25*%
X204470000Y-57150000D03*
D12*
X209550000Y-57150000D03*
D11*
X214630000Y-57150000D03*
D13*
X205740000Y-54610000D03*
X212090000Y-52070000D03*
%TD*%
D10*
%TO.C,D26*%
X237331250Y-58925000D03*
X237331250Y-55375000D03*
%TD*%
D11*
%TO.C,S12*%
X242570000Y-38100000D03*
D12*
X247650000Y-38100000D03*
D11*
X252730000Y-38100000D03*
D13*
X243840000Y-35560000D03*
X250190000Y-33020000D03*
%TD*%
D11*
%TO.C,S70*%
X318770000Y-114300000D03*
D12*
X323850000Y-114300000D03*
D11*
X328930000Y-114300000D03*
D13*
X320040000Y-111760000D03*
X326390000Y-109220000D03*
%TD*%
D11*
%TO.C,S56*%
X287813750Y-95250000D03*
D12*
X292893750Y-95250000D03*
D11*
X297973750Y-95250000D03*
D13*
X289083750Y-92710000D03*
X295433750Y-90170000D03*
%TD*%
D10*
%TO.C,D62*%
X146843750Y-116075000D03*
X146843750Y-112525000D03*
%TD*%
D11*
%TO.C,S41*%
X252095000Y-76200000D03*
D12*
X257175000Y-76200000D03*
D11*
X262255000Y-76200000D03*
D13*
X253365000Y-73660000D03*
X259715000Y-71120000D03*
%TD*%
D10*
%TO.C,D67*%
X242093750Y-116075000D03*
X242093750Y-112525000D03*
%TD*%
D11*
%TO.C,S66*%
X209232500Y-114300000D03*
D12*
X214312500Y-114300000D03*
D11*
X219392500Y-114300000D03*
D13*
X210502500Y-111760000D03*
X216852500Y-109220000D03*
%TD*%
D11*
%TO.C,S10*%
X204470000Y-38100000D03*
D12*
X209550000Y-38100000D03*
D11*
X214630000Y-38100000D03*
D13*
X205740000Y-35560000D03*
X212090000Y-33020000D03*
%TD*%
D11*
%TO.C,S61*%
X113982500Y-114300000D03*
D12*
X119062500Y-114300000D03*
D11*
X124142500Y-114300000D03*
D13*
X115252500Y-111760000D03*
X121602500Y-109220000D03*
%TD*%
D11*
%TO.C,S15*%
X299720000Y-38100000D03*
D12*
X304800000Y-38100000D03*
D11*
X309880000Y-38100000D03*
D13*
X300990000Y-35560000D03*
X307340000Y-33020000D03*
%TD*%
D11*
%TO.C,S67*%
X228282500Y-114300000D03*
D12*
X233362500Y-114300000D03*
D11*
X238442500Y-114300000D03*
D13*
X229552500Y-111760000D03*
X235902500Y-109220000D03*
%TD*%
D11*
%TO.C,S50*%
X161607500Y-95250000D03*
D12*
X166687500Y-95250000D03*
D11*
X171767500Y-95250000D03*
D13*
X162877500Y-92710000D03*
X169227500Y-90170000D03*
%TD*%
D11*
%TO.C,S52*%
X199707500Y-95250000D03*
D12*
X204787500Y-95250000D03*
D11*
X209867500Y-95250000D03*
D13*
X200977500Y-92710000D03*
X207327500Y-90170000D03*
%TD*%
D11*
%TO.C,S73*%
X75882500Y-133350000D03*
D12*
X80962500Y-133350000D03*
D11*
X86042500Y-133350000D03*
D13*
X77152500Y-130810000D03*
X83502500Y-128270000D03*
%TD*%
D11*
%TO.C,S59*%
X75882500Y-114300000D03*
D12*
X80962500Y-114300000D03*
D11*
X86042500Y-114300000D03*
D13*
X77152500Y-111760000D03*
X83502500Y-109220000D03*
%TD*%
D15*
%TO.C,R8*%
X332335500Y-58420000D03*
X334160500Y-58420000D03*
%TD*%
%TO.C,R32*%
X332335500Y-68580000D03*
X334160500Y-68580000D03*
%TD*%
D11*
%TO.C,S35*%
X137795000Y-76200000D03*
D12*
X142875000Y-76200000D03*
D11*
X147955000Y-76200000D03*
D13*
X139065000Y-73660000D03*
X145415000Y-71120000D03*
%TD*%
D15*
%TO.C,R31*%
X332335500Y-66040000D03*
X334160500Y-66040000D03*
%TD*%
D10*
%TO.C,D2*%
X65881250Y-39875000D03*
X65881250Y-36325000D03*
%TD*%
D11*
%TO.C,S47*%
X104457500Y-95250000D03*
D12*
X109537500Y-95250000D03*
D11*
X114617500Y-95250000D03*
D13*
X105727500Y-92710000D03*
X112077500Y-90170000D03*
%TD*%
D15*
%TO.C,R4*%
X332335500Y-45720000D03*
X334160500Y-45720000D03*
%TD*%
D11*
%TO.C,S34*%
X118745000Y-76200000D03*
D12*
X123825000Y-76200000D03*
D11*
X128905000Y-76200000D03*
D13*
X120015000Y-73660000D03*
X126365000Y-71120000D03*
%TD*%
D10*
%TO.C,D1*%
X46831250Y-39875000D03*
X46831250Y-36325000D03*
%TD*%
D11*
%TO.C,S60*%
X94932500Y-114300000D03*
D12*
X100012500Y-114300000D03*
D11*
X105092500Y-114300000D03*
D13*
X96202500Y-111760000D03*
X102552500Y-109220000D03*
%TD*%
D14*
%TO.C,R14*%
X345281250Y-60963796D03*
X343456250Y-60963796D03*
%TD*%
D11*
%TO.C,S48*%
X123507500Y-95250000D03*
D12*
X128587500Y-95250000D03*
D11*
X133667500Y-95250000D03*
D13*
X124777500Y-92710000D03*
X131127500Y-90170000D03*
%TD*%
D11*
%TO.C,S7*%
X147320000Y-38100000D03*
D12*
X152400000Y-38100000D03*
D11*
X157480000Y-38100000D03*
D13*
X148590000Y-35560000D03*
X154940000Y-33020000D03*
%TD*%
D11*
%TO.C,S6*%
X128270000Y-38100000D03*
D12*
X133350000Y-38100000D03*
D11*
X138430000Y-38100000D03*
D13*
X129540000Y-35560000D03*
X135890000Y-33020000D03*
%TD*%
D11*
%TO.C,S11*%
X223520000Y-38100000D03*
D12*
X228600000Y-38100000D03*
D11*
X233680000Y-38100000D03*
D13*
X224790000Y-35560000D03*
X231140000Y-33020000D03*
%TD*%
D11*
%TO.C,S63*%
X152082500Y-114300000D03*
D12*
X157162500Y-114300000D03*
D11*
X162242500Y-114300000D03*
D13*
X153352500Y-111760000D03*
X159702500Y-109220000D03*
%TD*%
D11*
%TO.C,S38*%
X194945000Y-76200000D03*
D12*
X200025000Y-76200000D03*
D11*
X205105000Y-76200000D03*
D13*
X196215000Y-73660000D03*
X202565000Y-71120000D03*
%TD*%
D11*
%TO.C,S22*%
X147320000Y-57150000D03*
D12*
X152400000Y-57150000D03*
D11*
X157480000Y-57150000D03*
D13*
X148590000Y-54610000D03*
X154940000Y-52070000D03*
%TD*%
D10*
%TO.C,D15*%
X313531250Y-39875000D03*
X313531250Y-36325000D03*
%TD*%
D23*
%TO.C,5V*%
X338836000Y-29718000D03*
%TD*%
D11*
%TO.C,S24*%
X185420000Y-57150000D03*
D12*
X190500000Y-57150000D03*
D11*
X195580000Y-57150000D03*
D13*
X186690000Y-54610000D03*
X193040000Y-52070000D03*
%TD*%
D10*
%TO.C,D66*%
X223043750Y-116075000D03*
X223043750Y-112525000D03*
%TD*%
D11*
%TO.C,S62*%
X133032500Y-114300000D03*
D12*
X138112500Y-114300000D03*
D11*
X143192500Y-114300000D03*
D13*
X134302500Y-111760000D03*
X140652500Y-109220000D03*
%TD*%
D14*
%TO.C,R27*%
X345281250Y-66043796D03*
X343456250Y-66043796D03*
%TD*%
D11*
%TO.C,S3*%
X71120000Y-38100000D03*
D12*
X76200000Y-38100000D03*
D11*
X81280000Y-38100000D03*
D13*
X72390000Y-35560000D03*
X78740000Y-33020000D03*
%TD*%
D10*
%TO.C,D20*%
X123031250Y-58925000D03*
X123031250Y-55375000D03*
%TD*%
%TO.C,D53*%
X232568750Y-97025000D03*
X232568750Y-93475000D03*
%TD*%
D11*
%TO.C,S37*%
X175895000Y-76200000D03*
D12*
X180975000Y-76200000D03*
D11*
X186055000Y-76200000D03*
D13*
X177165000Y-73660000D03*
X183515000Y-71120000D03*
%TD*%
D19*
%TO.C,H2*%
X283337000Y-50165000D03*
D18*
X283337000Y-65375000D03*
D19*
X307213000Y-50165000D03*
D18*
X307213000Y-65375000D03*
%TD*%
D10*
%TO.C,D65*%
X203993750Y-116075000D03*
X203993750Y-112525000D03*
%TD*%
%TO.C,D73*%
X89693750Y-135125000D03*
X89693750Y-131575000D03*
%TD*%
%TO.C,D46*%
X99218750Y-97025000D03*
X99218750Y-93475000D03*
%TD*%
D11*
%TO.C,S31*%
X61595000Y-76200000D03*
D12*
X66675000Y-76200000D03*
D11*
X71755000Y-76200000D03*
D13*
X62865000Y-73660000D03*
X69215000Y-71120000D03*
%TD*%
D10*
%TO.C,D7*%
X161131250Y-39875000D03*
X161131250Y-36325000D03*
%TD*%
D11*
%TO.C,S5*%
X109220000Y-38100000D03*
D12*
X114300000Y-38100000D03*
D11*
X119380000Y-38100000D03*
D13*
X110490000Y-35560000D03*
X116840000Y-33020000D03*
%TD*%
D11*
%TO.C,S71*%
X35401250Y-133350000D03*
D12*
X40481250Y-133350000D03*
D11*
X45561250Y-133350000D03*
D13*
X36671250Y-130810000D03*
X43021250Y-128270000D03*
%TD*%
D10*
%TO.C,D8*%
X180181250Y-39875000D03*
X180181250Y-36325000D03*
%TD*%
%TO.C,D79*%
X313531250Y-135125000D03*
X313531250Y-131575000D03*
%TD*%
D23*
%TO.C,3V3-2*%
X351028000Y-100806250D03*
%TD*%
D10*
%TO.C,D68*%
X261143750Y-116075000D03*
X261143750Y-112525000D03*
%TD*%
D15*
%TO.C,R1*%
X332335500Y-88900000D03*
X334160500Y-88900000D03*
%TD*%
D16*
%TO.C,J3V2*%
X343643750Y-93662500D03*
D17*
X345093750Y-93662500D03*
%TD*%
D10*
%TO.C,D56*%
X313531250Y-97025000D03*
X313531250Y-93475000D03*
%TD*%
%TO.C,D32*%
X94456250Y-77975000D03*
X94456250Y-74425000D03*
%TD*%
%TO.C,D52*%
X213518750Y-97025000D03*
X213518750Y-93475000D03*
%TD*%
%TO.C,D61*%
X127793750Y-116075000D03*
X127793750Y-112525000D03*
%TD*%
%TO.C,D75*%
X227806250Y-135125000D03*
X227806250Y-131575000D03*
%TD*%
D19*
%TO.C,H3*%
X280955750Y-88265000D03*
D18*
X280955750Y-103475000D03*
D19*
X304831750Y-88265000D03*
D18*
X304831750Y-103475000D03*
%TD*%
D11*
%TO.C,S1*%
X33020000Y-38100000D03*
D12*
X38100000Y-38100000D03*
D11*
X43180000Y-38100000D03*
D13*
X34290000Y-35560000D03*
X40640000Y-33020000D03*
%TD*%
D23*
%TO.C,5V-2*%
X351028000Y-103886000D03*
%TD*%
D11*
%TO.C,S17*%
X52115000Y-57150000D03*
D12*
X57195000Y-57150000D03*
D11*
X62275000Y-57150000D03*
D13*
X53385000Y-54610000D03*
X59735000Y-52070000D03*
%TD*%
D14*
%TO.C,R15*%
X345281250Y-83823796D03*
X343456250Y-83823796D03*
%TD*%
D10*
%TO.C,D36*%
X170656250Y-77975000D03*
X170656250Y-74425000D03*
%TD*%
%TO.C,D5*%
X123031250Y-39875000D03*
X123031250Y-36325000D03*
%TD*%
D11*
%TO.C,S14*%
X280670000Y-38100000D03*
D12*
X285750000Y-38100000D03*
D11*
X290830000Y-38100000D03*
D13*
X281940000Y-35560000D03*
X288290000Y-33020000D03*
%TD*%
D11*
%TO.C,S8*%
X166370000Y-38100000D03*
D12*
X171450000Y-38100000D03*
D11*
X176530000Y-38100000D03*
D13*
X167640000Y-35560000D03*
X173990000Y-33020000D03*
%TD*%
D11*
%TO.C,S4*%
X90170000Y-38100000D03*
D12*
X95250000Y-38100000D03*
D11*
X100330000Y-38100000D03*
D13*
X91440000Y-35560000D03*
X97790000Y-33020000D03*
%TD*%
D14*
%TO.C,R16*%
X345281250Y-81283796D03*
X343456250Y-81283796D03*
%TD*%
D11*
%TO.C,S2*%
X52070000Y-38100000D03*
D12*
X57150000Y-38100000D03*
D11*
X62230000Y-38100000D03*
D13*
X53340000Y-35560000D03*
X59690000Y-33020000D03*
%TD*%
D11*
%TO.C,S68*%
X247332500Y-114300000D03*
D12*
X252412500Y-114300000D03*
D11*
X257492500Y-114300000D03*
D13*
X248602500Y-111760000D03*
X254952500Y-109220000D03*
%TD*%
D11*
%TO.C,S57*%
X35401250Y-114300000D03*
D12*
X40481250Y-114300000D03*
D11*
X45561250Y-114300000D03*
D13*
X36671250Y-111760000D03*
X43021250Y-109220000D03*
%TD*%
D22*
%TO.C,GND-2*%
X351028000Y-106934000D03*
%TD*%
D14*
%TO.C,R34*%
X345281250Y-58423796D03*
X343456250Y-58423796D03*
%TD*%
D10*
%TO.C,D28*%
X275431250Y-58925000D03*
X275431250Y-55375000D03*
%TD*%
%TO.C,D19*%
X103981250Y-58925000D03*
X103981250Y-55375000D03*
%TD*%
D15*
%TO.C,R12*%
X332335500Y-81280000D03*
X334160500Y-81280000D03*
%TD*%
D11*
%TO.C,S44*%
X40163750Y-95250000D03*
D12*
X45243750Y-95250000D03*
D11*
X50323750Y-95250000D03*
D13*
X41433750Y-92710000D03*
X47783750Y-90170000D03*
%TD*%
D15*
%TO.C,R37*%
X343456250Y-91281250D03*
X345281250Y-91281250D03*
%TD*%
D11*
%TO.C,S9*%
X185420000Y-38100000D03*
D12*
X190500000Y-38100000D03*
D11*
X195580000Y-38100000D03*
D13*
X186690000Y-35560000D03*
X193040000Y-33020000D03*
%TD*%
D11*
%TO.C,S78*%
X278288750Y-133350000D03*
D12*
X283368750Y-133350000D03*
D11*
X288448750Y-133350000D03*
D13*
X279558750Y-130810000D03*
X285908750Y-128270000D03*
%TD*%
D16*
%TO.C,J5V1*%
X343643750Y-40640000D03*
D17*
X345093750Y-40640000D03*
%TD*%
D15*
%TO.C,R35*%
X332335500Y-50800000D03*
X334160500Y-50800000D03*
%TD*%
D11*
%TO.C,S76*%
X235426250Y-133350000D03*
D12*
X240506250Y-133350000D03*
D11*
X245586250Y-133350000D03*
D13*
X236696250Y-130810000D03*
X243046250Y-128270000D03*
%TD*%
D14*
%TO.C,R21*%
X345281250Y-53343796D03*
X343456250Y-53343796D03*
%TD*%
D10*
%TO.C,D25*%
X218281250Y-58925000D03*
X218281250Y-55375000D03*
%TD*%
D11*
%TO.C,S58*%
X56832500Y-114300000D03*
D12*
X61912500Y-114300000D03*
D11*
X66992500Y-114300000D03*
D13*
X58102500Y-111760000D03*
X64452500Y-109220000D03*
%TD*%
D10*
%TO.C,D30*%
X56356250Y-77975000D03*
X56356250Y-74425000D03*
%TD*%
D11*
%TO.C,S21*%
X128270000Y-57150000D03*
D12*
X133350000Y-57150000D03*
D11*
X138430000Y-57150000D03*
D13*
X129540000Y-54610000D03*
X135890000Y-52070000D03*
%TD*%
D14*
%TO.C,R9*%
X334160500Y-73660000D03*
X332335500Y-73660000D03*
%TD*%
D11*
%TO.C,S40*%
X233045000Y-76200000D03*
D12*
X238125000Y-76200000D03*
D11*
X243205000Y-76200000D03*
D13*
X234315000Y-73660000D03*
X240665000Y-71120000D03*
%TD*%
D11*
%TO.C,S18*%
X71120000Y-57150000D03*
D12*
X76200000Y-57150000D03*
D11*
X81280000Y-57150000D03*
D13*
X72390000Y-54610000D03*
X78740000Y-52070000D03*
%TD*%
D11*
%TO.C,S49*%
X142557500Y-95250000D03*
D12*
X147637500Y-95250000D03*
D11*
X152717500Y-95250000D03*
D13*
X143827500Y-92710000D03*
X150177500Y-90170000D03*
%TD*%
D11*
%TO.C,S81*%
X337820000Y-133350000D03*
D12*
X342900000Y-133350000D03*
D11*
X347980000Y-133350000D03*
D13*
X339090000Y-130810000D03*
X345440000Y-128270000D03*
%TD*%
D11*
%TO.C,S75*%
X163988750Y-133350000D03*
D12*
X169068750Y-133350000D03*
D11*
X174148750Y-133350000D03*
D13*
X165258750Y-130810000D03*
X171608750Y-128270000D03*
%TD*%
D11*
%TO.C,S65*%
X190182500Y-114300000D03*
D12*
X195262500Y-114300000D03*
D11*
X200342500Y-114300000D03*
D13*
X191452500Y-111760000D03*
X197802500Y-109220000D03*
%TD*%
D10*
%TO.C,D14*%
X294481250Y-39875000D03*
X294481250Y-36325000D03*
%TD*%
%TO.C,D42*%
X284956250Y-77975000D03*
X284956250Y-74425000D03*
%TD*%
D11*
%TO.C,S79*%
X299720000Y-133350000D03*
D12*
X304800000Y-133350000D03*
D11*
X309880000Y-133350000D03*
D13*
X300990000Y-130810000D03*
X307340000Y-128270000D03*
%TD*%
D10*
%TO.C,D37*%
X189706250Y-77975000D03*
X189706250Y-74425000D03*
%TD*%
D11*
%TO.C,S51*%
X180657500Y-95250000D03*
D12*
X185737500Y-95250000D03*
D11*
X190817500Y-95250000D03*
D13*
X181927500Y-92710000D03*
X188277500Y-90170000D03*
%TD*%
D11*
%TO.C,S27*%
X242570000Y-57150000D03*
D12*
X247650000Y-57150000D03*
D11*
X252730000Y-57150000D03*
D13*
X243840000Y-54610000D03*
X250190000Y-52070000D03*
%TD*%
D11*
%TO.C,S64*%
X171132500Y-114300000D03*
D12*
X176212500Y-114300000D03*
D11*
X181292500Y-114300000D03*
D13*
X172402500Y-111760000D03*
X178752500Y-109220000D03*
%TD*%
D15*
%TO.C,R33*%
X332335500Y-55880000D03*
X334160500Y-55880000D03*
%TD*%
D10*
%TO.C,D41*%
X265906250Y-77975000D03*
X265906250Y-74425000D03*
%TD*%
D18*
%TO.C,H1*%
X219068750Y-141575000D03*
D19*
X219068750Y-126365000D03*
D18*
X119068750Y-141575000D03*
D19*
X119068750Y-126365000D03*
%TD*%
D10*
%TO.C,D81*%
X351631250Y-135125000D03*
X351631250Y-131575000D03*
%TD*%
D15*
%TO.C,R29*%
X332335500Y-60960000D03*
X334160500Y-60960000D03*
%TD*%
D10*
%TO.C,D4*%
X103981250Y-39875000D03*
X103981250Y-36325000D03*
%TD*%
D11*
%TO.C,S20*%
X109220000Y-57150000D03*
D12*
X114300000Y-57150000D03*
D11*
X119380000Y-57150000D03*
D13*
X110490000Y-54610000D03*
X116840000Y-52070000D03*
%TD*%
D11*
%TO.C,S33*%
X99695000Y-76200000D03*
D12*
X104775000Y-76200000D03*
D11*
X109855000Y-76200000D03*
D13*
X100965000Y-73660000D03*
X107315000Y-71120000D03*
%TD*%
D23*
%TO.C,3V3*%
X335280000Y-29718000D03*
%TD*%
D10*
%TO.C,D50*%
X175418750Y-97025000D03*
X175418750Y-93475000D03*
%TD*%
D11*
%TO.C,S72*%
X56832500Y-133350000D03*
D12*
X61912500Y-133350000D03*
D11*
X66992500Y-133350000D03*
D13*
X58102500Y-130810000D03*
X64452500Y-128270000D03*
%TD*%
D10*
%TO.C,D6*%
X142081250Y-39875000D03*
X142081250Y-36325000D03*
%TD*%
%TO.C,D23*%
X180181250Y-58925000D03*
X180181250Y-55375000D03*
%TD*%
%TO.C,D55*%
X270668750Y-97025000D03*
X270668750Y-93475000D03*
%TD*%
%TO.C,D49*%
X156368750Y-97025000D03*
X156368750Y-93475000D03*
%TD*%
D11*
%TO.C,S53*%
X218757500Y-95250000D03*
D12*
X223837500Y-95250000D03*
D11*
X228917500Y-95250000D03*
D13*
X220027500Y-92710000D03*
X226377500Y-90170000D03*
%TD*%
D15*
%TO.C,R10*%
X332335500Y-83820000D03*
X334160500Y-83820000D03*
%TD*%
D14*
%TO.C,R7*%
X334160500Y-71120000D03*
X332335500Y-71120000D03*
%TD*%
%TO.C,R19*%
X345281250Y-63503796D03*
X343456250Y-63503796D03*
%TD*%
%TO.C,R13*%
X334160500Y-78740000D03*
X332335500Y-78740000D03*
%TD*%
D10*
%TO.C,D47*%
X118268750Y-97025000D03*
X118268750Y-93475000D03*
%TD*%
%TO.C,D76*%
X251618750Y-135125000D03*
X251618750Y-131575000D03*
%TD*%
%TO.C,D51*%
X194468750Y-97025000D03*
X194468750Y-93475000D03*
%TD*%
%TO.C,D58*%
X70643750Y-116075000D03*
X70643750Y-112525000D03*
%TD*%
%TO.C,D74*%
X108743750Y-135125000D03*
X108743750Y-131575000D03*
%TD*%
%TO.C,D80*%
X332581250Y-135125000D03*
X332581250Y-131575000D03*
%TD*%
D15*
%TO.C,R28*%
X332335500Y-48260000D03*
X334160500Y-48260000D03*
%TD*%
D10*
%TO.C,D69*%
X313531250Y-116075000D03*
X313531250Y-112525000D03*
%TD*%
%TO.C,D18*%
X84931250Y-58925000D03*
X84931250Y-55375000D03*
%TD*%
%TO.C,D11*%
X237331250Y-39875000D03*
X237331250Y-36325000D03*
%TD*%
D14*
%TO.C,R11*%
X334160500Y-76200000D03*
X332335500Y-76200000D03*
%TD*%
D11*
%TO.C,S28*%
X261620000Y-57150000D03*
D12*
X266700000Y-57150000D03*
D11*
X271780000Y-57150000D03*
D13*
X262890000Y-54610000D03*
X269240000Y-52070000D03*
%TD*%
D14*
%TO.C,R22*%
X345281250Y-50803796D03*
X343456250Y-50803796D03*
%TD*%
D11*
%TO.C,S54*%
X237807500Y-95250000D03*
D12*
X242887500Y-95250000D03*
D11*
X247967500Y-95250000D03*
D13*
X239077500Y-92710000D03*
X245427500Y-90170000D03*
%TD*%
D10*
%TO.C,D59*%
X89693750Y-116075000D03*
X89693750Y-112525000D03*
%TD*%
%TO.C,D54*%
X251618750Y-97025000D03*
X251618750Y-93475000D03*
%TD*%
%TO.C,D70*%
X332581250Y-116075000D03*
X332581250Y-112525000D03*
%TD*%
%TO.C,D72*%
X70643750Y-135125000D03*
X70643750Y-131575000D03*
%TD*%
D24*
%TO.C,L1*%
X47986750Y-99850000D03*
X47986750Y-101600000D03*
X42500750Y-101600000D03*
X42500750Y-99850000D03*
%TD*%
M02*
