G04 #@! TF.GenerationSoftware,KiCad,Pcbnew,7.0.10*
G04 #@! TF.CreationDate,2024-01-23T22:17:01-03:00*
G04 #@! TF.ProjectId,PCB,5043422e-6b69-4636-9164-5f7063625858,V1.0*
G04 #@! TF.SameCoordinates,Original*
G04 #@! TF.FileFunction,Legend,Top*
G04 #@! TF.FilePolarity,Positive*
%FSLAX46Y46*%
G04 Gerber Fmt 4.6, Leading zero omitted, Abs format (unit mm)*
G04 Created by KiCad (PCBNEW 7.0.10) date 2024-01-23 22:17:01*
%MOMM*%
%LPD*%
G01*
G04 APERTURE LIST*
G04 Aperture macros list*
%AMRoundRect*
0 Rectangle with rounded corners*
0 $1 Rounding radius*
0 $2 $3 $4 $5 $6 $7 $8 $9 X,Y pos of 4 corners*
0 Add a 4 corners polygon primitive as box body*
4,1,4,$2,$3,$4,$5,$6,$7,$8,$9,$2,$3,0*
0 Add four circle primitives for the rounded corners*
1,1,$1+$1,$2,$3*
1,1,$1+$1,$4,$5*
1,1,$1+$1,$6,$7*
1,1,$1+$1,$8,$9*
0 Add four rect primitives between the rounded corners*
20,1,$1+$1,$2,$3,$4,$5,0*
20,1,$1+$1,$4,$5,$6,$7,0*
20,1,$1+$1,$6,$7,$8,$9,0*
20,1,$1+$1,$8,$9,$2,$3,0*%
%AMFreePoly0*
4,1,6,1.000000,0.000000,0.500000,-0.750000,-0.500000,-0.750000,-0.500000,0.750000,0.500000,0.750000,1.000000,0.000000,1.000000,0.000000,$1*%
%AMFreePoly1*
4,1,6,0.500000,-0.750000,-0.650000,-0.750000,-0.150000,0.000000,-0.650000,0.750000,0.500000,0.750000,0.500000,-0.750000,0.500000,-0.750000,$1*%
G04 Aperture macros list end*
%ADD10C,0.150000*%
%ADD11C,0.120000*%
%ADD12C,0.300000*%
%ADD13R,1.300000X1.400000*%
%ADD14C,1.750000*%
%ADD15C,4.000000*%
%ADD16C,2.500000*%
%ADD17RoundRect,0.237500X0.250000X0.237500X-0.250000X0.237500X-0.250000X-0.237500X0.250000X-0.237500X0*%
%ADD18RoundRect,0.237500X-0.250000X-0.237500X0.250000X-0.237500X0.250000X0.237500X-0.250000X0.237500X0*%
%ADD19FreePoly0,0.000000*%
%ADD20FreePoly1,0.000000*%
%ADD21C,3.048000*%
%ADD22C,3.987800*%
%ADD23R,2.000000X1.200000*%
%ADD24O,2.000000X1.200000*%
%ADD25R,1.000000X1.000000*%
%ADD26C,1.000000*%
%ADD27R,0.914000X1.000000*%
G04 APERTURE END LIST*
D10*
X164544951Y-138646819D02*
X164544951Y-139361104D01*
X164544951Y-139361104D02*
X164497332Y-139503961D01*
X164497332Y-139503961D02*
X164402094Y-139599200D01*
X164402094Y-139599200D02*
X164259237Y-139646819D01*
X164259237Y-139646819D02*
X164163999Y-139646819D01*
X165497332Y-139646819D02*
X165021142Y-139646819D01*
X165021142Y-139646819D02*
X165021142Y-138646819D01*
X166402094Y-139551580D02*
X166354475Y-139599200D01*
X166354475Y-139599200D02*
X166211618Y-139646819D01*
X166211618Y-139646819D02*
X166116380Y-139646819D01*
X166116380Y-139646819D02*
X165973523Y-139599200D01*
X165973523Y-139599200D02*
X165878285Y-139503961D01*
X165878285Y-139503961D02*
X165830666Y-139408723D01*
X165830666Y-139408723D02*
X165783047Y-139218247D01*
X165783047Y-139218247D02*
X165783047Y-139075390D01*
X165783047Y-139075390D02*
X165830666Y-138884914D01*
X165830666Y-138884914D02*
X165878285Y-138789676D01*
X165878285Y-138789676D02*
X165973523Y-138694438D01*
X165973523Y-138694438D02*
X166116380Y-138646819D01*
X166116380Y-138646819D02*
X166211618Y-138646819D01*
X166211618Y-138646819D02*
X166354475Y-138694438D01*
X166354475Y-138694438D02*
X166402094Y-138742057D01*
X167116380Y-138646819D02*
X167116380Y-139361104D01*
X167116380Y-139361104D02*
X167068761Y-139503961D01*
X167068761Y-139503961D02*
X166973523Y-139599200D01*
X166973523Y-139599200D02*
X166830666Y-139646819D01*
X166830666Y-139646819D02*
X166735428Y-139646819D01*
X168068761Y-139646819D02*
X167592571Y-139646819D01*
X167592571Y-139646819D02*
X167592571Y-138646819D01*
X168973523Y-139551580D02*
X168925904Y-139599200D01*
X168925904Y-139599200D02*
X168783047Y-139646819D01*
X168783047Y-139646819D02*
X168687809Y-139646819D01*
X168687809Y-139646819D02*
X168544952Y-139599200D01*
X168544952Y-139599200D02*
X168449714Y-139503961D01*
X168449714Y-139503961D02*
X168402095Y-139408723D01*
X168402095Y-139408723D02*
X168354476Y-139218247D01*
X168354476Y-139218247D02*
X168354476Y-139075390D01*
X168354476Y-139075390D02*
X168402095Y-138884914D01*
X168402095Y-138884914D02*
X168449714Y-138789676D01*
X168449714Y-138789676D02*
X168544952Y-138694438D01*
X168544952Y-138694438D02*
X168687809Y-138646819D01*
X168687809Y-138646819D02*
X168783047Y-138646819D01*
X168783047Y-138646819D02*
X168925904Y-138694438D01*
X168925904Y-138694438D02*
X168973523Y-138742057D01*
X169687809Y-138646819D02*
X169687809Y-139361104D01*
X169687809Y-139361104D02*
X169640190Y-139503961D01*
X169640190Y-139503961D02*
X169544952Y-139599200D01*
X169544952Y-139599200D02*
X169402095Y-139646819D01*
X169402095Y-139646819D02*
X169306857Y-139646819D01*
X170640190Y-139646819D02*
X170164000Y-139646819D01*
X170164000Y-139646819D02*
X170164000Y-138646819D01*
X171544952Y-139551580D02*
X171497333Y-139599200D01*
X171497333Y-139599200D02*
X171354476Y-139646819D01*
X171354476Y-139646819D02*
X171259238Y-139646819D01*
X171259238Y-139646819D02*
X171116381Y-139599200D01*
X171116381Y-139599200D02*
X171021143Y-139503961D01*
X171021143Y-139503961D02*
X170973524Y-139408723D01*
X170973524Y-139408723D02*
X170925905Y-139218247D01*
X170925905Y-139218247D02*
X170925905Y-139075390D01*
X170925905Y-139075390D02*
X170973524Y-138884914D01*
X170973524Y-138884914D02*
X171021143Y-138789676D01*
X171021143Y-138789676D02*
X171116381Y-138694438D01*
X171116381Y-138694438D02*
X171259238Y-138646819D01*
X171259238Y-138646819D02*
X171354476Y-138646819D01*
X171354476Y-138646819D02*
X171497333Y-138694438D01*
X171497333Y-138694438D02*
X171544952Y-138742057D01*
X172259238Y-138646819D02*
X172259238Y-139361104D01*
X172259238Y-139361104D02*
X172211619Y-139503961D01*
X172211619Y-139503961D02*
X172116381Y-139599200D01*
X172116381Y-139599200D02*
X171973524Y-139646819D01*
X171973524Y-139646819D02*
X171878286Y-139646819D01*
X173211619Y-139646819D02*
X172735429Y-139646819D01*
X172735429Y-139646819D02*
X172735429Y-138646819D01*
X174116381Y-139551580D02*
X174068762Y-139599200D01*
X174068762Y-139599200D02*
X173925905Y-139646819D01*
X173925905Y-139646819D02*
X173830667Y-139646819D01*
X173830667Y-139646819D02*
X173687810Y-139599200D01*
X173687810Y-139599200D02*
X173592572Y-139503961D01*
X173592572Y-139503961D02*
X173544953Y-139408723D01*
X173544953Y-139408723D02*
X173497334Y-139218247D01*
X173497334Y-139218247D02*
X173497334Y-139075390D01*
X173497334Y-139075390D02*
X173544953Y-138884914D01*
X173544953Y-138884914D02*
X173592572Y-138789676D01*
X173592572Y-138789676D02*
X173687810Y-138694438D01*
X173687810Y-138694438D02*
X173830667Y-138646819D01*
X173830667Y-138646819D02*
X173925905Y-138646819D01*
X173925905Y-138646819D02*
X174068762Y-138694438D01*
X174068762Y-138694438D02*
X174116381Y-138742057D01*
X339828654Y-88354819D02*
X339828654Y-89069104D01*
X339828654Y-89069104D02*
X339781035Y-89211961D01*
X339781035Y-89211961D02*
X339685797Y-89307200D01*
X339685797Y-89307200D02*
X339542940Y-89354819D01*
X339542940Y-89354819D02*
X339447702Y-89354819D01*
X340209607Y-88354819D02*
X340828654Y-88354819D01*
X340828654Y-88354819D02*
X340495321Y-88735771D01*
X340495321Y-88735771D02*
X340638178Y-88735771D01*
X340638178Y-88735771D02*
X340733416Y-88783390D01*
X340733416Y-88783390D02*
X340781035Y-88831009D01*
X340781035Y-88831009D02*
X340828654Y-88926247D01*
X340828654Y-88926247D02*
X340828654Y-89164342D01*
X340828654Y-89164342D02*
X340781035Y-89259580D01*
X340781035Y-89259580D02*
X340733416Y-89307200D01*
X340733416Y-89307200D02*
X340638178Y-89354819D01*
X340638178Y-89354819D02*
X340352464Y-89354819D01*
X340352464Y-89354819D02*
X340257226Y-89307200D01*
X340257226Y-89307200D02*
X340209607Y-89259580D01*
X341114369Y-88354819D02*
X341447702Y-89354819D01*
X341447702Y-89354819D02*
X341781035Y-88354819D01*
X342638178Y-89354819D02*
X342066750Y-89354819D01*
X342352464Y-89354819D02*
X342352464Y-88354819D01*
X342352464Y-88354819D02*
X342257226Y-88497676D01*
X342257226Y-88497676D02*
X342161988Y-88592914D01*
X342161988Y-88592914D02*
X342066750Y-88640533D01*
X339828654Y-37554819D02*
X339828654Y-38269104D01*
X339828654Y-38269104D02*
X339781035Y-38411961D01*
X339781035Y-38411961D02*
X339685797Y-38507200D01*
X339685797Y-38507200D02*
X339542940Y-38554819D01*
X339542940Y-38554819D02*
X339447702Y-38554819D01*
X340781035Y-37554819D02*
X340304845Y-37554819D01*
X340304845Y-37554819D02*
X340257226Y-38031009D01*
X340257226Y-38031009D02*
X340304845Y-37983390D01*
X340304845Y-37983390D02*
X340400083Y-37935771D01*
X340400083Y-37935771D02*
X340638178Y-37935771D01*
X340638178Y-37935771D02*
X340733416Y-37983390D01*
X340733416Y-37983390D02*
X340781035Y-38031009D01*
X340781035Y-38031009D02*
X340828654Y-38126247D01*
X340828654Y-38126247D02*
X340828654Y-38364342D01*
X340828654Y-38364342D02*
X340781035Y-38459580D01*
X340781035Y-38459580D02*
X340733416Y-38507200D01*
X340733416Y-38507200D02*
X340638178Y-38554819D01*
X340638178Y-38554819D02*
X340400083Y-38554819D01*
X340400083Y-38554819D02*
X340304845Y-38507200D01*
X340304845Y-38507200D02*
X340257226Y-38459580D01*
X341114369Y-37554819D02*
X341447702Y-38554819D01*
X341447702Y-38554819D02*
X341781035Y-37554819D01*
X342066750Y-37650057D02*
X342114369Y-37602438D01*
X342114369Y-37602438D02*
X342209607Y-37554819D01*
X342209607Y-37554819D02*
X342447702Y-37554819D01*
X342447702Y-37554819D02*
X342542940Y-37602438D01*
X342542940Y-37602438D02*
X342590559Y-37650057D01*
X342590559Y-37650057D02*
X342638178Y-37745295D01*
X342638178Y-37745295D02*
X342638178Y-37840533D01*
X342638178Y-37840533D02*
X342590559Y-37983390D01*
X342590559Y-37983390D02*
X342019131Y-38554819D01*
X342019131Y-38554819D02*
X342638178Y-38554819D01*
X346284779Y-63910695D02*
X346284779Y-62910695D01*
X346284779Y-62910695D02*
X346665731Y-62910695D01*
X346665731Y-62910695D02*
X346760969Y-62958314D01*
X346760969Y-62958314D02*
X346808588Y-63005933D01*
X346808588Y-63005933D02*
X346856207Y-63101171D01*
X346856207Y-63101171D02*
X346856207Y-63244028D01*
X346856207Y-63244028D02*
X346808588Y-63339266D01*
X346808588Y-63339266D02*
X346760969Y-63386885D01*
X346760969Y-63386885D02*
X346665731Y-63434504D01*
X346665731Y-63434504D02*
X346284779Y-63434504D01*
X347475255Y-62910695D02*
X347570493Y-62910695D01*
X347570493Y-62910695D02*
X347665731Y-62958314D01*
X347665731Y-62958314D02*
X347713350Y-63005933D01*
X347713350Y-63005933D02*
X347760969Y-63101171D01*
X347760969Y-63101171D02*
X347808588Y-63291647D01*
X347808588Y-63291647D02*
X347808588Y-63529742D01*
X347808588Y-63529742D02*
X347760969Y-63720218D01*
X347760969Y-63720218D02*
X347713350Y-63815456D01*
X347713350Y-63815456D02*
X347665731Y-63863076D01*
X347665731Y-63863076D02*
X347570493Y-63910695D01*
X347570493Y-63910695D02*
X347475255Y-63910695D01*
X347475255Y-63910695D02*
X347380017Y-63863076D01*
X347380017Y-63863076D02*
X347332398Y-63815456D01*
X347332398Y-63815456D02*
X347284779Y-63720218D01*
X347284779Y-63720218D02*
X347237160Y-63529742D01*
X347237160Y-63529742D02*
X347237160Y-63291647D01*
X347237160Y-63291647D02*
X347284779Y-63101171D01*
X347284779Y-63101171D02*
X347332398Y-63005933D01*
X347332398Y-63005933D02*
X347380017Y-62958314D01*
X347380017Y-62958314D02*
X347475255Y-62910695D01*
X348380017Y-63339266D02*
X348284779Y-63291647D01*
X348284779Y-63291647D02*
X348237160Y-63244028D01*
X348237160Y-63244028D02*
X348189541Y-63148790D01*
X348189541Y-63148790D02*
X348189541Y-63101171D01*
X348189541Y-63101171D02*
X348237160Y-63005933D01*
X348237160Y-63005933D02*
X348284779Y-62958314D01*
X348284779Y-62958314D02*
X348380017Y-62910695D01*
X348380017Y-62910695D02*
X348570493Y-62910695D01*
X348570493Y-62910695D02*
X348665731Y-62958314D01*
X348665731Y-62958314D02*
X348713350Y-63005933D01*
X348713350Y-63005933D02*
X348760969Y-63101171D01*
X348760969Y-63101171D02*
X348760969Y-63148790D01*
X348760969Y-63148790D02*
X348713350Y-63244028D01*
X348713350Y-63244028D02*
X348665731Y-63291647D01*
X348665731Y-63291647D02*
X348570493Y-63339266D01*
X348570493Y-63339266D02*
X348380017Y-63339266D01*
X348380017Y-63339266D02*
X348284779Y-63386885D01*
X348284779Y-63386885D02*
X348237160Y-63434504D01*
X348237160Y-63434504D02*
X348189541Y-63529742D01*
X348189541Y-63529742D02*
X348189541Y-63720218D01*
X348189541Y-63720218D02*
X348237160Y-63815456D01*
X348237160Y-63815456D02*
X348284779Y-63863076D01*
X348284779Y-63863076D02*
X348380017Y-63910695D01*
X348380017Y-63910695D02*
X348570493Y-63910695D01*
X348570493Y-63910695D02*
X348665731Y-63863076D01*
X348665731Y-63863076D02*
X348713350Y-63815456D01*
X348713350Y-63815456D02*
X348760969Y-63720218D01*
X348760969Y-63720218D02*
X348760969Y-63529742D01*
X348760969Y-63529742D02*
X348713350Y-63434504D01*
X348713350Y-63434504D02*
X348665731Y-63386885D01*
X348665731Y-63386885D02*
X348570493Y-63339266D01*
X346284779Y-68990695D02*
X346284779Y-67990695D01*
X346284779Y-67990695D02*
X346665731Y-67990695D01*
X346665731Y-67990695D02*
X346760969Y-68038314D01*
X346760969Y-68038314D02*
X346808588Y-68085933D01*
X346808588Y-68085933D02*
X346856207Y-68181171D01*
X346856207Y-68181171D02*
X346856207Y-68324028D01*
X346856207Y-68324028D02*
X346808588Y-68419266D01*
X346808588Y-68419266D02*
X346760969Y-68466885D01*
X346760969Y-68466885D02*
X346665731Y-68514504D01*
X346665731Y-68514504D02*
X346284779Y-68514504D01*
X347808588Y-68990695D02*
X347237160Y-68990695D01*
X347522874Y-68990695D02*
X347522874Y-67990695D01*
X347522874Y-67990695D02*
X347427636Y-68133552D01*
X347427636Y-68133552D02*
X347332398Y-68228790D01*
X347332398Y-68228790D02*
X347237160Y-68276409D01*
X348141922Y-67990695D02*
X348808588Y-67990695D01*
X348808588Y-67990695D02*
X348380017Y-68990695D01*
X329743630Y-90898314D02*
X329648392Y-90850695D01*
X329648392Y-90850695D02*
X329505535Y-90850695D01*
X329505535Y-90850695D02*
X329362678Y-90898314D01*
X329362678Y-90898314D02*
X329267440Y-90993552D01*
X329267440Y-90993552D02*
X329219821Y-91088790D01*
X329219821Y-91088790D02*
X329172202Y-91279266D01*
X329172202Y-91279266D02*
X329172202Y-91422123D01*
X329172202Y-91422123D02*
X329219821Y-91612599D01*
X329219821Y-91612599D02*
X329267440Y-91707837D01*
X329267440Y-91707837D02*
X329362678Y-91803076D01*
X329362678Y-91803076D02*
X329505535Y-91850695D01*
X329505535Y-91850695D02*
X329600773Y-91850695D01*
X329600773Y-91850695D02*
X329743630Y-91803076D01*
X329743630Y-91803076D02*
X329791249Y-91755456D01*
X329791249Y-91755456D02*
X329791249Y-91422123D01*
X329791249Y-91422123D02*
X329600773Y-91422123D01*
X330219821Y-91850695D02*
X330219821Y-90850695D01*
X330219821Y-90850695D02*
X330791249Y-91850695D01*
X330791249Y-91850695D02*
X330791249Y-90850695D01*
X331267440Y-91850695D02*
X331267440Y-90850695D01*
X331267440Y-90850695D02*
X331505535Y-90850695D01*
X331505535Y-90850695D02*
X331648392Y-90898314D01*
X331648392Y-90898314D02*
X331743630Y-90993552D01*
X331743630Y-90993552D02*
X331791249Y-91088790D01*
X331791249Y-91088790D02*
X331838868Y-91279266D01*
X331838868Y-91279266D02*
X331838868Y-91422123D01*
X331838868Y-91422123D02*
X331791249Y-91612599D01*
X331791249Y-91612599D02*
X331743630Y-91707837D01*
X331743630Y-91707837D02*
X331648392Y-91803076D01*
X331648392Y-91803076D02*
X331505535Y-91850695D01*
X331505535Y-91850695D02*
X331267440Y-91850695D01*
X328831649Y-71526899D02*
X328831649Y-70526899D01*
X328831649Y-70526899D02*
X329212601Y-70526899D01*
X329212601Y-70526899D02*
X329307839Y-70574518D01*
X329307839Y-70574518D02*
X329355458Y-70622137D01*
X329355458Y-70622137D02*
X329403077Y-70717375D01*
X329403077Y-70717375D02*
X329403077Y-70860232D01*
X329403077Y-70860232D02*
X329355458Y-70955470D01*
X329355458Y-70955470D02*
X329307839Y-71003089D01*
X329307839Y-71003089D02*
X329212601Y-71050708D01*
X329212601Y-71050708D02*
X328831649Y-71050708D01*
X329736411Y-70526899D02*
X330355458Y-70526899D01*
X330355458Y-70526899D02*
X330022125Y-70907851D01*
X330022125Y-70907851D02*
X330164982Y-70907851D01*
X330164982Y-70907851D02*
X330260220Y-70955470D01*
X330260220Y-70955470D02*
X330307839Y-71003089D01*
X330307839Y-71003089D02*
X330355458Y-71098327D01*
X330355458Y-71098327D02*
X330355458Y-71336422D01*
X330355458Y-71336422D02*
X330307839Y-71431660D01*
X330307839Y-71431660D02*
X330260220Y-71479280D01*
X330260220Y-71479280D02*
X330164982Y-71526899D01*
X330164982Y-71526899D02*
X329879268Y-71526899D01*
X329879268Y-71526899D02*
X329784030Y-71479280D01*
X329784030Y-71479280D02*
X329736411Y-71431660D01*
X330831649Y-71526899D02*
X331022125Y-71526899D01*
X331022125Y-71526899D02*
X331117363Y-71479280D01*
X331117363Y-71479280D02*
X331164982Y-71431660D01*
X331164982Y-71431660D02*
X331260220Y-71288803D01*
X331260220Y-71288803D02*
X331307839Y-71098327D01*
X331307839Y-71098327D02*
X331307839Y-70717375D01*
X331307839Y-70717375D02*
X331260220Y-70622137D01*
X331260220Y-70622137D02*
X331212601Y-70574518D01*
X331212601Y-70574518D02*
X331117363Y-70526899D01*
X331117363Y-70526899D02*
X330926887Y-70526899D01*
X330926887Y-70526899D02*
X330831649Y-70574518D01*
X330831649Y-70574518D02*
X330784030Y-70622137D01*
X330784030Y-70622137D02*
X330736411Y-70717375D01*
X330736411Y-70717375D02*
X330736411Y-70955470D01*
X330736411Y-70955470D02*
X330784030Y-71050708D01*
X330784030Y-71050708D02*
X330831649Y-71098327D01*
X330831649Y-71098327D02*
X330926887Y-71145946D01*
X330926887Y-71145946D02*
X331117363Y-71145946D01*
X331117363Y-71145946D02*
X331212601Y-71098327D01*
X331212601Y-71098327D02*
X331260220Y-71050708D01*
X331260220Y-71050708D02*
X331307839Y-70955470D01*
X328831649Y-68986899D02*
X328831649Y-67986899D01*
X328831649Y-67986899D02*
X329212601Y-67986899D01*
X329212601Y-67986899D02*
X329307839Y-68034518D01*
X329307839Y-68034518D02*
X329355458Y-68082137D01*
X329355458Y-68082137D02*
X329403077Y-68177375D01*
X329403077Y-68177375D02*
X329403077Y-68320232D01*
X329403077Y-68320232D02*
X329355458Y-68415470D01*
X329355458Y-68415470D02*
X329307839Y-68463089D01*
X329307839Y-68463089D02*
X329212601Y-68510708D01*
X329212601Y-68510708D02*
X328831649Y-68510708D01*
X329736411Y-67986899D02*
X330355458Y-67986899D01*
X330355458Y-67986899D02*
X330022125Y-68367851D01*
X330022125Y-68367851D02*
X330164982Y-68367851D01*
X330164982Y-68367851D02*
X330260220Y-68415470D01*
X330260220Y-68415470D02*
X330307839Y-68463089D01*
X330307839Y-68463089D02*
X330355458Y-68558327D01*
X330355458Y-68558327D02*
X330355458Y-68796422D01*
X330355458Y-68796422D02*
X330307839Y-68891660D01*
X330307839Y-68891660D02*
X330260220Y-68939280D01*
X330260220Y-68939280D02*
X330164982Y-68986899D01*
X330164982Y-68986899D02*
X329879268Y-68986899D01*
X329879268Y-68986899D02*
X329784030Y-68939280D01*
X329784030Y-68939280D02*
X329736411Y-68891660D01*
X330926887Y-68415470D02*
X330831649Y-68367851D01*
X330831649Y-68367851D02*
X330784030Y-68320232D01*
X330784030Y-68320232D02*
X330736411Y-68224994D01*
X330736411Y-68224994D02*
X330736411Y-68177375D01*
X330736411Y-68177375D02*
X330784030Y-68082137D01*
X330784030Y-68082137D02*
X330831649Y-68034518D01*
X330831649Y-68034518D02*
X330926887Y-67986899D01*
X330926887Y-67986899D02*
X331117363Y-67986899D01*
X331117363Y-67986899D02*
X331212601Y-68034518D01*
X331212601Y-68034518D02*
X331260220Y-68082137D01*
X331260220Y-68082137D02*
X331307839Y-68177375D01*
X331307839Y-68177375D02*
X331307839Y-68224994D01*
X331307839Y-68224994D02*
X331260220Y-68320232D01*
X331260220Y-68320232D02*
X331212601Y-68367851D01*
X331212601Y-68367851D02*
X331117363Y-68415470D01*
X331117363Y-68415470D02*
X330926887Y-68415470D01*
X330926887Y-68415470D02*
X330831649Y-68463089D01*
X330831649Y-68463089D02*
X330784030Y-68510708D01*
X330784030Y-68510708D02*
X330736411Y-68605946D01*
X330736411Y-68605946D02*
X330736411Y-68796422D01*
X330736411Y-68796422D02*
X330784030Y-68891660D01*
X330784030Y-68891660D02*
X330831649Y-68939280D01*
X330831649Y-68939280D02*
X330926887Y-68986899D01*
X330926887Y-68986899D02*
X331117363Y-68986899D01*
X331117363Y-68986899D02*
X331212601Y-68939280D01*
X331212601Y-68939280D02*
X331260220Y-68891660D01*
X331260220Y-68891660D02*
X331307839Y-68796422D01*
X331307839Y-68796422D02*
X331307839Y-68605946D01*
X331307839Y-68605946D02*
X331260220Y-68510708D01*
X331260220Y-68510708D02*
X331212601Y-68463089D01*
X331212601Y-68463089D02*
X331117363Y-68415470D01*
X328831649Y-63906899D02*
X328831649Y-62906899D01*
X328831649Y-62906899D02*
X329212601Y-62906899D01*
X329212601Y-62906899D02*
X329307839Y-62954518D01*
X329307839Y-62954518D02*
X329355458Y-63002137D01*
X329355458Y-63002137D02*
X329403077Y-63097375D01*
X329403077Y-63097375D02*
X329403077Y-63240232D01*
X329403077Y-63240232D02*
X329355458Y-63335470D01*
X329355458Y-63335470D02*
X329307839Y-63383089D01*
X329307839Y-63383089D02*
X329212601Y-63430708D01*
X329212601Y-63430708D02*
X328831649Y-63430708D01*
X329736411Y-62906899D02*
X330355458Y-62906899D01*
X330355458Y-62906899D02*
X330022125Y-63287851D01*
X330022125Y-63287851D02*
X330164982Y-63287851D01*
X330164982Y-63287851D02*
X330260220Y-63335470D01*
X330260220Y-63335470D02*
X330307839Y-63383089D01*
X330307839Y-63383089D02*
X330355458Y-63478327D01*
X330355458Y-63478327D02*
X330355458Y-63716422D01*
X330355458Y-63716422D02*
X330307839Y-63811660D01*
X330307839Y-63811660D02*
X330260220Y-63859280D01*
X330260220Y-63859280D02*
X330164982Y-63906899D01*
X330164982Y-63906899D02*
X329879268Y-63906899D01*
X329879268Y-63906899D02*
X329784030Y-63859280D01*
X329784030Y-63859280D02*
X329736411Y-63811660D01*
X331212601Y-62906899D02*
X331022125Y-62906899D01*
X331022125Y-62906899D02*
X330926887Y-62954518D01*
X330926887Y-62954518D02*
X330879268Y-63002137D01*
X330879268Y-63002137D02*
X330784030Y-63144994D01*
X330784030Y-63144994D02*
X330736411Y-63335470D01*
X330736411Y-63335470D02*
X330736411Y-63716422D01*
X330736411Y-63716422D02*
X330784030Y-63811660D01*
X330784030Y-63811660D02*
X330831649Y-63859280D01*
X330831649Y-63859280D02*
X330926887Y-63906899D01*
X330926887Y-63906899D02*
X331117363Y-63906899D01*
X331117363Y-63906899D02*
X331212601Y-63859280D01*
X331212601Y-63859280D02*
X331260220Y-63811660D01*
X331260220Y-63811660D02*
X331307839Y-63716422D01*
X331307839Y-63716422D02*
X331307839Y-63478327D01*
X331307839Y-63478327D02*
X331260220Y-63383089D01*
X331260220Y-63383089D02*
X331212601Y-63335470D01*
X331212601Y-63335470D02*
X331117363Y-63287851D01*
X331117363Y-63287851D02*
X330926887Y-63287851D01*
X330926887Y-63287851D02*
X330831649Y-63335470D01*
X330831649Y-63335470D02*
X330784030Y-63383089D01*
X330784030Y-63383089D02*
X330736411Y-63478327D01*
X346284779Y-46130695D02*
X346284779Y-45130695D01*
X346284779Y-45130695D02*
X346665731Y-45130695D01*
X346665731Y-45130695D02*
X346760969Y-45178314D01*
X346760969Y-45178314D02*
X346808588Y-45225933D01*
X346808588Y-45225933D02*
X346856207Y-45321171D01*
X346856207Y-45321171D02*
X346856207Y-45464028D01*
X346856207Y-45464028D02*
X346808588Y-45559266D01*
X346808588Y-45559266D02*
X346760969Y-45606885D01*
X346760969Y-45606885D02*
X346665731Y-45654504D01*
X346665731Y-45654504D02*
X346284779Y-45654504D01*
X347808588Y-46130695D02*
X347237160Y-46130695D01*
X347522874Y-46130695D02*
X347522874Y-45130695D01*
X347522874Y-45130695D02*
X347427636Y-45273552D01*
X347427636Y-45273552D02*
X347332398Y-45368790D01*
X347332398Y-45368790D02*
X347237160Y-45416409D01*
X348141922Y-45130695D02*
X348760969Y-45130695D01*
X348760969Y-45130695D02*
X348427636Y-45511647D01*
X348427636Y-45511647D02*
X348570493Y-45511647D01*
X348570493Y-45511647D02*
X348665731Y-45559266D01*
X348665731Y-45559266D02*
X348713350Y-45606885D01*
X348713350Y-45606885D02*
X348760969Y-45702123D01*
X348760969Y-45702123D02*
X348760969Y-45940218D01*
X348760969Y-45940218D02*
X348713350Y-46035456D01*
X348713350Y-46035456D02*
X348665731Y-46083076D01*
X348665731Y-46083076D02*
X348570493Y-46130695D01*
X348570493Y-46130695D02*
X348284779Y-46130695D01*
X348284779Y-46130695D02*
X348189541Y-46083076D01*
X348189541Y-46083076D02*
X348141922Y-46035456D01*
X347798497Y-40053415D02*
X347322307Y-40053415D01*
X347322307Y-40053415D02*
X347274688Y-40529605D01*
X347274688Y-40529605D02*
X347322307Y-40481986D01*
X347322307Y-40481986D02*
X347417545Y-40434367D01*
X347417545Y-40434367D02*
X347655640Y-40434367D01*
X347655640Y-40434367D02*
X347750878Y-40481986D01*
X347750878Y-40481986D02*
X347798497Y-40529605D01*
X347798497Y-40529605D02*
X347846116Y-40624843D01*
X347846116Y-40624843D02*
X347846116Y-40862938D01*
X347846116Y-40862938D02*
X347798497Y-40958176D01*
X347798497Y-40958176D02*
X347750878Y-41005796D01*
X347750878Y-41005796D02*
X347655640Y-41053415D01*
X347655640Y-41053415D02*
X347417545Y-41053415D01*
X347417545Y-41053415D02*
X347322307Y-41005796D01*
X347322307Y-41005796D02*
X347274688Y-40958176D01*
X348131831Y-40053415D02*
X348465164Y-41053415D01*
X348465164Y-41053415D02*
X348798497Y-40053415D01*
X328831649Y-79146899D02*
X328831649Y-78146899D01*
X328831649Y-78146899D02*
X329212601Y-78146899D01*
X329212601Y-78146899D02*
X329307839Y-78194518D01*
X329307839Y-78194518D02*
X329355458Y-78242137D01*
X329355458Y-78242137D02*
X329403077Y-78337375D01*
X329403077Y-78337375D02*
X329403077Y-78480232D01*
X329403077Y-78480232D02*
X329355458Y-78575470D01*
X329355458Y-78575470D02*
X329307839Y-78623089D01*
X329307839Y-78623089D02*
X329212601Y-78670708D01*
X329212601Y-78670708D02*
X328831649Y-78670708D01*
X330260220Y-78480232D02*
X330260220Y-79146899D01*
X330022125Y-78099280D02*
X329784030Y-78813565D01*
X329784030Y-78813565D02*
X330403077Y-78813565D01*
X330736411Y-78242137D02*
X330784030Y-78194518D01*
X330784030Y-78194518D02*
X330879268Y-78146899D01*
X330879268Y-78146899D02*
X331117363Y-78146899D01*
X331117363Y-78146899D02*
X331212601Y-78194518D01*
X331212601Y-78194518D02*
X331260220Y-78242137D01*
X331260220Y-78242137D02*
X331307839Y-78337375D01*
X331307839Y-78337375D02*
X331307839Y-78432613D01*
X331307839Y-78432613D02*
X331260220Y-78575470D01*
X331260220Y-78575470D02*
X330688792Y-79146899D01*
X330688792Y-79146899D02*
X331307839Y-79146899D01*
X328831649Y-81686899D02*
X328831649Y-80686899D01*
X328831649Y-80686899D02*
X329212601Y-80686899D01*
X329212601Y-80686899D02*
X329307839Y-80734518D01*
X329307839Y-80734518D02*
X329355458Y-80782137D01*
X329355458Y-80782137D02*
X329403077Y-80877375D01*
X329403077Y-80877375D02*
X329403077Y-81020232D01*
X329403077Y-81020232D02*
X329355458Y-81115470D01*
X329355458Y-81115470D02*
X329307839Y-81163089D01*
X329307839Y-81163089D02*
X329212601Y-81210708D01*
X329212601Y-81210708D02*
X328831649Y-81210708D01*
X330022125Y-80686899D02*
X330117363Y-80686899D01*
X330117363Y-80686899D02*
X330212601Y-80734518D01*
X330212601Y-80734518D02*
X330260220Y-80782137D01*
X330260220Y-80782137D02*
X330307839Y-80877375D01*
X330307839Y-80877375D02*
X330355458Y-81067851D01*
X330355458Y-81067851D02*
X330355458Y-81305946D01*
X330355458Y-81305946D02*
X330307839Y-81496422D01*
X330307839Y-81496422D02*
X330260220Y-81591660D01*
X330260220Y-81591660D02*
X330212601Y-81639280D01*
X330212601Y-81639280D02*
X330117363Y-81686899D01*
X330117363Y-81686899D02*
X330022125Y-81686899D01*
X330022125Y-81686899D02*
X329926887Y-81639280D01*
X329926887Y-81639280D02*
X329879268Y-81591660D01*
X329879268Y-81591660D02*
X329831649Y-81496422D01*
X329831649Y-81496422D02*
X329784030Y-81305946D01*
X329784030Y-81305946D02*
X329784030Y-81067851D01*
X329784030Y-81067851D02*
X329831649Y-80877375D01*
X329831649Y-80877375D02*
X329879268Y-80782137D01*
X329879268Y-80782137D02*
X329926887Y-80734518D01*
X329926887Y-80734518D02*
X330022125Y-80686899D01*
X330736411Y-80782137D02*
X330784030Y-80734518D01*
X330784030Y-80734518D02*
X330879268Y-80686899D01*
X330879268Y-80686899D02*
X331117363Y-80686899D01*
X331117363Y-80686899D02*
X331212601Y-80734518D01*
X331212601Y-80734518D02*
X331260220Y-80782137D01*
X331260220Y-80782137D02*
X331307839Y-80877375D01*
X331307839Y-80877375D02*
X331307839Y-80972613D01*
X331307839Y-80972613D02*
X331260220Y-81115470D01*
X331260220Y-81115470D02*
X330688792Y-81686899D01*
X330688792Y-81686899D02*
X331307839Y-81686899D01*
X328831649Y-53746899D02*
X328831649Y-52746899D01*
X328831649Y-52746899D02*
X329212601Y-52746899D01*
X329212601Y-52746899D02*
X329307839Y-52794518D01*
X329307839Y-52794518D02*
X329355458Y-52842137D01*
X329355458Y-52842137D02*
X329403077Y-52937375D01*
X329403077Y-52937375D02*
X329403077Y-53080232D01*
X329403077Y-53080232D02*
X329355458Y-53175470D01*
X329355458Y-53175470D02*
X329307839Y-53223089D01*
X329307839Y-53223089D02*
X329212601Y-53270708D01*
X329212601Y-53270708D02*
X328831649Y-53270708D01*
X330260220Y-53080232D02*
X330260220Y-53746899D01*
X330022125Y-52699280D02*
X329784030Y-53413565D01*
X329784030Y-53413565D02*
X330403077Y-53413565D01*
X330926887Y-53175470D02*
X330831649Y-53127851D01*
X330831649Y-53127851D02*
X330784030Y-53080232D01*
X330784030Y-53080232D02*
X330736411Y-52984994D01*
X330736411Y-52984994D02*
X330736411Y-52937375D01*
X330736411Y-52937375D02*
X330784030Y-52842137D01*
X330784030Y-52842137D02*
X330831649Y-52794518D01*
X330831649Y-52794518D02*
X330926887Y-52746899D01*
X330926887Y-52746899D02*
X331117363Y-52746899D01*
X331117363Y-52746899D02*
X331212601Y-52794518D01*
X331212601Y-52794518D02*
X331260220Y-52842137D01*
X331260220Y-52842137D02*
X331307839Y-52937375D01*
X331307839Y-52937375D02*
X331307839Y-52984994D01*
X331307839Y-52984994D02*
X331260220Y-53080232D01*
X331260220Y-53080232D02*
X331212601Y-53127851D01*
X331212601Y-53127851D02*
X331117363Y-53175470D01*
X331117363Y-53175470D02*
X330926887Y-53175470D01*
X330926887Y-53175470D02*
X330831649Y-53223089D01*
X330831649Y-53223089D02*
X330784030Y-53270708D01*
X330784030Y-53270708D02*
X330736411Y-53365946D01*
X330736411Y-53365946D02*
X330736411Y-53556422D01*
X330736411Y-53556422D02*
X330784030Y-53651660D01*
X330784030Y-53651660D02*
X330831649Y-53699280D01*
X330831649Y-53699280D02*
X330926887Y-53746899D01*
X330926887Y-53746899D02*
X331117363Y-53746899D01*
X331117363Y-53746899D02*
X331212601Y-53699280D01*
X331212601Y-53699280D02*
X331260220Y-53651660D01*
X331260220Y-53651660D02*
X331307839Y-53556422D01*
X331307839Y-53556422D02*
X331307839Y-53365946D01*
X331307839Y-53365946D02*
X331260220Y-53270708D01*
X331260220Y-53270708D02*
X331212601Y-53223089D01*
X331212601Y-53223089D02*
X331117363Y-53175470D01*
X328831649Y-89354819D02*
X328831649Y-88354819D01*
X328831649Y-88354819D02*
X329212601Y-88354819D01*
X329212601Y-88354819D02*
X329307839Y-88402438D01*
X329307839Y-88402438D02*
X329355458Y-88450057D01*
X329355458Y-88450057D02*
X329403077Y-88545295D01*
X329403077Y-88545295D02*
X329403077Y-88688152D01*
X329403077Y-88688152D02*
X329355458Y-88783390D01*
X329355458Y-88783390D02*
X329307839Y-88831009D01*
X329307839Y-88831009D02*
X329212601Y-88878628D01*
X329212601Y-88878628D02*
X328831649Y-88878628D01*
X330260220Y-88688152D02*
X330260220Y-89354819D01*
X330022125Y-88307200D02*
X329784030Y-89021485D01*
X329784030Y-89021485D02*
X330403077Y-89021485D01*
X330688792Y-88354819D02*
X331307839Y-88354819D01*
X331307839Y-88354819D02*
X330974506Y-88735771D01*
X330974506Y-88735771D02*
X331117363Y-88735771D01*
X331117363Y-88735771D02*
X331212601Y-88783390D01*
X331212601Y-88783390D02*
X331260220Y-88831009D01*
X331260220Y-88831009D02*
X331307839Y-88926247D01*
X331307839Y-88926247D02*
X331307839Y-89164342D01*
X331307839Y-89164342D02*
X331260220Y-89259580D01*
X331260220Y-89259580D02*
X331212601Y-89307200D01*
X331212601Y-89307200D02*
X331117363Y-89354819D01*
X331117363Y-89354819D02*
X330831649Y-89354819D01*
X330831649Y-89354819D02*
X330736411Y-89307200D01*
X330736411Y-89307200D02*
X330688792Y-89259580D01*
X346284779Y-84274819D02*
X346284779Y-83274819D01*
X346284779Y-83274819D02*
X346665731Y-83274819D01*
X346665731Y-83274819D02*
X346760969Y-83322438D01*
X346760969Y-83322438D02*
X346808588Y-83370057D01*
X346808588Y-83370057D02*
X346856207Y-83465295D01*
X346856207Y-83465295D02*
X346856207Y-83608152D01*
X346856207Y-83608152D02*
X346808588Y-83703390D01*
X346808588Y-83703390D02*
X346760969Y-83751009D01*
X346760969Y-83751009D02*
X346665731Y-83798628D01*
X346665731Y-83798628D02*
X346284779Y-83798628D01*
X347475255Y-83274819D02*
X347570493Y-83274819D01*
X347570493Y-83274819D02*
X347665731Y-83322438D01*
X347665731Y-83322438D02*
X347713350Y-83370057D01*
X347713350Y-83370057D02*
X347760969Y-83465295D01*
X347760969Y-83465295D02*
X347808588Y-83655771D01*
X347808588Y-83655771D02*
X347808588Y-83893866D01*
X347808588Y-83893866D02*
X347760969Y-84084342D01*
X347760969Y-84084342D02*
X347713350Y-84179580D01*
X347713350Y-84179580D02*
X347665731Y-84227200D01*
X347665731Y-84227200D02*
X347570493Y-84274819D01*
X347570493Y-84274819D02*
X347475255Y-84274819D01*
X347475255Y-84274819D02*
X347380017Y-84227200D01*
X347380017Y-84227200D02*
X347332398Y-84179580D01*
X347332398Y-84179580D02*
X347284779Y-84084342D01*
X347284779Y-84084342D02*
X347237160Y-83893866D01*
X347237160Y-83893866D02*
X347237160Y-83655771D01*
X347237160Y-83655771D02*
X347284779Y-83465295D01*
X347284779Y-83465295D02*
X347332398Y-83370057D01*
X347332398Y-83370057D02*
X347380017Y-83322438D01*
X347380017Y-83322438D02*
X347475255Y-83274819D01*
X348665731Y-83608152D02*
X348665731Y-84274819D01*
X348427636Y-83227200D02*
X348189541Y-83941485D01*
X348189541Y-83941485D02*
X348808588Y-83941485D01*
X346284779Y-53750695D02*
X346284779Y-52750695D01*
X346284779Y-52750695D02*
X346665731Y-52750695D01*
X346665731Y-52750695D02*
X346760969Y-52798314D01*
X346760969Y-52798314D02*
X346808588Y-52845933D01*
X346808588Y-52845933D02*
X346856207Y-52941171D01*
X346856207Y-52941171D02*
X346856207Y-53084028D01*
X346856207Y-53084028D02*
X346808588Y-53179266D01*
X346808588Y-53179266D02*
X346760969Y-53226885D01*
X346760969Y-53226885D02*
X346665731Y-53274504D01*
X346665731Y-53274504D02*
X346284779Y-53274504D01*
X347808588Y-53750695D02*
X347237160Y-53750695D01*
X347522874Y-53750695D02*
X347522874Y-52750695D01*
X347522874Y-52750695D02*
X347427636Y-52893552D01*
X347427636Y-52893552D02*
X347332398Y-52988790D01*
X347332398Y-52988790D02*
X347237160Y-53036409D01*
X348427636Y-52750695D02*
X348522874Y-52750695D01*
X348522874Y-52750695D02*
X348618112Y-52798314D01*
X348618112Y-52798314D02*
X348665731Y-52845933D01*
X348665731Y-52845933D02*
X348713350Y-52941171D01*
X348713350Y-52941171D02*
X348760969Y-53131647D01*
X348760969Y-53131647D02*
X348760969Y-53369742D01*
X348760969Y-53369742D02*
X348713350Y-53560218D01*
X348713350Y-53560218D02*
X348665731Y-53655456D01*
X348665731Y-53655456D02*
X348618112Y-53703076D01*
X348618112Y-53703076D02*
X348522874Y-53750695D01*
X348522874Y-53750695D02*
X348427636Y-53750695D01*
X348427636Y-53750695D02*
X348332398Y-53703076D01*
X348332398Y-53703076D02*
X348284779Y-53655456D01*
X348284779Y-53655456D02*
X348237160Y-53560218D01*
X348237160Y-53560218D02*
X348189541Y-53369742D01*
X348189541Y-53369742D02*
X348189541Y-53131647D01*
X348189541Y-53131647D02*
X348237160Y-52941171D01*
X348237160Y-52941171D02*
X348284779Y-52845933D01*
X348284779Y-52845933D02*
X348332398Y-52798314D01*
X348332398Y-52798314D02*
X348427636Y-52750695D01*
X346284779Y-48670695D02*
X346284779Y-47670695D01*
X346284779Y-47670695D02*
X346665731Y-47670695D01*
X346665731Y-47670695D02*
X346760969Y-47718314D01*
X346760969Y-47718314D02*
X346808588Y-47765933D01*
X346808588Y-47765933D02*
X346856207Y-47861171D01*
X346856207Y-47861171D02*
X346856207Y-48004028D01*
X346856207Y-48004028D02*
X346808588Y-48099266D01*
X346808588Y-48099266D02*
X346760969Y-48146885D01*
X346760969Y-48146885D02*
X346665731Y-48194504D01*
X346665731Y-48194504D02*
X346284779Y-48194504D01*
X347808588Y-48670695D02*
X347237160Y-48670695D01*
X347522874Y-48670695D02*
X347522874Y-47670695D01*
X347522874Y-47670695D02*
X347427636Y-47813552D01*
X347427636Y-47813552D02*
X347332398Y-47908790D01*
X347332398Y-47908790D02*
X347237160Y-47956409D01*
X348189541Y-47765933D02*
X348237160Y-47718314D01*
X348237160Y-47718314D02*
X348332398Y-47670695D01*
X348332398Y-47670695D02*
X348570493Y-47670695D01*
X348570493Y-47670695D02*
X348665731Y-47718314D01*
X348665731Y-47718314D02*
X348713350Y-47765933D01*
X348713350Y-47765933D02*
X348760969Y-47861171D01*
X348760969Y-47861171D02*
X348760969Y-47956409D01*
X348760969Y-47956409D02*
X348713350Y-48099266D01*
X348713350Y-48099266D02*
X348141922Y-48670695D01*
X348141922Y-48670695D02*
X348760969Y-48670695D01*
X328831649Y-76606899D02*
X328831649Y-75606899D01*
X328831649Y-75606899D02*
X329212601Y-75606899D01*
X329212601Y-75606899D02*
X329307839Y-75654518D01*
X329307839Y-75654518D02*
X329355458Y-75702137D01*
X329355458Y-75702137D02*
X329403077Y-75797375D01*
X329403077Y-75797375D02*
X329403077Y-75940232D01*
X329403077Y-75940232D02*
X329355458Y-76035470D01*
X329355458Y-76035470D02*
X329307839Y-76083089D01*
X329307839Y-76083089D02*
X329212601Y-76130708D01*
X329212601Y-76130708D02*
X328831649Y-76130708D01*
X330260220Y-75940232D02*
X330260220Y-76606899D01*
X330022125Y-75559280D02*
X329784030Y-76273565D01*
X329784030Y-76273565D02*
X330403077Y-76273565D01*
X331307839Y-76606899D02*
X330736411Y-76606899D01*
X331022125Y-76606899D02*
X331022125Y-75606899D01*
X331022125Y-75606899D02*
X330926887Y-75749756D01*
X330926887Y-75749756D02*
X330831649Y-75844994D01*
X330831649Y-75844994D02*
X330736411Y-75892613D01*
X328831649Y-56286899D02*
X328831649Y-55286899D01*
X328831649Y-55286899D02*
X329212601Y-55286899D01*
X329212601Y-55286899D02*
X329307839Y-55334518D01*
X329307839Y-55334518D02*
X329355458Y-55382137D01*
X329355458Y-55382137D02*
X329403077Y-55477375D01*
X329403077Y-55477375D02*
X329403077Y-55620232D01*
X329403077Y-55620232D02*
X329355458Y-55715470D01*
X329355458Y-55715470D02*
X329307839Y-55763089D01*
X329307839Y-55763089D02*
X329212601Y-55810708D01*
X329212601Y-55810708D02*
X328831649Y-55810708D01*
X330260220Y-55620232D02*
X330260220Y-56286899D01*
X330022125Y-55239280D02*
X329784030Y-55953565D01*
X329784030Y-55953565D02*
X330403077Y-55953565D01*
X331260220Y-55286899D02*
X330784030Y-55286899D01*
X330784030Y-55286899D02*
X330736411Y-55763089D01*
X330736411Y-55763089D02*
X330784030Y-55715470D01*
X330784030Y-55715470D02*
X330879268Y-55667851D01*
X330879268Y-55667851D02*
X331117363Y-55667851D01*
X331117363Y-55667851D02*
X331212601Y-55715470D01*
X331212601Y-55715470D02*
X331260220Y-55763089D01*
X331260220Y-55763089D02*
X331307839Y-55858327D01*
X331307839Y-55858327D02*
X331307839Y-56096422D01*
X331307839Y-56096422D02*
X331260220Y-56191660D01*
X331260220Y-56191660D02*
X331212601Y-56239280D01*
X331212601Y-56239280D02*
X331117363Y-56286899D01*
X331117363Y-56286899D02*
X330879268Y-56286899D01*
X330879268Y-56286899D02*
X330784030Y-56239280D01*
X330784030Y-56239280D02*
X330736411Y-56191660D01*
X328831649Y-51206899D02*
X328831649Y-50206899D01*
X328831649Y-50206899D02*
X329212601Y-50206899D01*
X329212601Y-50206899D02*
X329307839Y-50254518D01*
X329307839Y-50254518D02*
X329355458Y-50302137D01*
X329355458Y-50302137D02*
X329403077Y-50397375D01*
X329403077Y-50397375D02*
X329403077Y-50540232D01*
X329403077Y-50540232D02*
X329355458Y-50635470D01*
X329355458Y-50635470D02*
X329307839Y-50683089D01*
X329307839Y-50683089D02*
X329212601Y-50730708D01*
X329212601Y-50730708D02*
X328831649Y-50730708D01*
X330260220Y-50540232D02*
X330260220Y-51206899D01*
X330022125Y-50159280D02*
X329784030Y-50873565D01*
X329784030Y-50873565D02*
X330403077Y-50873565D01*
X330688792Y-50206899D02*
X331355458Y-50206899D01*
X331355458Y-50206899D02*
X330926887Y-51206899D01*
X329743630Y-40094518D02*
X329648392Y-40046899D01*
X329648392Y-40046899D02*
X329505535Y-40046899D01*
X329505535Y-40046899D02*
X329362678Y-40094518D01*
X329362678Y-40094518D02*
X329267440Y-40189756D01*
X329267440Y-40189756D02*
X329219821Y-40284994D01*
X329219821Y-40284994D02*
X329172202Y-40475470D01*
X329172202Y-40475470D02*
X329172202Y-40618327D01*
X329172202Y-40618327D02*
X329219821Y-40808803D01*
X329219821Y-40808803D02*
X329267440Y-40904041D01*
X329267440Y-40904041D02*
X329362678Y-40999280D01*
X329362678Y-40999280D02*
X329505535Y-41046899D01*
X329505535Y-41046899D02*
X329600773Y-41046899D01*
X329600773Y-41046899D02*
X329743630Y-40999280D01*
X329743630Y-40999280D02*
X329791249Y-40951660D01*
X329791249Y-40951660D02*
X329791249Y-40618327D01*
X329791249Y-40618327D02*
X329600773Y-40618327D01*
X330219821Y-41046899D02*
X330219821Y-40046899D01*
X330219821Y-40046899D02*
X330791249Y-41046899D01*
X330791249Y-41046899D02*
X330791249Y-40046899D01*
X331267440Y-41046899D02*
X331267440Y-40046899D01*
X331267440Y-40046899D02*
X331505535Y-40046899D01*
X331505535Y-40046899D02*
X331648392Y-40094518D01*
X331648392Y-40094518D02*
X331743630Y-40189756D01*
X331743630Y-40189756D02*
X331791249Y-40284994D01*
X331791249Y-40284994D02*
X331838868Y-40475470D01*
X331838868Y-40475470D02*
X331838868Y-40618327D01*
X331838868Y-40618327D02*
X331791249Y-40808803D01*
X331791249Y-40808803D02*
X331743630Y-40904041D01*
X331743630Y-40904041D02*
X331648392Y-40999280D01*
X331648392Y-40999280D02*
X331505535Y-41046899D01*
X331505535Y-41046899D02*
X331267440Y-41046899D01*
X328831649Y-66446899D02*
X328831649Y-65446899D01*
X328831649Y-65446899D02*
X329212601Y-65446899D01*
X329212601Y-65446899D02*
X329307839Y-65494518D01*
X329307839Y-65494518D02*
X329355458Y-65542137D01*
X329355458Y-65542137D02*
X329403077Y-65637375D01*
X329403077Y-65637375D02*
X329403077Y-65780232D01*
X329403077Y-65780232D02*
X329355458Y-65875470D01*
X329355458Y-65875470D02*
X329307839Y-65923089D01*
X329307839Y-65923089D02*
X329212601Y-65970708D01*
X329212601Y-65970708D02*
X328831649Y-65970708D01*
X329736411Y-65446899D02*
X330355458Y-65446899D01*
X330355458Y-65446899D02*
X330022125Y-65827851D01*
X330022125Y-65827851D02*
X330164982Y-65827851D01*
X330164982Y-65827851D02*
X330260220Y-65875470D01*
X330260220Y-65875470D02*
X330307839Y-65923089D01*
X330307839Y-65923089D02*
X330355458Y-66018327D01*
X330355458Y-66018327D02*
X330355458Y-66256422D01*
X330355458Y-66256422D02*
X330307839Y-66351660D01*
X330307839Y-66351660D02*
X330260220Y-66399280D01*
X330260220Y-66399280D02*
X330164982Y-66446899D01*
X330164982Y-66446899D02*
X329879268Y-66446899D01*
X329879268Y-66446899D02*
X329784030Y-66399280D01*
X329784030Y-66399280D02*
X329736411Y-66351660D01*
X330688792Y-65446899D02*
X331355458Y-65446899D01*
X331355458Y-65446899D02*
X330926887Y-66446899D01*
X346274688Y-90894819D02*
X346893735Y-90894819D01*
X346893735Y-90894819D02*
X346560402Y-91275771D01*
X346560402Y-91275771D02*
X346703259Y-91275771D01*
X346703259Y-91275771D02*
X346798497Y-91323390D01*
X346798497Y-91323390D02*
X346846116Y-91371009D01*
X346846116Y-91371009D02*
X346893735Y-91466247D01*
X346893735Y-91466247D02*
X346893735Y-91704342D01*
X346893735Y-91704342D02*
X346846116Y-91799580D01*
X346846116Y-91799580D02*
X346798497Y-91847200D01*
X346798497Y-91847200D02*
X346703259Y-91894819D01*
X346703259Y-91894819D02*
X346417545Y-91894819D01*
X346417545Y-91894819D02*
X346322307Y-91847200D01*
X346322307Y-91847200D02*
X346274688Y-91799580D01*
X347179450Y-90894819D02*
X347512783Y-91894819D01*
X347512783Y-91894819D02*
X347846116Y-90894819D01*
X348084212Y-90894819D02*
X348703259Y-90894819D01*
X348703259Y-90894819D02*
X348369926Y-91275771D01*
X348369926Y-91275771D02*
X348512783Y-91275771D01*
X348512783Y-91275771D02*
X348608021Y-91323390D01*
X348608021Y-91323390D02*
X348655640Y-91371009D01*
X348655640Y-91371009D02*
X348703259Y-91466247D01*
X348703259Y-91466247D02*
X348703259Y-91704342D01*
X348703259Y-91704342D02*
X348655640Y-91799580D01*
X348655640Y-91799580D02*
X348608021Y-91847200D01*
X348608021Y-91847200D02*
X348512783Y-91894819D01*
X348512783Y-91894819D02*
X348227069Y-91894819D01*
X348227069Y-91894819D02*
X348131831Y-91847200D01*
X348131831Y-91847200D02*
X348084212Y-91799580D01*
X328831649Y-61414819D02*
X328831649Y-60414819D01*
X328831649Y-60414819D02*
X329212601Y-60414819D01*
X329212601Y-60414819D02*
X329307839Y-60462438D01*
X329307839Y-60462438D02*
X329355458Y-60510057D01*
X329355458Y-60510057D02*
X329403077Y-60605295D01*
X329403077Y-60605295D02*
X329403077Y-60748152D01*
X329403077Y-60748152D02*
X329355458Y-60843390D01*
X329355458Y-60843390D02*
X329307839Y-60891009D01*
X329307839Y-60891009D02*
X329212601Y-60938628D01*
X329212601Y-60938628D02*
X328831649Y-60938628D01*
X329736411Y-60414819D02*
X330355458Y-60414819D01*
X330355458Y-60414819D02*
X330022125Y-60795771D01*
X330022125Y-60795771D02*
X330164982Y-60795771D01*
X330164982Y-60795771D02*
X330260220Y-60843390D01*
X330260220Y-60843390D02*
X330307839Y-60891009D01*
X330307839Y-60891009D02*
X330355458Y-60986247D01*
X330355458Y-60986247D02*
X330355458Y-61224342D01*
X330355458Y-61224342D02*
X330307839Y-61319580D01*
X330307839Y-61319580D02*
X330260220Y-61367200D01*
X330260220Y-61367200D02*
X330164982Y-61414819D01*
X330164982Y-61414819D02*
X329879268Y-61414819D01*
X329879268Y-61414819D02*
X329784030Y-61367200D01*
X329784030Y-61367200D02*
X329736411Y-61319580D01*
X331260220Y-60414819D02*
X330784030Y-60414819D01*
X330784030Y-60414819D02*
X330736411Y-60891009D01*
X330736411Y-60891009D02*
X330784030Y-60843390D01*
X330784030Y-60843390D02*
X330879268Y-60795771D01*
X330879268Y-60795771D02*
X331117363Y-60795771D01*
X331117363Y-60795771D02*
X331212601Y-60843390D01*
X331212601Y-60843390D02*
X331260220Y-60891009D01*
X331260220Y-60891009D02*
X331307839Y-60986247D01*
X331307839Y-60986247D02*
X331307839Y-61224342D01*
X331307839Y-61224342D02*
X331260220Y-61319580D01*
X331260220Y-61319580D02*
X331212601Y-61367200D01*
X331212601Y-61367200D02*
X331117363Y-61414819D01*
X331117363Y-61414819D02*
X330879268Y-61414819D01*
X330879268Y-61414819D02*
X330784030Y-61367200D01*
X330784030Y-61367200D02*
X330736411Y-61319580D01*
X346284779Y-66450695D02*
X346284779Y-65450695D01*
X346284779Y-65450695D02*
X346665731Y-65450695D01*
X346665731Y-65450695D02*
X346760969Y-65498314D01*
X346760969Y-65498314D02*
X346808588Y-65545933D01*
X346808588Y-65545933D02*
X346856207Y-65641171D01*
X346856207Y-65641171D02*
X346856207Y-65784028D01*
X346856207Y-65784028D02*
X346808588Y-65879266D01*
X346808588Y-65879266D02*
X346760969Y-65926885D01*
X346760969Y-65926885D02*
X346665731Y-65974504D01*
X346665731Y-65974504D02*
X346284779Y-65974504D01*
X347808588Y-66450695D02*
X347237160Y-66450695D01*
X347522874Y-66450695D02*
X347522874Y-65450695D01*
X347522874Y-65450695D02*
X347427636Y-65593552D01*
X347427636Y-65593552D02*
X347332398Y-65688790D01*
X347332398Y-65688790D02*
X347237160Y-65736409D01*
X348380017Y-65879266D02*
X348284779Y-65831647D01*
X348284779Y-65831647D02*
X348237160Y-65784028D01*
X348237160Y-65784028D02*
X348189541Y-65688790D01*
X348189541Y-65688790D02*
X348189541Y-65641171D01*
X348189541Y-65641171D02*
X348237160Y-65545933D01*
X348237160Y-65545933D02*
X348284779Y-65498314D01*
X348284779Y-65498314D02*
X348380017Y-65450695D01*
X348380017Y-65450695D02*
X348570493Y-65450695D01*
X348570493Y-65450695D02*
X348665731Y-65498314D01*
X348665731Y-65498314D02*
X348713350Y-65545933D01*
X348713350Y-65545933D02*
X348760969Y-65641171D01*
X348760969Y-65641171D02*
X348760969Y-65688790D01*
X348760969Y-65688790D02*
X348713350Y-65784028D01*
X348713350Y-65784028D02*
X348665731Y-65831647D01*
X348665731Y-65831647D02*
X348570493Y-65879266D01*
X348570493Y-65879266D02*
X348380017Y-65879266D01*
X348380017Y-65879266D02*
X348284779Y-65926885D01*
X348284779Y-65926885D02*
X348237160Y-65974504D01*
X348237160Y-65974504D02*
X348189541Y-66069742D01*
X348189541Y-66069742D02*
X348189541Y-66260218D01*
X348189541Y-66260218D02*
X348237160Y-66355456D01*
X348237160Y-66355456D02*
X348284779Y-66403076D01*
X348284779Y-66403076D02*
X348380017Y-66450695D01*
X348380017Y-66450695D02*
X348570493Y-66450695D01*
X348570493Y-66450695D02*
X348665731Y-66403076D01*
X348665731Y-66403076D02*
X348713350Y-66355456D01*
X348713350Y-66355456D02*
X348760969Y-66260218D01*
X348760969Y-66260218D02*
X348760969Y-66069742D01*
X348760969Y-66069742D02*
X348713350Y-65974504D01*
X348713350Y-65974504D02*
X348665731Y-65926885D01*
X348665731Y-65926885D02*
X348570493Y-65879266D01*
X346284779Y-58830695D02*
X346284779Y-57830695D01*
X346284779Y-57830695D02*
X346665731Y-57830695D01*
X346665731Y-57830695D02*
X346760969Y-57878314D01*
X346760969Y-57878314D02*
X346808588Y-57925933D01*
X346808588Y-57925933D02*
X346856207Y-58021171D01*
X346856207Y-58021171D02*
X346856207Y-58164028D01*
X346856207Y-58164028D02*
X346808588Y-58259266D01*
X346808588Y-58259266D02*
X346760969Y-58306885D01*
X346760969Y-58306885D02*
X346665731Y-58354504D01*
X346665731Y-58354504D02*
X346284779Y-58354504D01*
X347713350Y-58164028D02*
X347713350Y-58830695D01*
X347475255Y-57783076D02*
X347237160Y-58497361D01*
X347237160Y-58497361D02*
X347856207Y-58497361D01*
X348665731Y-57830695D02*
X348475255Y-57830695D01*
X348475255Y-57830695D02*
X348380017Y-57878314D01*
X348380017Y-57878314D02*
X348332398Y-57925933D01*
X348332398Y-57925933D02*
X348237160Y-58068790D01*
X348237160Y-58068790D02*
X348189541Y-58259266D01*
X348189541Y-58259266D02*
X348189541Y-58640218D01*
X348189541Y-58640218D02*
X348237160Y-58735456D01*
X348237160Y-58735456D02*
X348284779Y-58783076D01*
X348284779Y-58783076D02*
X348380017Y-58830695D01*
X348380017Y-58830695D02*
X348570493Y-58830695D01*
X348570493Y-58830695D02*
X348665731Y-58783076D01*
X348665731Y-58783076D02*
X348713350Y-58735456D01*
X348713350Y-58735456D02*
X348760969Y-58640218D01*
X348760969Y-58640218D02*
X348760969Y-58402123D01*
X348760969Y-58402123D02*
X348713350Y-58306885D01*
X348713350Y-58306885D02*
X348665731Y-58259266D01*
X348665731Y-58259266D02*
X348570493Y-58211647D01*
X348570493Y-58211647D02*
X348380017Y-58211647D01*
X348380017Y-58211647D02*
X348284779Y-58259266D01*
X348284779Y-58259266D02*
X348237160Y-58306885D01*
X348237160Y-58306885D02*
X348189541Y-58402123D01*
X328831649Y-74066899D02*
X328831649Y-73066899D01*
X328831649Y-73066899D02*
X329212601Y-73066899D01*
X329212601Y-73066899D02*
X329307839Y-73114518D01*
X329307839Y-73114518D02*
X329355458Y-73162137D01*
X329355458Y-73162137D02*
X329403077Y-73257375D01*
X329403077Y-73257375D02*
X329403077Y-73400232D01*
X329403077Y-73400232D02*
X329355458Y-73495470D01*
X329355458Y-73495470D02*
X329307839Y-73543089D01*
X329307839Y-73543089D02*
X329212601Y-73590708D01*
X329212601Y-73590708D02*
X328831649Y-73590708D01*
X330260220Y-73400232D02*
X330260220Y-74066899D01*
X330022125Y-73019280D02*
X329784030Y-73733565D01*
X329784030Y-73733565D02*
X330403077Y-73733565D01*
X330974506Y-73066899D02*
X331069744Y-73066899D01*
X331069744Y-73066899D02*
X331164982Y-73114518D01*
X331164982Y-73114518D02*
X331212601Y-73162137D01*
X331212601Y-73162137D02*
X331260220Y-73257375D01*
X331260220Y-73257375D02*
X331307839Y-73447851D01*
X331307839Y-73447851D02*
X331307839Y-73685946D01*
X331307839Y-73685946D02*
X331260220Y-73876422D01*
X331260220Y-73876422D02*
X331212601Y-73971660D01*
X331212601Y-73971660D02*
X331164982Y-74019280D01*
X331164982Y-74019280D02*
X331069744Y-74066899D01*
X331069744Y-74066899D02*
X330974506Y-74066899D01*
X330974506Y-74066899D02*
X330879268Y-74019280D01*
X330879268Y-74019280D02*
X330831649Y-73971660D01*
X330831649Y-73971660D02*
X330784030Y-73876422D01*
X330784030Y-73876422D02*
X330736411Y-73685946D01*
X330736411Y-73685946D02*
X330736411Y-73447851D01*
X330736411Y-73447851D02*
X330784030Y-73257375D01*
X330784030Y-73257375D02*
X330831649Y-73162137D01*
X330831649Y-73162137D02*
X330879268Y-73114518D01*
X330879268Y-73114518D02*
X330974506Y-73066899D01*
X346284779Y-51210695D02*
X346284779Y-50210695D01*
X346284779Y-50210695D02*
X346665731Y-50210695D01*
X346665731Y-50210695D02*
X346760969Y-50258314D01*
X346760969Y-50258314D02*
X346808588Y-50305933D01*
X346808588Y-50305933D02*
X346856207Y-50401171D01*
X346856207Y-50401171D02*
X346856207Y-50544028D01*
X346856207Y-50544028D02*
X346808588Y-50639266D01*
X346808588Y-50639266D02*
X346760969Y-50686885D01*
X346760969Y-50686885D02*
X346665731Y-50734504D01*
X346665731Y-50734504D02*
X346284779Y-50734504D01*
X347808588Y-51210695D02*
X347237160Y-51210695D01*
X347522874Y-51210695D02*
X347522874Y-50210695D01*
X347522874Y-50210695D02*
X347427636Y-50353552D01*
X347427636Y-50353552D02*
X347332398Y-50448790D01*
X347332398Y-50448790D02*
X347237160Y-50496409D01*
X348760969Y-51210695D02*
X348189541Y-51210695D01*
X348475255Y-51210695D02*
X348475255Y-50210695D01*
X348475255Y-50210695D02*
X348380017Y-50353552D01*
X348380017Y-50353552D02*
X348284779Y-50448790D01*
X348284779Y-50448790D02*
X348189541Y-50496409D01*
X346274688Y-88354819D02*
X346893735Y-88354819D01*
X346893735Y-88354819D02*
X346560402Y-88735771D01*
X346560402Y-88735771D02*
X346703259Y-88735771D01*
X346703259Y-88735771D02*
X346798497Y-88783390D01*
X346798497Y-88783390D02*
X346846116Y-88831009D01*
X346846116Y-88831009D02*
X346893735Y-88926247D01*
X346893735Y-88926247D02*
X346893735Y-89164342D01*
X346893735Y-89164342D02*
X346846116Y-89259580D01*
X346846116Y-89259580D02*
X346798497Y-89307200D01*
X346798497Y-89307200D02*
X346703259Y-89354819D01*
X346703259Y-89354819D02*
X346417545Y-89354819D01*
X346417545Y-89354819D02*
X346322307Y-89307200D01*
X346322307Y-89307200D02*
X346274688Y-89259580D01*
X347179450Y-88354819D02*
X347512783Y-89354819D01*
X347512783Y-89354819D02*
X347846116Y-88354819D01*
X348084212Y-88354819D02*
X348703259Y-88354819D01*
X348703259Y-88354819D02*
X348369926Y-88735771D01*
X348369926Y-88735771D02*
X348512783Y-88735771D01*
X348512783Y-88735771D02*
X348608021Y-88783390D01*
X348608021Y-88783390D02*
X348655640Y-88831009D01*
X348655640Y-88831009D02*
X348703259Y-88926247D01*
X348703259Y-88926247D02*
X348703259Y-89164342D01*
X348703259Y-89164342D02*
X348655640Y-89259580D01*
X348655640Y-89259580D02*
X348608021Y-89307200D01*
X348608021Y-89307200D02*
X348512783Y-89354819D01*
X348512783Y-89354819D02*
X348227069Y-89354819D01*
X348227069Y-89354819D02*
X348131831Y-89307200D01*
X348131831Y-89307200D02*
X348084212Y-89259580D01*
X346284779Y-71530695D02*
X346284779Y-70530695D01*
X346284779Y-70530695D02*
X346665731Y-70530695D01*
X346665731Y-70530695D02*
X346760969Y-70578314D01*
X346760969Y-70578314D02*
X346808588Y-70625933D01*
X346808588Y-70625933D02*
X346856207Y-70721171D01*
X346856207Y-70721171D02*
X346856207Y-70864028D01*
X346856207Y-70864028D02*
X346808588Y-70959266D01*
X346808588Y-70959266D02*
X346760969Y-71006885D01*
X346760969Y-71006885D02*
X346665731Y-71054504D01*
X346665731Y-71054504D02*
X346284779Y-71054504D01*
X347808588Y-71530695D02*
X347237160Y-71530695D01*
X347522874Y-71530695D02*
X347522874Y-70530695D01*
X347522874Y-70530695D02*
X347427636Y-70673552D01*
X347427636Y-70673552D02*
X347332398Y-70768790D01*
X347332398Y-70768790D02*
X347237160Y-70816409D01*
X348665731Y-70530695D02*
X348475255Y-70530695D01*
X348475255Y-70530695D02*
X348380017Y-70578314D01*
X348380017Y-70578314D02*
X348332398Y-70625933D01*
X348332398Y-70625933D02*
X348237160Y-70768790D01*
X348237160Y-70768790D02*
X348189541Y-70959266D01*
X348189541Y-70959266D02*
X348189541Y-71340218D01*
X348189541Y-71340218D02*
X348237160Y-71435456D01*
X348237160Y-71435456D02*
X348284779Y-71483076D01*
X348284779Y-71483076D02*
X348380017Y-71530695D01*
X348380017Y-71530695D02*
X348570493Y-71530695D01*
X348570493Y-71530695D02*
X348665731Y-71483076D01*
X348665731Y-71483076D02*
X348713350Y-71435456D01*
X348713350Y-71435456D02*
X348760969Y-71340218D01*
X348760969Y-71340218D02*
X348760969Y-71102123D01*
X348760969Y-71102123D02*
X348713350Y-71006885D01*
X348713350Y-71006885D02*
X348665731Y-70959266D01*
X348665731Y-70959266D02*
X348570493Y-70911647D01*
X348570493Y-70911647D02*
X348380017Y-70911647D01*
X348380017Y-70911647D02*
X348284779Y-70959266D01*
X348284779Y-70959266D02*
X348237160Y-71006885D01*
X348237160Y-71006885D02*
X348189541Y-71102123D01*
X346284779Y-76610695D02*
X346284779Y-75610695D01*
X346284779Y-75610695D02*
X346665731Y-75610695D01*
X346665731Y-75610695D02*
X346760969Y-75658314D01*
X346760969Y-75658314D02*
X346808588Y-75705933D01*
X346808588Y-75705933D02*
X346856207Y-75801171D01*
X346856207Y-75801171D02*
X346856207Y-75944028D01*
X346856207Y-75944028D02*
X346808588Y-76039266D01*
X346808588Y-76039266D02*
X346760969Y-76086885D01*
X346760969Y-76086885D02*
X346665731Y-76134504D01*
X346665731Y-76134504D02*
X346284779Y-76134504D01*
X347475255Y-75610695D02*
X347570493Y-75610695D01*
X347570493Y-75610695D02*
X347665731Y-75658314D01*
X347665731Y-75658314D02*
X347713350Y-75705933D01*
X347713350Y-75705933D02*
X347760969Y-75801171D01*
X347760969Y-75801171D02*
X347808588Y-75991647D01*
X347808588Y-75991647D02*
X347808588Y-76229742D01*
X347808588Y-76229742D02*
X347760969Y-76420218D01*
X347760969Y-76420218D02*
X347713350Y-76515456D01*
X347713350Y-76515456D02*
X347665731Y-76563076D01*
X347665731Y-76563076D02*
X347570493Y-76610695D01*
X347570493Y-76610695D02*
X347475255Y-76610695D01*
X347475255Y-76610695D02*
X347380017Y-76563076D01*
X347380017Y-76563076D02*
X347332398Y-76515456D01*
X347332398Y-76515456D02*
X347284779Y-76420218D01*
X347284779Y-76420218D02*
X347237160Y-76229742D01*
X347237160Y-76229742D02*
X347237160Y-75991647D01*
X347237160Y-75991647D02*
X347284779Y-75801171D01*
X347284779Y-75801171D02*
X347332398Y-75705933D01*
X347332398Y-75705933D02*
X347380017Y-75658314D01*
X347380017Y-75658314D02*
X347475255Y-75610695D01*
X348141922Y-75610695D02*
X348808588Y-75610695D01*
X348808588Y-75610695D02*
X348380017Y-76610695D01*
X346284779Y-61370695D02*
X346284779Y-60370695D01*
X346284779Y-60370695D02*
X346665731Y-60370695D01*
X346665731Y-60370695D02*
X346760969Y-60418314D01*
X346760969Y-60418314D02*
X346808588Y-60465933D01*
X346808588Y-60465933D02*
X346856207Y-60561171D01*
X346856207Y-60561171D02*
X346856207Y-60704028D01*
X346856207Y-60704028D02*
X346808588Y-60799266D01*
X346808588Y-60799266D02*
X346760969Y-60846885D01*
X346760969Y-60846885D02*
X346665731Y-60894504D01*
X346665731Y-60894504D02*
X346284779Y-60894504D01*
X347475255Y-60370695D02*
X347570493Y-60370695D01*
X347570493Y-60370695D02*
X347665731Y-60418314D01*
X347665731Y-60418314D02*
X347713350Y-60465933D01*
X347713350Y-60465933D02*
X347760969Y-60561171D01*
X347760969Y-60561171D02*
X347808588Y-60751647D01*
X347808588Y-60751647D02*
X347808588Y-60989742D01*
X347808588Y-60989742D02*
X347760969Y-61180218D01*
X347760969Y-61180218D02*
X347713350Y-61275456D01*
X347713350Y-61275456D02*
X347665731Y-61323076D01*
X347665731Y-61323076D02*
X347570493Y-61370695D01*
X347570493Y-61370695D02*
X347475255Y-61370695D01*
X347475255Y-61370695D02*
X347380017Y-61323076D01*
X347380017Y-61323076D02*
X347332398Y-61275456D01*
X347332398Y-61275456D02*
X347284779Y-61180218D01*
X347284779Y-61180218D02*
X347237160Y-60989742D01*
X347237160Y-60989742D02*
X347237160Y-60751647D01*
X347237160Y-60751647D02*
X347284779Y-60561171D01*
X347284779Y-60561171D02*
X347332398Y-60465933D01*
X347332398Y-60465933D02*
X347380017Y-60418314D01*
X347380017Y-60418314D02*
X347475255Y-60370695D01*
X348141922Y-60370695D02*
X348760969Y-60370695D01*
X348760969Y-60370695D02*
X348427636Y-60751647D01*
X348427636Y-60751647D02*
X348570493Y-60751647D01*
X348570493Y-60751647D02*
X348665731Y-60799266D01*
X348665731Y-60799266D02*
X348713350Y-60846885D01*
X348713350Y-60846885D02*
X348760969Y-60942123D01*
X348760969Y-60942123D02*
X348760969Y-61180218D01*
X348760969Y-61180218D02*
X348713350Y-61275456D01*
X348713350Y-61275456D02*
X348665731Y-61323076D01*
X348665731Y-61323076D02*
X348570493Y-61370695D01*
X348570493Y-61370695D02*
X348284779Y-61370695D01*
X348284779Y-61370695D02*
X348189541Y-61323076D01*
X348189541Y-61323076D02*
X348141922Y-61275456D01*
X346608021Y-37561034D02*
X346512783Y-37513415D01*
X346512783Y-37513415D02*
X346369926Y-37513415D01*
X346369926Y-37513415D02*
X346227069Y-37561034D01*
X346227069Y-37561034D02*
X346131831Y-37656272D01*
X346131831Y-37656272D02*
X346084212Y-37751510D01*
X346084212Y-37751510D02*
X346036593Y-37941986D01*
X346036593Y-37941986D02*
X346036593Y-38084843D01*
X346036593Y-38084843D02*
X346084212Y-38275319D01*
X346084212Y-38275319D02*
X346131831Y-38370557D01*
X346131831Y-38370557D02*
X346227069Y-38465796D01*
X346227069Y-38465796D02*
X346369926Y-38513415D01*
X346369926Y-38513415D02*
X346465164Y-38513415D01*
X346465164Y-38513415D02*
X346608021Y-38465796D01*
X346608021Y-38465796D02*
X346655640Y-38418176D01*
X346655640Y-38418176D02*
X346655640Y-38084843D01*
X346655640Y-38084843D02*
X346465164Y-38084843D01*
X347084212Y-38513415D02*
X347084212Y-37513415D01*
X347084212Y-37513415D02*
X347655640Y-38513415D01*
X347655640Y-38513415D02*
X347655640Y-37513415D01*
X348131831Y-38513415D02*
X348131831Y-37513415D01*
X348131831Y-37513415D02*
X348369926Y-37513415D01*
X348369926Y-37513415D02*
X348512783Y-37561034D01*
X348512783Y-37561034D02*
X348608021Y-37656272D01*
X348608021Y-37656272D02*
X348655640Y-37751510D01*
X348655640Y-37751510D02*
X348703259Y-37941986D01*
X348703259Y-37941986D02*
X348703259Y-38084843D01*
X348703259Y-38084843D02*
X348655640Y-38275319D01*
X348655640Y-38275319D02*
X348608021Y-38370557D01*
X348608021Y-38370557D02*
X348512783Y-38465796D01*
X348512783Y-38465796D02*
X348369926Y-38513415D01*
X348369926Y-38513415D02*
X348131831Y-38513415D01*
X346284779Y-81690695D02*
X346284779Y-80690695D01*
X346284779Y-80690695D02*
X346665731Y-80690695D01*
X346665731Y-80690695D02*
X346760969Y-80738314D01*
X346760969Y-80738314D02*
X346808588Y-80785933D01*
X346808588Y-80785933D02*
X346856207Y-80881171D01*
X346856207Y-80881171D02*
X346856207Y-81024028D01*
X346856207Y-81024028D02*
X346808588Y-81119266D01*
X346808588Y-81119266D02*
X346760969Y-81166885D01*
X346760969Y-81166885D02*
X346665731Y-81214504D01*
X346665731Y-81214504D02*
X346284779Y-81214504D01*
X347475255Y-80690695D02*
X347570493Y-80690695D01*
X347570493Y-80690695D02*
X347665731Y-80738314D01*
X347665731Y-80738314D02*
X347713350Y-80785933D01*
X347713350Y-80785933D02*
X347760969Y-80881171D01*
X347760969Y-80881171D02*
X347808588Y-81071647D01*
X347808588Y-81071647D02*
X347808588Y-81309742D01*
X347808588Y-81309742D02*
X347760969Y-81500218D01*
X347760969Y-81500218D02*
X347713350Y-81595456D01*
X347713350Y-81595456D02*
X347665731Y-81643076D01*
X347665731Y-81643076D02*
X347570493Y-81690695D01*
X347570493Y-81690695D02*
X347475255Y-81690695D01*
X347475255Y-81690695D02*
X347380017Y-81643076D01*
X347380017Y-81643076D02*
X347332398Y-81595456D01*
X347332398Y-81595456D02*
X347284779Y-81500218D01*
X347284779Y-81500218D02*
X347237160Y-81309742D01*
X347237160Y-81309742D02*
X347237160Y-81071647D01*
X347237160Y-81071647D02*
X347284779Y-80881171D01*
X347284779Y-80881171D02*
X347332398Y-80785933D01*
X347332398Y-80785933D02*
X347380017Y-80738314D01*
X347380017Y-80738314D02*
X347475255Y-80690695D01*
X348713350Y-80690695D02*
X348237160Y-80690695D01*
X348237160Y-80690695D02*
X348189541Y-81166885D01*
X348189541Y-81166885D02*
X348237160Y-81119266D01*
X348237160Y-81119266D02*
X348332398Y-81071647D01*
X348332398Y-81071647D02*
X348570493Y-81071647D01*
X348570493Y-81071647D02*
X348665731Y-81119266D01*
X348665731Y-81119266D02*
X348713350Y-81166885D01*
X348713350Y-81166885D02*
X348760969Y-81262123D01*
X348760969Y-81262123D02*
X348760969Y-81500218D01*
X348760969Y-81500218D02*
X348713350Y-81595456D01*
X348713350Y-81595456D02*
X348665731Y-81643076D01*
X348665731Y-81643076D02*
X348570493Y-81690695D01*
X348570493Y-81690695D02*
X348332398Y-81690695D01*
X348332398Y-81690695D02*
X348237160Y-81643076D01*
X348237160Y-81643076D02*
X348189541Y-81595456D01*
X328831649Y-84226899D02*
X328831649Y-83226899D01*
X328831649Y-83226899D02*
X329212601Y-83226899D01*
X329212601Y-83226899D02*
X329307839Y-83274518D01*
X329307839Y-83274518D02*
X329355458Y-83322137D01*
X329355458Y-83322137D02*
X329403077Y-83417375D01*
X329403077Y-83417375D02*
X329403077Y-83560232D01*
X329403077Y-83560232D02*
X329355458Y-83655470D01*
X329355458Y-83655470D02*
X329307839Y-83703089D01*
X329307839Y-83703089D02*
X329212601Y-83750708D01*
X329212601Y-83750708D02*
X328831649Y-83750708D01*
X330022125Y-83226899D02*
X330117363Y-83226899D01*
X330117363Y-83226899D02*
X330212601Y-83274518D01*
X330212601Y-83274518D02*
X330260220Y-83322137D01*
X330260220Y-83322137D02*
X330307839Y-83417375D01*
X330307839Y-83417375D02*
X330355458Y-83607851D01*
X330355458Y-83607851D02*
X330355458Y-83845946D01*
X330355458Y-83845946D02*
X330307839Y-84036422D01*
X330307839Y-84036422D02*
X330260220Y-84131660D01*
X330260220Y-84131660D02*
X330212601Y-84179280D01*
X330212601Y-84179280D02*
X330117363Y-84226899D01*
X330117363Y-84226899D02*
X330022125Y-84226899D01*
X330022125Y-84226899D02*
X329926887Y-84179280D01*
X329926887Y-84179280D02*
X329879268Y-84131660D01*
X329879268Y-84131660D02*
X329831649Y-84036422D01*
X329831649Y-84036422D02*
X329784030Y-83845946D01*
X329784030Y-83845946D02*
X329784030Y-83607851D01*
X329784030Y-83607851D02*
X329831649Y-83417375D01*
X329831649Y-83417375D02*
X329879268Y-83322137D01*
X329879268Y-83322137D02*
X329926887Y-83274518D01*
X329926887Y-83274518D02*
X330022125Y-83226899D01*
X331307839Y-84226899D02*
X330736411Y-84226899D01*
X331022125Y-84226899D02*
X331022125Y-83226899D01*
X331022125Y-83226899D02*
X330926887Y-83369756D01*
X330926887Y-83369756D02*
X330831649Y-83464994D01*
X330831649Y-83464994D02*
X330736411Y-83512613D01*
X328831649Y-48666899D02*
X328831649Y-47666899D01*
X328831649Y-47666899D02*
X329212601Y-47666899D01*
X329212601Y-47666899D02*
X329307839Y-47714518D01*
X329307839Y-47714518D02*
X329355458Y-47762137D01*
X329355458Y-47762137D02*
X329403077Y-47857375D01*
X329403077Y-47857375D02*
X329403077Y-48000232D01*
X329403077Y-48000232D02*
X329355458Y-48095470D01*
X329355458Y-48095470D02*
X329307839Y-48143089D01*
X329307839Y-48143089D02*
X329212601Y-48190708D01*
X329212601Y-48190708D02*
X328831649Y-48190708D01*
X329784030Y-47762137D02*
X329831649Y-47714518D01*
X329831649Y-47714518D02*
X329926887Y-47666899D01*
X329926887Y-47666899D02*
X330164982Y-47666899D01*
X330164982Y-47666899D02*
X330260220Y-47714518D01*
X330260220Y-47714518D02*
X330307839Y-47762137D01*
X330307839Y-47762137D02*
X330355458Y-47857375D01*
X330355458Y-47857375D02*
X330355458Y-47952613D01*
X330355458Y-47952613D02*
X330307839Y-48095470D01*
X330307839Y-48095470D02*
X329736411Y-48666899D01*
X329736411Y-48666899D02*
X330355458Y-48666899D01*
X331307839Y-48666899D02*
X330736411Y-48666899D01*
X331022125Y-48666899D02*
X331022125Y-47666899D01*
X331022125Y-47666899D02*
X330926887Y-47809756D01*
X330926887Y-47809756D02*
X330831649Y-47904994D01*
X330831649Y-47904994D02*
X330736411Y-47952613D01*
X346284779Y-43590695D02*
X346284779Y-42590695D01*
X346284779Y-42590695D02*
X346665731Y-42590695D01*
X346665731Y-42590695D02*
X346760969Y-42638314D01*
X346760969Y-42638314D02*
X346808588Y-42685933D01*
X346808588Y-42685933D02*
X346856207Y-42781171D01*
X346856207Y-42781171D02*
X346856207Y-42924028D01*
X346856207Y-42924028D02*
X346808588Y-43019266D01*
X346808588Y-43019266D02*
X346760969Y-43066885D01*
X346760969Y-43066885D02*
X346665731Y-43114504D01*
X346665731Y-43114504D02*
X346284779Y-43114504D01*
X347808588Y-43590695D02*
X347237160Y-43590695D01*
X347522874Y-43590695D02*
X347522874Y-42590695D01*
X347522874Y-42590695D02*
X347427636Y-42733552D01*
X347427636Y-42733552D02*
X347332398Y-42828790D01*
X347332398Y-42828790D02*
X347237160Y-42876409D01*
X348665731Y-42924028D02*
X348665731Y-43590695D01*
X348427636Y-42543076D02*
X348189541Y-43257361D01*
X348189541Y-43257361D02*
X348808588Y-43257361D01*
X346284779Y-79194819D02*
X346284779Y-78194819D01*
X346284779Y-78194819D02*
X346665731Y-78194819D01*
X346665731Y-78194819D02*
X346760969Y-78242438D01*
X346760969Y-78242438D02*
X346808588Y-78290057D01*
X346808588Y-78290057D02*
X346856207Y-78385295D01*
X346856207Y-78385295D02*
X346856207Y-78528152D01*
X346856207Y-78528152D02*
X346808588Y-78623390D01*
X346808588Y-78623390D02*
X346760969Y-78671009D01*
X346760969Y-78671009D02*
X346665731Y-78718628D01*
X346665731Y-78718628D02*
X346284779Y-78718628D01*
X347475255Y-78194819D02*
X347570493Y-78194819D01*
X347570493Y-78194819D02*
X347665731Y-78242438D01*
X347665731Y-78242438D02*
X347713350Y-78290057D01*
X347713350Y-78290057D02*
X347760969Y-78385295D01*
X347760969Y-78385295D02*
X347808588Y-78575771D01*
X347808588Y-78575771D02*
X347808588Y-78813866D01*
X347808588Y-78813866D02*
X347760969Y-79004342D01*
X347760969Y-79004342D02*
X347713350Y-79099580D01*
X347713350Y-79099580D02*
X347665731Y-79147200D01*
X347665731Y-79147200D02*
X347570493Y-79194819D01*
X347570493Y-79194819D02*
X347475255Y-79194819D01*
X347475255Y-79194819D02*
X347380017Y-79147200D01*
X347380017Y-79147200D02*
X347332398Y-79099580D01*
X347332398Y-79099580D02*
X347284779Y-79004342D01*
X347284779Y-79004342D02*
X347237160Y-78813866D01*
X347237160Y-78813866D02*
X347237160Y-78575771D01*
X347237160Y-78575771D02*
X347284779Y-78385295D01*
X347284779Y-78385295D02*
X347332398Y-78290057D01*
X347332398Y-78290057D02*
X347380017Y-78242438D01*
X347380017Y-78242438D02*
X347475255Y-78194819D01*
X348665731Y-78194819D02*
X348475255Y-78194819D01*
X348475255Y-78194819D02*
X348380017Y-78242438D01*
X348380017Y-78242438D02*
X348332398Y-78290057D01*
X348332398Y-78290057D02*
X348237160Y-78432914D01*
X348237160Y-78432914D02*
X348189541Y-78623390D01*
X348189541Y-78623390D02*
X348189541Y-79004342D01*
X348189541Y-79004342D02*
X348237160Y-79099580D01*
X348237160Y-79099580D02*
X348284779Y-79147200D01*
X348284779Y-79147200D02*
X348380017Y-79194819D01*
X348380017Y-79194819D02*
X348570493Y-79194819D01*
X348570493Y-79194819D02*
X348665731Y-79147200D01*
X348665731Y-79147200D02*
X348713350Y-79099580D01*
X348713350Y-79099580D02*
X348760969Y-79004342D01*
X348760969Y-79004342D02*
X348760969Y-78766247D01*
X348760969Y-78766247D02*
X348713350Y-78671009D01*
X348713350Y-78671009D02*
X348665731Y-78623390D01*
X348665731Y-78623390D02*
X348570493Y-78575771D01*
X348570493Y-78575771D02*
X348380017Y-78575771D01*
X348380017Y-78575771D02*
X348284779Y-78623390D01*
X348284779Y-78623390D02*
X348237160Y-78671009D01*
X348237160Y-78671009D02*
X348189541Y-78766247D01*
X328831649Y-46126899D02*
X328831649Y-45126899D01*
X328831649Y-45126899D02*
X329212601Y-45126899D01*
X329212601Y-45126899D02*
X329307839Y-45174518D01*
X329307839Y-45174518D02*
X329355458Y-45222137D01*
X329355458Y-45222137D02*
X329403077Y-45317375D01*
X329403077Y-45317375D02*
X329403077Y-45460232D01*
X329403077Y-45460232D02*
X329355458Y-45555470D01*
X329355458Y-45555470D02*
X329307839Y-45603089D01*
X329307839Y-45603089D02*
X329212601Y-45650708D01*
X329212601Y-45650708D02*
X328831649Y-45650708D01*
X329784030Y-45222137D02*
X329831649Y-45174518D01*
X329831649Y-45174518D02*
X329926887Y-45126899D01*
X329926887Y-45126899D02*
X330164982Y-45126899D01*
X330164982Y-45126899D02*
X330260220Y-45174518D01*
X330260220Y-45174518D02*
X330307839Y-45222137D01*
X330307839Y-45222137D02*
X330355458Y-45317375D01*
X330355458Y-45317375D02*
X330355458Y-45412613D01*
X330355458Y-45412613D02*
X330307839Y-45555470D01*
X330307839Y-45555470D02*
X329736411Y-46126899D01*
X329736411Y-46126899D02*
X330355458Y-46126899D01*
X330974506Y-45126899D02*
X331069744Y-45126899D01*
X331069744Y-45126899D02*
X331164982Y-45174518D01*
X331164982Y-45174518D02*
X331212601Y-45222137D01*
X331212601Y-45222137D02*
X331260220Y-45317375D01*
X331260220Y-45317375D02*
X331307839Y-45507851D01*
X331307839Y-45507851D02*
X331307839Y-45745946D01*
X331307839Y-45745946D02*
X331260220Y-45936422D01*
X331260220Y-45936422D02*
X331212601Y-46031660D01*
X331212601Y-46031660D02*
X331164982Y-46079280D01*
X331164982Y-46079280D02*
X331069744Y-46126899D01*
X331069744Y-46126899D02*
X330974506Y-46126899D01*
X330974506Y-46126899D02*
X330879268Y-46079280D01*
X330879268Y-46079280D02*
X330831649Y-46031660D01*
X330831649Y-46031660D02*
X330784030Y-45936422D01*
X330784030Y-45936422D02*
X330736411Y-45745946D01*
X330736411Y-45745946D02*
X330736411Y-45507851D01*
X330736411Y-45507851D02*
X330784030Y-45317375D01*
X330784030Y-45317375D02*
X330831649Y-45222137D01*
X330831649Y-45222137D02*
X330879268Y-45174518D01*
X330879268Y-45174518D02*
X330974506Y-45126899D01*
X328831649Y-58826899D02*
X328831649Y-57826899D01*
X328831649Y-57826899D02*
X329212601Y-57826899D01*
X329212601Y-57826899D02*
X329307839Y-57874518D01*
X329307839Y-57874518D02*
X329355458Y-57922137D01*
X329355458Y-57922137D02*
X329403077Y-58017375D01*
X329403077Y-58017375D02*
X329403077Y-58160232D01*
X329403077Y-58160232D02*
X329355458Y-58255470D01*
X329355458Y-58255470D02*
X329307839Y-58303089D01*
X329307839Y-58303089D02*
X329212601Y-58350708D01*
X329212601Y-58350708D02*
X328831649Y-58350708D01*
X330022125Y-57826899D02*
X330117363Y-57826899D01*
X330117363Y-57826899D02*
X330212601Y-57874518D01*
X330212601Y-57874518D02*
X330260220Y-57922137D01*
X330260220Y-57922137D02*
X330307839Y-58017375D01*
X330307839Y-58017375D02*
X330355458Y-58207851D01*
X330355458Y-58207851D02*
X330355458Y-58445946D01*
X330355458Y-58445946D02*
X330307839Y-58636422D01*
X330307839Y-58636422D02*
X330260220Y-58731660D01*
X330260220Y-58731660D02*
X330212601Y-58779280D01*
X330212601Y-58779280D02*
X330117363Y-58826899D01*
X330117363Y-58826899D02*
X330022125Y-58826899D01*
X330022125Y-58826899D02*
X329926887Y-58779280D01*
X329926887Y-58779280D02*
X329879268Y-58731660D01*
X329879268Y-58731660D02*
X329831649Y-58636422D01*
X329831649Y-58636422D02*
X329784030Y-58445946D01*
X329784030Y-58445946D02*
X329784030Y-58207851D01*
X329784030Y-58207851D02*
X329831649Y-58017375D01*
X329831649Y-58017375D02*
X329879268Y-57922137D01*
X329879268Y-57922137D02*
X329926887Y-57874518D01*
X329926887Y-57874518D02*
X330022125Y-57826899D01*
X330974506Y-57826899D02*
X331069744Y-57826899D01*
X331069744Y-57826899D02*
X331164982Y-57874518D01*
X331164982Y-57874518D02*
X331212601Y-57922137D01*
X331212601Y-57922137D02*
X331260220Y-58017375D01*
X331260220Y-58017375D02*
X331307839Y-58207851D01*
X331307839Y-58207851D02*
X331307839Y-58445946D01*
X331307839Y-58445946D02*
X331260220Y-58636422D01*
X331260220Y-58636422D02*
X331212601Y-58731660D01*
X331212601Y-58731660D02*
X331164982Y-58779280D01*
X331164982Y-58779280D02*
X331069744Y-58826899D01*
X331069744Y-58826899D02*
X330974506Y-58826899D01*
X330974506Y-58826899D02*
X330879268Y-58779280D01*
X330879268Y-58779280D02*
X330831649Y-58731660D01*
X330831649Y-58731660D02*
X330784030Y-58636422D01*
X330784030Y-58636422D02*
X330736411Y-58445946D01*
X330736411Y-58445946D02*
X330736411Y-58207851D01*
X330736411Y-58207851D02*
X330784030Y-58017375D01*
X330784030Y-58017375D02*
X330831649Y-57922137D01*
X330831649Y-57922137D02*
X330879268Y-57874518D01*
X330879268Y-57874518D02*
X330974506Y-57826899D01*
X345183029Y-86814819D02*
X344849696Y-86338628D01*
X344611601Y-86814819D02*
X344611601Y-85814819D01*
X344611601Y-85814819D02*
X344992553Y-85814819D01*
X344992553Y-85814819D02*
X345087791Y-85862438D01*
X345087791Y-85862438D02*
X345135410Y-85910057D01*
X345135410Y-85910057D02*
X345183029Y-86005295D01*
X345183029Y-86005295D02*
X345183029Y-86148152D01*
X345183029Y-86148152D02*
X345135410Y-86243390D01*
X345135410Y-86243390D02*
X345087791Y-86291009D01*
X345087791Y-86291009D02*
X344992553Y-86338628D01*
X344992553Y-86338628D02*
X344611601Y-86338628D01*
X345611601Y-86291009D02*
X345944934Y-86291009D01*
X346087791Y-86814819D02*
X345611601Y-86814819D01*
X345611601Y-86814819D02*
X345611601Y-85814819D01*
X345611601Y-85814819D02*
X346087791Y-85814819D01*
X346468744Y-86767200D02*
X346611601Y-86814819D01*
X346611601Y-86814819D02*
X346849696Y-86814819D01*
X346849696Y-86814819D02*
X346944934Y-86767200D01*
X346944934Y-86767200D02*
X346992553Y-86719580D01*
X346992553Y-86719580D02*
X347040172Y-86624342D01*
X347040172Y-86624342D02*
X347040172Y-86529104D01*
X347040172Y-86529104D02*
X346992553Y-86433866D01*
X346992553Y-86433866D02*
X346944934Y-86386247D01*
X346944934Y-86386247D02*
X346849696Y-86338628D01*
X346849696Y-86338628D02*
X346659220Y-86291009D01*
X346659220Y-86291009D02*
X346563982Y-86243390D01*
X346563982Y-86243390D02*
X346516363Y-86195771D01*
X346516363Y-86195771D02*
X346468744Y-86100533D01*
X346468744Y-86100533D02*
X346468744Y-86005295D01*
X346468744Y-86005295D02*
X346516363Y-85910057D01*
X346516363Y-85910057D02*
X346563982Y-85862438D01*
X346563982Y-85862438D02*
X346659220Y-85814819D01*
X346659220Y-85814819D02*
X346897315Y-85814819D01*
X346897315Y-85814819D02*
X347040172Y-85862438D01*
X347468744Y-86291009D02*
X347802077Y-86291009D01*
X347944934Y-86814819D02*
X347468744Y-86814819D01*
X347468744Y-86814819D02*
X347468744Y-85814819D01*
X347468744Y-85814819D02*
X347944934Y-85814819D01*
X348230649Y-85814819D02*
X348802077Y-85814819D01*
X348516363Y-86814819D02*
X348516363Y-85814819D01*
X329743630Y-37558314D02*
X329648392Y-37510695D01*
X329648392Y-37510695D02*
X329505535Y-37510695D01*
X329505535Y-37510695D02*
X329362678Y-37558314D01*
X329362678Y-37558314D02*
X329267440Y-37653552D01*
X329267440Y-37653552D02*
X329219821Y-37748790D01*
X329219821Y-37748790D02*
X329172202Y-37939266D01*
X329172202Y-37939266D02*
X329172202Y-38082123D01*
X329172202Y-38082123D02*
X329219821Y-38272599D01*
X329219821Y-38272599D02*
X329267440Y-38367837D01*
X329267440Y-38367837D02*
X329362678Y-38463076D01*
X329362678Y-38463076D02*
X329505535Y-38510695D01*
X329505535Y-38510695D02*
X329600773Y-38510695D01*
X329600773Y-38510695D02*
X329743630Y-38463076D01*
X329743630Y-38463076D02*
X329791249Y-38415456D01*
X329791249Y-38415456D02*
X329791249Y-38082123D01*
X329791249Y-38082123D02*
X329600773Y-38082123D01*
X330219821Y-38510695D02*
X330219821Y-37510695D01*
X330219821Y-37510695D02*
X330791249Y-38510695D01*
X330791249Y-38510695D02*
X330791249Y-37510695D01*
X331267440Y-38510695D02*
X331267440Y-37510695D01*
X331267440Y-37510695D02*
X331505535Y-37510695D01*
X331505535Y-37510695D02*
X331648392Y-37558314D01*
X331648392Y-37558314D02*
X331743630Y-37653552D01*
X331743630Y-37653552D02*
X331791249Y-37748790D01*
X331791249Y-37748790D02*
X331838868Y-37939266D01*
X331838868Y-37939266D02*
X331838868Y-38082123D01*
X331838868Y-38082123D02*
X331791249Y-38272599D01*
X331791249Y-38272599D02*
X331743630Y-38367837D01*
X331743630Y-38367837D02*
X331648392Y-38463076D01*
X331648392Y-38463076D02*
X331505535Y-38510695D01*
X331505535Y-38510695D02*
X331267440Y-38510695D01*
X328831649Y-43586899D02*
X328831649Y-42586899D01*
X328831649Y-42586899D02*
X329212601Y-42586899D01*
X329212601Y-42586899D02*
X329307839Y-42634518D01*
X329307839Y-42634518D02*
X329355458Y-42682137D01*
X329355458Y-42682137D02*
X329403077Y-42777375D01*
X329403077Y-42777375D02*
X329403077Y-42920232D01*
X329403077Y-42920232D02*
X329355458Y-43015470D01*
X329355458Y-43015470D02*
X329307839Y-43063089D01*
X329307839Y-43063089D02*
X329212601Y-43110708D01*
X329212601Y-43110708D02*
X328831649Y-43110708D01*
X330355458Y-43586899D02*
X329784030Y-43586899D01*
X330069744Y-43586899D02*
X330069744Y-42586899D01*
X330069744Y-42586899D02*
X329974506Y-42729756D01*
X329974506Y-42729756D02*
X329879268Y-42824994D01*
X329879268Y-42824994D02*
X329784030Y-42872613D01*
X330831649Y-43586899D02*
X331022125Y-43586899D01*
X331022125Y-43586899D02*
X331117363Y-43539280D01*
X331117363Y-43539280D02*
X331164982Y-43491660D01*
X331164982Y-43491660D02*
X331260220Y-43348803D01*
X331260220Y-43348803D02*
X331307839Y-43158327D01*
X331307839Y-43158327D02*
X331307839Y-42777375D01*
X331307839Y-42777375D02*
X331260220Y-42682137D01*
X331260220Y-42682137D02*
X331212601Y-42634518D01*
X331212601Y-42634518D02*
X331117363Y-42586899D01*
X331117363Y-42586899D02*
X330926887Y-42586899D01*
X330926887Y-42586899D02*
X330831649Y-42634518D01*
X330831649Y-42634518D02*
X330784030Y-42682137D01*
X330784030Y-42682137D02*
X330736411Y-42777375D01*
X330736411Y-42777375D02*
X330736411Y-43015470D01*
X330736411Y-43015470D02*
X330784030Y-43110708D01*
X330784030Y-43110708D02*
X330831649Y-43158327D01*
X330831649Y-43158327D02*
X330926887Y-43205946D01*
X330926887Y-43205946D02*
X331117363Y-43205946D01*
X331117363Y-43205946D02*
X331212601Y-43158327D01*
X331212601Y-43158327D02*
X331260220Y-43110708D01*
X331260220Y-43110708D02*
X331307839Y-43015470D01*
X328831649Y-86766899D02*
X328831649Y-85766899D01*
X328831649Y-85766899D02*
X329212601Y-85766899D01*
X329212601Y-85766899D02*
X329307839Y-85814518D01*
X329307839Y-85814518D02*
X329355458Y-85862137D01*
X329355458Y-85862137D02*
X329403077Y-85957375D01*
X329403077Y-85957375D02*
X329403077Y-86100232D01*
X329403077Y-86100232D02*
X329355458Y-86195470D01*
X329355458Y-86195470D02*
X329307839Y-86243089D01*
X329307839Y-86243089D02*
X329212601Y-86290708D01*
X329212601Y-86290708D02*
X328831649Y-86290708D01*
X330260220Y-86100232D02*
X330260220Y-86766899D01*
X330022125Y-85719280D02*
X329784030Y-86433565D01*
X329784030Y-86433565D02*
X330403077Y-86433565D01*
X331212601Y-86100232D02*
X331212601Y-86766899D01*
X330974506Y-85719280D02*
X330736411Y-86433565D01*
X330736411Y-86433565D02*
X331355458Y-86433565D01*
X346284779Y-56290695D02*
X346284779Y-55290695D01*
X346284779Y-55290695D02*
X346665731Y-55290695D01*
X346665731Y-55290695D02*
X346760969Y-55338314D01*
X346760969Y-55338314D02*
X346808588Y-55385933D01*
X346808588Y-55385933D02*
X346856207Y-55481171D01*
X346856207Y-55481171D02*
X346856207Y-55624028D01*
X346856207Y-55624028D02*
X346808588Y-55719266D01*
X346808588Y-55719266D02*
X346760969Y-55766885D01*
X346760969Y-55766885D02*
X346665731Y-55814504D01*
X346665731Y-55814504D02*
X346284779Y-55814504D01*
X347475255Y-55290695D02*
X347570493Y-55290695D01*
X347570493Y-55290695D02*
X347665731Y-55338314D01*
X347665731Y-55338314D02*
X347713350Y-55385933D01*
X347713350Y-55385933D02*
X347760969Y-55481171D01*
X347760969Y-55481171D02*
X347808588Y-55671647D01*
X347808588Y-55671647D02*
X347808588Y-55909742D01*
X347808588Y-55909742D02*
X347760969Y-56100218D01*
X347760969Y-56100218D02*
X347713350Y-56195456D01*
X347713350Y-56195456D02*
X347665731Y-56243076D01*
X347665731Y-56243076D02*
X347570493Y-56290695D01*
X347570493Y-56290695D02*
X347475255Y-56290695D01*
X347475255Y-56290695D02*
X347380017Y-56243076D01*
X347380017Y-56243076D02*
X347332398Y-56195456D01*
X347332398Y-56195456D02*
X347284779Y-56100218D01*
X347284779Y-56100218D02*
X347237160Y-55909742D01*
X347237160Y-55909742D02*
X347237160Y-55671647D01*
X347237160Y-55671647D02*
X347284779Y-55481171D01*
X347284779Y-55481171D02*
X347332398Y-55385933D01*
X347332398Y-55385933D02*
X347380017Y-55338314D01*
X347380017Y-55338314D02*
X347475255Y-55290695D01*
X348284779Y-56290695D02*
X348475255Y-56290695D01*
X348475255Y-56290695D02*
X348570493Y-56243076D01*
X348570493Y-56243076D02*
X348618112Y-56195456D01*
X348618112Y-56195456D02*
X348713350Y-56052599D01*
X348713350Y-56052599D02*
X348760969Y-55862123D01*
X348760969Y-55862123D02*
X348760969Y-55481171D01*
X348760969Y-55481171D02*
X348713350Y-55385933D01*
X348713350Y-55385933D02*
X348665731Y-55338314D01*
X348665731Y-55338314D02*
X348570493Y-55290695D01*
X348570493Y-55290695D02*
X348380017Y-55290695D01*
X348380017Y-55290695D02*
X348284779Y-55338314D01*
X348284779Y-55338314D02*
X348237160Y-55385933D01*
X348237160Y-55385933D02*
X348189541Y-55481171D01*
X348189541Y-55481171D02*
X348189541Y-55719266D01*
X348189541Y-55719266D02*
X348237160Y-55814504D01*
X348237160Y-55814504D02*
X348284779Y-55862123D01*
X348284779Y-55862123D02*
X348380017Y-55909742D01*
X348380017Y-55909742D02*
X348570493Y-55909742D01*
X348570493Y-55909742D02*
X348665731Y-55862123D01*
X348665731Y-55862123D02*
X348713350Y-55814504D01*
X348713350Y-55814504D02*
X348760969Y-55719266D01*
X346284779Y-74070695D02*
X346284779Y-73070695D01*
X346284779Y-73070695D02*
X346665731Y-73070695D01*
X346665731Y-73070695D02*
X346760969Y-73118314D01*
X346760969Y-73118314D02*
X346808588Y-73165933D01*
X346808588Y-73165933D02*
X346856207Y-73261171D01*
X346856207Y-73261171D02*
X346856207Y-73404028D01*
X346856207Y-73404028D02*
X346808588Y-73499266D01*
X346808588Y-73499266D02*
X346760969Y-73546885D01*
X346760969Y-73546885D02*
X346665731Y-73594504D01*
X346665731Y-73594504D02*
X346284779Y-73594504D01*
X347808588Y-74070695D02*
X347237160Y-74070695D01*
X347522874Y-74070695D02*
X347522874Y-73070695D01*
X347522874Y-73070695D02*
X347427636Y-73213552D01*
X347427636Y-73213552D02*
X347332398Y-73308790D01*
X347332398Y-73308790D02*
X347237160Y-73356409D01*
X348713350Y-73070695D02*
X348237160Y-73070695D01*
X348237160Y-73070695D02*
X348189541Y-73546885D01*
X348189541Y-73546885D02*
X348237160Y-73499266D01*
X348237160Y-73499266D02*
X348332398Y-73451647D01*
X348332398Y-73451647D02*
X348570493Y-73451647D01*
X348570493Y-73451647D02*
X348665731Y-73499266D01*
X348665731Y-73499266D02*
X348713350Y-73546885D01*
X348713350Y-73546885D02*
X348760969Y-73642123D01*
X348760969Y-73642123D02*
X348760969Y-73880218D01*
X348760969Y-73880218D02*
X348713350Y-73975456D01*
X348713350Y-73975456D02*
X348665731Y-74023076D01*
X348665731Y-74023076D02*
X348570493Y-74070695D01*
X348570493Y-74070695D02*
X348332398Y-74070695D01*
X348332398Y-74070695D02*
X348237160Y-74023076D01*
X348237160Y-74023076D02*
X348189541Y-73975456D01*
X343916095Y-29220438D02*
X343820857Y-29172819D01*
X343820857Y-29172819D02*
X343678000Y-29172819D01*
X343678000Y-29172819D02*
X343535143Y-29220438D01*
X343535143Y-29220438D02*
X343439905Y-29315676D01*
X343439905Y-29315676D02*
X343392286Y-29410914D01*
X343392286Y-29410914D02*
X343344667Y-29601390D01*
X343344667Y-29601390D02*
X343344667Y-29744247D01*
X343344667Y-29744247D02*
X343392286Y-29934723D01*
X343392286Y-29934723D02*
X343439905Y-30029961D01*
X343439905Y-30029961D02*
X343535143Y-30125200D01*
X343535143Y-30125200D02*
X343678000Y-30172819D01*
X343678000Y-30172819D02*
X343773238Y-30172819D01*
X343773238Y-30172819D02*
X343916095Y-30125200D01*
X343916095Y-30125200D02*
X343963714Y-30077580D01*
X343963714Y-30077580D02*
X343963714Y-29744247D01*
X343963714Y-29744247D02*
X343773238Y-29744247D01*
X344392286Y-30172819D02*
X344392286Y-29172819D01*
X344392286Y-29172819D02*
X344963714Y-30172819D01*
X344963714Y-30172819D02*
X344963714Y-29172819D01*
X345439905Y-30172819D02*
X345439905Y-29172819D01*
X345439905Y-29172819D02*
X345678000Y-29172819D01*
X345678000Y-29172819D02*
X345820857Y-29220438D01*
X345820857Y-29220438D02*
X345916095Y-29315676D01*
X345916095Y-29315676D02*
X345963714Y-29410914D01*
X345963714Y-29410914D02*
X346011333Y-29601390D01*
X346011333Y-29601390D02*
X346011333Y-29744247D01*
X346011333Y-29744247D02*
X345963714Y-29934723D01*
X345963714Y-29934723D02*
X345916095Y-30029961D01*
X345916095Y-30029961D02*
X345820857Y-30125200D01*
X345820857Y-30125200D02*
X345678000Y-30172819D01*
X345678000Y-30172819D02*
X345439905Y-30172819D01*
X338645523Y-30696819D02*
X338169333Y-30696819D01*
X338169333Y-30696819D02*
X338121714Y-31173009D01*
X338121714Y-31173009D02*
X338169333Y-31125390D01*
X338169333Y-31125390D02*
X338264571Y-31077771D01*
X338264571Y-31077771D02*
X338502666Y-31077771D01*
X338502666Y-31077771D02*
X338597904Y-31125390D01*
X338597904Y-31125390D02*
X338645523Y-31173009D01*
X338645523Y-31173009D02*
X338693142Y-31268247D01*
X338693142Y-31268247D02*
X338693142Y-31506342D01*
X338693142Y-31506342D02*
X338645523Y-31601580D01*
X338645523Y-31601580D02*
X338597904Y-31649200D01*
X338597904Y-31649200D02*
X338502666Y-31696819D01*
X338502666Y-31696819D02*
X338264571Y-31696819D01*
X338264571Y-31696819D02*
X338169333Y-31649200D01*
X338169333Y-31649200D02*
X338121714Y-31601580D01*
X338978857Y-30696819D02*
X339312190Y-31696819D01*
X339312190Y-31696819D02*
X339645523Y-30696819D01*
X339828654Y-93117319D02*
X339828654Y-93831604D01*
X339828654Y-93831604D02*
X339781035Y-93974461D01*
X339781035Y-93974461D02*
X339685797Y-94069700D01*
X339685797Y-94069700D02*
X339542940Y-94117319D01*
X339542940Y-94117319D02*
X339447702Y-94117319D01*
X340209607Y-93117319D02*
X340828654Y-93117319D01*
X340828654Y-93117319D02*
X340495321Y-93498271D01*
X340495321Y-93498271D02*
X340638178Y-93498271D01*
X340638178Y-93498271D02*
X340733416Y-93545890D01*
X340733416Y-93545890D02*
X340781035Y-93593509D01*
X340781035Y-93593509D02*
X340828654Y-93688747D01*
X340828654Y-93688747D02*
X340828654Y-93926842D01*
X340828654Y-93926842D02*
X340781035Y-94022080D01*
X340781035Y-94022080D02*
X340733416Y-94069700D01*
X340733416Y-94069700D02*
X340638178Y-94117319D01*
X340638178Y-94117319D02*
X340352464Y-94117319D01*
X340352464Y-94117319D02*
X340257226Y-94069700D01*
X340257226Y-94069700D02*
X340209607Y-94022080D01*
X341114369Y-93117319D02*
X341447702Y-94117319D01*
X341447702Y-94117319D02*
X341781035Y-93117319D01*
X342066750Y-93212557D02*
X342114369Y-93164938D01*
X342114369Y-93164938D02*
X342209607Y-93117319D01*
X342209607Y-93117319D02*
X342447702Y-93117319D01*
X342447702Y-93117319D02*
X342542940Y-93164938D01*
X342542940Y-93164938D02*
X342590559Y-93212557D01*
X342590559Y-93212557D02*
X342638178Y-93307795D01*
X342638178Y-93307795D02*
X342638178Y-93403033D01*
X342638178Y-93403033D02*
X342590559Y-93545890D01*
X342590559Y-93545890D02*
X342019131Y-94117319D01*
X342019131Y-94117319D02*
X342638178Y-94117319D01*
X339828654Y-40094819D02*
X339828654Y-40809104D01*
X339828654Y-40809104D02*
X339781035Y-40951961D01*
X339781035Y-40951961D02*
X339685797Y-41047200D01*
X339685797Y-41047200D02*
X339542940Y-41094819D01*
X339542940Y-41094819D02*
X339447702Y-41094819D01*
X340781035Y-40094819D02*
X340304845Y-40094819D01*
X340304845Y-40094819D02*
X340257226Y-40571009D01*
X340257226Y-40571009D02*
X340304845Y-40523390D01*
X340304845Y-40523390D02*
X340400083Y-40475771D01*
X340400083Y-40475771D02*
X340638178Y-40475771D01*
X340638178Y-40475771D02*
X340733416Y-40523390D01*
X340733416Y-40523390D02*
X340781035Y-40571009D01*
X340781035Y-40571009D02*
X340828654Y-40666247D01*
X340828654Y-40666247D02*
X340828654Y-40904342D01*
X340828654Y-40904342D02*
X340781035Y-40999580D01*
X340781035Y-40999580D02*
X340733416Y-41047200D01*
X340733416Y-41047200D02*
X340638178Y-41094819D01*
X340638178Y-41094819D02*
X340400083Y-41094819D01*
X340400083Y-41094819D02*
X340304845Y-41047200D01*
X340304845Y-41047200D02*
X340257226Y-40999580D01*
X341114369Y-40094819D02*
X341447702Y-41094819D01*
X341447702Y-41094819D02*
X341781035Y-40094819D01*
X342638178Y-41094819D02*
X342066750Y-41094819D01*
X342352464Y-41094819D02*
X342352464Y-40094819D01*
X342352464Y-40094819D02*
X342257226Y-40237676D01*
X342257226Y-40237676D02*
X342161988Y-40332914D01*
X342161988Y-40332914D02*
X342066750Y-40380533D01*
X331755905Y-29172819D02*
X332374952Y-29172819D01*
X332374952Y-29172819D02*
X332041619Y-29553771D01*
X332041619Y-29553771D02*
X332184476Y-29553771D01*
X332184476Y-29553771D02*
X332279714Y-29601390D01*
X332279714Y-29601390D02*
X332327333Y-29649009D01*
X332327333Y-29649009D02*
X332374952Y-29744247D01*
X332374952Y-29744247D02*
X332374952Y-29982342D01*
X332374952Y-29982342D02*
X332327333Y-30077580D01*
X332327333Y-30077580D02*
X332279714Y-30125200D01*
X332279714Y-30125200D02*
X332184476Y-30172819D01*
X332184476Y-30172819D02*
X331898762Y-30172819D01*
X331898762Y-30172819D02*
X331803524Y-30125200D01*
X331803524Y-30125200D02*
X331755905Y-30077580D01*
X332660667Y-29172819D02*
X332994000Y-30172819D01*
X332994000Y-30172819D02*
X333327333Y-29172819D01*
X333565429Y-29172819D02*
X334184476Y-29172819D01*
X334184476Y-29172819D02*
X333851143Y-29553771D01*
X333851143Y-29553771D02*
X333994000Y-29553771D01*
X333994000Y-29553771D02*
X334089238Y-29601390D01*
X334089238Y-29601390D02*
X334136857Y-29649009D01*
X334136857Y-29649009D02*
X334184476Y-29744247D01*
X334184476Y-29744247D02*
X334184476Y-29982342D01*
X334184476Y-29982342D02*
X334136857Y-30077580D01*
X334136857Y-30077580D02*
X334089238Y-30125200D01*
X334089238Y-30125200D02*
X333994000Y-30172819D01*
X333994000Y-30172819D02*
X333708286Y-30172819D01*
X333708286Y-30172819D02*
X333613048Y-30125200D01*
X333613048Y-30125200D02*
X333565429Y-30077580D01*
X65381250Y-57650000D02*
X66381250Y-57650000D01*
X65881250Y-57550000D02*
X65381250Y-56650000D01*
X65381250Y-56650000D02*
X66381250Y-56650000D01*
X66381250Y-56650000D02*
X65881250Y-57550000D01*
X51093750Y-133850000D02*
X52093750Y-133850000D01*
X51593750Y-133750000D02*
X51093750Y-132850000D01*
X51093750Y-132850000D02*
X52093750Y-132850000D01*
X52093750Y-132850000D02*
X51593750Y-133750000D01*
D11*
X31000000Y-50050000D02*
X31000000Y-64250000D01*
X31000000Y-64250000D02*
X45200000Y-64250000D01*
X45200000Y-50050000D02*
X31000000Y-50050000D01*
X45200000Y-64250000D02*
X45200000Y-50050000D01*
D10*
X198731250Y-57650000D02*
X199731250Y-57650000D01*
X199231250Y-57550000D02*
X198731250Y-56650000D01*
X198731250Y-56650000D02*
X199731250Y-56650000D01*
X199731250Y-56650000D02*
X199231250Y-57550000D01*
X274931250Y-38600000D02*
X275931250Y-38600000D01*
X275431250Y-38500000D02*
X274931250Y-37600000D01*
X274931250Y-37600000D02*
X275931250Y-37600000D01*
X275931250Y-37600000D02*
X275431250Y-38500000D01*
D11*
X344623474Y-69106296D02*
X344114026Y-69106296D01*
X344623474Y-68061296D02*
X344114026Y-68061296D01*
X254837500Y-126250000D02*
X254837500Y-140450000D01*
X254837500Y-140450000D02*
X269037500Y-140450000D01*
X269037500Y-126250000D02*
X254837500Y-126250000D01*
X269037500Y-140450000D02*
X269037500Y-126250000D01*
X332993276Y-52817500D02*
X333502724Y-52817500D01*
X332993276Y-53862500D02*
X333502724Y-53862500D01*
D10*
X255881250Y-38600000D02*
X256881250Y-38600000D01*
X256381250Y-38500000D02*
X255881250Y-37600000D01*
X255881250Y-37600000D02*
X256881250Y-37600000D01*
X256881250Y-37600000D02*
X256381250Y-38500000D01*
X51093750Y-114800000D02*
X52093750Y-114800000D01*
X51593750Y-114700000D02*
X51093750Y-113800000D01*
X51093750Y-113800000D02*
X52093750Y-113800000D01*
X52093750Y-113800000D02*
X51593750Y-114700000D01*
X160631250Y-57650000D02*
X161631250Y-57650000D01*
X161131250Y-57550000D02*
X160631250Y-56650000D01*
X160631250Y-56650000D02*
X161631250Y-56650000D01*
X161631250Y-56650000D02*
X161131250Y-57550000D01*
D11*
X332993276Y-62977500D02*
X333502724Y-62977500D01*
X332993276Y-64022500D02*
X333502724Y-64022500D01*
D10*
X108243750Y-114800000D02*
X109243750Y-114800000D01*
X108743750Y-114700000D02*
X108243750Y-113800000D01*
X108243750Y-113800000D02*
X109243750Y-113800000D01*
X109243750Y-113800000D02*
X108743750Y-114700000D01*
D11*
X342968750Y-87900000D02*
X345768750Y-87900000D01*
X342968750Y-89900000D02*
X342968750Y-87900000D01*
X345768750Y-87900000D02*
X345768750Y-89900000D01*
X345768750Y-89900000D02*
X342968750Y-89900000D01*
X88150000Y-50050000D02*
X88150000Y-64250000D01*
X88150000Y-64250000D02*
X102350000Y-64250000D01*
X102350000Y-50050000D02*
X88150000Y-50050000D01*
X102350000Y-64250000D02*
X102350000Y-50050000D01*
D10*
X198731250Y-38600000D02*
X199731250Y-38600000D01*
X199231250Y-38500000D02*
X198731250Y-37600000D01*
X198731250Y-37600000D02*
X199731250Y-37600000D01*
X199731250Y-37600000D02*
X199231250Y-38500000D01*
D11*
X344623474Y-76726296D02*
X344114026Y-76726296D01*
X344623474Y-75681296D02*
X344114026Y-75681296D01*
D10*
X84431250Y-38600000D02*
X85431250Y-38600000D01*
X84931250Y-38500000D02*
X84431250Y-37600000D01*
X84431250Y-37600000D02*
X85431250Y-37600000D01*
X85431250Y-37600000D02*
X84931250Y-38500000D01*
X113006250Y-76700000D02*
X114006250Y-76700000D01*
X113506250Y-76600000D02*
X113006250Y-75700000D01*
X113006250Y-75700000D02*
X114006250Y-75700000D01*
X114006250Y-75700000D02*
X113506250Y-76600000D01*
X217781250Y-38600000D02*
X218781250Y-38600000D01*
X218281250Y-38500000D02*
X217781250Y-37600000D01*
X217781250Y-37600000D02*
X218781250Y-37600000D01*
X218781250Y-37600000D02*
X218281250Y-38500000D01*
D11*
X92912500Y-126250000D02*
X92912500Y-140450000D01*
X92912500Y-140450000D02*
X107112500Y-140450000D01*
X107112500Y-126250000D02*
X92912500Y-126250000D01*
X107112500Y-140450000D02*
X107112500Y-126250000D01*
D10*
X313031250Y-57650000D02*
X314031250Y-57650000D01*
X313531250Y-57550000D02*
X313031250Y-56650000D01*
X313031250Y-56650000D02*
X314031250Y-56650000D01*
X314031250Y-56650000D02*
X313531250Y-57550000D01*
D11*
X332993276Y-85837500D02*
X333502724Y-85837500D01*
X332993276Y-86882500D02*
X333502724Y-86882500D01*
D10*
X313031250Y-76700000D02*
X314031250Y-76700000D01*
X313531250Y-76600000D02*
X313031250Y-75700000D01*
X313031250Y-75700000D02*
X314031250Y-75700000D01*
X314031250Y-75700000D02*
X313531250Y-76600000D01*
D11*
X316750000Y-126250000D02*
X316750000Y-140450000D01*
X316750000Y-140450000D02*
X330950000Y-140450000D01*
X330950000Y-126250000D02*
X316750000Y-126250000D01*
X330950000Y-140450000D02*
X330950000Y-126250000D01*
X344623474Y-46246296D02*
X344114026Y-46246296D01*
X344623474Y-45201296D02*
X344114026Y-45201296D01*
X83387500Y-88150000D02*
X83387500Y-102350000D01*
X83387500Y-102350000D02*
X97587500Y-102350000D01*
X97587500Y-88150000D02*
X83387500Y-88150000D01*
X97587500Y-102350000D02*
X97587500Y-88150000D01*
D10*
X255881250Y-57650000D02*
X256881250Y-57650000D01*
X256381250Y-57550000D02*
X255881250Y-56650000D01*
X255881250Y-56650000D02*
X256881250Y-56650000D01*
X256881250Y-56650000D02*
X256381250Y-57550000D01*
X293981250Y-133850000D02*
X294981250Y-133850000D01*
X294481250Y-133750000D02*
X293981250Y-132850000D01*
X293981250Y-132850000D02*
X294981250Y-132850000D01*
X294981250Y-132850000D02*
X294481250Y-133750000D01*
D11*
X342968750Y-37100000D02*
X345768750Y-37100000D01*
X342968750Y-39100000D02*
X342968750Y-37100000D01*
X345768750Y-37100000D02*
X345768750Y-39100000D01*
X345768750Y-39100000D02*
X342968750Y-39100000D01*
D10*
X184443750Y-114800000D02*
X185443750Y-114800000D01*
X184943750Y-114700000D02*
X184443750Y-113800000D01*
X184443750Y-113800000D02*
X185443750Y-113800000D01*
X185443750Y-113800000D02*
X184943750Y-114700000D01*
D11*
X211975000Y-69100000D02*
X211975000Y-83300000D01*
X211975000Y-83300000D02*
X226175000Y-83300000D01*
X226175000Y-69100000D02*
X211975000Y-69100000D01*
X226175000Y-83300000D02*
X226175000Y-69100000D01*
X269125000Y-69100000D02*
X269125000Y-83300000D01*
X269125000Y-83300000D02*
X283325000Y-83300000D01*
X283325000Y-69100000D02*
X269125000Y-69100000D01*
X283325000Y-83300000D02*
X283325000Y-69100000D01*
X35762500Y-69100000D02*
X35762500Y-83300000D01*
X35762500Y-83300000D02*
X49962500Y-83300000D01*
X49962500Y-69100000D02*
X35762500Y-69100000D01*
X49962500Y-83300000D02*
X49962500Y-69100000D01*
D10*
X60618750Y-95750000D02*
X61618750Y-95750000D01*
X61118750Y-95650000D02*
X60618750Y-94750000D01*
X60618750Y-94750000D02*
X61618750Y-94750000D01*
X61618750Y-94750000D02*
X61118750Y-95650000D01*
D11*
X154825000Y-69100000D02*
X154825000Y-83300000D01*
X154825000Y-83300000D02*
X169025000Y-83300000D01*
X169025000Y-69100000D02*
X154825000Y-69100000D01*
X169025000Y-83300000D02*
X169025000Y-69100000D01*
D10*
X74906250Y-76700000D02*
X75906250Y-76700000D01*
X75406250Y-76600000D02*
X74906250Y-75700000D01*
X74906250Y-75700000D02*
X75906250Y-75700000D01*
X75906250Y-75700000D02*
X75406250Y-76600000D01*
D11*
X292937500Y-69100000D02*
X292937500Y-83300000D01*
X292937500Y-83300000D02*
X307137500Y-83300000D01*
X307137500Y-69100000D02*
X292937500Y-69100000D01*
X307137500Y-83300000D02*
X307137500Y-69100000D01*
X78681250Y-69100000D02*
X78681250Y-83300000D01*
X78681250Y-83300000D02*
X92881250Y-83300000D01*
X92881250Y-69100000D02*
X78681250Y-69100000D01*
X92881250Y-83300000D02*
X92881250Y-69100000D01*
X344114026Y-73141296D02*
X344623474Y-73141296D01*
X344114026Y-74186296D02*
X344623474Y-74186296D01*
X164350000Y-50050000D02*
X164350000Y-64250000D01*
X164350000Y-64250000D02*
X178550000Y-64250000D01*
X178550000Y-50050000D02*
X164350000Y-50050000D01*
X178550000Y-64250000D02*
X178550000Y-50050000D01*
X64337500Y-88150000D02*
X64337500Y-102350000D01*
X64337500Y-102350000D02*
X78537500Y-102350000D01*
X78537500Y-88150000D02*
X64337500Y-88150000D01*
X78537500Y-102350000D02*
X78537500Y-88150000D01*
X344623474Y-43706296D02*
X344114026Y-43706296D01*
X344623474Y-42661296D02*
X344114026Y-42661296D01*
D10*
X132056250Y-76700000D02*
X133056250Y-76700000D01*
X132556250Y-76600000D02*
X132056250Y-75700000D01*
X132056250Y-75700000D02*
X133056250Y-75700000D01*
X133056250Y-75700000D02*
X132556250Y-76600000D01*
D11*
X344623474Y-79266296D02*
X344114026Y-79266296D01*
X344623474Y-78221296D02*
X344114026Y-78221296D01*
D10*
X165393750Y-114800000D02*
X166393750Y-114800000D01*
X165893750Y-114700000D02*
X165393750Y-113800000D01*
X165393750Y-113800000D02*
X166393750Y-113800000D01*
X166393750Y-113800000D02*
X165893750Y-114700000D01*
D11*
X332993276Y-42657500D02*
X333502724Y-42657500D01*
X332993276Y-43702500D02*
X333502724Y-43702500D01*
D10*
X270168750Y-133850000D02*
X271168750Y-133850000D01*
X270668750Y-133750000D02*
X270168750Y-132850000D01*
X270168750Y-132850000D02*
X271168750Y-132850000D01*
X271168750Y-132850000D02*
X270668750Y-133750000D01*
X208256250Y-76700000D02*
X209256250Y-76700000D01*
X208756250Y-76600000D02*
X208256250Y-75700000D01*
X208256250Y-75700000D02*
X209256250Y-75700000D01*
X209256250Y-75700000D02*
X208756250Y-76600000D01*
D11*
X221500000Y-50050000D02*
X221500000Y-64250000D01*
X221500000Y-64250000D02*
X235700000Y-64250000D01*
X235700000Y-50050000D02*
X221500000Y-50050000D01*
X235700000Y-64250000D02*
X235700000Y-50050000D01*
D10*
X151106250Y-76700000D02*
X152106250Y-76700000D01*
X151606250Y-76600000D02*
X151106250Y-75700000D01*
X151106250Y-75700000D02*
X152106250Y-75700000D01*
X152106250Y-75700000D02*
X151606250Y-76600000D01*
X46331250Y-57650000D02*
X47331250Y-57650000D01*
X46831250Y-57550000D02*
X46331250Y-56650000D01*
X46331250Y-56650000D02*
X47331250Y-56650000D01*
X47331250Y-56650000D02*
X46831250Y-57550000D01*
D11*
X341697000Y-29033000D02*
X342392000Y-29033000D01*
X341697000Y-29718000D02*
X341697000Y-29033000D01*
X341697000Y-30403000D02*
X341697000Y-30278000D01*
X341697000Y-30403000D02*
X341783724Y-30403000D01*
X341697000Y-30403000D02*
X343087000Y-30403000D01*
X343000276Y-30403000D02*
X343087000Y-30403000D01*
X343087000Y-30403000D02*
X343087000Y-30278000D01*
X254837500Y-88150000D02*
X254837500Y-102350000D01*
X254837500Y-102350000D02*
X269037500Y-102350000D01*
X269037500Y-88150000D02*
X254837500Y-88150000D01*
X269037500Y-102350000D02*
X269037500Y-88150000D01*
D10*
X227306250Y-76700000D02*
X228306250Y-76700000D01*
X227806250Y-76600000D02*
X227306250Y-75700000D01*
X227306250Y-75700000D02*
X228306250Y-75700000D01*
X228306250Y-75700000D02*
X227806250Y-76600000D01*
D11*
X288175000Y-50050000D02*
X288175000Y-64250000D01*
X288175000Y-64250000D02*
X302375000Y-64250000D01*
X302375000Y-50050000D02*
X288175000Y-50050000D01*
X302375000Y-64250000D02*
X302375000Y-50050000D01*
X259600000Y-31000000D02*
X259600000Y-45200000D01*
X259600000Y-45200000D02*
X273800000Y-45200000D01*
X273800000Y-31000000D02*
X259600000Y-31000000D01*
X273800000Y-45200000D02*
X273800000Y-31000000D01*
X344114026Y-70601296D02*
X344623474Y-70601296D01*
X344114026Y-71646296D02*
X344623474Y-71646296D01*
X344623474Y-56406296D02*
X344114026Y-56406296D01*
X344623474Y-55361296D02*
X344114026Y-55361296D01*
D10*
X141581250Y-57650000D02*
X142581250Y-57650000D01*
X142081250Y-57550000D02*
X141581250Y-56650000D01*
X141581250Y-56650000D02*
X142581250Y-56650000D01*
X142581250Y-56650000D02*
X142081250Y-57550000D01*
X136818750Y-95750000D02*
X137818750Y-95750000D01*
X137318750Y-95650000D02*
X136818750Y-94750000D01*
X136818750Y-94750000D02*
X137818750Y-94750000D01*
X137818750Y-94750000D02*
X137318750Y-95650000D01*
X246356250Y-76700000D02*
X247356250Y-76700000D01*
X246856250Y-76600000D02*
X246356250Y-75700000D01*
X246356250Y-75700000D02*
X247356250Y-75700000D01*
X247356250Y-75700000D02*
X246856250Y-76600000D01*
X79668750Y-95750000D02*
X80668750Y-95750000D01*
X80168750Y-95650000D02*
X79668750Y-94750000D01*
X79668750Y-94750000D02*
X80668750Y-94750000D01*
X80668750Y-94750000D02*
X80168750Y-95650000D01*
D11*
X281031250Y-107200000D02*
X281031250Y-121400000D01*
X281031250Y-121400000D02*
X295231250Y-121400000D01*
X295231250Y-107200000D02*
X281031250Y-107200000D01*
X295231250Y-121400000D02*
X295231250Y-107200000D01*
X344623474Y-48786296D02*
X344114026Y-48786296D01*
X344623474Y-47741296D02*
X344114026Y-47741296D01*
X202450000Y-50050000D02*
X202450000Y-64250000D01*
X202450000Y-64250000D02*
X216650000Y-64250000D01*
X216650000Y-50050000D02*
X202450000Y-50050000D01*
X216650000Y-64250000D02*
X216650000Y-50050000D01*
D10*
X236831250Y-57650000D02*
X237831250Y-57650000D01*
X237331250Y-57550000D02*
X236831250Y-56650000D01*
X236831250Y-56650000D02*
X237831250Y-56650000D01*
X237831250Y-56650000D02*
X237331250Y-57550000D01*
D11*
X240550000Y-31000000D02*
X240550000Y-45200000D01*
X240550000Y-45200000D02*
X254750000Y-45200000D01*
X254750000Y-31000000D02*
X240550000Y-31000000D01*
X254750000Y-45200000D02*
X254750000Y-31000000D01*
X316750000Y-107200000D02*
X316750000Y-121400000D01*
X316750000Y-121400000D02*
X330950000Y-121400000D01*
X330950000Y-107200000D02*
X316750000Y-107200000D01*
X330950000Y-121400000D02*
X330950000Y-107200000D01*
X285793750Y-88150000D02*
X285793750Y-102350000D01*
X285793750Y-102350000D02*
X299993750Y-102350000D01*
X299993750Y-88150000D02*
X285793750Y-88150000D01*
X299993750Y-102350000D02*
X299993750Y-88150000D01*
D10*
X146343750Y-114800000D02*
X147343750Y-114800000D01*
X146843750Y-114700000D02*
X146343750Y-113800000D01*
X146343750Y-113800000D02*
X147343750Y-113800000D01*
X147343750Y-113800000D02*
X146843750Y-114700000D01*
D11*
X250075000Y-69100000D02*
X250075000Y-83300000D01*
X250075000Y-83300000D02*
X264275000Y-83300000D01*
X264275000Y-69100000D02*
X250075000Y-69100000D01*
X264275000Y-83300000D02*
X264275000Y-69100000D01*
D10*
X241593750Y-114800000D02*
X242593750Y-114800000D01*
X242093750Y-114700000D02*
X241593750Y-113800000D01*
X241593750Y-113800000D02*
X242593750Y-113800000D01*
X242593750Y-113800000D02*
X242093750Y-114700000D01*
D11*
X207212500Y-107200000D02*
X207212500Y-121400000D01*
X207212500Y-121400000D02*
X221412500Y-121400000D01*
X221412500Y-107200000D02*
X207212500Y-107200000D01*
X221412500Y-121400000D02*
X221412500Y-107200000D01*
X202450000Y-31000000D02*
X202450000Y-45200000D01*
X202450000Y-45200000D02*
X216650000Y-45200000D01*
X216650000Y-31000000D02*
X202450000Y-31000000D01*
X216650000Y-45200000D02*
X216650000Y-31000000D01*
X111962500Y-107200000D02*
X111962500Y-121400000D01*
X111962500Y-121400000D02*
X126162500Y-121400000D01*
X126162500Y-107200000D02*
X111962500Y-107200000D01*
X126162500Y-121400000D02*
X126162500Y-107200000D01*
X297700000Y-31000000D02*
X297700000Y-45200000D01*
X297700000Y-45200000D02*
X311900000Y-45200000D01*
X311900000Y-31000000D02*
X297700000Y-31000000D01*
X311900000Y-45200000D02*
X311900000Y-31000000D01*
X226262500Y-107200000D02*
X226262500Y-121400000D01*
X226262500Y-121400000D02*
X240462500Y-121400000D01*
X240462500Y-107200000D02*
X226262500Y-107200000D01*
X240462500Y-121400000D02*
X240462500Y-107200000D01*
X159587500Y-88150000D02*
X159587500Y-102350000D01*
X159587500Y-102350000D02*
X173787500Y-102350000D01*
X173787500Y-88150000D02*
X159587500Y-88150000D01*
X173787500Y-102350000D02*
X173787500Y-88150000D01*
X197687500Y-88150000D02*
X197687500Y-102350000D01*
X197687500Y-102350000D02*
X211887500Y-102350000D01*
X211887500Y-88150000D02*
X197687500Y-88150000D01*
X211887500Y-102350000D02*
X211887500Y-88150000D01*
X73862500Y-126250000D02*
X73862500Y-140450000D01*
X73862500Y-140450000D02*
X88062500Y-140450000D01*
X88062500Y-126250000D02*
X73862500Y-126250000D01*
X88062500Y-140450000D02*
X88062500Y-126250000D01*
X73862500Y-107200000D02*
X73862500Y-121400000D01*
X73862500Y-121400000D02*
X88062500Y-121400000D01*
X88062500Y-107200000D02*
X73862500Y-107200000D01*
X88062500Y-121400000D02*
X88062500Y-107200000D01*
X332993276Y-57897500D02*
X333502724Y-57897500D01*
X332993276Y-58942500D02*
X333502724Y-58942500D01*
X332993276Y-68057500D02*
X333502724Y-68057500D01*
X332993276Y-69102500D02*
X333502724Y-69102500D01*
X135775000Y-69100000D02*
X135775000Y-83300000D01*
X135775000Y-83300000D02*
X149975000Y-83300000D01*
X149975000Y-69100000D02*
X135775000Y-69100000D01*
X149975000Y-83300000D02*
X149975000Y-69100000D01*
X332993276Y-65517500D02*
X333502724Y-65517500D01*
X332993276Y-66562500D02*
X333502724Y-66562500D01*
D10*
X65381250Y-38600000D02*
X66381250Y-38600000D01*
X65881250Y-38500000D02*
X65381250Y-37600000D01*
X65381250Y-37600000D02*
X66381250Y-37600000D01*
X66381250Y-37600000D02*
X65881250Y-38500000D01*
D11*
X102437500Y-88150000D02*
X102437500Y-102350000D01*
X102437500Y-102350000D02*
X116637500Y-102350000D01*
X116637500Y-88150000D02*
X102437500Y-88150000D01*
X116637500Y-102350000D02*
X116637500Y-88150000D01*
X332993276Y-45197500D02*
X333502724Y-45197500D01*
X332993276Y-46242500D02*
X333502724Y-46242500D01*
X116725000Y-69100000D02*
X116725000Y-83300000D01*
X116725000Y-83300000D02*
X130925000Y-83300000D01*
X130925000Y-69100000D02*
X116725000Y-69100000D01*
X130925000Y-83300000D02*
X130925000Y-69100000D01*
D10*
X46331250Y-38600000D02*
X47331250Y-38600000D01*
X46831250Y-38500000D02*
X46331250Y-37600000D01*
X46331250Y-37600000D02*
X47331250Y-37600000D01*
X47331250Y-37600000D02*
X46831250Y-38500000D01*
D11*
X92912500Y-107200000D02*
X92912500Y-121400000D01*
X92912500Y-121400000D02*
X107112500Y-121400000D01*
X107112500Y-107200000D02*
X92912500Y-107200000D01*
X107112500Y-121400000D02*
X107112500Y-107200000D01*
X344623474Y-61486296D02*
X344114026Y-61486296D01*
X344623474Y-60441296D02*
X344114026Y-60441296D01*
X121487500Y-88150000D02*
X121487500Y-102350000D01*
X121487500Y-102350000D02*
X135687500Y-102350000D01*
X135687500Y-88150000D02*
X121487500Y-88150000D01*
X135687500Y-102350000D02*
X135687500Y-88150000D01*
X145300000Y-31000000D02*
X145300000Y-45200000D01*
X145300000Y-45200000D02*
X159500000Y-45200000D01*
X159500000Y-31000000D02*
X145300000Y-31000000D01*
X159500000Y-45200000D02*
X159500000Y-31000000D01*
X126250000Y-31000000D02*
X126250000Y-45200000D01*
X126250000Y-45200000D02*
X140450000Y-45200000D01*
X140450000Y-31000000D02*
X126250000Y-31000000D01*
X140450000Y-45200000D02*
X140450000Y-31000000D01*
X221500000Y-31000000D02*
X221500000Y-45200000D01*
X221500000Y-45200000D02*
X235700000Y-45200000D01*
X235700000Y-31000000D02*
X221500000Y-31000000D01*
X235700000Y-45200000D02*
X235700000Y-31000000D01*
X150062500Y-107200000D02*
X150062500Y-121400000D01*
X150062500Y-121400000D02*
X164262500Y-121400000D01*
X164262500Y-107200000D02*
X150062500Y-107200000D01*
X164262500Y-121400000D02*
X164262500Y-107200000D01*
X192925000Y-69100000D02*
X192925000Y-83300000D01*
X192925000Y-83300000D02*
X207125000Y-83300000D01*
X207125000Y-69100000D02*
X192925000Y-69100000D01*
X207125000Y-83300000D02*
X207125000Y-69100000D01*
X145300000Y-50050000D02*
X145300000Y-64250000D01*
X145300000Y-64250000D02*
X159500000Y-64250000D01*
X159500000Y-50050000D02*
X145300000Y-50050000D01*
X159500000Y-64250000D02*
X159500000Y-50050000D01*
D10*
X313031250Y-38600000D02*
X314031250Y-38600000D01*
X313531250Y-38500000D02*
X313031250Y-37600000D01*
X313031250Y-37600000D02*
X314031250Y-37600000D01*
X314031250Y-37600000D02*
X313531250Y-38500000D01*
D11*
X338141000Y-29033000D02*
X338836000Y-29033000D01*
X338141000Y-29718000D02*
X338141000Y-29033000D01*
X338141000Y-30403000D02*
X338141000Y-30278000D01*
X338141000Y-30403000D02*
X338227724Y-30403000D01*
X338141000Y-30403000D02*
X339531000Y-30403000D01*
X339444276Y-30403000D02*
X339531000Y-30403000D01*
X339531000Y-30403000D02*
X339531000Y-30278000D01*
X183400000Y-50050000D02*
X183400000Y-64250000D01*
X183400000Y-64250000D02*
X197600000Y-64250000D01*
X197600000Y-50050000D02*
X183400000Y-50050000D01*
X197600000Y-64250000D02*
X197600000Y-50050000D01*
D10*
X222543750Y-114800000D02*
X223543750Y-114800000D01*
X223043750Y-114700000D02*
X222543750Y-113800000D01*
X222543750Y-113800000D02*
X223543750Y-113800000D01*
X223543750Y-113800000D02*
X223043750Y-114700000D01*
D11*
X131012500Y-107200000D02*
X131012500Y-121400000D01*
X131012500Y-121400000D02*
X145212500Y-121400000D01*
X145212500Y-107200000D02*
X131012500Y-107200000D01*
X145212500Y-121400000D02*
X145212500Y-107200000D01*
X344623474Y-66566296D02*
X344114026Y-66566296D01*
X344623474Y-65521296D02*
X344114026Y-65521296D01*
X69100000Y-31000000D02*
X69100000Y-45200000D01*
X69100000Y-45200000D02*
X83300000Y-45200000D01*
X83300000Y-31000000D02*
X69100000Y-31000000D01*
X83300000Y-45200000D02*
X83300000Y-31000000D01*
D10*
X122531250Y-57650000D02*
X123531250Y-57650000D01*
X123031250Y-57550000D02*
X122531250Y-56650000D01*
X122531250Y-56650000D02*
X123531250Y-56650000D01*
X123531250Y-56650000D02*
X123031250Y-57550000D01*
X232068750Y-95750000D02*
X233068750Y-95750000D01*
X232568750Y-95650000D02*
X232068750Y-94750000D01*
X232068750Y-94750000D02*
X233068750Y-94750000D01*
X233068750Y-94750000D02*
X232568750Y-95650000D01*
D11*
X173875000Y-69100000D02*
X173875000Y-83300000D01*
X173875000Y-83300000D02*
X188075000Y-83300000D01*
X188075000Y-69100000D02*
X173875000Y-69100000D01*
X188075000Y-83300000D02*
X188075000Y-69100000D01*
D10*
X203493750Y-114800000D02*
X204493750Y-114800000D01*
X203993750Y-114700000D02*
X203493750Y-113800000D01*
X203493750Y-113800000D02*
X204493750Y-113800000D01*
X204493750Y-113800000D02*
X203993750Y-114700000D01*
X89193750Y-133850000D02*
X90193750Y-133850000D01*
X89693750Y-133750000D02*
X89193750Y-132850000D01*
X89193750Y-132850000D02*
X90193750Y-132850000D01*
X90193750Y-132850000D02*
X89693750Y-133750000D01*
X98718750Y-95750000D02*
X99718750Y-95750000D01*
X99218750Y-95650000D02*
X98718750Y-94750000D01*
X98718750Y-94750000D02*
X99718750Y-94750000D01*
X99718750Y-94750000D02*
X99218750Y-95650000D01*
D11*
X59575000Y-69100000D02*
X59575000Y-83300000D01*
X59575000Y-83300000D02*
X73775000Y-83300000D01*
X73775000Y-69100000D02*
X59575000Y-69100000D01*
X73775000Y-83300000D02*
X73775000Y-69100000D01*
D10*
X160631250Y-38600000D02*
X161631250Y-38600000D01*
X161131250Y-38500000D02*
X160631250Y-37600000D01*
X160631250Y-37600000D02*
X161631250Y-37600000D01*
X161631250Y-37600000D02*
X161131250Y-38500000D01*
D11*
X107200000Y-31000000D02*
X107200000Y-45200000D01*
X107200000Y-45200000D02*
X121400000Y-45200000D01*
X121400000Y-31000000D02*
X107200000Y-31000000D01*
X121400000Y-45200000D02*
X121400000Y-31000000D01*
X33381250Y-126250000D02*
X33381250Y-140450000D01*
X33381250Y-140450000D02*
X47581250Y-140450000D01*
X47581250Y-126250000D02*
X33381250Y-126250000D01*
X47581250Y-140450000D02*
X47581250Y-126250000D01*
D10*
X179681250Y-38600000D02*
X180681250Y-38600000D01*
X180181250Y-38500000D02*
X179681250Y-37600000D01*
X179681250Y-37600000D02*
X180681250Y-37600000D01*
X180681250Y-37600000D02*
X180181250Y-38500000D01*
X313031250Y-133850000D02*
X314031250Y-133850000D01*
X313531250Y-133750000D02*
X313031250Y-132850000D01*
X313031250Y-132850000D02*
X314031250Y-132850000D01*
X314031250Y-132850000D02*
X313531250Y-133750000D01*
D11*
X350333000Y-100121250D02*
X351028000Y-100121250D01*
X350333000Y-100806250D02*
X350333000Y-100121250D01*
X350333000Y-101491250D02*
X350333000Y-101366250D01*
X350333000Y-101491250D02*
X350419724Y-101491250D01*
X350333000Y-101491250D02*
X351723000Y-101491250D01*
X351636276Y-101491250D02*
X351723000Y-101491250D01*
X351723000Y-101491250D02*
X351723000Y-101366250D01*
D10*
X260643750Y-114800000D02*
X261643750Y-114800000D01*
X261143750Y-114700000D02*
X260643750Y-113800000D01*
X260643750Y-113800000D02*
X261643750Y-113800000D01*
X261643750Y-113800000D02*
X261143750Y-114700000D01*
D11*
X332993276Y-88377500D02*
X333502724Y-88377500D01*
X332993276Y-89422500D02*
X333502724Y-89422500D01*
X342968750Y-92662500D02*
X345768750Y-92662500D01*
X342968750Y-94662500D02*
X342968750Y-92662500D01*
X345768750Y-92662500D02*
X345768750Y-94662500D01*
X345768750Y-94662500D02*
X342968750Y-94662500D01*
D10*
X313031250Y-95750000D02*
X314031250Y-95750000D01*
X313531250Y-95650000D02*
X313031250Y-94750000D01*
X313031250Y-94750000D02*
X314031250Y-94750000D01*
X314031250Y-94750000D02*
X313531250Y-95650000D01*
X93956250Y-76700000D02*
X94956250Y-76700000D01*
X94456250Y-76600000D02*
X93956250Y-75700000D01*
X93956250Y-75700000D02*
X94956250Y-75700000D01*
X94956250Y-75700000D02*
X94456250Y-76600000D01*
X213018750Y-95750000D02*
X214018750Y-95750000D01*
X213518750Y-95650000D02*
X213018750Y-94750000D01*
X213018750Y-94750000D02*
X214018750Y-94750000D01*
X214018750Y-94750000D02*
X213518750Y-95650000D01*
X127293750Y-114800000D02*
X128293750Y-114800000D01*
X127793750Y-114700000D02*
X127293750Y-113800000D01*
X127293750Y-113800000D02*
X128293750Y-113800000D01*
X128293750Y-113800000D02*
X127793750Y-114700000D01*
X227306250Y-133850000D02*
X228306250Y-133850000D01*
X227806250Y-133750000D02*
X227306250Y-132850000D01*
X227306250Y-132850000D02*
X228306250Y-132850000D01*
X228306250Y-132850000D02*
X227806250Y-133750000D01*
D11*
X31000000Y-31000000D02*
X31000000Y-45200000D01*
X31000000Y-45200000D02*
X45200000Y-45200000D01*
X45200000Y-31000000D02*
X31000000Y-31000000D01*
X45200000Y-45200000D02*
X45200000Y-31000000D01*
X350333000Y-103201000D02*
X351028000Y-103201000D01*
X350333000Y-103886000D02*
X350333000Y-103201000D01*
X350333000Y-104571000D02*
X350333000Y-104446000D01*
X350333000Y-104571000D02*
X350419724Y-104571000D01*
X350333000Y-104571000D02*
X351723000Y-104571000D01*
X351636276Y-104571000D02*
X351723000Y-104571000D01*
X351723000Y-104571000D02*
X351723000Y-104446000D01*
X50095000Y-50050000D02*
X50095000Y-64250000D01*
X50095000Y-64250000D02*
X64295000Y-64250000D01*
X64295000Y-50050000D02*
X50095000Y-50050000D01*
X64295000Y-64250000D02*
X64295000Y-50050000D01*
X344623474Y-84346296D02*
X344114026Y-84346296D01*
X344623474Y-83301296D02*
X344114026Y-83301296D01*
D10*
X170156250Y-76700000D02*
X171156250Y-76700000D01*
X170656250Y-76600000D02*
X170156250Y-75700000D01*
X170156250Y-75700000D02*
X171156250Y-75700000D01*
X171156250Y-75700000D02*
X170656250Y-76600000D01*
X122531250Y-38600000D02*
X123531250Y-38600000D01*
X123031250Y-38500000D02*
X122531250Y-37600000D01*
X122531250Y-37600000D02*
X123531250Y-37600000D01*
X123531250Y-37600000D02*
X123031250Y-38500000D01*
D11*
X278650000Y-31000000D02*
X278650000Y-45200000D01*
X278650000Y-45200000D02*
X292850000Y-45200000D01*
X292850000Y-31000000D02*
X278650000Y-31000000D01*
X292850000Y-45200000D02*
X292850000Y-31000000D01*
X164350000Y-31000000D02*
X164350000Y-45200000D01*
X164350000Y-45200000D02*
X178550000Y-45200000D01*
X178550000Y-31000000D02*
X164350000Y-31000000D01*
X178550000Y-45200000D02*
X178550000Y-31000000D01*
X88150000Y-31000000D02*
X88150000Y-45200000D01*
X88150000Y-45200000D02*
X102350000Y-45200000D01*
X102350000Y-31000000D02*
X88150000Y-31000000D01*
X102350000Y-45200000D02*
X102350000Y-31000000D01*
X344623474Y-81806296D02*
X344114026Y-81806296D01*
X344623474Y-80761296D02*
X344114026Y-80761296D01*
X50050000Y-31000000D02*
X50050000Y-45200000D01*
X50050000Y-45200000D02*
X64250000Y-45200000D01*
X64250000Y-31000000D02*
X50050000Y-31000000D01*
X64250000Y-45200000D02*
X64250000Y-31000000D01*
X245312500Y-107200000D02*
X245312500Y-121400000D01*
X245312500Y-121400000D02*
X259512500Y-121400000D01*
X259512500Y-107200000D02*
X245312500Y-107200000D01*
X259512500Y-121400000D02*
X259512500Y-107200000D01*
X33381250Y-107200000D02*
X33381250Y-121400000D01*
X33381250Y-121400000D02*
X47581250Y-121400000D01*
X47581250Y-107200000D02*
X33381250Y-107200000D01*
X47581250Y-121400000D02*
X47581250Y-107200000D01*
X350333000Y-106249000D02*
X351028000Y-106249000D01*
X350333000Y-106934000D02*
X350333000Y-106249000D01*
X350333000Y-107619000D02*
X350333000Y-107494000D01*
X350333000Y-107619000D02*
X350419724Y-107619000D01*
X350333000Y-107619000D02*
X351723000Y-107619000D01*
X351636276Y-107619000D02*
X351723000Y-107619000D01*
X351723000Y-107619000D02*
X351723000Y-107494000D01*
X344623474Y-58946296D02*
X344114026Y-58946296D01*
X344623474Y-57901296D02*
X344114026Y-57901296D01*
D10*
X274931250Y-57650000D02*
X275931250Y-57650000D01*
X275431250Y-57550000D02*
X274931250Y-56650000D01*
X274931250Y-56650000D02*
X275931250Y-56650000D01*
X275931250Y-56650000D02*
X275431250Y-57550000D01*
X103481250Y-57650000D02*
X104481250Y-57650000D01*
X103981250Y-57550000D02*
X103481250Y-56650000D01*
X103481250Y-56650000D02*
X104481250Y-56650000D01*
X104481250Y-56650000D02*
X103981250Y-57550000D01*
D11*
X332993276Y-80757500D02*
X333502724Y-80757500D01*
X332993276Y-81802500D02*
X333502724Y-81802500D01*
X38143750Y-88150000D02*
X38143750Y-102350000D01*
X38143750Y-102350000D02*
X52343750Y-102350000D01*
X52343750Y-88150000D02*
X38143750Y-88150000D01*
X52343750Y-102350000D02*
X52343750Y-88150000D01*
X344114026Y-90758750D02*
X344623474Y-90758750D01*
X344114026Y-91803750D02*
X344623474Y-91803750D01*
X183400000Y-31000000D02*
X183400000Y-45200000D01*
X183400000Y-45200000D02*
X197600000Y-45200000D01*
X197600000Y-31000000D02*
X183400000Y-31000000D01*
X197600000Y-45200000D02*
X197600000Y-31000000D01*
X276268750Y-126250000D02*
X276268750Y-140450000D01*
X276268750Y-140450000D02*
X290468750Y-140450000D01*
X290468750Y-126250000D02*
X276268750Y-126250000D01*
X290468750Y-140450000D02*
X290468750Y-126250000D01*
X342968750Y-39640000D02*
X345768750Y-39640000D01*
X342968750Y-41640000D02*
X342968750Y-39640000D01*
X345768750Y-39640000D02*
X345768750Y-41640000D01*
X345768750Y-41640000D02*
X342968750Y-41640000D01*
X332993276Y-50277500D02*
X333502724Y-50277500D01*
X332993276Y-51322500D02*
X333502724Y-51322500D01*
X233406250Y-126250000D02*
X233406250Y-140450000D01*
X233406250Y-140450000D02*
X247606250Y-140450000D01*
X247606250Y-126250000D02*
X233406250Y-126250000D01*
X247606250Y-140450000D02*
X247606250Y-126250000D01*
X344623474Y-53866296D02*
X344114026Y-53866296D01*
X344623474Y-52821296D02*
X344114026Y-52821296D01*
D10*
X217781250Y-57650000D02*
X218781250Y-57650000D01*
X218281250Y-57550000D02*
X217781250Y-56650000D01*
X217781250Y-56650000D02*
X218781250Y-56650000D01*
X218781250Y-56650000D02*
X218281250Y-57550000D01*
D11*
X54812500Y-107200000D02*
X54812500Y-121400000D01*
X54812500Y-121400000D02*
X69012500Y-121400000D01*
X69012500Y-107200000D02*
X54812500Y-107200000D01*
X69012500Y-121400000D02*
X69012500Y-107200000D01*
D10*
X55856250Y-76700000D02*
X56856250Y-76700000D01*
X56356250Y-76600000D02*
X55856250Y-75700000D01*
X55856250Y-75700000D02*
X56856250Y-75700000D01*
X56856250Y-75700000D02*
X56356250Y-76600000D01*
D11*
X126250000Y-50050000D02*
X126250000Y-64250000D01*
X126250000Y-64250000D02*
X140450000Y-64250000D01*
X140450000Y-50050000D02*
X126250000Y-50050000D01*
X140450000Y-64250000D02*
X140450000Y-50050000D01*
X333502724Y-74182500D02*
X332993276Y-74182500D01*
X333502724Y-73137500D02*
X332993276Y-73137500D01*
X231025000Y-69100000D02*
X231025000Y-83300000D01*
X231025000Y-83300000D02*
X245225000Y-83300000D01*
X245225000Y-69100000D02*
X231025000Y-69100000D01*
X245225000Y-83300000D02*
X245225000Y-69100000D01*
X69100000Y-50050000D02*
X69100000Y-64250000D01*
X69100000Y-64250000D02*
X83300000Y-64250000D01*
X83300000Y-50050000D02*
X69100000Y-50050000D01*
X83300000Y-64250000D02*
X83300000Y-50050000D01*
X140537500Y-88150000D02*
X140537500Y-102350000D01*
X140537500Y-102350000D02*
X154737500Y-102350000D01*
X154737500Y-88150000D02*
X140537500Y-88150000D01*
X154737500Y-102350000D02*
X154737500Y-88150000D01*
X335800000Y-126250000D02*
X335800000Y-140450000D01*
X335800000Y-140450000D02*
X350000000Y-140450000D01*
X350000000Y-126250000D02*
X335800000Y-126250000D01*
X350000000Y-140450000D02*
X350000000Y-126250000D01*
X161968750Y-126250000D02*
X161968750Y-140450000D01*
X161968750Y-140450000D02*
X176168750Y-140450000D01*
X176168750Y-126250000D02*
X161968750Y-126250000D01*
X176168750Y-140450000D02*
X176168750Y-126250000D01*
X188162500Y-107200000D02*
X188162500Y-121400000D01*
X188162500Y-121400000D02*
X202362500Y-121400000D01*
X202362500Y-107200000D02*
X188162500Y-107200000D01*
X202362500Y-121400000D02*
X202362500Y-107200000D01*
D10*
X293981250Y-38600000D02*
X294981250Y-38600000D01*
X294481250Y-38500000D02*
X293981250Y-37600000D01*
X293981250Y-37600000D02*
X294981250Y-37600000D01*
X294981250Y-37600000D02*
X294481250Y-38500000D01*
X284456250Y-76700000D02*
X285456250Y-76700000D01*
X284956250Y-76600000D02*
X284456250Y-75700000D01*
X284456250Y-75700000D02*
X285456250Y-75700000D01*
X285456250Y-75700000D02*
X284956250Y-76600000D01*
D11*
X297700000Y-126250000D02*
X297700000Y-140450000D01*
X297700000Y-140450000D02*
X311900000Y-140450000D01*
X311900000Y-126250000D02*
X297700000Y-126250000D01*
X311900000Y-140450000D02*
X311900000Y-126250000D01*
D10*
X189206250Y-76700000D02*
X190206250Y-76700000D01*
X189706250Y-76600000D02*
X189206250Y-75700000D01*
X189206250Y-75700000D02*
X190206250Y-75700000D01*
X190206250Y-75700000D02*
X189706250Y-76600000D01*
D11*
X178637500Y-88150000D02*
X178637500Y-102350000D01*
X178637500Y-102350000D02*
X192837500Y-102350000D01*
X192837500Y-88150000D02*
X178637500Y-88150000D01*
X192837500Y-102350000D02*
X192837500Y-88150000D01*
X240550000Y-50050000D02*
X240550000Y-64250000D01*
X240550000Y-64250000D02*
X254750000Y-64250000D01*
X254750000Y-50050000D02*
X240550000Y-50050000D01*
X254750000Y-64250000D02*
X254750000Y-50050000D01*
X169112500Y-107200000D02*
X169112500Y-121400000D01*
X169112500Y-121400000D02*
X183312500Y-121400000D01*
X183312500Y-107200000D02*
X169112500Y-107200000D01*
X183312500Y-121400000D02*
X183312500Y-107200000D01*
X332993276Y-55357500D02*
X333502724Y-55357500D01*
X332993276Y-56402500D02*
X333502724Y-56402500D01*
D10*
X265406250Y-76700000D02*
X266406250Y-76700000D01*
X265906250Y-76600000D02*
X265406250Y-75700000D01*
X265406250Y-75700000D02*
X266406250Y-75700000D01*
X266406250Y-75700000D02*
X265906250Y-76600000D01*
X351131250Y-133850000D02*
X352131250Y-133850000D01*
X351631250Y-133750000D02*
X351131250Y-132850000D01*
X351131250Y-132850000D02*
X352131250Y-132850000D01*
X352131250Y-132850000D02*
X351631250Y-133750000D01*
D11*
X332993276Y-60437500D02*
X333502724Y-60437500D01*
X332993276Y-61482500D02*
X333502724Y-61482500D01*
D10*
X103481250Y-38600000D02*
X104481250Y-38600000D01*
X103981250Y-38500000D02*
X103481250Y-37600000D01*
X103481250Y-37600000D02*
X104481250Y-37600000D01*
X104481250Y-37600000D02*
X103981250Y-38500000D01*
D11*
X107200000Y-50050000D02*
X107200000Y-64250000D01*
X107200000Y-64250000D02*
X121400000Y-64250000D01*
X121400000Y-50050000D02*
X107200000Y-50050000D01*
X121400000Y-64250000D02*
X121400000Y-50050000D01*
X97675000Y-69100000D02*
X97675000Y-83300000D01*
X97675000Y-83300000D02*
X111875000Y-83300000D01*
X111875000Y-69100000D02*
X97675000Y-69100000D01*
X111875000Y-83300000D02*
X111875000Y-69100000D01*
X334585000Y-29033000D02*
X335280000Y-29033000D01*
X334585000Y-29718000D02*
X334585000Y-29033000D01*
X334585000Y-30403000D02*
X334585000Y-30278000D01*
X334585000Y-30403000D02*
X334671724Y-30403000D01*
X334585000Y-30403000D02*
X335975000Y-30403000D01*
X335888276Y-30403000D02*
X335975000Y-30403000D01*
X335975000Y-30403000D02*
X335975000Y-30278000D01*
D10*
X174918750Y-95750000D02*
X175918750Y-95750000D01*
X175418750Y-95650000D02*
X174918750Y-94750000D01*
X174918750Y-94750000D02*
X175918750Y-94750000D01*
X175918750Y-94750000D02*
X175418750Y-95650000D01*
D11*
X54812500Y-126250000D02*
X54812500Y-140450000D01*
X54812500Y-140450000D02*
X69012500Y-140450000D01*
X69012500Y-126250000D02*
X54812500Y-126250000D01*
X69012500Y-140450000D02*
X69012500Y-126250000D01*
D10*
X141581250Y-38600000D02*
X142581250Y-38600000D01*
X142081250Y-38500000D02*
X141581250Y-37600000D01*
X141581250Y-37600000D02*
X142581250Y-37600000D01*
X142581250Y-37600000D02*
X142081250Y-38500000D01*
X179681250Y-57650000D02*
X180681250Y-57650000D01*
X180181250Y-57550000D02*
X179681250Y-56650000D01*
X179681250Y-56650000D02*
X180681250Y-56650000D01*
X180681250Y-56650000D02*
X180181250Y-57550000D01*
X270168750Y-95750000D02*
X271168750Y-95750000D01*
X270668750Y-95650000D02*
X270168750Y-94750000D01*
X270168750Y-94750000D02*
X271168750Y-94750000D01*
X271168750Y-94750000D02*
X270668750Y-95650000D01*
X155868750Y-95750000D02*
X156868750Y-95750000D01*
X156368750Y-95650000D02*
X155868750Y-94750000D01*
X155868750Y-94750000D02*
X156868750Y-94750000D01*
X156868750Y-94750000D02*
X156368750Y-95650000D01*
D11*
X216737500Y-88150000D02*
X216737500Y-102350000D01*
X216737500Y-102350000D02*
X230937500Y-102350000D01*
X230937500Y-88150000D02*
X216737500Y-88150000D01*
X230937500Y-102350000D02*
X230937500Y-88150000D01*
X332993276Y-83297500D02*
X333502724Y-83297500D01*
X332993276Y-84342500D02*
X333502724Y-84342500D01*
X333502724Y-71642500D02*
X332993276Y-71642500D01*
X333502724Y-70597500D02*
X332993276Y-70597500D01*
X344623474Y-64026296D02*
X344114026Y-64026296D01*
X344623474Y-62981296D02*
X344114026Y-62981296D01*
X333502724Y-79262500D02*
X332993276Y-79262500D01*
X333502724Y-78217500D02*
X332993276Y-78217500D01*
D10*
X117768750Y-95750000D02*
X118768750Y-95750000D01*
X118268750Y-95650000D02*
X117768750Y-94750000D01*
X117768750Y-94750000D02*
X118768750Y-94750000D01*
X118768750Y-94750000D02*
X118268750Y-95650000D01*
X251118750Y-133850000D02*
X252118750Y-133850000D01*
X251618750Y-133750000D02*
X251118750Y-132850000D01*
X251118750Y-132850000D02*
X252118750Y-132850000D01*
X252118750Y-132850000D02*
X251618750Y-133750000D01*
X193968750Y-95750000D02*
X194968750Y-95750000D01*
X194468750Y-95650000D02*
X193968750Y-94750000D01*
X193968750Y-94750000D02*
X194968750Y-94750000D01*
X194968750Y-94750000D02*
X194468750Y-95650000D01*
X70143750Y-114800000D02*
X71143750Y-114800000D01*
X70643750Y-114700000D02*
X70143750Y-113800000D01*
X70143750Y-113800000D02*
X71143750Y-113800000D01*
X71143750Y-113800000D02*
X70643750Y-114700000D01*
X108243750Y-133850000D02*
X109243750Y-133850000D01*
X108743750Y-133750000D02*
X108243750Y-132850000D01*
X108243750Y-132850000D02*
X109243750Y-132850000D01*
X109243750Y-132850000D02*
X108743750Y-133750000D01*
X332081250Y-133850000D02*
X333081250Y-133850000D01*
X332581250Y-133750000D02*
X332081250Y-132850000D01*
X332081250Y-132850000D02*
X333081250Y-132850000D01*
X333081250Y-132850000D02*
X332581250Y-133750000D01*
D11*
X332993276Y-47737500D02*
X333502724Y-47737500D01*
X332993276Y-48782500D02*
X333502724Y-48782500D01*
D10*
X313031250Y-114800000D02*
X314031250Y-114800000D01*
X313531250Y-114700000D02*
X313031250Y-113800000D01*
X313031250Y-113800000D02*
X314031250Y-113800000D01*
X314031250Y-113800000D02*
X313531250Y-114700000D01*
X84431250Y-57650000D02*
X85431250Y-57650000D01*
X84931250Y-57550000D02*
X84431250Y-56650000D01*
X84431250Y-56650000D02*
X85431250Y-56650000D01*
X85431250Y-56650000D02*
X84931250Y-57550000D01*
X236831250Y-38600000D02*
X237831250Y-38600000D01*
X237331250Y-38500000D02*
X236831250Y-37600000D01*
X236831250Y-37600000D02*
X237831250Y-37600000D01*
X237831250Y-37600000D02*
X237331250Y-38500000D01*
D11*
X333502724Y-76722500D02*
X332993276Y-76722500D01*
X333502724Y-75677500D02*
X332993276Y-75677500D01*
X259600000Y-50050000D02*
X259600000Y-64250000D01*
X259600000Y-64250000D02*
X273800000Y-64250000D01*
X273800000Y-50050000D02*
X259600000Y-50050000D01*
X273800000Y-64250000D02*
X273800000Y-50050000D01*
X344623474Y-51326296D02*
X344114026Y-51326296D01*
X344623474Y-50281296D02*
X344114026Y-50281296D01*
X235787500Y-88150000D02*
X235787500Y-102350000D01*
X235787500Y-102350000D02*
X249987500Y-102350000D01*
X249987500Y-88150000D02*
X235787500Y-88150000D01*
X249987500Y-102350000D02*
X249987500Y-88150000D01*
D10*
X89193750Y-114800000D02*
X90193750Y-114800000D01*
X89693750Y-114700000D02*
X89193750Y-113800000D01*
X89193750Y-113800000D02*
X90193750Y-113800000D01*
X90193750Y-113800000D02*
X89693750Y-114700000D01*
X251118750Y-95750000D02*
X252118750Y-95750000D01*
X251618750Y-95650000D02*
X251118750Y-94750000D01*
X251118750Y-94750000D02*
X252118750Y-94750000D01*
X252118750Y-94750000D02*
X251618750Y-95650000D01*
X332081250Y-114800000D02*
X333081250Y-114800000D01*
X332581250Y-114700000D02*
X332081250Y-113800000D01*
X332081250Y-113800000D02*
X333081250Y-113800000D01*
X333081250Y-113800000D02*
X332581250Y-114700000D01*
X70143750Y-133850000D02*
X71143750Y-133850000D01*
X70643750Y-133750000D02*
X70143750Y-132850000D01*
X70143750Y-132850000D02*
X71143750Y-132850000D01*
X71143750Y-132850000D02*
X70643750Y-133750000D01*
D12*
X42957750Y-100575000D02*
X42957750Y-99125000D01*
X42957750Y-99125000D02*
X41813750Y-99125000D01*
X41813750Y-100575000D02*
X42957750Y-100575000D01*
X41813750Y-99125000D02*
X41813750Y-100575000D01*
%LPC*%
D13*
X65881250Y-58925000D03*
X65881250Y-55375000D03*
X51593750Y-135125000D03*
X51593750Y-131575000D03*
D14*
X33020000Y-57150000D03*
D15*
X38100000Y-57150000D03*
D14*
X43180000Y-57150000D03*
D16*
X34290000Y-54610000D03*
X40640000Y-52070000D03*
D13*
X199231250Y-58925000D03*
X199231250Y-55375000D03*
X275431250Y-39875000D03*
X275431250Y-36325000D03*
D17*
X345281250Y-68583796D03*
X343456250Y-68583796D03*
D14*
X256857500Y-133350000D03*
D15*
X261937500Y-133350000D03*
D14*
X267017500Y-133350000D03*
D16*
X258127500Y-130810000D03*
X264477500Y-128270000D03*
D18*
X332335500Y-53340000D03*
X334160500Y-53340000D03*
D13*
X256381250Y-39875000D03*
X256381250Y-36325000D03*
X51593750Y-116075000D03*
X51593750Y-112525000D03*
X161131250Y-58925000D03*
X161131250Y-55375000D03*
D18*
X332335500Y-63500000D03*
X334160500Y-63500000D03*
D13*
X108743750Y-116075000D03*
X108743750Y-112525000D03*
D19*
X343643750Y-88900000D03*
D20*
X345093750Y-88900000D03*
D14*
X90170000Y-57150000D03*
D15*
X95250000Y-57150000D03*
D14*
X100330000Y-57150000D03*
D16*
X91440000Y-54610000D03*
X97790000Y-52070000D03*
D13*
X199231250Y-39875000D03*
X199231250Y-36325000D03*
D17*
X345281250Y-76203796D03*
X343456250Y-76203796D03*
D13*
X84931250Y-39875000D03*
X84931250Y-36325000D03*
X113506250Y-77975000D03*
X113506250Y-74425000D03*
X218281250Y-39875000D03*
X218281250Y-36325000D03*
D14*
X94932500Y-133350000D03*
D15*
X100012500Y-133350000D03*
D14*
X105092500Y-133350000D03*
D16*
X96202500Y-130810000D03*
X102552500Y-128270000D03*
D13*
X313531250Y-58925000D03*
X313531250Y-55375000D03*
D18*
X332335500Y-86360000D03*
X334160500Y-86360000D03*
D13*
X313531250Y-77975000D03*
X313531250Y-74425000D03*
D14*
X318770000Y-133350000D03*
D15*
X323850000Y-133350000D03*
D14*
X328930000Y-133350000D03*
D16*
X320040000Y-130810000D03*
X326390000Y-128270000D03*
D17*
X345281250Y-45723796D03*
X343456250Y-45723796D03*
D14*
X85407500Y-95250000D03*
D15*
X90487500Y-95250000D03*
D14*
X95567500Y-95250000D03*
D16*
X86677500Y-92710000D03*
X93027500Y-90170000D03*
D13*
X256381250Y-58925000D03*
X256381250Y-55375000D03*
X294481250Y-135125000D03*
X294481250Y-131575000D03*
D19*
X343643750Y-38100000D03*
D20*
X345093750Y-38100000D03*
D13*
X184943750Y-116075000D03*
X184943750Y-112525000D03*
D14*
X213995000Y-76200000D03*
D15*
X219075000Y-76200000D03*
D14*
X224155000Y-76200000D03*
D16*
X215265000Y-73660000D03*
X221615000Y-71120000D03*
D14*
X271145000Y-76200000D03*
D15*
X276225000Y-76200000D03*
D14*
X281305000Y-76200000D03*
D16*
X272415000Y-73660000D03*
X278765000Y-71120000D03*
D14*
X37782500Y-76200000D03*
D15*
X42862500Y-76200000D03*
D14*
X47942500Y-76200000D03*
D16*
X39052500Y-73660000D03*
X45402500Y-71120000D03*
D21*
X276193250Y-107315000D03*
D22*
X276193250Y-122525000D03*
D21*
X300069250Y-107315000D03*
D22*
X300069250Y-122525000D03*
D13*
X61118750Y-97025000D03*
X61118750Y-93475000D03*
D14*
X156845000Y-76200000D03*
D15*
X161925000Y-76200000D03*
D14*
X167005000Y-76200000D03*
D16*
X158115000Y-73660000D03*
X164465000Y-71120000D03*
D13*
X75406250Y-77975000D03*
X75406250Y-74425000D03*
D14*
X294957500Y-76200000D03*
D15*
X300037500Y-76200000D03*
D14*
X305117500Y-76200000D03*
D16*
X296227500Y-73660000D03*
X302577500Y-71120000D03*
D14*
X80701250Y-76200000D03*
D15*
X85781250Y-76200000D03*
D14*
X90861250Y-76200000D03*
D16*
X81971250Y-73660000D03*
X88321250Y-71120000D03*
D18*
X343456250Y-73663796D03*
X345281250Y-73663796D03*
D14*
X166370000Y-57150000D03*
D15*
X171450000Y-57150000D03*
D14*
X176530000Y-57150000D03*
D16*
X167640000Y-54610000D03*
X173990000Y-52070000D03*
D23*
X350192731Y-91395876D03*
D24*
X350192731Y-88855876D03*
X350192731Y-86315876D03*
X350192731Y-83775876D03*
X350192731Y-81235876D03*
X350192731Y-78695876D03*
X350192731Y-76155876D03*
X350192731Y-73615876D03*
X350192731Y-71075876D03*
X350192731Y-68535876D03*
X350192731Y-65995876D03*
X350192731Y-63455876D03*
X350192731Y-60915876D03*
X350192731Y-58375876D03*
X350192731Y-55835876D03*
X350192731Y-53295876D03*
X350192731Y-50755876D03*
X350192731Y-48215876D03*
X350192731Y-45675876D03*
X350196411Y-43138596D03*
X350196411Y-40598596D03*
X350196411Y-38058596D03*
X327332731Y-38055876D03*
X327332731Y-40595876D03*
X327332731Y-43135876D03*
X327332731Y-45675876D03*
X327332731Y-48215876D03*
X327332731Y-50755876D03*
X327332731Y-53295876D03*
X327332731Y-55835876D03*
X327332731Y-58375876D03*
X327332731Y-60915876D03*
X327332731Y-63455876D03*
X327332731Y-65995876D03*
X327332731Y-68535876D03*
X327332731Y-71075876D03*
X327332731Y-73615876D03*
X327332731Y-76155876D03*
X327332731Y-78695876D03*
X327332731Y-81235876D03*
X327332731Y-83775876D03*
X327332731Y-86315876D03*
X327332731Y-88855876D03*
X327332731Y-91395876D03*
D14*
X66357500Y-95250000D03*
D15*
X71437500Y-95250000D03*
D14*
X76517500Y-95250000D03*
D16*
X67627500Y-92710000D03*
X73977500Y-90170000D03*
D17*
X345281250Y-43183796D03*
X343456250Y-43183796D03*
D13*
X132556250Y-77975000D03*
X132556250Y-74425000D03*
D17*
X345281250Y-78743796D03*
X343456250Y-78743796D03*
D13*
X165893750Y-116075000D03*
X165893750Y-112525000D03*
D18*
X332335500Y-43180000D03*
X334160500Y-43180000D03*
D13*
X270668750Y-135125000D03*
X270668750Y-131575000D03*
X208756250Y-77975000D03*
X208756250Y-74425000D03*
D14*
X223520000Y-57150000D03*
D15*
X228600000Y-57150000D03*
D14*
X233680000Y-57150000D03*
D16*
X224790000Y-54610000D03*
X231140000Y-52070000D03*
D13*
X151606250Y-77975000D03*
X151606250Y-74425000D03*
X46831250Y-58925000D03*
X46831250Y-55375000D03*
D25*
X342392000Y-29718000D03*
D14*
X256857500Y-95250000D03*
D15*
X261937500Y-95250000D03*
D14*
X267017500Y-95250000D03*
D16*
X258127500Y-92710000D03*
X264477500Y-90170000D03*
D13*
X227806250Y-77975000D03*
X227806250Y-74425000D03*
D14*
X290195000Y-57150000D03*
D15*
X295275000Y-57150000D03*
D14*
X300355000Y-57150000D03*
D16*
X291465000Y-54610000D03*
X297815000Y-52070000D03*
D14*
X261620000Y-38100000D03*
D15*
X266700000Y-38100000D03*
D14*
X271780000Y-38100000D03*
D16*
X262890000Y-35560000D03*
X269240000Y-33020000D03*
D18*
X343456250Y-71123796D03*
X345281250Y-71123796D03*
D17*
X345281250Y-55883796D03*
X343456250Y-55883796D03*
D13*
X142081250Y-58925000D03*
X142081250Y-55375000D03*
X137318750Y-97025000D03*
X137318750Y-93475000D03*
X246856250Y-77975000D03*
X246856250Y-74425000D03*
X80168750Y-97025000D03*
X80168750Y-93475000D03*
D14*
X283051250Y-114300000D03*
D15*
X288131250Y-114300000D03*
D14*
X293211250Y-114300000D03*
D16*
X284321250Y-111760000D03*
X290671250Y-109220000D03*
D17*
X345281250Y-48263796D03*
X343456250Y-48263796D03*
D14*
X204470000Y-57150000D03*
D15*
X209550000Y-57150000D03*
D14*
X214630000Y-57150000D03*
D16*
X205740000Y-54610000D03*
X212090000Y-52070000D03*
D13*
X237331250Y-58925000D03*
X237331250Y-55375000D03*
D14*
X242570000Y-38100000D03*
D15*
X247650000Y-38100000D03*
D14*
X252730000Y-38100000D03*
D16*
X243840000Y-35560000D03*
X250190000Y-33020000D03*
D14*
X318770000Y-114300000D03*
D15*
X323850000Y-114300000D03*
D14*
X328930000Y-114300000D03*
D16*
X320040000Y-111760000D03*
X326390000Y-109220000D03*
D14*
X287813750Y-95250000D03*
D15*
X292893750Y-95250000D03*
D14*
X297973750Y-95250000D03*
D16*
X289083750Y-92710000D03*
X295433750Y-90170000D03*
D13*
X146843750Y-116075000D03*
X146843750Y-112525000D03*
D14*
X252095000Y-76200000D03*
D15*
X257175000Y-76200000D03*
D14*
X262255000Y-76200000D03*
D16*
X253365000Y-73660000D03*
X259715000Y-71120000D03*
D13*
X242093750Y-116075000D03*
X242093750Y-112525000D03*
D14*
X209232500Y-114300000D03*
D15*
X214312500Y-114300000D03*
D14*
X219392500Y-114300000D03*
D16*
X210502500Y-111760000D03*
X216852500Y-109220000D03*
D14*
X204470000Y-38100000D03*
D15*
X209550000Y-38100000D03*
D14*
X214630000Y-38100000D03*
D16*
X205740000Y-35560000D03*
X212090000Y-33020000D03*
D14*
X113982500Y-114300000D03*
D15*
X119062500Y-114300000D03*
D14*
X124142500Y-114300000D03*
D16*
X115252500Y-111760000D03*
X121602500Y-109220000D03*
D14*
X299720000Y-38100000D03*
D15*
X304800000Y-38100000D03*
D14*
X309880000Y-38100000D03*
D16*
X300990000Y-35560000D03*
X307340000Y-33020000D03*
D14*
X228282500Y-114300000D03*
D15*
X233362500Y-114300000D03*
D14*
X238442500Y-114300000D03*
D16*
X229552500Y-111760000D03*
X235902500Y-109220000D03*
D14*
X161607500Y-95250000D03*
D15*
X166687500Y-95250000D03*
D14*
X171767500Y-95250000D03*
D16*
X162877500Y-92710000D03*
X169227500Y-90170000D03*
D14*
X199707500Y-95250000D03*
D15*
X204787500Y-95250000D03*
D14*
X209867500Y-95250000D03*
D16*
X200977500Y-92710000D03*
X207327500Y-90170000D03*
D14*
X75882500Y-133350000D03*
D15*
X80962500Y-133350000D03*
D14*
X86042500Y-133350000D03*
D16*
X77152500Y-130810000D03*
X83502500Y-128270000D03*
D14*
X75882500Y-114300000D03*
D15*
X80962500Y-114300000D03*
D14*
X86042500Y-114300000D03*
D16*
X77152500Y-111760000D03*
X83502500Y-109220000D03*
D18*
X332335500Y-58420000D03*
X334160500Y-58420000D03*
X332335500Y-68580000D03*
X334160500Y-68580000D03*
D14*
X137795000Y-76200000D03*
D15*
X142875000Y-76200000D03*
D14*
X147955000Y-76200000D03*
D16*
X139065000Y-73660000D03*
X145415000Y-71120000D03*
D18*
X332335500Y-66040000D03*
X334160500Y-66040000D03*
D13*
X65881250Y-39875000D03*
X65881250Y-36325000D03*
D14*
X104457500Y-95250000D03*
D15*
X109537500Y-95250000D03*
D14*
X114617500Y-95250000D03*
D16*
X105727500Y-92710000D03*
X112077500Y-90170000D03*
D18*
X332335500Y-45720000D03*
X334160500Y-45720000D03*
D14*
X118745000Y-76200000D03*
D15*
X123825000Y-76200000D03*
D14*
X128905000Y-76200000D03*
D16*
X120015000Y-73660000D03*
X126365000Y-71120000D03*
D13*
X46831250Y-39875000D03*
X46831250Y-36325000D03*
D14*
X94932500Y-114300000D03*
D15*
X100012500Y-114300000D03*
D14*
X105092500Y-114300000D03*
D16*
X96202500Y-111760000D03*
X102552500Y-109220000D03*
D17*
X345281250Y-60963796D03*
X343456250Y-60963796D03*
D14*
X123507500Y-95250000D03*
D15*
X128587500Y-95250000D03*
D14*
X133667500Y-95250000D03*
D16*
X124777500Y-92710000D03*
X131127500Y-90170000D03*
D14*
X147320000Y-38100000D03*
D15*
X152400000Y-38100000D03*
D14*
X157480000Y-38100000D03*
D16*
X148590000Y-35560000D03*
X154940000Y-33020000D03*
D14*
X128270000Y-38100000D03*
D15*
X133350000Y-38100000D03*
D14*
X138430000Y-38100000D03*
D16*
X129540000Y-35560000D03*
X135890000Y-33020000D03*
D14*
X223520000Y-38100000D03*
D15*
X228600000Y-38100000D03*
D14*
X233680000Y-38100000D03*
D16*
X224790000Y-35560000D03*
X231140000Y-33020000D03*
D14*
X152082500Y-114300000D03*
D15*
X157162500Y-114300000D03*
D14*
X162242500Y-114300000D03*
D16*
X153352500Y-111760000D03*
X159702500Y-109220000D03*
D14*
X194945000Y-76200000D03*
D15*
X200025000Y-76200000D03*
D14*
X205105000Y-76200000D03*
D16*
X196215000Y-73660000D03*
X202565000Y-71120000D03*
D14*
X147320000Y-57150000D03*
D15*
X152400000Y-57150000D03*
D14*
X157480000Y-57150000D03*
D16*
X148590000Y-54610000D03*
X154940000Y-52070000D03*
D13*
X313531250Y-39875000D03*
X313531250Y-36325000D03*
D26*
X338836000Y-29718000D03*
D14*
X185420000Y-57150000D03*
D15*
X190500000Y-57150000D03*
D14*
X195580000Y-57150000D03*
D16*
X186690000Y-54610000D03*
X193040000Y-52070000D03*
D13*
X223043750Y-116075000D03*
X223043750Y-112525000D03*
D14*
X133032500Y-114300000D03*
D15*
X138112500Y-114300000D03*
D14*
X143192500Y-114300000D03*
D16*
X134302500Y-111760000D03*
X140652500Y-109220000D03*
D17*
X345281250Y-66043796D03*
X343456250Y-66043796D03*
D14*
X71120000Y-38100000D03*
D15*
X76200000Y-38100000D03*
D14*
X81280000Y-38100000D03*
D16*
X72390000Y-35560000D03*
X78740000Y-33020000D03*
D13*
X123031250Y-58925000D03*
X123031250Y-55375000D03*
X232568750Y-97025000D03*
X232568750Y-93475000D03*
D14*
X175895000Y-76200000D03*
D15*
X180975000Y-76200000D03*
D14*
X186055000Y-76200000D03*
D16*
X177165000Y-73660000D03*
X183515000Y-71120000D03*
D21*
X283337000Y-50165000D03*
D22*
X283337000Y-65375000D03*
D21*
X307213000Y-50165000D03*
D22*
X307213000Y-65375000D03*
D13*
X203993750Y-116075000D03*
X203993750Y-112525000D03*
X89693750Y-135125000D03*
X89693750Y-131575000D03*
X99218750Y-97025000D03*
X99218750Y-93475000D03*
D14*
X61595000Y-76200000D03*
D15*
X66675000Y-76200000D03*
D14*
X71755000Y-76200000D03*
D16*
X62865000Y-73660000D03*
X69215000Y-71120000D03*
D13*
X161131250Y-39875000D03*
X161131250Y-36325000D03*
D14*
X109220000Y-38100000D03*
D15*
X114300000Y-38100000D03*
D14*
X119380000Y-38100000D03*
D16*
X110490000Y-35560000D03*
X116840000Y-33020000D03*
D14*
X35401250Y-133350000D03*
D15*
X40481250Y-133350000D03*
D14*
X45561250Y-133350000D03*
D16*
X36671250Y-130810000D03*
X43021250Y-128270000D03*
D13*
X180181250Y-39875000D03*
X180181250Y-36325000D03*
X313531250Y-135125000D03*
X313531250Y-131575000D03*
D26*
X351028000Y-100806250D03*
D13*
X261143750Y-116075000D03*
X261143750Y-112525000D03*
D18*
X332335500Y-88900000D03*
X334160500Y-88900000D03*
D19*
X343643750Y-93662500D03*
D20*
X345093750Y-93662500D03*
D13*
X313531250Y-97025000D03*
X313531250Y-93475000D03*
X94456250Y-77975000D03*
X94456250Y-74425000D03*
X213518750Y-97025000D03*
X213518750Y-93475000D03*
X127793750Y-116075000D03*
X127793750Y-112525000D03*
X227806250Y-135125000D03*
X227806250Y-131575000D03*
D21*
X280955750Y-88265000D03*
D22*
X280955750Y-103475000D03*
D21*
X304831750Y-88265000D03*
D22*
X304831750Y-103475000D03*
D14*
X33020000Y-38100000D03*
D15*
X38100000Y-38100000D03*
D14*
X43180000Y-38100000D03*
D16*
X34290000Y-35560000D03*
X40640000Y-33020000D03*
D26*
X351028000Y-103886000D03*
D14*
X52115000Y-57150000D03*
D15*
X57195000Y-57150000D03*
D14*
X62275000Y-57150000D03*
D16*
X53385000Y-54610000D03*
X59735000Y-52070000D03*
D17*
X345281250Y-83823796D03*
X343456250Y-83823796D03*
D13*
X170656250Y-77975000D03*
X170656250Y-74425000D03*
X123031250Y-39875000D03*
X123031250Y-36325000D03*
D14*
X280670000Y-38100000D03*
D15*
X285750000Y-38100000D03*
D14*
X290830000Y-38100000D03*
D16*
X281940000Y-35560000D03*
X288290000Y-33020000D03*
D14*
X166370000Y-38100000D03*
D15*
X171450000Y-38100000D03*
D14*
X176530000Y-38100000D03*
D16*
X167640000Y-35560000D03*
X173990000Y-33020000D03*
D14*
X90170000Y-38100000D03*
D15*
X95250000Y-38100000D03*
D14*
X100330000Y-38100000D03*
D16*
X91440000Y-35560000D03*
X97790000Y-33020000D03*
D17*
X345281250Y-81283796D03*
X343456250Y-81283796D03*
D14*
X52070000Y-38100000D03*
D15*
X57150000Y-38100000D03*
D14*
X62230000Y-38100000D03*
D16*
X53340000Y-35560000D03*
X59690000Y-33020000D03*
D14*
X247332500Y-114300000D03*
D15*
X252412500Y-114300000D03*
D14*
X257492500Y-114300000D03*
D16*
X248602500Y-111760000D03*
X254952500Y-109220000D03*
D14*
X35401250Y-114300000D03*
D15*
X40481250Y-114300000D03*
D14*
X45561250Y-114300000D03*
D16*
X36671250Y-111760000D03*
X43021250Y-109220000D03*
D25*
X351028000Y-106934000D03*
D17*
X345281250Y-58423796D03*
X343456250Y-58423796D03*
D13*
X275431250Y-58925000D03*
X275431250Y-55375000D03*
X103981250Y-58925000D03*
X103981250Y-55375000D03*
D18*
X332335500Y-81280000D03*
X334160500Y-81280000D03*
D14*
X40163750Y-95250000D03*
D15*
X45243750Y-95250000D03*
D14*
X50323750Y-95250000D03*
D16*
X41433750Y-92710000D03*
X47783750Y-90170000D03*
D18*
X343456250Y-91281250D03*
X345281250Y-91281250D03*
D14*
X185420000Y-38100000D03*
D15*
X190500000Y-38100000D03*
D14*
X195580000Y-38100000D03*
D16*
X186690000Y-35560000D03*
X193040000Y-33020000D03*
D14*
X278288750Y-133350000D03*
D15*
X283368750Y-133350000D03*
D14*
X288448750Y-133350000D03*
D16*
X279558750Y-130810000D03*
X285908750Y-128270000D03*
D19*
X343643750Y-40640000D03*
D20*
X345093750Y-40640000D03*
D18*
X332335500Y-50800000D03*
X334160500Y-50800000D03*
D14*
X235426250Y-133350000D03*
D15*
X240506250Y-133350000D03*
D14*
X245586250Y-133350000D03*
D16*
X236696250Y-130810000D03*
X243046250Y-128270000D03*
D17*
X345281250Y-53343796D03*
X343456250Y-53343796D03*
D13*
X218281250Y-58925000D03*
X218281250Y-55375000D03*
D14*
X56832500Y-114300000D03*
D15*
X61912500Y-114300000D03*
D14*
X66992500Y-114300000D03*
D16*
X58102500Y-111760000D03*
X64452500Y-109220000D03*
D13*
X56356250Y-77975000D03*
X56356250Y-74425000D03*
D14*
X128270000Y-57150000D03*
D15*
X133350000Y-57150000D03*
D14*
X138430000Y-57150000D03*
D16*
X129540000Y-54610000D03*
X135890000Y-52070000D03*
D17*
X334160500Y-73660000D03*
X332335500Y-73660000D03*
D14*
X233045000Y-76200000D03*
D15*
X238125000Y-76200000D03*
D14*
X243205000Y-76200000D03*
D16*
X234315000Y-73660000D03*
X240665000Y-71120000D03*
D14*
X71120000Y-57150000D03*
D15*
X76200000Y-57150000D03*
D14*
X81280000Y-57150000D03*
D16*
X72390000Y-54610000D03*
X78740000Y-52070000D03*
D14*
X142557500Y-95250000D03*
D15*
X147637500Y-95250000D03*
D14*
X152717500Y-95250000D03*
D16*
X143827500Y-92710000D03*
X150177500Y-90170000D03*
D14*
X337820000Y-133350000D03*
D15*
X342900000Y-133350000D03*
D14*
X347980000Y-133350000D03*
D16*
X339090000Y-130810000D03*
X345440000Y-128270000D03*
D14*
X163988750Y-133350000D03*
D15*
X169068750Y-133350000D03*
D14*
X174148750Y-133350000D03*
D16*
X165258750Y-130810000D03*
X171608750Y-128270000D03*
D14*
X190182500Y-114300000D03*
D15*
X195262500Y-114300000D03*
D14*
X200342500Y-114300000D03*
D16*
X191452500Y-111760000D03*
X197802500Y-109220000D03*
D13*
X294481250Y-39875000D03*
X294481250Y-36325000D03*
X284956250Y-77975000D03*
X284956250Y-74425000D03*
D14*
X299720000Y-133350000D03*
D15*
X304800000Y-133350000D03*
D14*
X309880000Y-133350000D03*
D16*
X300990000Y-130810000D03*
X307340000Y-128270000D03*
D13*
X189706250Y-77975000D03*
X189706250Y-74425000D03*
D14*
X180657500Y-95250000D03*
D15*
X185737500Y-95250000D03*
D14*
X190817500Y-95250000D03*
D16*
X181927500Y-92710000D03*
X188277500Y-90170000D03*
D14*
X242570000Y-57150000D03*
D15*
X247650000Y-57150000D03*
D14*
X252730000Y-57150000D03*
D16*
X243840000Y-54610000D03*
X250190000Y-52070000D03*
D14*
X171132500Y-114300000D03*
D15*
X176212500Y-114300000D03*
D14*
X181292500Y-114300000D03*
D16*
X172402500Y-111760000D03*
X178752500Y-109220000D03*
D18*
X332335500Y-55880000D03*
X334160500Y-55880000D03*
D13*
X265906250Y-77975000D03*
X265906250Y-74425000D03*
D21*
X119068750Y-126365000D03*
D22*
X119068750Y-141575000D03*
D21*
X219068750Y-126365000D03*
D22*
X219068750Y-141575000D03*
D13*
X351631250Y-135125000D03*
X351631250Y-131575000D03*
D18*
X332335500Y-60960000D03*
X334160500Y-60960000D03*
D13*
X103981250Y-39875000D03*
X103981250Y-36325000D03*
D14*
X109220000Y-57150000D03*
D15*
X114300000Y-57150000D03*
D14*
X119380000Y-57150000D03*
D16*
X110490000Y-54610000D03*
X116840000Y-52070000D03*
D14*
X99695000Y-76200000D03*
D15*
X104775000Y-76200000D03*
D14*
X109855000Y-76200000D03*
D16*
X100965000Y-73660000D03*
X107315000Y-71120000D03*
D26*
X335280000Y-29718000D03*
D13*
X175418750Y-97025000D03*
X175418750Y-93475000D03*
D14*
X56832500Y-133350000D03*
D15*
X61912500Y-133350000D03*
D14*
X66992500Y-133350000D03*
D16*
X58102500Y-130810000D03*
X64452500Y-128270000D03*
D13*
X142081250Y-39875000D03*
X142081250Y-36325000D03*
X180181250Y-58925000D03*
X180181250Y-55375000D03*
X270668750Y-97025000D03*
X270668750Y-93475000D03*
X156368750Y-97025000D03*
X156368750Y-93475000D03*
D14*
X218757500Y-95250000D03*
D15*
X223837500Y-95250000D03*
D14*
X228917500Y-95250000D03*
D16*
X220027500Y-92710000D03*
X226377500Y-90170000D03*
D18*
X332335500Y-83820000D03*
X334160500Y-83820000D03*
D17*
X334160500Y-71120000D03*
X332335500Y-71120000D03*
X345281250Y-63503796D03*
X343456250Y-63503796D03*
X334160500Y-78740000D03*
X332335500Y-78740000D03*
D13*
X118268750Y-97025000D03*
X118268750Y-93475000D03*
X251618750Y-135125000D03*
X251618750Y-131575000D03*
X194468750Y-97025000D03*
X194468750Y-93475000D03*
X70643750Y-116075000D03*
X70643750Y-112525000D03*
X108743750Y-135125000D03*
X108743750Y-131575000D03*
X332581250Y-135125000D03*
X332581250Y-131575000D03*
D18*
X332335500Y-48260000D03*
X334160500Y-48260000D03*
D13*
X313531250Y-116075000D03*
X313531250Y-112525000D03*
X84931250Y-58925000D03*
X84931250Y-55375000D03*
X237331250Y-39875000D03*
X237331250Y-36325000D03*
D17*
X334160500Y-76200000D03*
X332335500Y-76200000D03*
D14*
X261620000Y-57150000D03*
D15*
X266700000Y-57150000D03*
D14*
X271780000Y-57150000D03*
D16*
X262890000Y-54610000D03*
X269240000Y-52070000D03*
D17*
X345281250Y-50803796D03*
X343456250Y-50803796D03*
D14*
X237807500Y-95250000D03*
D15*
X242887500Y-95250000D03*
D14*
X247967500Y-95250000D03*
D16*
X239077500Y-92710000D03*
X245427500Y-90170000D03*
D13*
X89693750Y-116075000D03*
X89693750Y-112525000D03*
X251618750Y-97025000D03*
X251618750Y-93475000D03*
X332581250Y-116075000D03*
X332581250Y-112525000D03*
X70643750Y-135125000D03*
X70643750Y-131575000D03*
D27*
X47986750Y-99850000D03*
X47986750Y-101600000D03*
X42500750Y-101600000D03*
X42500750Y-99850000D03*
%LPD*%
M02*
