M48
; DRILL file {KiCad 7.0.10} date Tue Jan 23 22:17:54 2024
; FORMAT={-:-/ absolute / metric / decimal}
; #@! TF.CreationDate,2024-01-23T22:17:54-03:00
; #@! TF.GenerationSoftware,Kicad,Pcbnew,7.0.10
; #@! TF.FileFunction,Plated,1,2,PTH
FMAT,2
METRIC
; #@! TA.AperFunction,Plated,PTH,ViaDrill
T1C0.400
; #@! TA.AperFunction,Plated,PTH,ComponentDrill
T2C0.500
; #@! TA.AperFunction,Plated,PTH,ComponentDrill
T3C0.800
; #@! TA.AperFunction,Plated,PTH,ComponentDrill
T4C0.813
; #@! TA.AperFunction,Plated,PTH,ComponentDrill
T5C1.500
%
G90
G05
T1
X42.716Y-97.513
X49.212Y-31.75
X49.975Y-101.103
X51.594Y-101.106
X60.325Y-85.725
X64.294Y-121.444
X68.263Y-141.287
X69.056Y-50.006
X72.231Y-73.025
X75.406Y-105.569
X288.131Y-81.756
X293.688Y-67.469
X300.831Y-84.931
X306.387Y-55.562
X318.294Y-103.188
X332.581Y-98.425
X333.375Y-120.65
X334.161Y-48.26
X334.161Y-60.96
X334.161Y-63.5
X334.161Y-66.04
X334.161Y-71.12
X334.161Y-81.28
X334.161Y-83.82
X337.344Y-97.394
X337.344Y-140.494
X343.456Y-43.184
X343.456Y-45.724
X343.456Y-48.264
X343.456Y-50.804
X343.456Y-53.344
X343.456Y-55.884
X343.456Y-63.504
X343.456Y-66.044
X343.456Y-68.584
X343.456Y-71.124
X343.456Y-73.664
X343.456Y-76.204
X343.456Y-78.744
X343.456Y-81.284
X343.456Y-83.824
T2
X335.28Y-29.718
X338.836Y-29.718
X342.392Y-29.718
X351.028Y-100.806
X351.028Y-103.886
X351.028Y-106.934
T3
X327.333Y-38.056
X327.333Y-40.596
X327.333Y-43.136
X327.333Y-45.676
X327.333Y-48.216
X327.333Y-50.756
X327.333Y-53.296
X327.333Y-55.836
X327.333Y-58.376
X327.333Y-60.916
X327.333Y-63.456
X327.333Y-65.996
X327.333Y-68.536
X327.333Y-71.076
X327.333Y-73.616
X327.333Y-76.156
X327.333Y-78.696
X327.333Y-81.236
X327.333Y-83.776
X327.333Y-86.316
X327.333Y-88.856
X327.333Y-91.396
X350.193Y-45.676
X350.193Y-48.216
X350.193Y-50.756
X350.193Y-53.296
X350.193Y-55.836
X350.193Y-58.376
X350.193Y-60.916
X350.193Y-63.456
X350.193Y-65.996
X350.193Y-68.536
X350.193Y-71.076
X350.193Y-73.616
X350.193Y-76.156
X350.193Y-78.696
X350.193Y-81.236
X350.193Y-83.776
X350.193Y-86.316
X350.193Y-88.856
X350.193Y-91.396
X350.196Y-38.059
X350.196Y-40.599
X350.196Y-43.139
T4
X46.831Y-35.1
X46.831Y-41.1
X46.831Y-54.15
X46.831Y-60.15
X51.594Y-111.3
X51.594Y-117.3
X51.594Y-130.35
X51.594Y-136.35
X56.356Y-73.2
X56.356Y-79.2
X61.119Y-92.25
X61.119Y-98.25
X65.881Y-35.1
X65.881Y-41.1
X65.881Y-54.15
X65.881Y-60.15
X70.644Y-111.3
X70.644Y-117.3
X70.644Y-130.35
X70.644Y-136.35
X75.406Y-73.2
X75.406Y-79.2
X80.169Y-92.25
X80.169Y-98.25
X84.931Y-35.1
X84.931Y-41.1
X84.931Y-54.15
X84.931Y-60.15
X89.694Y-111.3
X89.694Y-117.3
X89.694Y-130.35
X89.694Y-136.35
X94.456Y-73.2
X94.456Y-79.2
X99.219Y-92.25
X99.219Y-98.25
X103.981Y-35.1
X103.981Y-41.1
X103.981Y-54.15
X103.981Y-60.15
X108.744Y-111.3
X108.744Y-117.3
X108.744Y-130.35
X108.744Y-136.35
X113.506Y-73.2
X113.506Y-79.2
X118.269Y-92.25
X118.269Y-98.25
X123.031Y-35.1
X123.031Y-41.1
X123.031Y-54.15
X123.031Y-60.15
X127.794Y-111.3
X127.794Y-117.3
X132.556Y-73.2
X132.556Y-79.2
X137.319Y-92.25
X137.319Y-98.25
X142.081Y-35.1
X142.081Y-41.1
X142.081Y-54.15
X142.081Y-60.15
X146.844Y-111.3
X146.844Y-117.3
X151.606Y-73.2
X151.606Y-79.2
X156.369Y-92.25
X156.369Y-98.25
X161.131Y-35.1
X161.131Y-41.1
X161.131Y-54.15
X161.131Y-60.15
X165.894Y-111.3
X165.894Y-117.3
X170.656Y-73.2
X170.656Y-79.2
X175.419Y-92.25
X175.419Y-98.25
X180.181Y-35.1
X180.181Y-41.1
X180.181Y-54.15
X180.181Y-60.15
X184.944Y-111.3
X184.944Y-117.3
X189.706Y-73.2
X189.706Y-79.2
X194.469Y-92.25
X194.469Y-98.25
X199.231Y-35.1
X199.231Y-41.1
X199.231Y-54.15
X199.231Y-60.15
X203.994Y-111.3
X203.994Y-117.3
X208.756Y-73.2
X208.756Y-79.2
X213.519Y-92.25
X213.519Y-98.25
X218.281Y-35.1
X218.281Y-41.1
X218.281Y-54.15
X218.281Y-60.15
X223.044Y-111.3
X223.044Y-117.3
X227.806Y-73.2
X227.806Y-79.2
X227.806Y-130.35
X227.806Y-136.35
X232.569Y-92.25
X232.569Y-98.25
X237.331Y-35.1
X237.331Y-41.1
X237.331Y-54.15
X237.331Y-60.15
X242.094Y-111.3
X242.094Y-117.3
X246.856Y-73.2
X246.856Y-79.2
X251.619Y-92.25
X251.619Y-98.25
X251.619Y-130.35
X251.619Y-136.35
X256.381Y-35.1
X256.381Y-41.1
X256.381Y-54.15
X256.381Y-60.15
X261.144Y-111.3
X261.144Y-117.3
X265.906Y-73.2
X265.906Y-79.2
X270.669Y-92.25
X270.669Y-98.25
X270.669Y-130.35
X270.669Y-136.35
X275.431Y-35.1
X275.431Y-41.1
X275.431Y-54.15
X275.431Y-60.15
X284.956Y-73.2
X284.956Y-79.2
X294.481Y-35.1
X294.481Y-41.1
X294.481Y-130.35
X294.481Y-136.35
X313.531Y-35.1
X313.531Y-41.1
X313.531Y-54.15
X313.531Y-60.15
X313.531Y-73.2
X313.531Y-79.2
X313.531Y-92.25
X313.531Y-98.25
X313.531Y-111.3
X313.531Y-117.3
X313.531Y-130.35
X313.531Y-136.35
X332.581Y-111.3
X332.581Y-117.3
X332.581Y-130.35
X332.581Y-136.35
X351.631Y-130.35
X351.631Y-136.35
T5
X34.29Y-35.56
X34.29Y-54.61
X36.671Y-111.76
X36.671Y-130.81
X39.052Y-73.66
X40.64Y-33.02
X40.64Y-52.07
X41.434Y-92.71
X43.021Y-109.22
X43.021Y-128.27
X45.402Y-71.12
X47.784Y-90.17
X53.34Y-35.56
X53.385Y-54.61
X58.102Y-111.76
X58.102Y-130.81
X59.69Y-33.02
X59.735Y-52.07
X62.865Y-73.66
X64.453Y-109.22
X64.453Y-128.27
X67.627Y-92.71
X69.215Y-71.12
X72.39Y-35.56
X72.39Y-54.61
X73.977Y-90.17
X77.153Y-111.76
X77.153Y-130.81
X78.74Y-33.02
X78.74Y-52.07
X81.971Y-73.66
X83.502Y-109.22
X83.502Y-128.27
X86.677Y-92.71
X88.321Y-71.12
X91.44Y-35.56
X91.44Y-54.61
X93.027Y-90.17
X96.203Y-111.76
X96.203Y-130.81
X97.79Y-33.02
X97.79Y-52.07
X100.965Y-73.66
X102.552Y-109.22
X102.552Y-128.27
X105.727Y-92.71
X107.315Y-71.12
X110.49Y-35.56
X110.49Y-54.61
X112.078Y-90.17
X115.252Y-111.76
X116.84Y-33.02
X116.84Y-52.07
X120.015Y-73.66
X121.602Y-109.22
X124.777Y-92.71
X126.365Y-71.12
X129.54Y-35.56
X129.54Y-54.61
X131.127Y-90.17
X134.302Y-111.76
X135.89Y-33.02
X135.89Y-52.07
X139.065Y-73.66
X140.653Y-109.22
X143.827Y-92.71
X145.415Y-71.12
X148.59Y-35.56
X148.59Y-54.61
X150.177Y-90.17
X153.352Y-111.76
X154.94Y-33.02
X154.94Y-52.07
X158.115Y-73.66
X159.702Y-109.22
X162.877Y-92.71
X164.465Y-71.12
X165.259Y-130.81
X167.64Y-35.56
X167.64Y-54.61
X169.227Y-90.17
X171.609Y-128.27
X172.403Y-111.76
X173.99Y-33.02
X173.99Y-52.07
X177.165Y-73.66
X178.752Y-109.22
X181.927Y-92.71
X183.515Y-71.12
X186.69Y-35.56
X186.69Y-54.61
X188.278Y-90.17
X191.452Y-111.76
X193.04Y-33.02
X193.04Y-52.07
X196.215Y-73.66
X197.802Y-109.22
X200.977Y-92.71
X202.565Y-71.12
X205.74Y-35.56
X205.74Y-54.61
X207.327Y-90.17
X210.502Y-111.76
X212.09Y-33.02
X212.09Y-52.07
X215.265Y-73.66
X216.852Y-109.22
X220.028Y-92.71
X221.615Y-71.12
X224.79Y-35.56
X224.79Y-54.61
X226.377Y-90.17
X229.552Y-111.76
X231.14Y-33.02
X231.14Y-52.07
X234.315Y-73.66
X235.903Y-109.22
X236.696Y-130.81
X239.077Y-92.71
X240.665Y-71.12
X243.046Y-128.27
X243.84Y-35.56
X243.84Y-54.61
X245.427Y-90.17
X248.602Y-111.76
X250.19Y-33.02
X250.19Y-52.07
X253.365Y-73.66
X254.952Y-109.22
X258.127Y-92.71
X258.127Y-130.81
X259.715Y-71.12
X262.89Y-35.56
X262.89Y-54.61
X264.477Y-90.17
X264.477Y-128.27
X269.24Y-33.02
X269.24Y-52.07
X272.415Y-73.66
X278.765Y-71.12
X279.559Y-130.81
X281.94Y-35.56
X284.321Y-111.76
X285.909Y-128.27
X288.29Y-33.02
X289.084Y-92.71
X290.671Y-109.22
X291.465Y-54.61
X295.434Y-90.17
X296.227Y-73.66
X297.815Y-52.07
X300.99Y-35.56
X300.99Y-130.81
X302.577Y-71.12
X307.34Y-33.02
X307.34Y-128.27
X320.04Y-111.76
X320.04Y-130.81
X326.39Y-109.22
X326.39Y-128.27
X339.09Y-130.81
X345.44Y-128.27
M30
