%TF.GenerationSoftware,KiCad,Pcbnew,7.0.10*%
%TF.CreationDate,2024-01-23T22:18:14-03:00*%
%TF.ProjectId,PCB,5043422e-6b69-4636-9164-5f7063625858,V1.0*%
%TF.SameCoordinates,Original*%
%TF.FileFunction,Drillmap*%
%TF.FilePolarity,Positive*%
%FSLAX45Y45*%
G04 Gerber Fmt 4.5, Leading zero omitted, Abs format (unit mm)*
G04 Created by KiCad (PCBNEW 7.0.10) date 2024-01-23 22:18:14*
%MOMM*%
%LPD*%
G01*
G04 APERTURE LIST*
%ADD10C,0.100000*%
%ADD11C,0.150000*%
%ADD12C,0.200000*%
%ADD13C,0.175000*%
%ADD14C,0.304800*%
%ADD15C,0.398780*%
%ADD16C,0.400000*%
G04 APERTURE END LIST*
D10*
X2857500Y-2857500D02*
X35321875Y-2857500D01*
X35321875Y-14525625D01*
X2857500Y-14525625D01*
X2857500Y-2857500D01*
D11*
X4699375Y-9847500D02*
X4699375Y-10297500D01*
X4699375Y-9847500D02*
X4349375Y-9847500D01*
X4349375Y-10297500D02*
X4699375Y-10297500D01*
X4349375Y-9847500D02*
X4349375Y-10297500D01*
D12*
D13*
X3214500Y-3722500D02*
X3389500Y-3897500D01*
X3389500Y-3722500D02*
X3214500Y-3897500D01*
X3214500Y-5627500D02*
X3389500Y-5802500D01*
X3389500Y-5627500D02*
X3214500Y-5802500D01*
X3452625Y-11342500D02*
X3627625Y-11517500D01*
X3627625Y-11342500D02*
X3452625Y-11517500D01*
X3452625Y-13247500D02*
X3627625Y-13422500D01*
X3627625Y-13247500D02*
X3452625Y-13422500D01*
X3690750Y-7532500D02*
X3865750Y-7707500D01*
X3865750Y-7532500D02*
X3690750Y-7707500D01*
X3928875Y-9437500D02*
X4103875Y-9612500D01*
X4103875Y-9437500D02*
X3928875Y-9612500D01*
X4230500Y-3722500D02*
X4405500Y-3897500D01*
X4405500Y-3722500D02*
X4230500Y-3897500D01*
X4230500Y-5627500D02*
X4405500Y-5802500D01*
X4405500Y-5627500D02*
X4230500Y-5802500D01*
X4468625Y-11342500D02*
X4643625Y-11517500D01*
X4643625Y-11342500D02*
X4468625Y-11517500D01*
X4468625Y-13247500D02*
X4643625Y-13422500D01*
X4643625Y-13247500D02*
X4468625Y-13422500D01*
X4706750Y-7532500D02*
X4881750Y-7707500D01*
X4881750Y-7532500D02*
X4706750Y-7707500D01*
X4944875Y-9437500D02*
X5119875Y-9612500D01*
X5119875Y-9437500D02*
X4944875Y-9612500D01*
X5119500Y-3722500D02*
X5294500Y-3897500D01*
X5294500Y-3722500D02*
X5119500Y-3897500D01*
X5124000Y-5627500D02*
X5299000Y-5802500D01*
X5299000Y-5627500D02*
X5124000Y-5802500D01*
X5595750Y-11342500D02*
X5770750Y-11517500D01*
X5770750Y-11342500D02*
X5595750Y-11517500D01*
X5595750Y-13247500D02*
X5770750Y-13422500D01*
X5770750Y-13247500D02*
X5595750Y-13422500D01*
X6072000Y-7532500D02*
X6247000Y-7707500D01*
X6247000Y-7532500D02*
X6072000Y-7707500D01*
X6135500Y-3722500D02*
X6310500Y-3897500D01*
X6310500Y-3722500D02*
X6135500Y-3897500D01*
X6140000Y-5627500D02*
X6315000Y-5802500D01*
X6315000Y-5627500D02*
X6140000Y-5802500D01*
X6548250Y-9437500D02*
X6723250Y-9612500D01*
X6723250Y-9437500D02*
X6548250Y-9612500D01*
X6611750Y-11342500D02*
X6786750Y-11517500D01*
X6786750Y-11342500D02*
X6611750Y-11517500D01*
X6611750Y-13247500D02*
X6786750Y-13422500D01*
X6786750Y-13247500D02*
X6611750Y-13422500D01*
X7024500Y-3722500D02*
X7199500Y-3897500D01*
X7199500Y-3722500D02*
X7024500Y-3897500D01*
X7024500Y-5627500D02*
X7199500Y-5802500D01*
X7199500Y-5627500D02*
X7024500Y-5802500D01*
X7088000Y-7532500D02*
X7263000Y-7707500D01*
X7263000Y-7532500D02*
X7088000Y-7707500D01*
X7500750Y-11342500D02*
X7675750Y-11517500D01*
X7675750Y-11342500D02*
X7500750Y-11517500D01*
X7500750Y-13247500D02*
X7675750Y-13422500D01*
X7675750Y-13247500D02*
X7500750Y-13422500D01*
X7564250Y-9437500D02*
X7739250Y-9612500D01*
X7739250Y-9437500D02*
X7564250Y-9612500D01*
X7982625Y-7532500D02*
X8157625Y-7707500D01*
X8157625Y-7532500D02*
X7982625Y-7707500D01*
X8040500Y-3722500D02*
X8215500Y-3897500D01*
X8215500Y-3722500D02*
X8040500Y-3897500D01*
X8040500Y-5627500D02*
X8215500Y-5802500D01*
X8215500Y-5627500D02*
X8040500Y-5802500D01*
X8453250Y-9437500D02*
X8628250Y-9612500D01*
X8628250Y-9437500D02*
X8453250Y-9612500D01*
X8516750Y-11342500D02*
X8691750Y-11517500D01*
X8691750Y-11342500D02*
X8516750Y-11517500D01*
X8516750Y-13247500D02*
X8691750Y-13422500D01*
X8691750Y-13247500D02*
X8516750Y-13422500D01*
X8929500Y-3722500D02*
X9104500Y-3897500D01*
X9104500Y-3722500D02*
X8929500Y-3897500D01*
X8929500Y-5627500D02*
X9104500Y-5802500D01*
X9104500Y-5627500D02*
X8929500Y-5802500D01*
X8998625Y-7532500D02*
X9173625Y-7707500D01*
X9173625Y-7532500D02*
X8998625Y-7707500D01*
X9405750Y-11342500D02*
X9580750Y-11517500D01*
X9580750Y-11342500D02*
X9405750Y-11517500D01*
X9405750Y-13247500D02*
X9580750Y-13422500D01*
X9580750Y-13247500D02*
X9405750Y-13422500D01*
X9469250Y-9437500D02*
X9644250Y-9612500D01*
X9644250Y-9437500D02*
X9469250Y-9612500D01*
X9882000Y-7532500D02*
X10057000Y-7707500D01*
X10057000Y-7532500D02*
X9882000Y-7707500D01*
X9945500Y-3722500D02*
X10120500Y-3897500D01*
X10120500Y-3722500D02*
X9945500Y-3897500D01*
X9945500Y-5627500D02*
X10120500Y-5802500D01*
X10120500Y-5627500D02*
X9945500Y-5802500D01*
X10358250Y-9437500D02*
X10533250Y-9612500D01*
X10533250Y-9437500D02*
X10358250Y-9612500D01*
X10421750Y-11342500D02*
X10596750Y-11517500D01*
X10596750Y-11342500D02*
X10421750Y-11517500D01*
X10421750Y-13247500D02*
X10596750Y-13422500D01*
X10596750Y-13247500D02*
X10421750Y-13422500D01*
X10834500Y-3722500D02*
X11009500Y-3897500D01*
X11009500Y-3722500D02*
X10834500Y-3897500D01*
X10834500Y-5627500D02*
X11009500Y-5802500D01*
X11009500Y-5627500D02*
X10834500Y-5802500D01*
X10898000Y-7532500D02*
X11073000Y-7707500D01*
X11073000Y-7532500D02*
X10898000Y-7707500D01*
X11310750Y-11342500D02*
X11485750Y-11517500D01*
X11485750Y-11342500D02*
X11310750Y-11517500D01*
X11374250Y-9437500D02*
X11549250Y-9612500D01*
X11549250Y-9437500D02*
X11374250Y-9612500D01*
X11787000Y-7532500D02*
X11962000Y-7707500D01*
X11962000Y-7532500D02*
X11787000Y-7707500D01*
X11850500Y-3722500D02*
X12025500Y-3897500D01*
X12025500Y-3722500D02*
X11850500Y-3897500D01*
X11850500Y-5627500D02*
X12025500Y-5802500D01*
X12025500Y-5627500D02*
X11850500Y-5802500D01*
X12263250Y-9437500D02*
X12438250Y-9612500D01*
X12438250Y-9437500D02*
X12263250Y-9612500D01*
X12326750Y-11342500D02*
X12501750Y-11517500D01*
X12501750Y-11342500D02*
X12326750Y-11517500D01*
X12739500Y-3722500D02*
X12914500Y-3897500D01*
X12914500Y-3722500D02*
X12739500Y-3897500D01*
X12739500Y-5627500D02*
X12914500Y-5802500D01*
X12914500Y-5627500D02*
X12739500Y-5802500D01*
X12803000Y-7532500D02*
X12978000Y-7707500D01*
X12978000Y-7532500D02*
X12803000Y-7707500D01*
X13215750Y-11342500D02*
X13390750Y-11517500D01*
X13390750Y-11342500D02*
X13215750Y-11517500D01*
X13279250Y-9437500D02*
X13454250Y-9612500D01*
X13454250Y-9437500D02*
X13279250Y-9612500D01*
X13692000Y-7532500D02*
X13867000Y-7707500D01*
X13867000Y-7532500D02*
X13692000Y-7707500D01*
X13755500Y-3722500D02*
X13930500Y-3897500D01*
X13930500Y-3722500D02*
X13755500Y-3897500D01*
X13755500Y-5627500D02*
X13930500Y-5802500D01*
X13930500Y-5627500D02*
X13755500Y-5802500D01*
X14168250Y-9437500D02*
X14343250Y-9612500D01*
X14343250Y-9437500D02*
X14168250Y-9612500D01*
X14231750Y-11342500D02*
X14406750Y-11517500D01*
X14406750Y-11342500D02*
X14231750Y-11517500D01*
X14644500Y-3722500D02*
X14819500Y-3897500D01*
X14819500Y-3722500D02*
X14644500Y-3897500D01*
X14644500Y-5627500D02*
X14819500Y-5802500D01*
X14819500Y-5627500D02*
X14644500Y-5802500D01*
X14708000Y-7532500D02*
X14883000Y-7707500D01*
X14883000Y-7532500D02*
X14708000Y-7707500D01*
X15120750Y-11342500D02*
X15295750Y-11517500D01*
X15295750Y-11342500D02*
X15120750Y-11517500D01*
X15184250Y-9437500D02*
X15359250Y-9612500D01*
X15359250Y-9437500D02*
X15184250Y-9612500D01*
X15597000Y-7532500D02*
X15772000Y-7707500D01*
X15772000Y-7532500D02*
X15597000Y-7707500D01*
X15660500Y-3722500D02*
X15835500Y-3897500D01*
X15835500Y-3722500D02*
X15660500Y-3897500D01*
X15660500Y-5627500D02*
X15835500Y-5802500D01*
X15835500Y-5627500D02*
X15660500Y-5802500D01*
X16073250Y-9437500D02*
X16248250Y-9612500D01*
X16248250Y-9437500D02*
X16073250Y-9612500D01*
X16136750Y-11342500D02*
X16311750Y-11517500D01*
X16311750Y-11342500D02*
X16136750Y-11517500D01*
X16311375Y-13247500D02*
X16486375Y-13422500D01*
X16486375Y-13247500D02*
X16311375Y-13422500D01*
X16549500Y-3722500D02*
X16724500Y-3897500D01*
X16724500Y-3722500D02*
X16549500Y-3897500D01*
X16549500Y-5627500D02*
X16724500Y-5802500D01*
X16724500Y-5627500D02*
X16549500Y-5802500D01*
X16613000Y-7532500D02*
X16788000Y-7707500D01*
X16788000Y-7532500D02*
X16613000Y-7707500D01*
X17025750Y-11342500D02*
X17200750Y-11517500D01*
X17200750Y-11342500D02*
X17025750Y-11517500D01*
X17089250Y-9437500D02*
X17264250Y-9612500D01*
X17264250Y-9437500D02*
X17089250Y-9612500D01*
X17327375Y-13247500D02*
X17502375Y-13422500D01*
X17502375Y-13247500D02*
X17327375Y-13422500D01*
X17502000Y-7532500D02*
X17677000Y-7707500D01*
X17677000Y-7532500D02*
X17502000Y-7707500D01*
X17565500Y-3722500D02*
X17740500Y-3897500D01*
X17740500Y-3722500D02*
X17565500Y-3897500D01*
X17565500Y-5627500D02*
X17740500Y-5802500D01*
X17740500Y-5627500D02*
X17565500Y-5802500D01*
X17978250Y-9437500D02*
X18153250Y-9612500D01*
X18153250Y-9437500D02*
X17978250Y-9612500D01*
X18041750Y-11342500D02*
X18216750Y-11517500D01*
X18216750Y-11342500D02*
X18041750Y-11517500D01*
X18454500Y-3722500D02*
X18629500Y-3897500D01*
X18629500Y-3722500D02*
X18454500Y-3897500D01*
X18454500Y-5627500D02*
X18629500Y-5802500D01*
X18629500Y-5627500D02*
X18454500Y-5802500D01*
X18518000Y-7532500D02*
X18693000Y-7707500D01*
X18693000Y-7532500D02*
X18518000Y-7707500D01*
X18930750Y-11342500D02*
X19105750Y-11517500D01*
X19105750Y-11342500D02*
X18930750Y-11517500D01*
X18994250Y-9437500D02*
X19169250Y-9612500D01*
X19169250Y-9437500D02*
X18994250Y-9612500D01*
X19407000Y-7532500D02*
X19582000Y-7707500D01*
X19582000Y-7532500D02*
X19407000Y-7707500D01*
X19470500Y-3722500D02*
X19645500Y-3897500D01*
X19645500Y-3722500D02*
X19470500Y-3897500D01*
X19470500Y-5627500D02*
X19645500Y-5802500D01*
X19645500Y-5627500D02*
X19470500Y-5802500D01*
X19883250Y-9437500D02*
X20058250Y-9612500D01*
X20058250Y-9437500D02*
X19883250Y-9612500D01*
X19946750Y-11342500D02*
X20121750Y-11517500D01*
X20121750Y-11342500D02*
X19946750Y-11517500D01*
X20359500Y-3722500D02*
X20534500Y-3897500D01*
X20534500Y-3722500D02*
X20359500Y-3897500D01*
X20359500Y-5627500D02*
X20534500Y-5802500D01*
X20534500Y-5627500D02*
X20359500Y-5802500D01*
X20423000Y-7532500D02*
X20598000Y-7707500D01*
X20598000Y-7532500D02*
X20423000Y-7707500D01*
X20835750Y-11342500D02*
X21010750Y-11517500D01*
X21010750Y-11342500D02*
X20835750Y-11517500D01*
X20899250Y-9437500D02*
X21074250Y-9612500D01*
X21074250Y-9437500D02*
X20899250Y-9612500D01*
X21312000Y-7532500D02*
X21487000Y-7707500D01*
X21487000Y-7532500D02*
X21312000Y-7707500D01*
X21375500Y-3722500D02*
X21550500Y-3897500D01*
X21550500Y-3722500D02*
X21375500Y-3897500D01*
X21375500Y-5627500D02*
X21550500Y-5802500D01*
X21550500Y-5627500D02*
X21375500Y-5802500D01*
X21788250Y-9437500D02*
X21963250Y-9612500D01*
X21963250Y-9437500D02*
X21788250Y-9612500D01*
X21851750Y-11342500D02*
X22026750Y-11517500D01*
X22026750Y-11342500D02*
X21851750Y-11517500D01*
X22264500Y-3722500D02*
X22439500Y-3897500D01*
X22439500Y-3722500D02*
X22264500Y-3897500D01*
X22264500Y-5627500D02*
X22439500Y-5802500D01*
X22439500Y-5627500D02*
X22264500Y-5802500D01*
X22328000Y-7532500D02*
X22503000Y-7707500D01*
X22503000Y-7532500D02*
X22328000Y-7707500D01*
X22740750Y-11342500D02*
X22915750Y-11517500D01*
X22915750Y-11342500D02*
X22740750Y-11517500D01*
X22804250Y-9437500D02*
X22979250Y-9612500D01*
X22979250Y-9437500D02*
X22804250Y-9612500D01*
X23217000Y-7532500D02*
X23392000Y-7707500D01*
X23392000Y-7532500D02*
X23217000Y-7707500D01*
X23280500Y-3722500D02*
X23455500Y-3897500D01*
X23455500Y-3722500D02*
X23280500Y-3897500D01*
X23280500Y-5627500D02*
X23455500Y-5802500D01*
X23455500Y-5627500D02*
X23280500Y-5802500D01*
X23455125Y-13247500D02*
X23630125Y-13422500D01*
X23630125Y-13247500D02*
X23455125Y-13422500D01*
X23693250Y-9437500D02*
X23868250Y-9612500D01*
X23868250Y-9437500D02*
X23693250Y-9612500D01*
X23756750Y-11342500D02*
X23931750Y-11517500D01*
X23931750Y-11342500D02*
X23756750Y-11517500D01*
X24169500Y-3722500D02*
X24344500Y-3897500D01*
X24344500Y-3722500D02*
X24169500Y-3897500D01*
X24169500Y-5627500D02*
X24344500Y-5802500D01*
X24344500Y-5627500D02*
X24169500Y-5802500D01*
X24233000Y-7532500D02*
X24408000Y-7707500D01*
X24408000Y-7532500D02*
X24233000Y-7707500D01*
X24471125Y-13247500D02*
X24646125Y-13422500D01*
X24646125Y-13247500D02*
X24471125Y-13422500D01*
X24645750Y-11342500D02*
X24820750Y-11517500D01*
X24820750Y-11342500D02*
X24645750Y-11517500D01*
X24709250Y-9437500D02*
X24884250Y-9612500D01*
X24884250Y-9437500D02*
X24709250Y-9612500D01*
X25122000Y-7532500D02*
X25297000Y-7707500D01*
X25297000Y-7532500D02*
X25122000Y-7707500D01*
X25185500Y-3722500D02*
X25360500Y-3897500D01*
X25360500Y-3722500D02*
X25185500Y-3897500D01*
X25185500Y-5627500D02*
X25360500Y-5802500D01*
X25360500Y-5627500D02*
X25185500Y-5802500D01*
X25598250Y-9437500D02*
X25773250Y-9612500D01*
X25773250Y-9437500D02*
X25598250Y-9612500D01*
X25598250Y-13247500D02*
X25773250Y-13422500D01*
X25773250Y-13247500D02*
X25598250Y-13422500D01*
X25661750Y-11342500D02*
X25836750Y-11517500D01*
X25836750Y-11342500D02*
X25661750Y-11517500D01*
X26074500Y-3722500D02*
X26249500Y-3897500D01*
X26249500Y-3722500D02*
X26074500Y-3897500D01*
X26074500Y-5627500D02*
X26249500Y-5802500D01*
X26249500Y-5627500D02*
X26074500Y-5802500D01*
X26138000Y-7532500D02*
X26313000Y-7707500D01*
X26313000Y-7532500D02*
X26138000Y-7707500D01*
X26614250Y-9437500D02*
X26789250Y-9612500D01*
X26789250Y-9437500D02*
X26614250Y-9612500D01*
X26614250Y-13247500D02*
X26789250Y-13422500D01*
X26789250Y-13247500D02*
X26614250Y-13422500D01*
X27027000Y-7532500D02*
X27202000Y-7707500D01*
X27202000Y-7532500D02*
X27027000Y-7707500D01*
X27090500Y-3722500D02*
X27265500Y-3897500D01*
X27265500Y-3722500D02*
X27090500Y-3897500D01*
X27090500Y-5627500D02*
X27265500Y-5802500D01*
X27265500Y-5627500D02*
X27090500Y-5802500D01*
X27741375Y-13247500D02*
X27916375Y-13422500D01*
X27916375Y-13247500D02*
X27741375Y-13422500D01*
X27979500Y-3722500D02*
X28154500Y-3897500D01*
X28154500Y-3722500D02*
X27979500Y-3897500D01*
X28043000Y-7532500D02*
X28218000Y-7707500D01*
X28218000Y-7532500D02*
X28043000Y-7707500D01*
X28217625Y-11342500D02*
X28392625Y-11517500D01*
X28392625Y-11342500D02*
X28217625Y-11517500D01*
X28693875Y-9437500D02*
X28868875Y-9612500D01*
X28868875Y-9437500D02*
X28693875Y-9612500D01*
X28757375Y-13247500D02*
X28932375Y-13422500D01*
X28932375Y-13247500D02*
X28757375Y-13422500D01*
X28932000Y-5627500D02*
X29107000Y-5802500D01*
X29107000Y-5627500D02*
X28932000Y-5802500D01*
X28995500Y-3722500D02*
X29170500Y-3897500D01*
X29170500Y-3722500D02*
X28995500Y-3897500D01*
X29233625Y-11342500D02*
X29408625Y-11517500D01*
X29408625Y-11342500D02*
X29233625Y-11517500D01*
X29408250Y-7532500D02*
X29583250Y-7707500D01*
X29583250Y-7532500D02*
X29408250Y-7707500D01*
X29709875Y-9437500D02*
X29884875Y-9612500D01*
X29884875Y-9437500D02*
X29709875Y-9612500D01*
X29884500Y-3722500D02*
X30059500Y-3897500D01*
X30059500Y-3722500D02*
X29884500Y-3897500D01*
X29884500Y-13247500D02*
X30059500Y-13422500D01*
X30059500Y-13247500D02*
X29884500Y-13422500D01*
X29948000Y-5627500D02*
X30123000Y-5802500D01*
X30123000Y-5627500D02*
X29948000Y-5802500D01*
X30424250Y-7532500D02*
X30599250Y-7707500D01*
X30599250Y-7532500D02*
X30424250Y-7707500D01*
X30900500Y-3722500D02*
X31075500Y-3897500D01*
X31075500Y-3722500D02*
X30900500Y-3897500D01*
X30900500Y-13247500D02*
X31075500Y-13422500D01*
X31075500Y-13247500D02*
X30900500Y-13422500D01*
X31789500Y-11342500D02*
X31964500Y-11517500D01*
X31964500Y-11342500D02*
X31789500Y-11517500D01*
X31789500Y-13247500D02*
X31964500Y-13422500D01*
X31964500Y-13247500D02*
X31789500Y-13422500D01*
X32805500Y-11342500D02*
X32980500Y-11517500D01*
X32980500Y-11342500D02*
X32805500Y-11517500D01*
X32805500Y-13247500D02*
X32980500Y-13422500D01*
X32980500Y-13247500D02*
X32805500Y-13422500D01*
X33694500Y-13247500D02*
X33869500Y-13422500D01*
X33869500Y-13247500D02*
X33694500Y-13422500D01*
X34710500Y-13247500D02*
X34885500Y-13422500D01*
X34885500Y-13247500D02*
X34710500Y-13422500D01*
D14*
X12059275Y-12636500D02*
G75*
G03*
X11754475Y-12636500I-152400J0D01*
G01*
X11754475Y-12636500D02*
G75*
G03*
X12059275Y-12636500I152400J0D01*
G01*
X22059275Y-12636500D02*
G75*
G03*
X21754475Y-12636500I-152400J0D01*
G01*
X21754475Y-12636500D02*
G75*
G03*
X22059275Y-12636500I152400J0D01*
G01*
X27771725Y-10731500D02*
G75*
G03*
X27466925Y-10731500I-152400J0D01*
G01*
X27466925Y-10731500D02*
G75*
G03*
X27771725Y-10731500I152400J0D01*
G01*
X28247975Y-8826500D02*
G75*
G03*
X27943175Y-8826500I-152400J0D01*
G01*
X27943175Y-8826500D02*
G75*
G03*
X28247975Y-8826500I152400J0D01*
G01*
X28486100Y-5016500D02*
G75*
G03*
X28181300Y-5016500I-152400J0D01*
G01*
X28181300Y-5016500D02*
G75*
G03*
X28486100Y-5016500I152400J0D01*
G01*
X30159325Y-10731500D02*
G75*
G03*
X29854525Y-10731500I-152400J0D01*
G01*
X29854525Y-10731500D02*
G75*
G03*
X30159325Y-10731500I152400J0D01*
G01*
X30635575Y-8826500D02*
G75*
G03*
X30330775Y-8826500I-152400J0D01*
G01*
X30330775Y-8826500D02*
G75*
G03*
X30635575Y-8826500I152400J0D01*
G01*
X30873700Y-5016500D02*
G75*
G03*
X30568900Y-5016500I-152400J0D01*
G01*
X30568900Y-5016500D02*
G75*
G03*
X30873700Y-5016500I152400J0D01*
G01*
D15*
X11906875Y-13958110D02*
X11906875Y-14356890D01*
X11707485Y-14157500D02*
X12106265Y-14157500D01*
X21906875Y-13958110D02*
X21906875Y-14356890D01*
X21707485Y-14157500D02*
X22106265Y-14157500D01*
X27619325Y-12053110D02*
X27619325Y-12451890D01*
X27419935Y-12252500D02*
X27818715Y-12252500D01*
X28095575Y-10148110D02*
X28095575Y-10546890D01*
X27896185Y-10347500D02*
X28294965Y-10347500D01*
X28333700Y-6338110D02*
X28333700Y-6736890D01*
X28134310Y-6537500D02*
X28533090Y-6537500D01*
X30006925Y-12053110D02*
X30006925Y-12451890D01*
X29807535Y-12252500D02*
X30206315Y-12252500D01*
X30483175Y-10148110D02*
X30483175Y-10546890D01*
X30283785Y-10347500D02*
X30682565Y-10347500D01*
X30721300Y-6338110D02*
X30721300Y-6736890D01*
X30521910Y-6537500D02*
X30920690Y-6537500D01*
D16*
X3951423Y-3951423D02*
X3951423Y-3668577D01*
X3668577Y-3668577D01*
X3668577Y-3951423D01*
X3951423Y-3951423D01*
X3951423Y-5856423D02*
X3951423Y-5573577D01*
X3668577Y-5573577D01*
X3668577Y-5856423D01*
X3951423Y-5856423D01*
X4189548Y-11571423D02*
X4189548Y-11288577D01*
X3906702Y-11288577D01*
X3906702Y-11571423D01*
X4189548Y-11571423D01*
X4189548Y-13476423D02*
X4189548Y-13193577D01*
X3906702Y-13193577D01*
X3906702Y-13476423D01*
X4189548Y-13476423D01*
X4427673Y-7761423D02*
X4427673Y-7478577D01*
X4144827Y-7478577D01*
X4144827Y-7761423D01*
X4427673Y-7761423D01*
X4665798Y-9666423D02*
X4665798Y-9383577D01*
X4382952Y-9383577D01*
X4382952Y-9666423D01*
X4665798Y-9666423D01*
X5856423Y-3951423D02*
X5856423Y-3668577D01*
X5573577Y-3668577D01*
X5573577Y-3951423D01*
X5856423Y-3951423D01*
X5860923Y-5856423D02*
X5860923Y-5573577D01*
X5578077Y-5573577D01*
X5578077Y-5856423D01*
X5860923Y-5856423D01*
X6332673Y-11571423D02*
X6332673Y-11288577D01*
X6049827Y-11288577D01*
X6049827Y-11571423D01*
X6332673Y-11571423D01*
X6332673Y-13476423D02*
X6332673Y-13193577D01*
X6049827Y-13193577D01*
X6049827Y-13476423D01*
X6332673Y-13476423D01*
X6808923Y-7761423D02*
X6808923Y-7478577D01*
X6526077Y-7478577D01*
X6526077Y-7761423D01*
X6808923Y-7761423D01*
X7285173Y-9666423D02*
X7285173Y-9383577D01*
X7002327Y-9383577D01*
X7002327Y-9666423D01*
X7285173Y-9666423D01*
X7761423Y-3951423D02*
X7761423Y-3668577D01*
X7478577Y-3668577D01*
X7478577Y-3951423D01*
X7761423Y-3951423D01*
X7761423Y-5856423D02*
X7761423Y-5573577D01*
X7478577Y-5573577D01*
X7478577Y-5856423D01*
X7761423Y-5856423D01*
X8237673Y-11571423D02*
X8237673Y-11288577D01*
X7954827Y-11288577D01*
X7954827Y-11571423D01*
X8237673Y-11571423D01*
X8237673Y-13476423D02*
X8237673Y-13193577D01*
X7954827Y-13193577D01*
X7954827Y-13476423D01*
X8237673Y-13476423D01*
X8719548Y-7761423D02*
X8719548Y-7478577D01*
X8436702Y-7478577D01*
X8436702Y-7761423D01*
X8719548Y-7761423D01*
X9190173Y-9666423D02*
X9190173Y-9383577D01*
X8907327Y-9383577D01*
X8907327Y-9666423D01*
X9190173Y-9666423D01*
X9666423Y-3951423D02*
X9666423Y-3668577D01*
X9383577Y-3668577D01*
X9383577Y-3951423D01*
X9666423Y-3951423D01*
X9666423Y-5856423D02*
X9666423Y-5573577D01*
X9383577Y-5573577D01*
X9383577Y-5856423D01*
X9666423Y-5856423D01*
X10142673Y-11571423D02*
X10142673Y-11288577D01*
X9859827Y-11288577D01*
X9859827Y-11571423D01*
X10142673Y-11571423D01*
X10142673Y-13476423D02*
X10142673Y-13193577D01*
X9859827Y-13193577D01*
X9859827Y-13476423D01*
X10142673Y-13476423D01*
X10618923Y-7761423D02*
X10618923Y-7478577D01*
X10336077Y-7478577D01*
X10336077Y-7761423D01*
X10618923Y-7761423D01*
X11095173Y-9666423D02*
X11095173Y-9383577D01*
X10812327Y-9383577D01*
X10812327Y-9666423D01*
X11095173Y-9666423D01*
X11571423Y-3951423D02*
X11571423Y-3668577D01*
X11288577Y-3668577D01*
X11288577Y-3951423D01*
X11571423Y-3951423D01*
X11571423Y-5856423D02*
X11571423Y-5573577D01*
X11288577Y-5573577D01*
X11288577Y-5856423D01*
X11571423Y-5856423D01*
X12047673Y-11571423D02*
X12047673Y-11288577D01*
X11764827Y-11288577D01*
X11764827Y-11571423D01*
X12047673Y-11571423D01*
X12523923Y-7761423D02*
X12523923Y-7478577D01*
X12241077Y-7478577D01*
X12241077Y-7761423D01*
X12523923Y-7761423D01*
X13000173Y-9666423D02*
X13000173Y-9383577D01*
X12717327Y-9383577D01*
X12717327Y-9666423D01*
X13000173Y-9666423D01*
X13476423Y-3951423D02*
X13476423Y-3668577D01*
X13193577Y-3668577D01*
X13193577Y-3951423D01*
X13476423Y-3951423D01*
X13476423Y-5856423D02*
X13476423Y-5573577D01*
X13193577Y-5573577D01*
X13193577Y-5856423D01*
X13476423Y-5856423D01*
X13952673Y-11571423D02*
X13952673Y-11288577D01*
X13669827Y-11288577D01*
X13669827Y-11571423D01*
X13952673Y-11571423D01*
X14428923Y-7761423D02*
X14428923Y-7478577D01*
X14146077Y-7478577D01*
X14146077Y-7761423D01*
X14428923Y-7761423D01*
X14905173Y-9666423D02*
X14905173Y-9383577D01*
X14622327Y-9383577D01*
X14622327Y-9666423D01*
X14905173Y-9666423D01*
X15381423Y-3951423D02*
X15381423Y-3668577D01*
X15098577Y-3668577D01*
X15098577Y-3951423D01*
X15381423Y-3951423D01*
X15381423Y-5856423D02*
X15381423Y-5573577D01*
X15098577Y-5573577D01*
X15098577Y-5856423D01*
X15381423Y-5856423D01*
X15857673Y-11571423D02*
X15857673Y-11288577D01*
X15574827Y-11288577D01*
X15574827Y-11571423D01*
X15857673Y-11571423D01*
X16333923Y-7761423D02*
X16333923Y-7478577D01*
X16051077Y-7478577D01*
X16051077Y-7761423D01*
X16333923Y-7761423D01*
X16810173Y-9666423D02*
X16810173Y-9383577D01*
X16527327Y-9383577D01*
X16527327Y-9666423D01*
X16810173Y-9666423D01*
X17048298Y-13476423D02*
X17048298Y-13193577D01*
X16765452Y-13193577D01*
X16765452Y-13476423D01*
X17048298Y-13476423D01*
X17286423Y-3951423D02*
X17286423Y-3668577D01*
X17003577Y-3668577D01*
X17003577Y-3951423D01*
X17286423Y-3951423D01*
X17286423Y-5856423D02*
X17286423Y-5573577D01*
X17003577Y-5573577D01*
X17003577Y-5856423D01*
X17286423Y-5856423D01*
X17762673Y-11571423D02*
X17762673Y-11288577D01*
X17479827Y-11288577D01*
X17479827Y-11571423D01*
X17762673Y-11571423D01*
X18238923Y-7761423D02*
X18238923Y-7478577D01*
X17956077Y-7478577D01*
X17956077Y-7761423D01*
X18238923Y-7761423D01*
X18715173Y-9666423D02*
X18715173Y-9383577D01*
X18432327Y-9383577D01*
X18432327Y-9666423D01*
X18715173Y-9666423D01*
X19191423Y-3951423D02*
X19191423Y-3668577D01*
X18908577Y-3668577D01*
X18908577Y-3951423D01*
X19191423Y-3951423D01*
X19191423Y-5856423D02*
X19191423Y-5573577D01*
X18908577Y-5573577D01*
X18908577Y-5856423D01*
X19191423Y-5856423D01*
X19667673Y-11571423D02*
X19667673Y-11288577D01*
X19384827Y-11288577D01*
X19384827Y-11571423D01*
X19667673Y-11571423D01*
X20143923Y-7761423D02*
X20143923Y-7478577D01*
X19861077Y-7478577D01*
X19861077Y-7761423D01*
X20143923Y-7761423D01*
X20620173Y-9666423D02*
X20620173Y-9383577D01*
X20337327Y-9383577D01*
X20337327Y-9666423D01*
X20620173Y-9666423D01*
X21096423Y-3951423D02*
X21096423Y-3668577D01*
X20813577Y-3668577D01*
X20813577Y-3951423D01*
X21096423Y-3951423D01*
X21096423Y-5856423D02*
X21096423Y-5573577D01*
X20813577Y-5573577D01*
X20813577Y-5856423D01*
X21096423Y-5856423D01*
X21572673Y-11571423D02*
X21572673Y-11288577D01*
X21289827Y-11288577D01*
X21289827Y-11571423D01*
X21572673Y-11571423D01*
X22048923Y-7761423D02*
X22048923Y-7478577D01*
X21766077Y-7478577D01*
X21766077Y-7761423D01*
X22048923Y-7761423D01*
X22525173Y-9666423D02*
X22525173Y-9383577D01*
X22242327Y-9383577D01*
X22242327Y-9666423D01*
X22525173Y-9666423D01*
X23001423Y-3951423D02*
X23001423Y-3668577D01*
X22718577Y-3668577D01*
X22718577Y-3951423D01*
X23001423Y-3951423D01*
X23001423Y-5856423D02*
X23001423Y-5573577D01*
X22718577Y-5573577D01*
X22718577Y-5856423D01*
X23001423Y-5856423D01*
X23477673Y-11571423D02*
X23477673Y-11288577D01*
X23194827Y-11288577D01*
X23194827Y-11571423D01*
X23477673Y-11571423D01*
X23953923Y-7761423D02*
X23953923Y-7478577D01*
X23671077Y-7478577D01*
X23671077Y-7761423D01*
X23953923Y-7761423D01*
X24192048Y-13476423D02*
X24192048Y-13193577D01*
X23909202Y-13193577D01*
X23909202Y-13476423D01*
X24192048Y-13476423D01*
X24430173Y-9666423D02*
X24430173Y-9383577D01*
X24147327Y-9383577D01*
X24147327Y-9666423D01*
X24430173Y-9666423D01*
X24906423Y-3951423D02*
X24906423Y-3668577D01*
X24623577Y-3668577D01*
X24623577Y-3951423D01*
X24906423Y-3951423D01*
X24906423Y-5856423D02*
X24906423Y-5573577D01*
X24623577Y-5573577D01*
X24623577Y-5856423D01*
X24906423Y-5856423D01*
X25382673Y-11571423D02*
X25382673Y-11288577D01*
X25099827Y-11288577D01*
X25099827Y-11571423D01*
X25382673Y-11571423D01*
X25858923Y-7761423D02*
X25858923Y-7478577D01*
X25576077Y-7478577D01*
X25576077Y-7761423D01*
X25858923Y-7761423D01*
X26335173Y-9666423D02*
X26335173Y-9383577D01*
X26052327Y-9383577D01*
X26052327Y-9666423D01*
X26335173Y-9666423D01*
X26335173Y-13476423D02*
X26335173Y-13193577D01*
X26052327Y-13193577D01*
X26052327Y-13476423D01*
X26335173Y-13476423D01*
X26811423Y-3951423D02*
X26811423Y-3668577D01*
X26528577Y-3668577D01*
X26528577Y-3951423D01*
X26811423Y-3951423D01*
X26811423Y-5856423D02*
X26811423Y-5573577D01*
X26528577Y-5573577D01*
X26528577Y-5856423D01*
X26811423Y-5856423D01*
X27763923Y-7761423D02*
X27763923Y-7478577D01*
X27481077Y-7478577D01*
X27481077Y-7761423D01*
X27763923Y-7761423D01*
X28478298Y-13476423D02*
X28478298Y-13193577D01*
X28195452Y-13193577D01*
X28195452Y-13476423D01*
X28478298Y-13476423D01*
X28716423Y-3951423D02*
X28716423Y-3668577D01*
X28433577Y-3668577D01*
X28433577Y-3951423D01*
X28716423Y-3951423D01*
X28954548Y-11571423D02*
X28954548Y-11288577D01*
X28671702Y-11288577D01*
X28671702Y-11571423D01*
X28954548Y-11571423D01*
X29430798Y-9666423D02*
X29430798Y-9383577D01*
X29147952Y-9383577D01*
X29147952Y-9666423D01*
X29430798Y-9666423D01*
X29668923Y-5856423D02*
X29668923Y-5573577D01*
X29386077Y-5573577D01*
X29386077Y-5856423D01*
X29668923Y-5856423D01*
X30145173Y-7761423D02*
X30145173Y-7478577D01*
X29862327Y-7478577D01*
X29862327Y-7761423D01*
X30145173Y-7761423D01*
X30621423Y-3951423D02*
X30621423Y-3668577D01*
X30338577Y-3668577D01*
X30338577Y-3951423D01*
X30621423Y-3951423D01*
X30621423Y-13476423D02*
X30621423Y-13193577D01*
X30338577Y-13193577D01*
X30338577Y-13476423D01*
X30621423Y-13476423D01*
X32526423Y-11571423D02*
X32526423Y-11288577D01*
X32243577Y-11288577D01*
X32243577Y-11571423D01*
X32526423Y-11571423D01*
X32526423Y-13476423D02*
X32526423Y-13193577D01*
X32243577Y-13193577D01*
X32243577Y-13476423D01*
X32526423Y-13476423D01*
X34431423Y-13476423D02*
X34431423Y-13193577D01*
X34148577Y-13193577D01*
X34148577Y-13476423D01*
X34431423Y-13476423D01*
D12*
X3113277Y-14842109D02*
X3113277Y-14642109D01*
X3113277Y-14642109D02*
X3160896Y-14642109D01*
X3160896Y-14642109D02*
X3189467Y-14651633D01*
X3189467Y-14651633D02*
X3208515Y-14670680D01*
X3208515Y-14670680D02*
X3218039Y-14689728D01*
X3218039Y-14689728D02*
X3227562Y-14727823D01*
X3227562Y-14727823D02*
X3227562Y-14756394D01*
X3227562Y-14756394D02*
X3218039Y-14794490D01*
X3218039Y-14794490D02*
X3208515Y-14813537D01*
X3208515Y-14813537D02*
X3189467Y-14832585D01*
X3189467Y-14832585D02*
X3160896Y-14842109D01*
X3160896Y-14842109D02*
X3113277Y-14842109D01*
X3313277Y-14842109D02*
X3313277Y-14708775D01*
X3313277Y-14746871D02*
X3322801Y-14727823D01*
X3322801Y-14727823D02*
X3332324Y-14718299D01*
X3332324Y-14718299D02*
X3351372Y-14708775D01*
X3351372Y-14708775D02*
X3370420Y-14708775D01*
X3437086Y-14842109D02*
X3437086Y-14708775D01*
X3437086Y-14642109D02*
X3427562Y-14651633D01*
X3427562Y-14651633D02*
X3437086Y-14661156D01*
X3437086Y-14661156D02*
X3446610Y-14651633D01*
X3446610Y-14651633D02*
X3437086Y-14642109D01*
X3437086Y-14642109D02*
X3437086Y-14661156D01*
X3560896Y-14842109D02*
X3541848Y-14832585D01*
X3541848Y-14832585D02*
X3532324Y-14813537D01*
X3532324Y-14813537D02*
X3532324Y-14642109D01*
X3665658Y-14842109D02*
X3646610Y-14832585D01*
X3646610Y-14832585D02*
X3637086Y-14813537D01*
X3637086Y-14813537D02*
X3637086Y-14642109D01*
X3894229Y-14842109D02*
X3894229Y-14642109D01*
X3894229Y-14642109D02*
X3960896Y-14784966D01*
X3960896Y-14784966D02*
X4027562Y-14642109D01*
X4027562Y-14642109D02*
X4027562Y-14842109D01*
X4208515Y-14842109D02*
X4208515Y-14737347D01*
X4208515Y-14737347D02*
X4198991Y-14718299D01*
X4198991Y-14718299D02*
X4179943Y-14708775D01*
X4179943Y-14708775D02*
X4141848Y-14708775D01*
X4141848Y-14708775D02*
X4122801Y-14718299D01*
X4208515Y-14832585D02*
X4189467Y-14842109D01*
X4189467Y-14842109D02*
X4141848Y-14842109D01*
X4141848Y-14842109D02*
X4122801Y-14832585D01*
X4122801Y-14832585D02*
X4113277Y-14813537D01*
X4113277Y-14813537D02*
X4113277Y-14794490D01*
X4113277Y-14794490D02*
X4122801Y-14775442D01*
X4122801Y-14775442D02*
X4141848Y-14765918D01*
X4141848Y-14765918D02*
X4189467Y-14765918D01*
X4189467Y-14765918D02*
X4208515Y-14756394D01*
X4303753Y-14708775D02*
X4303753Y-14908775D01*
X4303753Y-14718299D02*
X4322801Y-14708775D01*
X4322801Y-14708775D02*
X4360896Y-14708775D01*
X4360896Y-14708775D02*
X4379944Y-14718299D01*
X4379944Y-14718299D02*
X4389467Y-14727823D01*
X4389467Y-14727823D02*
X4398991Y-14746871D01*
X4398991Y-14746871D02*
X4398991Y-14804013D01*
X4398991Y-14804013D02*
X4389467Y-14823061D01*
X4389467Y-14823061D02*
X4379944Y-14832585D01*
X4379944Y-14832585D02*
X4360896Y-14842109D01*
X4360896Y-14842109D02*
X4322801Y-14842109D01*
X4322801Y-14842109D02*
X4303753Y-14832585D01*
X4484705Y-14823061D02*
X4494229Y-14832585D01*
X4494229Y-14832585D02*
X4484705Y-14842109D01*
X4484705Y-14842109D02*
X4475182Y-14832585D01*
X4475182Y-14832585D02*
X4484705Y-14823061D01*
X4484705Y-14823061D02*
X4484705Y-14842109D01*
X4484705Y-14718299D02*
X4494229Y-14727823D01*
X4494229Y-14727823D02*
X4484705Y-14737347D01*
X4484705Y-14737347D02*
X4475182Y-14727823D01*
X4475182Y-14727823D02*
X4484705Y-14718299D01*
X4484705Y-14718299D02*
X4484705Y-14737347D01*
D13*
X2677500Y-15083125D02*
X2852500Y-15258125D01*
X2852500Y-15083125D02*
X2677500Y-15258125D01*
D12*
X3218039Y-15262109D02*
X3103753Y-15262109D01*
X3160896Y-15262109D02*
X3160896Y-15062109D01*
X3160896Y-15062109D02*
X3141848Y-15090680D01*
X3141848Y-15090680D02*
X3122801Y-15109728D01*
X3122801Y-15109728D02*
X3103753Y-15119252D01*
X3303753Y-15243061D02*
X3313277Y-15252585D01*
X3313277Y-15252585D02*
X3303753Y-15262109D01*
X3303753Y-15262109D02*
X3294229Y-15252585D01*
X3294229Y-15252585D02*
X3303753Y-15243061D01*
X3303753Y-15243061D02*
X3303753Y-15262109D01*
X3379943Y-15062109D02*
X3513277Y-15062109D01*
X3513277Y-15062109D02*
X3427562Y-15262109D01*
X3684705Y-15062109D02*
X3589467Y-15062109D01*
X3589467Y-15062109D02*
X3579943Y-15157347D01*
X3579943Y-15157347D02*
X3589467Y-15147823D01*
X3589467Y-15147823D02*
X3608515Y-15138299D01*
X3608515Y-15138299D02*
X3656134Y-15138299D01*
X3656134Y-15138299D02*
X3675182Y-15147823D01*
X3675182Y-15147823D02*
X3684705Y-15157347D01*
X3684705Y-15157347D02*
X3694229Y-15176394D01*
X3694229Y-15176394D02*
X3694229Y-15224013D01*
X3694229Y-15224013D02*
X3684705Y-15243061D01*
X3684705Y-15243061D02*
X3675182Y-15252585D01*
X3675182Y-15252585D02*
X3656134Y-15262109D01*
X3656134Y-15262109D02*
X3608515Y-15262109D01*
X3608515Y-15262109D02*
X3589467Y-15252585D01*
X3589467Y-15252585D02*
X3579943Y-15243061D01*
X3818039Y-15062109D02*
X3837086Y-15062109D01*
X3837086Y-15062109D02*
X3856134Y-15071633D01*
X3856134Y-15071633D02*
X3865658Y-15081156D01*
X3865658Y-15081156D02*
X3875182Y-15100204D01*
X3875182Y-15100204D02*
X3884705Y-15138299D01*
X3884705Y-15138299D02*
X3884705Y-15185918D01*
X3884705Y-15185918D02*
X3875182Y-15224013D01*
X3875182Y-15224013D02*
X3865658Y-15243061D01*
X3865658Y-15243061D02*
X3856134Y-15252585D01*
X3856134Y-15252585D02*
X3837086Y-15262109D01*
X3837086Y-15262109D02*
X3818039Y-15262109D01*
X3818039Y-15262109D02*
X3798991Y-15252585D01*
X3798991Y-15252585D02*
X3789467Y-15243061D01*
X3789467Y-15243061D02*
X3779943Y-15224013D01*
X3779943Y-15224013D02*
X3770420Y-15185918D01*
X3770420Y-15185918D02*
X3770420Y-15138299D01*
X3770420Y-15138299D02*
X3779943Y-15100204D01*
X3779943Y-15100204D02*
X3789467Y-15081156D01*
X3789467Y-15081156D02*
X3798991Y-15071633D01*
X3798991Y-15071633D02*
X3818039Y-15062109D01*
X3970420Y-15262109D02*
X3970420Y-15128775D01*
X3970420Y-15147823D02*
X3979943Y-15138299D01*
X3979943Y-15138299D02*
X3998991Y-15128775D01*
X3998991Y-15128775D02*
X4027563Y-15128775D01*
X4027563Y-15128775D02*
X4046610Y-15138299D01*
X4046610Y-15138299D02*
X4056134Y-15157347D01*
X4056134Y-15157347D02*
X4056134Y-15262109D01*
X4056134Y-15157347D02*
X4065658Y-15138299D01*
X4065658Y-15138299D02*
X4084705Y-15128775D01*
X4084705Y-15128775D02*
X4113277Y-15128775D01*
X4113277Y-15128775D02*
X4132324Y-15138299D01*
X4132324Y-15138299D02*
X4141848Y-15157347D01*
X4141848Y-15157347D02*
X4141848Y-15262109D01*
X4237086Y-15262109D02*
X4237086Y-15128775D01*
X4237086Y-15147823D02*
X4246610Y-15138299D01*
X4246610Y-15138299D02*
X4265658Y-15128775D01*
X4265658Y-15128775D02*
X4294229Y-15128775D01*
X4294229Y-15128775D02*
X4313277Y-15138299D01*
X4313277Y-15138299D02*
X4322801Y-15157347D01*
X4322801Y-15157347D02*
X4322801Y-15262109D01*
X4322801Y-15157347D02*
X4332325Y-15138299D01*
X4332325Y-15138299D02*
X4351372Y-15128775D01*
X4351372Y-15128775D02*
X4379944Y-15128775D01*
X4379944Y-15128775D02*
X4398991Y-15138299D01*
X4398991Y-15138299D02*
X4408515Y-15157347D01*
X4408515Y-15157347D02*
X4408515Y-15262109D01*
X4798991Y-15052585D02*
X4627563Y-15309728D01*
X5056134Y-15062109D02*
X5075182Y-15062109D01*
X5075182Y-15062109D02*
X5094229Y-15071633D01*
X5094229Y-15071633D02*
X5103753Y-15081156D01*
X5103753Y-15081156D02*
X5113277Y-15100204D01*
X5113277Y-15100204D02*
X5122801Y-15138299D01*
X5122801Y-15138299D02*
X5122801Y-15185918D01*
X5122801Y-15185918D02*
X5113277Y-15224013D01*
X5113277Y-15224013D02*
X5103753Y-15243061D01*
X5103753Y-15243061D02*
X5094229Y-15252585D01*
X5094229Y-15252585D02*
X5075182Y-15262109D01*
X5075182Y-15262109D02*
X5056134Y-15262109D01*
X5056134Y-15262109D02*
X5037087Y-15252585D01*
X5037087Y-15252585D02*
X5027563Y-15243061D01*
X5027563Y-15243061D02*
X5018039Y-15224013D01*
X5018039Y-15224013D02*
X5008515Y-15185918D01*
X5008515Y-15185918D02*
X5008515Y-15138299D01*
X5008515Y-15138299D02*
X5018039Y-15100204D01*
X5018039Y-15100204D02*
X5027563Y-15081156D01*
X5027563Y-15081156D02*
X5037087Y-15071633D01*
X5037087Y-15071633D02*
X5056134Y-15062109D01*
X5208515Y-15243061D02*
X5218039Y-15252585D01*
X5218039Y-15252585D02*
X5208515Y-15262109D01*
X5208515Y-15262109D02*
X5198991Y-15252585D01*
X5198991Y-15252585D02*
X5208515Y-15243061D01*
X5208515Y-15243061D02*
X5208515Y-15262109D01*
X5341848Y-15062109D02*
X5360896Y-15062109D01*
X5360896Y-15062109D02*
X5379944Y-15071633D01*
X5379944Y-15071633D02*
X5389468Y-15081156D01*
X5389468Y-15081156D02*
X5398991Y-15100204D01*
X5398991Y-15100204D02*
X5408515Y-15138299D01*
X5408515Y-15138299D02*
X5408515Y-15185918D01*
X5408515Y-15185918D02*
X5398991Y-15224013D01*
X5398991Y-15224013D02*
X5389468Y-15243061D01*
X5389468Y-15243061D02*
X5379944Y-15252585D01*
X5379944Y-15252585D02*
X5360896Y-15262109D01*
X5360896Y-15262109D02*
X5341848Y-15262109D01*
X5341848Y-15262109D02*
X5322801Y-15252585D01*
X5322801Y-15252585D02*
X5313277Y-15243061D01*
X5313277Y-15243061D02*
X5303753Y-15224013D01*
X5303753Y-15224013D02*
X5294229Y-15185918D01*
X5294229Y-15185918D02*
X5294229Y-15138299D01*
X5294229Y-15138299D02*
X5303753Y-15100204D01*
X5303753Y-15100204D02*
X5313277Y-15081156D01*
X5313277Y-15081156D02*
X5322801Y-15071633D01*
X5322801Y-15071633D02*
X5341848Y-15062109D01*
X5579944Y-15062109D02*
X5541848Y-15062109D01*
X5541848Y-15062109D02*
X5522801Y-15071633D01*
X5522801Y-15071633D02*
X5513277Y-15081156D01*
X5513277Y-15081156D02*
X5494229Y-15109728D01*
X5494229Y-15109728D02*
X5484706Y-15147823D01*
X5484706Y-15147823D02*
X5484706Y-15224013D01*
X5484706Y-15224013D02*
X5494229Y-15243061D01*
X5494229Y-15243061D02*
X5503753Y-15252585D01*
X5503753Y-15252585D02*
X5522801Y-15262109D01*
X5522801Y-15262109D02*
X5560896Y-15262109D01*
X5560896Y-15262109D02*
X5579944Y-15252585D01*
X5579944Y-15252585D02*
X5589468Y-15243061D01*
X5589468Y-15243061D02*
X5598991Y-15224013D01*
X5598991Y-15224013D02*
X5598991Y-15176394D01*
X5598991Y-15176394D02*
X5589468Y-15157347D01*
X5589468Y-15157347D02*
X5579944Y-15147823D01*
X5579944Y-15147823D02*
X5560896Y-15138299D01*
X5560896Y-15138299D02*
X5522801Y-15138299D01*
X5522801Y-15138299D02*
X5503753Y-15147823D01*
X5503753Y-15147823D02*
X5494229Y-15157347D01*
X5494229Y-15157347D02*
X5484706Y-15176394D01*
X5713277Y-15147823D02*
X5694229Y-15138299D01*
X5694229Y-15138299D02*
X5684706Y-15128775D01*
X5684706Y-15128775D02*
X5675182Y-15109728D01*
X5675182Y-15109728D02*
X5675182Y-15100204D01*
X5675182Y-15100204D02*
X5684706Y-15081156D01*
X5684706Y-15081156D02*
X5694229Y-15071633D01*
X5694229Y-15071633D02*
X5713277Y-15062109D01*
X5713277Y-15062109D02*
X5751372Y-15062109D01*
X5751372Y-15062109D02*
X5770420Y-15071633D01*
X5770420Y-15071633D02*
X5779944Y-15081156D01*
X5779944Y-15081156D02*
X5789467Y-15100204D01*
X5789467Y-15100204D02*
X5789467Y-15109728D01*
X5789467Y-15109728D02*
X5779944Y-15128775D01*
X5779944Y-15128775D02*
X5770420Y-15138299D01*
X5770420Y-15138299D02*
X5751372Y-15147823D01*
X5751372Y-15147823D02*
X5713277Y-15147823D01*
X5713277Y-15147823D02*
X5694229Y-15157347D01*
X5694229Y-15157347D02*
X5684706Y-15166871D01*
X5684706Y-15166871D02*
X5675182Y-15185918D01*
X5675182Y-15185918D02*
X5675182Y-15224013D01*
X5675182Y-15224013D02*
X5684706Y-15243061D01*
X5684706Y-15243061D02*
X5694229Y-15252585D01*
X5694229Y-15252585D02*
X5713277Y-15262109D01*
X5713277Y-15262109D02*
X5751372Y-15262109D01*
X5751372Y-15262109D02*
X5770420Y-15252585D01*
X5770420Y-15252585D02*
X5779944Y-15243061D01*
X5779944Y-15243061D02*
X5789467Y-15224013D01*
X5789467Y-15224013D02*
X5789467Y-15185918D01*
X5789467Y-15185918D02*
X5779944Y-15166871D01*
X5779944Y-15166871D02*
X5770420Y-15157347D01*
X5770420Y-15157347D02*
X5751372Y-15147823D01*
X5884706Y-15262109D02*
X5922801Y-15262109D01*
X5922801Y-15262109D02*
X5941848Y-15252585D01*
X5941848Y-15252585D02*
X5951372Y-15243061D01*
X5951372Y-15243061D02*
X5970420Y-15214490D01*
X5970420Y-15214490D02*
X5979944Y-15176394D01*
X5979944Y-15176394D02*
X5979944Y-15100204D01*
X5979944Y-15100204D02*
X5970420Y-15081156D01*
X5970420Y-15081156D02*
X5960896Y-15071633D01*
X5960896Y-15071633D02*
X5941848Y-15062109D01*
X5941848Y-15062109D02*
X5903753Y-15062109D01*
X5903753Y-15062109D02*
X5884706Y-15071633D01*
X5884706Y-15071633D02*
X5875182Y-15081156D01*
X5875182Y-15081156D02*
X5865658Y-15100204D01*
X5865658Y-15100204D02*
X5865658Y-15147823D01*
X5865658Y-15147823D02*
X5875182Y-15166871D01*
X5875182Y-15166871D02*
X5884706Y-15176394D01*
X5884706Y-15176394D02*
X5903753Y-15185918D01*
X5903753Y-15185918D02*
X5941848Y-15185918D01*
X5941848Y-15185918D02*
X5960896Y-15176394D01*
X5960896Y-15176394D02*
X5970420Y-15166871D01*
X5970420Y-15166871D02*
X5979944Y-15147823D01*
X6056134Y-15062109D02*
X6056134Y-15100204D01*
X6132325Y-15062109D02*
X6132325Y-15100204D01*
X6427563Y-15338299D02*
X6418039Y-15328775D01*
X6418039Y-15328775D02*
X6398991Y-15300204D01*
X6398991Y-15300204D02*
X6389468Y-15281156D01*
X6389468Y-15281156D02*
X6379944Y-15252585D01*
X6379944Y-15252585D02*
X6370420Y-15204966D01*
X6370420Y-15204966D02*
X6370420Y-15166871D01*
X6370420Y-15166871D02*
X6379944Y-15119252D01*
X6379944Y-15119252D02*
X6389468Y-15090680D01*
X6389468Y-15090680D02*
X6398991Y-15071633D01*
X6398991Y-15071633D02*
X6418039Y-15043061D01*
X6418039Y-15043061D02*
X6427563Y-15033537D01*
X6608515Y-15262109D02*
X6494229Y-15262109D01*
X6551372Y-15262109D02*
X6551372Y-15062109D01*
X6551372Y-15062109D02*
X6532325Y-15090680D01*
X6532325Y-15090680D02*
X6513277Y-15109728D01*
X6513277Y-15109728D02*
X6494229Y-15119252D01*
X6779944Y-15062109D02*
X6741848Y-15062109D01*
X6741848Y-15062109D02*
X6722801Y-15071633D01*
X6722801Y-15071633D02*
X6713277Y-15081156D01*
X6713277Y-15081156D02*
X6694229Y-15109728D01*
X6694229Y-15109728D02*
X6684706Y-15147823D01*
X6684706Y-15147823D02*
X6684706Y-15224013D01*
X6684706Y-15224013D02*
X6694229Y-15243061D01*
X6694229Y-15243061D02*
X6703753Y-15252585D01*
X6703753Y-15252585D02*
X6722801Y-15262109D01*
X6722801Y-15262109D02*
X6760896Y-15262109D01*
X6760896Y-15262109D02*
X6779944Y-15252585D01*
X6779944Y-15252585D02*
X6789468Y-15243061D01*
X6789468Y-15243061D02*
X6798991Y-15224013D01*
X6798991Y-15224013D02*
X6798991Y-15176394D01*
X6798991Y-15176394D02*
X6789468Y-15157347D01*
X6789468Y-15157347D02*
X6779944Y-15147823D01*
X6779944Y-15147823D02*
X6760896Y-15138299D01*
X6760896Y-15138299D02*
X6722801Y-15138299D01*
X6722801Y-15138299D02*
X6703753Y-15147823D01*
X6703753Y-15147823D02*
X6694229Y-15157347D01*
X6694229Y-15157347D02*
X6684706Y-15176394D01*
X6875182Y-15081156D02*
X6884706Y-15071633D01*
X6884706Y-15071633D02*
X6903753Y-15062109D01*
X6903753Y-15062109D02*
X6951372Y-15062109D01*
X6951372Y-15062109D02*
X6970420Y-15071633D01*
X6970420Y-15071633D02*
X6979944Y-15081156D01*
X6979944Y-15081156D02*
X6989468Y-15100204D01*
X6989468Y-15100204D02*
X6989468Y-15119252D01*
X6989468Y-15119252D02*
X6979944Y-15147823D01*
X6979944Y-15147823D02*
X6865658Y-15262109D01*
X6865658Y-15262109D02*
X6989468Y-15262109D01*
X7227563Y-15262109D02*
X7227563Y-15062109D01*
X7313277Y-15262109D02*
X7313277Y-15157347D01*
X7313277Y-15157347D02*
X7303753Y-15138299D01*
X7303753Y-15138299D02*
X7284706Y-15128775D01*
X7284706Y-15128775D02*
X7256134Y-15128775D01*
X7256134Y-15128775D02*
X7237087Y-15138299D01*
X7237087Y-15138299D02*
X7227563Y-15147823D01*
X7437087Y-15262109D02*
X7418039Y-15252585D01*
X7418039Y-15252585D02*
X7408515Y-15243061D01*
X7408515Y-15243061D02*
X7398991Y-15224013D01*
X7398991Y-15224013D02*
X7398991Y-15166871D01*
X7398991Y-15166871D02*
X7408515Y-15147823D01*
X7408515Y-15147823D02*
X7418039Y-15138299D01*
X7418039Y-15138299D02*
X7437087Y-15128775D01*
X7437087Y-15128775D02*
X7465658Y-15128775D01*
X7465658Y-15128775D02*
X7484706Y-15138299D01*
X7484706Y-15138299D02*
X7494230Y-15147823D01*
X7494230Y-15147823D02*
X7503753Y-15166871D01*
X7503753Y-15166871D02*
X7503753Y-15224013D01*
X7503753Y-15224013D02*
X7494230Y-15243061D01*
X7494230Y-15243061D02*
X7484706Y-15252585D01*
X7484706Y-15252585D02*
X7465658Y-15262109D01*
X7465658Y-15262109D02*
X7437087Y-15262109D01*
X7618039Y-15262109D02*
X7598991Y-15252585D01*
X7598991Y-15252585D02*
X7589468Y-15233537D01*
X7589468Y-15233537D02*
X7589468Y-15062109D01*
X7770420Y-15252585D02*
X7751372Y-15262109D01*
X7751372Y-15262109D02*
X7713277Y-15262109D01*
X7713277Y-15262109D02*
X7694230Y-15252585D01*
X7694230Y-15252585D02*
X7684706Y-15233537D01*
X7684706Y-15233537D02*
X7684706Y-15157347D01*
X7684706Y-15157347D02*
X7694230Y-15138299D01*
X7694230Y-15138299D02*
X7713277Y-15128775D01*
X7713277Y-15128775D02*
X7751372Y-15128775D01*
X7751372Y-15128775D02*
X7770420Y-15138299D01*
X7770420Y-15138299D02*
X7779944Y-15157347D01*
X7779944Y-15157347D02*
X7779944Y-15176394D01*
X7779944Y-15176394D02*
X7684706Y-15195442D01*
X7856134Y-15252585D02*
X7875182Y-15262109D01*
X7875182Y-15262109D02*
X7913277Y-15262109D01*
X7913277Y-15262109D02*
X7932325Y-15252585D01*
X7932325Y-15252585D02*
X7941849Y-15233537D01*
X7941849Y-15233537D02*
X7941849Y-15224013D01*
X7941849Y-15224013D02*
X7932325Y-15204966D01*
X7932325Y-15204966D02*
X7913277Y-15195442D01*
X7913277Y-15195442D02*
X7884706Y-15195442D01*
X7884706Y-15195442D02*
X7865658Y-15185918D01*
X7865658Y-15185918D02*
X7856134Y-15166871D01*
X7856134Y-15166871D02*
X7856134Y-15157347D01*
X7856134Y-15157347D02*
X7865658Y-15138299D01*
X7865658Y-15138299D02*
X7884706Y-15128775D01*
X7884706Y-15128775D02*
X7913277Y-15128775D01*
X7913277Y-15128775D02*
X7932325Y-15138299D01*
X8008515Y-15338299D02*
X8018039Y-15328775D01*
X8018039Y-15328775D02*
X8037087Y-15300204D01*
X8037087Y-15300204D02*
X8046611Y-15281156D01*
X8046611Y-15281156D02*
X8056134Y-15252585D01*
X8056134Y-15252585D02*
X8065658Y-15204966D01*
X8065658Y-15204966D02*
X8065658Y-15166871D01*
X8065658Y-15166871D02*
X8056134Y-15119252D01*
X8056134Y-15119252D02*
X8046611Y-15090680D01*
X8046611Y-15090680D02*
X8037087Y-15071633D01*
X8037087Y-15071633D02*
X8018039Y-15043061D01*
X8018039Y-15043061D02*
X8008515Y-15033537D01*
X8370420Y-15338299D02*
X8360896Y-15328775D01*
X8360896Y-15328775D02*
X8341849Y-15300204D01*
X8341849Y-15300204D02*
X8332325Y-15281156D01*
X8332325Y-15281156D02*
X8322801Y-15252585D01*
X8322801Y-15252585D02*
X8313277Y-15204966D01*
X8313277Y-15204966D02*
X8313277Y-15166871D01*
X8313277Y-15166871D02*
X8322801Y-15119252D01*
X8322801Y-15119252D02*
X8332325Y-15090680D01*
X8332325Y-15090680D02*
X8341849Y-15071633D01*
X8341849Y-15071633D02*
X8360896Y-15043061D01*
X8360896Y-15043061D02*
X8370420Y-15033537D01*
X8446611Y-15128775D02*
X8446611Y-15262109D01*
X8446611Y-15147823D02*
X8456134Y-15138299D01*
X8456134Y-15138299D02*
X8475182Y-15128775D01*
X8475182Y-15128775D02*
X8503754Y-15128775D01*
X8503754Y-15128775D02*
X8522801Y-15138299D01*
X8522801Y-15138299D02*
X8532325Y-15157347D01*
X8532325Y-15157347D02*
X8532325Y-15262109D01*
X8656134Y-15262109D02*
X8637087Y-15252585D01*
X8637087Y-15252585D02*
X8627563Y-15243061D01*
X8627563Y-15243061D02*
X8618039Y-15224013D01*
X8618039Y-15224013D02*
X8618039Y-15166871D01*
X8618039Y-15166871D02*
X8627563Y-15147823D01*
X8627563Y-15147823D02*
X8637087Y-15138299D01*
X8637087Y-15138299D02*
X8656134Y-15128775D01*
X8656134Y-15128775D02*
X8684706Y-15128775D01*
X8684706Y-15128775D02*
X8703754Y-15138299D01*
X8703754Y-15138299D02*
X8713277Y-15147823D01*
X8713277Y-15147823D02*
X8722801Y-15166871D01*
X8722801Y-15166871D02*
X8722801Y-15224013D01*
X8722801Y-15224013D02*
X8713277Y-15243061D01*
X8713277Y-15243061D02*
X8703754Y-15252585D01*
X8703754Y-15252585D02*
X8684706Y-15262109D01*
X8684706Y-15262109D02*
X8656134Y-15262109D01*
X8779944Y-15128775D02*
X8856134Y-15128775D01*
X8808515Y-15062109D02*
X8808515Y-15233537D01*
X8808515Y-15233537D02*
X8818039Y-15252585D01*
X8818039Y-15252585D02*
X8837087Y-15262109D01*
X8837087Y-15262109D02*
X8856134Y-15262109D01*
X9075182Y-15128775D02*
X9075182Y-15328775D01*
X9075182Y-15138299D02*
X9094230Y-15128775D01*
X9094230Y-15128775D02*
X9132325Y-15128775D01*
X9132325Y-15128775D02*
X9151373Y-15138299D01*
X9151373Y-15138299D02*
X9160896Y-15147823D01*
X9160896Y-15147823D02*
X9170420Y-15166871D01*
X9170420Y-15166871D02*
X9170420Y-15224013D01*
X9170420Y-15224013D02*
X9160896Y-15243061D01*
X9160896Y-15243061D02*
X9151373Y-15252585D01*
X9151373Y-15252585D02*
X9132325Y-15262109D01*
X9132325Y-15262109D02*
X9094230Y-15262109D01*
X9094230Y-15262109D02*
X9075182Y-15252585D01*
X9284706Y-15262109D02*
X9265658Y-15252585D01*
X9265658Y-15252585D02*
X9256135Y-15233537D01*
X9256135Y-15233537D02*
X9256135Y-15062109D01*
X9446611Y-15262109D02*
X9446611Y-15157347D01*
X9446611Y-15157347D02*
X9437087Y-15138299D01*
X9437087Y-15138299D02*
X9418039Y-15128775D01*
X9418039Y-15128775D02*
X9379944Y-15128775D01*
X9379944Y-15128775D02*
X9360896Y-15138299D01*
X9446611Y-15252585D02*
X9427563Y-15262109D01*
X9427563Y-15262109D02*
X9379944Y-15262109D01*
X9379944Y-15262109D02*
X9360896Y-15252585D01*
X9360896Y-15252585D02*
X9351373Y-15233537D01*
X9351373Y-15233537D02*
X9351373Y-15214490D01*
X9351373Y-15214490D02*
X9360896Y-15195442D01*
X9360896Y-15195442D02*
X9379944Y-15185918D01*
X9379944Y-15185918D02*
X9427563Y-15185918D01*
X9427563Y-15185918D02*
X9446611Y-15176394D01*
X9513277Y-15128775D02*
X9589468Y-15128775D01*
X9541849Y-15062109D02*
X9541849Y-15233537D01*
X9541849Y-15233537D02*
X9551373Y-15252585D01*
X9551373Y-15252585D02*
X9570420Y-15262109D01*
X9570420Y-15262109D02*
X9589468Y-15262109D01*
X9732325Y-15252585D02*
X9713277Y-15262109D01*
X9713277Y-15262109D02*
X9675182Y-15262109D01*
X9675182Y-15262109D02*
X9656135Y-15252585D01*
X9656135Y-15252585D02*
X9646611Y-15233537D01*
X9646611Y-15233537D02*
X9646611Y-15157347D01*
X9646611Y-15157347D02*
X9656135Y-15138299D01*
X9656135Y-15138299D02*
X9675182Y-15128775D01*
X9675182Y-15128775D02*
X9713277Y-15128775D01*
X9713277Y-15128775D02*
X9732325Y-15138299D01*
X9732325Y-15138299D02*
X9741849Y-15157347D01*
X9741849Y-15157347D02*
X9741849Y-15176394D01*
X9741849Y-15176394D02*
X9646611Y-15195442D01*
X9913277Y-15262109D02*
X9913277Y-15062109D01*
X9913277Y-15252585D02*
X9894230Y-15262109D01*
X9894230Y-15262109D02*
X9856135Y-15262109D01*
X9856135Y-15262109D02*
X9837087Y-15252585D01*
X9837087Y-15252585D02*
X9827563Y-15243061D01*
X9827563Y-15243061D02*
X9818039Y-15224013D01*
X9818039Y-15224013D02*
X9818039Y-15166871D01*
X9818039Y-15166871D02*
X9827563Y-15147823D01*
X9827563Y-15147823D02*
X9837087Y-15138299D01*
X9837087Y-15138299D02*
X9856135Y-15128775D01*
X9856135Y-15128775D02*
X9894230Y-15128775D01*
X9894230Y-15128775D02*
X9913277Y-15138299D01*
X9989468Y-15338299D02*
X9998992Y-15328775D01*
X9998992Y-15328775D02*
X10018039Y-15300204D01*
X10018039Y-15300204D02*
X10027563Y-15281156D01*
X10027563Y-15281156D02*
X10037087Y-15252585D01*
X10037087Y-15252585D02*
X10046611Y-15204966D01*
X10046611Y-15204966D02*
X10046611Y-15166871D01*
X10046611Y-15166871D02*
X10037087Y-15119252D01*
X10037087Y-15119252D02*
X10027563Y-15090680D01*
X10027563Y-15090680D02*
X10018039Y-15071633D01*
X10018039Y-15071633D02*
X9998992Y-15043061D01*
X9998992Y-15043061D02*
X9989468Y-15033537D01*
X2852500Y-15465625D02*
G75*
G03*
X2652500Y-15465625I-100000J0D01*
G01*
X2652500Y-15465625D02*
G75*
G03*
X2852500Y-15465625I100000J0D01*
G01*
X3094229Y-15357109D02*
X3218039Y-15357109D01*
X3218039Y-15357109D02*
X3151372Y-15433299D01*
X3151372Y-15433299D02*
X3179943Y-15433299D01*
X3179943Y-15433299D02*
X3198991Y-15442823D01*
X3198991Y-15442823D02*
X3208515Y-15452347D01*
X3208515Y-15452347D02*
X3218039Y-15471394D01*
X3218039Y-15471394D02*
X3218039Y-15519013D01*
X3218039Y-15519013D02*
X3208515Y-15538061D01*
X3208515Y-15538061D02*
X3198991Y-15547585D01*
X3198991Y-15547585D02*
X3179943Y-15557109D01*
X3179943Y-15557109D02*
X3122801Y-15557109D01*
X3122801Y-15557109D02*
X3103753Y-15547585D01*
X3103753Y-15547585D02*
X3094229Y-15538061D01*
X3303753Y-15538061D02*
X3313277Y-15547585D01*
X3313277Y-15547585D02*
X3303753Y-15557109D01*
X3303753Y-15557109D02*
X3294229Y-15547585D01*
X3294229Y-15547585D02*
X3303753Y-15538061D01*
X3303753Y-15538061D02*
X3303753Y-15557109D01*
X3437086Y-15357109D02*
X3456134Y-15357109D01*
X3456134Y-15357109D02*
X3475182Y-15366633D01*
X3475182Y-15366633D02*
X3484705Y-15376156D01*
X3484705Y-15376156D02*
X3494229Y-15395204D01*
X3494229Y-15395204D02*
X3503753Y-15433299D01*
X3503753Y-15433299D02*
X3503753Y-15480918D01*
X3503753Y-15480918D02*
X3494229Y-15519013D01*
X3494229Y-15519013D02*
X3484705Y-15538061D01*
X3484705Y-15538061D02*
X3475182Y-15547585D01*
X3475182Y-15547585D02*
X3456134Y-15557109D01*
X3456134Y-15557109D02*
X3437086Y-15557109D01*
X3437086Y-15557109D02*
X3418039Y-15547585D01*
X3418039Y-15547585D02*
X3408515Y-15538061D01*
X3408515Y-15538061D02*
X3398991Y-15519013D01*
X3398991Y-15519013D02*
X3389467Y-15480918D01*
X3389467Y-15480918D02*
X3389467Y-15433299D01*
X3389467Y-15433299D02*
X3398991Y-15395204D01*
X3398991Y-15395204D02*
X3408515Y-15376156D01*
X3408515Y-15376156D02*
X3418039Y-15366633D01*
X3418039Y-15366633D02*
X3437086Y-15357109D01*
X3675182Y-15423775D02*
X3675182Y-15557109D01*
X3627562Y-15347585D02*
X3579943Y-15490442D01*
X3579943Y-15490442D02*
X3703753Y-15490442D01*
X3808515Y-15442823D02*
X3789467Y-15433299D01*
X3789467Y-15433299D02*
X3779943Y-15423775D01*
X3779943Y-15423775D02*
X3770420Y-15404728D01*
X3770420Y-15404728D02*
X3770420Y-15395204D01*
X3770420Y-15395204D02*
X3779943Y-15376156D01*
X3779943Y-15376156D02*
X3789467Y-15366633D01*
X3789467Y-15366633D02*
X3808515Y-15357109D01*
X3808515Y-15357109D02*
X3846610Y-15357109D01*
X3846610Y-15357109D02*
X3865658Y-15366633D01*
X3865658Y-15366633D02*
X3875182Y-15376156D01*
X3875182Y-15376156D02*
X3884705Y-15395204D01*
X3884705Y-15395204D02*
X3884705Y-15404728D01*
X3884705Y-15404728D02*
X3875182Y-15423775D01*
X3875182Y-15423775D02*
X3865658Y-15433299D01*
X3865658Y-15433299D02*
X3846610Y-15442823D01*
X3846610Y-15442823D02*
X3808515Y-15442823D01*
X3808515Y-15442823D02*
X3789467Y-15452347D01*
X3789467Y-15452347D02*
X3779943Y-15461871D01*
X3779943Y-15461871D02*
X3770420Y-15480918D01*
X3770420Y-15480918D02*
X3770420Y-15519013D01*
X3770420Y-15519013D02*
X3779943Y-15538061D01*
X3779943Y-15538061D02*
X3789467Y-15547585D01*
X3789467Y-15547585D02*
X3808515Y-15557109D01*
X3808515Y-15557109D02*
X3846610Y-15557109D01*
X3846610Y-15557109D02*
X3865658Y-15547585D01*
X3865658Y-15547585D02*
X3875182Y-15538061D01*
X3875182Y-15538061D02*
X3884705Y-15519013D01*
X3884705Y-15519013D02*
X3884705Y-15480918D01*
X3884705Y-15480918D02*
X3875182Y-15461871D01*
X3875182Y-15461871D02*
X3865658Y-15452347D01*
X3865658Y-15452347D02*
X3846610Y-15442823D01*
X3970420Y-15557109D02*
X3970420Y-15423775D01*
X3970420Y-15442823D02*
X3979943Y-15433299D01*
X3979943Y-15433299D02*
X3998991Y-15423775D01*
X3998991Y-15423775D02*
X4027563Y-15423775D01*
X4027563Y-15423775D02*
X4046610Y-15433299D01*
X4046610Y-15433299D02*
X4056134Y-15452347D01*
X4056134Y-15452347D02*
X4056134Y-15557109D01*
X4056134Y-15452347D02*
X4065658Y-15433299D01*
X4065658Y-15433299D02*
X4084705Y-15423775D01*
X4084705Y-15423775D02*
X4113277Y-15423775D01*
X4113277Y-15423775D02*
X4132324Y-15433299D01*
X4132324Y-15433299D02*
X4141848Y-15452347D01*
X4141848Y-15452347D02*
X4141848Y-15557109D01*
X4237086Y-15557109D02*
X4237086Y-15423775D01*
X4237086Y-15442823D02*
X4246610Y-15433299D01*
X4246610Y-15433299D02*
X4265658Y-15423775D01*
X4265658Y-15423775D02*
X4294229Y-15423775D01*
X4294229Y-15423775D02*
X4313277Y-15433299D01*
X4313277Y-15433299D02*
X4322801Y-15452347D01*
X4322801Y-15452347D02*
X4322801Y-15557109D01*
X4322801Y-15452347D02*
X4332325Y-15433299D01*
X4332325Y-15433299D02*
X4351372Y-15423775D01*
X4351372Y-15423775D02*
X4379944Y-15423775D01*
X4379944Y-15423775D02*
X4398991Y-15433299D01*
X4398991Y-15433299D02*
X4408515Y-15452347D01*
X4408515Y-15452347D02*
X4408515Y-15557109D01*
X4798991Y-15347585D02*
X4627563Y-15604728D01*
X5056134Y-15357109D02*
X5075182Y-15357109D01*
X5075182Y-15357109D02*
X5094229Y-15366633D01*
X5094229Y-15366633D02*
X5103753Y-15376156D01*
X5103753Y-15376156D02*
X5113277Y-15395204D01*
X5113277Y-15395204D02*
X5122801Y-15433299D01*
X5122801Y-15433299D02*
X5122801Y-15480918D01*
X5122801Y-15480918D02*
X5113277Y-15519013D01*
X5113277Y-15519013D02*
X5103753Y-15538061D01*
X5103753Y-15538061D02*
X5094229Y-15547585D01*
X5094229Y-15547585D02*
X5075182Y-15557109D01*
X5075182Y-15557109D02*
X5056134Y-15557109D01*
X5056134Y-15557109D02*
X5037087Y-15547585D01*
X5037087Y-15547585D02*
X5027563Y-15538061D01*
X5027563Y-15538061D02*
X5018039Y-15519013D01*
X5018039Y-15519013D02*
X5008515Y-15480918D01*
X5008515Y-15480918D02*
X5008515Y-15433299D01*
X5008515Y-15433299D02*
X5018039Y-15395204D01*
X5018039Y-15395204D02*
X5027563Y-15376156D01*
X5027563Y-15376156D02*
X5037087Y-15366633D01*
X5037087Y-15366633D02*
X5056134Y-15357109D01*
X5208515Y-15538061D02*
X5218039Y-15547585D01*
X5218039Y-15547585D02*
X5208515Y-15557109D01*
X5208515Y-15557109D02*
X5198991Y-15547585D01*
X5198991Y-15547585D02*
X5208515Y-15538061D01*
X5208515Y-15538061D02*
X5208515Y-15557109D01*
X5408515Y-15557109D02*
X5294229Y-15557109D01*
X5351372Y-15557109D02*
X5351372Y-15357109D01*
X5351372Y-15357109D02*
X5332325Y-15385680D01*
X5332325Y-15385680D02*
X5313277Y-15404728D01*
X5313277Y-15404728D02*
X5294229Y-15414252D01*
X5484706Y-15376156D02*
X5494229Y-15366633D01*
X5494229Y-15366633D02*
X5513277Y-15357109D01*
X5513277Y-15357109D02*
X5560896Y-15357109D01*
X5560896Y-15357109D02*
X5579944Y-15366633D01*
X5579944Y-15366633D02*
X5589468Y-15376156D01*
X5589468Y-15376156D02*
X5598991Y-15395204D01*
X5598991Y-15395204D02*
X5598991Y-15414252D01*
X5598991Y-15414252D02*
X5589468Y-15442823D01*
X5589468Y-15442823D02*
X5475182Y-15557109D01*
X5475182Y-15557109D02*
X5598991Y-15557109D01*
X5722801Y-15357109D02*
X5741848Y-15357109D01*
X5741848Y-15357109D02*
X5760896Y-15366633D01*
X5760896Y-15366633D02*
X5770420Y-15376156D01*
X5770420Y-15376156D02*
X5779944Y-15395204D01*
X5779944Y-15395204D02*
X5789467Y-15433299D01*
X5789467Y-15433299D02*
X5789467Y-15480918D01*
X5789467Y-15480918D02*
X5779944Y-15519013D01*
X5779944Y-15519013D02*
X5770420Y-15538061D01*
X5770420Y-15538061D02*
X5760896Y-15547585D01*
X5760896Y-15547585D02*
X5741848Y-15557109D01*
X5741848Y-15557109D02*
X5722801Y-15557109D01*
X5722801Y-15557109D02*
X5703753Y-15547585D01*
X5703753Y-15547585D02*
X5694229Y-15538061D01*
X5694229Y-15538061D02*
X5684706Y-15519013D01*
X5684706Y-15519013D02*
X5675182Y-15480918D01*
X5675182Y-15480918D02*
X5675182Y-15433299D01*
X5675182Y-15433299D02*
X5684706Y-15395204D01*
X5684706Y-15395204D02*
X5694229Y-15376156D01*
X5694229Y-15376156D02*
X5703753Y-15366633D01*
X5703753Y-15366633D02*
X5722801Y-15357109D01*
X5913277Y-15357109D02*
X5932325Y-15357109D01*
X5932325Y-15357109D02*
X5951372Y-15366633D01*
X5951372Y-15366633D02*
X5960896Y-15376156D01*
X5960896Y-15376156D02*
X5970420Y-15395204D01*
X5970420Y-15395204D02*
X5979944Y-15433299D01*
X5979944Y-15433299D02*
X5979944Y-15480918D01*
X5979944Y-15480918D02*
X5970420Y-15519013D01*
X5970420Y-15519013D02*
X5960896Y-15538061D01*
X5960896Y-15538061D02*
X5951372Y-15547585D01*
X5951372Y-15547585D02*
X5932325Y-15557109D01*
X5932325Y-15557109D02*
X5913277Y-15557109D01*
X5913277Y-15557109D02*
X5894229Y-15547585D01*
X5894229Y-15547585D02*
X5884706Y-15538061D01*
X5884706Y-15538061D02*
X5875182Y-15519013D01*
X5875182Y-15519013D02*
X5865658Y-15480918D01*
X5865658Y-15480918D02*
X5865658Y-15433299D01*
X5865658Y-15433299D02*
X5875182Y-15395204D01*
X5875182Y-15395204D02*
X5884706Y-15376156D01*
X5884706Y-15376156D02*
X5894229Y-15366633D01*
X5894229Y-15366633D02*
X5913277Y-15357109D01*
X6056134Y-15357109D02*
X6056134Y-15395204D01*
X6132325Y-15357109D02*
X6132325Y-15395204D01*
X6427563Y-15633299D02*
X6418039Y-15623775D01*
X6418039Y-15623775D02*
X6398991Y-15595204D01*
X6398991Y-15595204D02*
X6389468Y-15576156D01*
X6389468Y-15576156D02*
X6379944Y-15547585D01*
X6379944Y-15547585D02*
X6370420Y-15499966D01*
X6370420Y-15499966D02*
X6370420Y-15461871D01*
X6370420Y-15461871D02*
X6379944Y-15414252D01*
X6379944Y-15414252D02*
X6389468Y-15385680D01*
X6389468Y-15385680D02*
X6398991Y-15366633D01*
X6398991Y-15366633D02*
X6418039Y-15338061D01*
X6418039Y-15338061D02*
X6427563Y-15328537D01*
X6532325Y-15442823D02*
X6513277Y-15433299D01*
X6513277Y-15433299D02*
X6503753Y-15423775D01*
X6503753Y-15423775D02*
X6494229Y-15404728D01*
X6494229Y-15404728D02*
X6494229Y-15395204D01*
X6494229Y-15395204D02*
X6503753Y-15376156D01*
X6503753Y-15376156D02*
X6513277Y-15366633D01*
X6513277Y-15366633D02*
X6532325Y-15357109D01*
X6532325Y-15357109D02*
X6570420Y-15357109D01*
X6570420Y-15357109D02*
X6589468Y-15366633D01*
X6589468Y-15366633D02*
X6598991Y-15376156D01*
X6598991Y-15376156D02*
X6608515Y-15395204D01*
X6608515Y-15395204D02*
X6608515Y-15404728D01*
X6608515Y-15404728D02*
X6598991Y-15423775D01*
X6598991Y-15423775D02*
X6589468Y-15433299D01*
X6589468Y-15433299D02*
X6570420Y-15442823D01*
X6570420Y-15442823D02*
X6532325Y-15442823D01*
X6532325Y-15442823D02*
X6513277Y-15452347D01*
X6513277Y-15452347D02*
X6503753Y-15461871D01*
X6503753Y-15461871D02*
X6494229Y-15480918D01*
X6494229Y-15480918D02*
X6494229Y-15519013D01*
X6494229Y-15519013D02*
X6503753Y-15538061D01*
X6503753Y-15538061D02*
X6513277Y-15547585D01*
X6513277Y-15547585D02*
X6532325Y-15557109D01*
X6532325Y-15557109D02*
X6570420Y-15557109D01*
X6570420Y-15557109D02*
X6589468Y-15547585D01*
X6589468Y-15547585D02*
X6598991Y-15538061D01*
X6598991Y-15538061D02*
X6608515Y-15519013D01*
X6608515Y-15519013D02*
X6608515Y-15480918D01*
X6608515Y-15480918D02*
X6598991Y-15461871D01*
X6598991Y-15461871D02*
X6589468Y-15452347D01*
X6589468Y-15452347D02*
X6570420Y-15442823D01*
X6846610Y-15557109D02*
X6846610Y-15357109D01*
X6932325Y-15557109D02*
X6932325Y-15452347D01*
X6932325Y-15452347D02*
X6922801Y-15433299D01*
X6922801Y-15433299D02*
X6903753Y-15423775D01*
X6903753Y-15423775D02*
X6875182Y-15423775D01*
X6875182Y-15423775D02*
X6856134Y-15433299D01*
X6856134Y-15433299D02*
X6846610Y-15442823D01*
X7056134Y-15557109D02*
X7037087Y-15547585D01*
X7037087Y-15547585D02*
X7027563Y-15538061D01*
X7027563Y-15538061D02*
X7018039Y-15519013D01*
X7018039Y-15519013D02*
X7018039Y-15461871D01*
X7018039Y-15461871D02*
X7027563Y-15442823D01*
X7027563Y-15442823D02*
X7037087Y-15433299D01*
X7037087Y-15433299D02*
X7056134Y-15423775D01*
X7056134Y-15423775D02*
X7084706Y-15423775D01*
X7084706Y-15423775D02*
X7103753Y-15433299D01*
X7103753Y-15433299D02*
X7113277Y-15442823D01*
X7113277Y-15442823D02*
X7122801Y-15461871D01*
X7122801Y-15461871D02*
X7122801Y-15519013D01*
X7122801Y-15519013D02*
X7113277Y-15538061D01*
X7113277Y-15538061D02*
X7103753Y-15547585D01*
X7103753Y-15547585D02*
X7084706Y-15557109D01*
X7084706Y-15557109D02*
X7056134Y-15557109D01*
X7237087Y-15557109D02*
X7218039Y-15547585D01*
X7218039Y-15547585D02*
X7208515Y-15528537D01*
X7208515Y-15528537D02*
X7208515Y-15357109D01*
X7389468Y-15547585D02*
X7370420Y-15557109D01*
X7370420Y-15557109D02*
X7332325Y-15557109D01*
X7332325Y-15557109D02*
X7313277Y-15547585D01*
X7313277Y-15547585D02*
X7303753Y-15528537D01*
X7303753Y-15528537D02*
X7303753Y-15452347D01*
X7303753Y-15452347D02*
X7313277Y-15433299D01*
X7313277Y-15433299D02*
X7332325Y-15423775D01*
X7332325Y-15423775D02*
X7370420Y-15423775D01*
X7370420Y-15423775D02*
X7389468Y-15433299D01*
X7389468Y-15433299D02*
X7398991Y-15452347D01*
X7398991Y-15452347D02*
X7398991Y-15471394D01*
X7398991Y-15471394D02*
X7303753Y-15490442D01*
X7475182Y-15547585D02*
X7494230Y-15557109D01*
X7494230Y-15557109D02*
X7532325Y-15557109D01*
X7532325Y-15557109D02*
X7551372Y-15547585D01*
X7551372Y-15547585D02*
X7560896Y-15528537D01*
X7560896Y-15528537D02*
X7560896Y-15519013D01*
X7560896Y-15519013D02*
X7551372Y-15499966D01*
X7551372Y-15499966D02*
X7532325Y-15490442D01*
X7532325Y-15490442D02*
X7503753Y-15490442D01*
X7503753Y-15490442D02*
X7484706Y-15480918D01*
X7484706Y-15480918D02*
X7475182Y-15461871D01*
X7475182Y-15461871D02*
X7475182Y-15452347D01*
X7475182Y-15452347D02*
X7484706Y-15433299D01*
X7484706Y-15433299D02*
X7503753Y-15423775D01*
X7503753Y-15423775D02*
X7532325Y-15423775D01*
X7532325Y-15423775D02*
X7551372Y-15433299D01*
X7627563Y-15633299D02*
X7637087Y-15623775D01*
X7637087Y-15623775D02*
X7656134Y-15595204D01*
X7656134Y-15595204D02*
X7665658Y-15576156D01*
X7665658Y-15576156D02*
X7675182Y-15547585D01*
X7675182Y-15547585D02*
X7684706Y-15499966D01*
X7684706Y-15499966D02*
X7684706Y-15461871D01*
X7684706Y-15461871D02*
X7675182Y-15414252D01*
X7675182Y-15414252D02*
X7665658Y-15385680D01*
X7665658Y-15385680D02*
X7656134Y-15366633D01*
X7656134Y-15366633D02*
X7637087Y-15338061D01*
X7637087Y-15338061D02*
X7627563Y-15328537D01*
X7989468Y-15633299D02*
X7979944Y-15623775D01*
X7979944Y-15623775D02*
X7960896Y-15595204D01*
X7960896Y-15595204D02*
X7951372Y-15576156D01*
X7951372Y-15576156D02*
X7941849Y-15547585D01*
X7941849Y-15547585D02*
X7932325Y-15499966D01*
X7932325Y-15499966D02*
X7932325Y-15461871D01*
X7932325Y-15461871D02*
X7941849Y-15414252D01*
X7941849Y-15414252D02*
X7951372Y-15385680D01*
X7951372Y-15385680D02*
X7960896Y-15366633D01*
X7960896Y-15366633D02*
X7979944Y-15338061D01*
X7979944Y-15338061D02*
X7989468Y-15328537D01*
X8065658Y-15423775D02*
X8065658Y-15557109D01*
X8065658Y-15442823D02*
X8075182Y-15433299D01*
X8075182Y-15433299D02*
X8094230Y-15423775D01*
X8094230Y-15423775D02*
X8122801Y-15423775D01*
X8122801Y-15423775D02*
X8141849Y-15433299D01*
X8141849Y-15433299D02*
X8151372Y-15452347D01*
X8151372Y-15452347D02*
X8151372Y-15557109D01*
X8275182Y-15557109D02*
X8256134Y-15547585D01*
X8256134Y-15547585D02*
X8246611Y-15538061D01*
X8246611Y-15538061D02*
X8237087Y-15519013D01*
X8237087Y-15519013D02*
X8237087Y-15461871D01*
X8237087Y-15461871D02*
X8246611Y-15442823D01*
X8246611Y-15442823D02*
X8256134Y-15433299D01*
X8256134Y-15433299D02*
X8275182Y-15423775D01*
X8275182Y-15423775D02*
X8303753Y-15423775D01*
X8303753Y-15423775D02*
X8322801Y-15433299D01*
X8322801Y-15433299D02*
X8332325Y-15442823D01*
X8332325Y-15442823D02*
X8341849Y-15461871D01*
X8341849Y-15461871D02*
X8341849Y-15519013D01*
X8341849Y-15519013D02*
X8332325Y-15538061D01*
X8332325Y-15538061D02*
X8322801Y-15547585D01*
X8322801Y-15547585D02*
X8303753Y-15557109D01*
X8303753Y-15557109D02*
X8275182Y-15557109D01*
X8398992Y-15423775D02*
X8475182Y-15423775D01*
X8427563Y-15357109D02*
X8427563Y-15528537D01*
X8427563Y-15528537D02*
X8437087Y-15547585D01*
X8437087Y-15547585D02*
X8456134Y-15557109D01*
X8456134Y-15557109D02*
X8475182Y-15557109D01*
X8694230Y-15423775D02*
X8694230Y-15623775D01*
X8694230Y-15433299D02*
X8713277Y-15423775D01*
X8713277Y-15423775D02*
X8751373Y-15423775D01*
X8751373Y-15423775D02*
X8770420Y-15433299D01*
X8770420Y-15433299D02*
X8779944Y-15442823D01*
X8779944Y-15442823D02*
X8789468Y-15461871D01*
X8789468Y-15461871D02*
X8789468Y-15519013D01*
X8789468Y-15519013D02*
X8779944Y-15538061D01*
X8779944Y-15538061D02*
X8770420Y-15547585D01*
X8770420Y-15547585D02*
X8751373Y-15557109D01*
X8751373Y-15557109D02*
X8713277Y-15557109D01*
X8713277Y-15557109D02*
X8694230Y-15547585D01*
X8903754Y-15557109D02*
X8884706Y-15547585D01*
X8884706Y-15547585D02*
X8875182Y-15528537D01*
X8875182Y-15528537D02*
X8875182Y-15357109D01*
X9065658Y-15557109D02*
X9065658Y-15452347D01*
X9065658Y-15452347D02*
X9056135Y-15433299D01*
X9056135Y-15433299D02*
X9037087Y-15423775D01*
X9037087Y-15423775D02*
X8998992Y-15423775D01*
X8998992Y-15423775D02*
X8979944Y-15433299D01*
X9065658Y-15547585D02*
X9046611Y-15557109D01*
X9046611Y-15557109D02*
X8998992Y-15557109D01*
X8998992Y-15557109D02*
X8979944Y-15547585D01*
X8979944Y-15547585D02*
X8970420Y-15528537D01*
X8970420Y-15528537D02*
X8970420Y-15509490D01*
X8970420Y-15509490D02*
X8979944Y-15490442D01*
X8979944Y-15490442D02*
X8998992Y-15480918D01*
X8998992Y-15480918D02*
X9046611Y-15480918D01*
X9046611Y-15480918D02*
X9065658Y-15471394D01*
X9132325Y-15423775D02*
X9208515Y-15423775D01*
X9160896Y-15357109D02*
X9160896Y-15528537D01*
X9160896Y-15528537D02*
X9170420Y-15547585D01*
X9170420Y-15547585D02*
X9189468Y-15557109D01*
X9189468Y-15557109D02*
X9208515Y-15557109D01*
X9351373Y-15547585D02*
X9332325Y-15557109D01*
X9332325Y-15557109D02*
X9294230Y-15557109D01*
X9294230Y-15557109D02*
X9275182Y-15547585D01*
X9275182Y-15547585D02*
X9265658Y-15528537D01*
X9265658Y-15528537D02*
X9265658Y-15452347D01*
X9265658Y-15452347D02*
X9275182Y-15433299D01*
X9275182Y-15433299D02*
X9294230Y-15423775D01*
X9294230Y-15423775D02*
X9332325Y-15423775D01*
X9332325Y-15423775D02*
X9351373Y-15433299D01*
X9351373Y-15433299D02*
X9360896Y-15452347D01*
X9360896Y-15452347D02*
X9360896Y-15471394D01*
X9360896Y-15471394D02*
X9265658Y-15490442D01*
X9532325Y-15557109D02*
X9532325Y-15357109D01*
X9532325Y-15547585D02*
X9513277Y-15557109D01*
X9513277Y-15557109D02*
X9475182Y-15557109D01*
X9475182Y-15557109D02*
X9456135Y-15547585D01*
X9456135Y-15547585D02*
X9446611Y-15538061D01*
X9446611Y-15538061D02*
X9437087Y-15519013D01*
X9437087Y-15519013D02*
X9437087Y-15461871D01*
X9437087Y-15461871D02*
X9446611Y-15442823D01*
X9446611Y-15442823D02*
X9456135Y-15433299D01*
X9456135Y-15433299D02*
X9475182Y-15423775D01*
X9475182Y-15423775D02*
X9513277Y-15423775D01*
X9513277Y-15423775D02*
X9532325Y-15433299D01*
X9608516Y-15633299D02*
X9618039Y-15623775D01*
X9618039Y-15623775D02*
X9637087Y-15595204D01*
X9637087Y-15595204D02*
X9646611Y-15576156D01*
X9646611Y-15576156D02*
X9656135Y-15547585D01*
X9656135Y-15547585D02*
X9665658Y-15499966D01*
X9665658Y-15499966D02*
X9665658Y-15461871D01*
X9665658Y-15461871D02*
X9656135Y-15414252D01*
X9656135Y-15414252D02*
X9646611Y-15385680D01*
X9646611Y-15385680D02*
X9637087Y-15366633D01*
X9637087Y-15366633D02*
X9618039Y-15338061D01*
X9618039Y-15338061D02*
X9608516Y-15328537D01*
X2752500Y-15685625D02*
X2752500Y-15885625D01*
X2652500Y-15785625D02*
X2852500Y-15785625D01*
X3094229Y-15677109D02*
X3218039Y-15677109D01*
X3218039Y-15677109D02*
X3151372Y-15753299D01*
X3151372Y-15753299D02*
X3179943Y-15753299D01*
X3179943Y-15753299D02*
X3198991Y-15762823D01*
X3198991Y-15762823D02*
X3208515Y-15772347D01*
X3208515Y-15772347D02*
X3218039Y-15791394D01*
X3218039Y-15791394D02*
X3218039Y-15839013D01*
X3218039Y-15839013D02*
X3208515Y-15858061D01*
X3208515Y-15858061D02*
X3198991Y-15867585D01*
X3198991Y-15867585D02*
X3179943Y-15877109D01*
X3179943Y-15877109D02*
X3122801Y-15877109D01*
X3122801Y-15877109D02*
X3103753Y-15867585D01*
X3103753Y-15867585D02*
X3094229Y-15858061D01*
X3303753Y-15858061D02*
X3313277Y-15867585D01*
X3313277Y-15867585D02*
X3303753Y-15877109D01*
X3303753Y-15877109D02*
X3294229Y-15867585D01*
X3294229Y-15867585D02*
X3303753Y-15858061D01*
X3303753Y-15858061D02*
X3303753Y-15877109D01*
X3408515Y-15877109D02*
X3446610Y-15877109D01*
X3446610Y-15877109D02*
X3465658Y-15867585D01*
X3465658Y-15867585D02*
X3475182Y-15858061D01*
X3475182Y-15858061D02*
X3494229Y-15829490D01*
X3494229Y-15829490D02*
X3503753Y-15791394D01*
X3503753Y-15791394D02*
X3503753Y-15715204D01*
X3503753Y-15715204D02*
X3494229Y-15696156D01*
X3494229Y-15696156D02*
X3484705Y-15686633D01*
X3484705Y-15686633D02*
X3465658Y-15677109D01*
X3465658Y-15677109D02*
X3427562Y-15677109D01*
X3427562Y-15677109D02*
X3408515Y-15686633D01*
X3408515Y-15686633D02*
X3398991Y-15696156D01*
X3398991Y-15696156D02*
X3389467Y-15715204D01*
X3389467Y-15715204D02*
X3389467Y-15762823D01*
X3389467Y-15762823D02*
X3398991Y-15781871D01*
X3398991Y-15781871D02*
X3408515Y-15791394D01*
X3408515Y-15791394D02*
X3427562Y-15800918D01*
X3427562Y-15800918D02*
X3465658Y-15800918D01*
X3465658Y-15800918D02*
X3484705Y-15791394D01*
X3484705Y-15791394D02*
X3494229Y-15781871D01*
X3494229Y-15781871D02*
X3503753Y-15762823D01*
X3618039Y-15762823D02*
X3598991Y-15753299D01*
X3598991Y-15753299D02*
X3589467Y-15743775D01*
X3589467Y-15743775D02*
X3579943Y-15724728D01*
X3579943Y-15724728D02*
X3579943Y-15715204D01*
X3579943Y-15715204D02*
X3589467Y-15696156D01*
X3589467Y-15696156D02*
X3598991Y-15686633D01*
X3598991Y-15686633D02*
X3618039Y-15677109D01*
X3618039Y-15677109D02*
X3656134Y-15677109D01*
X3656134Y-15677109D02*
X3675182Y-15686633D01*
X3675182Y-15686633D02*
X3684705Y-15696156D01*
X3684705Y-15696156D02*
X3694229Y-15715204D01*
X3694229Y-15715204D02*
X3694229Y-15724728D01*
X3694229Y-15724728D02*
X3684705Y-15743775D01*
X3684705Y-15743775D02*
X3675182Y-15753299D01*
X3675182Y-15753299D02*
X3656134Y-15762823D01*
X3656134Y-15762823D02*
X3618039Y-15762823D01*
X3618039Y-15762823D02*
X3598991Y-15772347D01*
X3598991Y-15772347D02*
X3589467Y-15781871D01*
X3589467Y-15781871D02*
X3579943Y-15800918D01*
X3579943Y-15800918D02*
X3579943Y-15839013D01*
X3579943Y-15839013D02*
X3589467Y-15858061D01*
X3589467Y-15858061D02*
X3598991Y-15867585D01*
X3598991Y-15867585D02*
X3618039Y-15877109D01*
X3618039Y-15877109D02*
X3656134Y-15877109D01*
X3656134Y-15877109D02*
X3675182Y-15867585D01*
X3675182Y-15867585D02*
X3684705Y-15858061D01*
X3684705Y-15858061D02*
X3694229Y-15839013D01*
X3694229Y-15839013D02*
X3694229Y-15800918D01*
X3694229Y-15800918D02*
X3684705Y-15781871D01*
X3684705Y-15781871D02*
X3675182Y-15772347D01*
X3675182Y-15772347D02*
X3656134Y-15762823D01*
X3808515Y-15762823D02*
X3789467Y-15753299D01*
X3789467Y-15753299D02*
X3779943Y-15743775D01*
X3779943Y-15743775D02*
X3770420Y-15724728D01*
X3770420Y-15724728D02*
X3770420Y-15715204D01*
X3770420Y-15715204D02*
X3779943Y-15696156D01*
X3779943Y-15696156D02*
X3789467Y-15686633D01*
X3789467Y-15686633D02*
X3808515Y-15677109D01*
X3808515Y-15677109D02*
X3846610Y-15677109D01*
X3846610Y-15677109D02*
X3865658Y-15686633D01*
X3865658Y-15686633D02*
X3875182Y-15696156D01*
X3875182Y-15696156D02*
X3884705Y-15715204D01*
X3884705Y-15715204D02*
X3884705Y-15724728D01*
X3884705Y-15724728D02*
X3875182Y-15743775D01*
X3875182Y-15743775D02*
X3865658Y-15753299D01*
X3865658Y-15753299D02*
X3846610Y-15762823D01*
X3846610Y-15762823D02*
X3808515Y-15762823D01*
X3808515Y-15762823D02*
X3789467Y-15772347D01*
X3789467Y-15772347D02*
X3779943Y-15781871D01*
X3779943Y-15781871D02*
X3770420Y-15800918D01*
X3770420Y-15800918D02*
X3770420Y-15839013D01*
X3770420Y-15839013D02*
X3779943Y-15858061D01*
X3779943Y-15858061D02*
X3789467Y-15867585D01*
X3789467Y-15867585D02*
X3808515Y-15877109D01*
X3808515Y-15877109D02*
X3846610Y-15877109D01*
X3846610Y-15877109D02*
X3865658Y-15867585D01*
X3865658Y-15867585D02*
X3875182Y-15858061D01*
X3875182Y-15858061D02*
X3884705Y-15839013D01*
X3884705Y-15839013D02*
X3884705Y-15800918D01*
X3884705Y-15800918D02*
X3875182Y-15781871D01*
X3875182Y-15781871D02*
X3865658Y-15772347D01*
X3865658Y-15772347D02*
X3846610Y-15762823D01*
X3970420Y-15877109D02*
X3970420Y-15743775D01*
X3970420Y-15762823D02*
X3979943Y-15753299D01*
X3979943Y-15753299D02*
X3998991Y-15743775D01*
X3998991Y-15743775D02*
X4027563Y-15743775D01*
X4027563Y-15743775D02*
X4046610Y-15753299D01*
X4046610Y-15753299D02*
X4056134Y-15772347D01*
X4056134Y-15772347D02*
X4056134Y-15877109D01*
X4056134Y-15772347D02*
X4065658Y-15753299D01*
X4065658Y-15753299D02*
X4084705Y-15743775D01*
X4084705Y-15743775D02*
X4113277Y-15743775D01*
X4113277Y-15743775D02*
X4132324Y-15753299D01*
X4132324Y-15753299D02*
X4141848Y-15772347D01*
X4141848Y-15772347D02*
X4141848Y-15877109D01*
X4237086Y-15877109D02*
X4237086Y-15743775D01*
X4237086Y-15762823D02*
X4246610Y-15753299D01*
X4246610Y-15753299D02*
X4265658Y-15743775D01*
X4265658Y-15743775D02*
X4294229Y-15743775D01*
X4294229Y-15743775D02*
X4313277Y-15753299D01*
X4313277Y-15753299D02*
X4322801Y-15772347D01*
X4322801Y-15772347D02*
X4322801Y-15877109D01*
X4322801Y-15772347D02*
X4332325Y-15753299D01*
X4332325Y-15753299D02*
X4351372Y-15743775D01*
X4351372Y-15743775D02*
X4379944Y-15743775D01*
X4379944Y-15743775D02*
X4398991Y-15753299D01*
X4398991Y-15753299D02*
X4408515Y-15772347D01*
X4408515Y-15772347D02*
X4408515Y-15877109D01*
X4798991Y-15667585D02*
X4627563Y-15924728D01*
X5056134Y-15677109D02*
X5075182Y-15677109D01*
X5075182Y-15677109D02*
X5094229Y-15686633D01*
X5094229Y-15686633D02*
X5103753Y-15696156D01*
X5103753Y-15696156D02*
X5113277Y-15715204D01*
X5113277Y-15715204D02*
X5122801Y-15753299D01*
X5122801Y-15753299D02*
X5122801Y-15800918D01*
X5122801Y-15800918D02*
X5113277Y-15839013D01*
X5113277Y-15839013D02*
X5103753Y-15858061D01*
X5103753Y-15858061D02*
X5094229Y-15867585D01*
X5094229Y-15867585D02*
X5075182Y-15877109D01*
X5075182Y-15877109D02*
X5056134Y-15877109D01*
X5056134Y-15877109D02*
X5037087Y-15867585D01*
X5037087Y-15867585D02*
X5027563Y-15858061D01*
X5027563Y-15858061D02*
X5018039Y-15839013D01*
X5018039Y-15839013D02*
X5008515Y-15800918D01*
X5008515Y-15800918D02*
X5008515Y-15753299D01*
X5008515Y-15753299D02*
X5018039Y-15715204D01*
X5018039Y-15715204D02*
X5027563Y-15696156D01*
X5027563Y-15696156D02*
X5037087Y-15686633D01*
X5037087Y-15686633D02*
X5056134Y-15677109D01*
X5208515Y-15858061D02*
X5218039Y-15867585D01*
X5218039Y-15867585D02*
X5208515Y-15877109D01*
X5208515Y-15877109D02*
X5198991Y-15867585D01*
X5198991Y-15867585D02*
X5208515Y-15858061D01*
X5208515Y-15858061D02*
X5208515Y-15877109D01*
X5408515Y-15877109D02*
X5294229Y-15877109D01*
X5351372Y-15877109D02*
X5351372Y-15677109D01*
X5351372Y-15677109D02*
X5332325Y-15705680D01*
X5332325Y-15705680D02*
X5313277Y-15724728D01*
X5313277Y-15724728D02*
X5294229Y-15734252D01*
X5589468Y-15677109D02*
X5494229Y-15677109D01*
X5494229Y-15677109D02*
X5484706Y-15772347D01*
X5484706Y-15772347D02*
X5494229Y-15762823D01*
X5494229Y-15762823D02*
X5513277Y-15753299D01*
X5513277Y-15753299D02*
X5560896Y-15753299D01*
X5560896Y-15753299D02*
X5579944Y-15762823D01*
X5579944Y-15762823D02*
X5589468Y-15772347D01*
X5589468Y-15772347D02*
X5598991Y-15791394D01*
X5598991Y-15791394D02*
X5598991Y-15839013D01*
X5598991Y-15839013D02*
X5589468Y-15858061D01*
X5589468Y-15858061D02*
X5579944Y-15867585D01*
X5579944Y-15867585D02*
X5560896Y-15877109D01*
X5560896Y-15877109D02*
X5513277Y-15877109D01*
X5513277Y-15877109D02*
X5494229Y-15867585D01*
X5494229Y-15867585D02*
X5484706Y-15858061D01*
X5665658Y-15677109D02*
X5798991Y-15677109D01*
X5798991Y-15677109D02*
X5713277Y-15877109D01*
X5913277Y-15677109D02*
X5932325Y-15677109D01*
X5932325Y-15677109D02*
X5951372Y-15686633D01*
X5951372Y-15686633D02*
X5960896Y-15696156D01*
X5960896Y-15696156D02*
X5970420Y-15715204D01*
X5970420Y-15715204D02*
X5979944Y-15753299D01*
X5979944Y-15753299D02*
X5979944Y-15800918D01*
X5979944Y-15800918D02*
X5970420Y-15839013D01*
X5970420Y-15839013D02*
X5960896Y-15858061D01*
X5960896Y-15858061D02*
X5951372Y-15867585D01*
X5951372Y-15867585D02*
X5932325Y-15877109D01*
X5932325Y-15877109D02*
X5913277Y-15877109D01*
X5913277Y-15877109D02*
X5894229Y-15867585D01*
X5894229Y-15867585D02*
X5884706Y-15858061D01*
X5884706Y-15858061D02*
X5875182Y-15839013D01*
X5875182Y-15839013D02*
X5865658Y-15800918D01*
X5865658Y-15800918D02*
X5865658Y-15753299D01*
X5865658Y-15753299D02*
X5875182Y-15715204D01*
X5875182Y-15715204D02*
X5884706Y-15696156D01*
X5884706Y-15696156D02*
X5894229Y-15686633D01*
X5894229Y-15686633D02*
X5913277Y-15677109D01*
X6056134Y-15677109D02*
X6056134Y-15715204D01*
X6132325Y-15677109D02*
X6132325Y-15715204D01*
X6427563Y-15953299D02*
X6418039Y-15943775D01*
X6418039Y-15943775D02*
X6398991Y-15915204D01*
X6398991Y-15915204D02*
X6389468Y-15896156D01*
X6389468Y-15896156D02*
X6379944Y-15867585D01*
X6379944Y-15867585D02*
X6370420Y-15819966D01*
X6370420Y-15819966D02*
X6370420Y-15781871D01*
X6370420Y-15781871D02*
X6379944Y-15734252D01*
X6379944Y-15734252D02*
X6389468Y-15705680D01*
X6389468Y-15705680D02*
X6398991Y-15686633D01*
X6398991Y-15686633D02*
X6418039Y-15658061D01*
X6418039Y-15658061D02*
X6427563Y-15648537D01*
X6532325Y-15762823D02*
X6513277Y-15753299D01*
X6513277Y-15753299D02*
X6503753Y-15743775D01*
X6503753Y-15743775D02*
X6494229Y-15724728D01*
X6494229Y-15724728D02*
X6494229Y-15715204D01*
X6494229Y-15715204D02*
X6503753Y-15696156D01*
X6503753Y-15696156D02*
X6513277Y-15686633D01*
X6513277Y-15686633D02*
X6532325Y-15677109D01*
X6532325Y-15677109D02*
X6570420Y-15677109D01*
X6570420Y-15677109D02*
X6589468Y-15686633D01*
X6589468Y-15686633D02*
X6598991Y-15696156D01*
X6598991Y-15696156D02*
X6608515Y-15715204D01*
X6608515Y-15715204D02*
X6608515Y-15724728D01*
X6608515Y-15724728D02*
X6598991Y-15743775D01*
X6598991Y-15743775D02*
X6589468Y-15753299D01*
X6589468Y-15753299D02*
X6570420Y-15762823D01*
X6570420Y-15762823D02*
X6532325Y-15762823D01*
X6532325Y-15762823D02*
X6513277Y-15772347D01*
X6513277Y-15772347D02*
X6503753Y-15781871D01*
X6503753Y-15781871D02*
X6494229Y-15800918D01*
X6494229Y-15800918D02*
X6494229Y-15839013D01*
X6494229Y-15839013D02*
X6503753Y-15858061D01*
X6503753Y-15858061D02*
X6513277Y-15867585D01*
X6513277Y-15867585D02*
X6532325Y-15877109D01*
X6532325Y-15877109D02*
X6570420Y-15877109D01*
X6570420Y-15877109D02*
X6589468Y-15867585D01*
X6589468Y-15867585D02*
X6598991Y-15858061D01*
X6598991Y-15858061D02*
X6608515Y-15839013D01*
X6608515Y-15839013D02*
X6608515Y-15800918D01*
X6608515Y-15800918D02*
X6598991Y-15781871D01*
X6598991Y-15781871D02*
X6589468Y-15772347D01*
X6589468Y-15772347D02*
X6570420Y-15762823D01*
X6846610Y-15877109D02*
X6846610Y-15677109D01*
X6932325Y-15877109D02*
X6932325Y-15772347D01*
X6932325Y-15772347D02*
X6922801Y-15753299D01*
X6922801Y-15753299D02*
X6903753Y-15743775D01*
X6903753Y-15743775D02*
X6875182Y-15743775D01*
X6875182Y-15743775D02*
X6856134Y-15753299D01*
X6856134Y-15753299D02*
X6846610Y-15762823D01*
X7056134Y-15877109D02*
X7037087Y-15867585D01*
X7037087Y-15867585D02*
X7027563Y-15858061D01*
X7027563Y-15858061D02*
X7018039Y-15839013D01*
X7018039Y-15839013D02*
X7018039Y-15781871D01*
X7018039Y-15781871D02*
X7027563Y-15762823D01*
X7027563Y-15762823D02*
X7037087Y-15753299D01*
X7037087Y-15753299D02*
X7056134Y-15743775D01*
X7056134Y-15743775D02*
X7084706Y-15743775D01*
X7084706Y-15743775D02*
X7103753Y-15753299D01*
X7103753Y-15753299D02*
X7113277Y-15762823D01*
X7113277Y-15762823D02*
X7122801Y-15781871D01*
X7122801Y-15781871D02*
X7122801Y-15839013D01*
X7122801Y-15839013D02*
X7113277Y-15858061D01*
X7113277Y-15858061D02*
X7103753Y-15867585D01*
X7103753Y-15867585D02*
X7084706Y-15877109D01*
X7084706Y-15877109D02*
X7056134Y-15877109D01*
X7237087Y-15877109D02*
X7218039Y-15867585D01*
X7218039Y-15867585D02*
X7208515Y-15848537D01*
X7208515Y-15848537D02*
X7208515Y-15677109D01*
X7389468Y-15867585D02*
X7370420Y-15877109D01*
X7370420Y-15877109D02*
X7332325Y-15877109D01*
X7332325Y-15877109D02*
X7313277Y-15867585D01*
X7313277Y-15867585D02*
X7303753Y-15848537D01*
X7303753Y-15848537D02*
X7303753Y-15772347D01*
X7303753Y-15772347D02*
X7313277Y-15753299D01*
X7313277Y-15753299D02*
X7332325Y-15743775D01*
X7332325Y-15743775D02*
X7370420Y-15743775D01*
X7370420Y-15743775D02*
X7389468Y-15753299D01*
X7389468Y-15753299D02*
X7398991Y-15772347D01*
X7398991Y-15772347D02*
X7398991Y-15791394D01*
X7398991Y-15791394D02*
X7303753Y-15810442D01*
X7475182Y-15867585D02*
X7494230Y-15877109D01*
X7494230Y-15877109D02*
X7532325Y-15877109D01*
X7532325Y-15877109D02*
X7551372Y-15867585D01*
X7551372Y-15867585D02*
X7560896Y-15848537D01*
X7560896Y-15848537D02*
X7560896Y-15839013D01*
X7560896Y-15839013D02*
X7551372Y-15819966D01*
X7551372Y-15819966D02*
X7532325Y-15810442D01*
X7532325Y-15810442D02*
X7503753Y-15810442D01*
X7503753Y-15810442D02*
X7484706Y-15800918D01*
X7484706Y-15800918D02*
X7475182Y-15781871D01*
X7475182Y-15781871D02*
X7475182Y-15772347D01*
X7475182Y-15772347D02*
X7484706Y-15753299D01*
X7484706Y-15753299D02*
X7503753Y-15743775D01*
X7503753Y-15743775D02*
X7532325Y-15743775D01*
X7532325Y-15743775D02*
X7551372Y-15753299D01*
X7627563Y-15953299D02*
X7637087Y-15943775D01*
X7637087Y-15943775D02*
X7656134Y-15915204D01*
X7656134Y-15915204D02*
X7665658Y-15896156D01*
X7665658Y-15896156D02*
X7675182Y-15867585D01*
X7675182Y-15867585D02*
X7684706Y-15819966D01*
X7684706Y-15819966D02*
X7684706Y-15781871D01*
X7684706Y-15781871D02*
X7675182Y-15734252D01*
X7675182Y-15734252D02*
X7665658Y-15705680D01*
X7665658Y-15705680D02*
X7656134Y-15686633D01*
X7656134Y-15686633D02*
X7637087Y-15658061D01*
X7637087Y-15658061D02*
X7627563Y-15648537D01*
X7989468Y-15953299D02*
X7979944Y-15943775D01*
X7979944Y-15943775D02*
X7960896Y-15915204D01*
X7960896Y-15915204D02*
X7951372Y-15896156D01*
X7951372Y-15896156D02*
X7941849Y-15867585D01*
X7941849Y-15867585D02*
X7932325Y-15819966D01*
X7932325Y-15819966D02*
X7932325Y-15781871D01*
X7932325Y-15781871D02*
X7941849Y-15734252D01*
X7941849Y-15734252D02*
X7951372Y-15705680D01*
X7951372Y-15705680D02*
X7960896Y-15686633D01*
X7960896Y-15686633D02*
X7979944Y-15658061D01*
X7979944Y-15658061D02*
X7989468Y-15648537D01*
X8065658Y-15743775D02*
X8065658Y-15877109D01*
X8065658Y-15762823D02*
X8075182Y-15753299D01*
X8075182Y-15753299D02*
X8094230Y-15743775D01*
X8094230Y-15743775D02*
X8122801Y-15743775D01*
X8122801Y-15743775D02*
X8141849Y-15753299D01*
X8141849Y-15753299D02*
X8151372Y-15772347D01*
X8151372Y-15772347D02*
X8151372Y-15877109D01*
X8275182Y-15877109D02*
X8256134Y-15867585D01*
X8256134Y-15867585D02*
X8246611Y-15858061D01*
X8246611Y-15858061D02*
X8237087Y-15839013D01*
X8237087Y-15839013D02*
X8237087Y-15781871D01*
X8237087Y-15781871D02*
X8246611Y-15762823D01*
X8246611Y-15762823D02*
X8256134Y-15753299D01*
X8256134Y-15753299D02*
X8275182Y-15743775D01*
X8275182Y-15743775D02*
X8303753Y-15743775D01*
X8303753Y-15743775D02*
X8322801Y-15753299D01*
X8322801Y-15753299D02*
X8332325Y-15762823D01*
X8332325Y-15762823D02*
X8341849Y-15781871D01*
X8341849Y-15781871D02*
X8341849Y-15839013D01*
X8341849Y-15839013D02*
X8332325Y-15858061D01*
X8332325Y-15858061D02*
X8322801Y-15867585D01*
X8322801Y-15867585D02*
X8303753Y-15877109D01*
X8303753Y-15877109D02*
X8275182Y-15877109D01*
X8398992Y-15743775D02*
X8475182Y-15743775D01*
X8427563Y-15677109D02*
X8427563Y-15848537D01*
X8427563Y-15848537D02*
X8437087Y-15867585D01*
X8437087Y-15867585D02*
X8456134Y-15877109D01*
X8456134Y-15877109D02*
X8475182Y-15877109D01*
X8694230Y-15743775D02*
X8694230Y-15943775D01*
X8694230Y-15753299D02*
X8713277Y-15743775D01*
X8713277Y-15743775D02*
X8751373Y-15743775D01*
X8751373Y-15743775D02*
X8770420Y-15753299D01*
X8770420Y-15753299D02*
X8779944Y-15762823D01*
X8779944Y-15762823D02*
X8789468Y-15781871D01*
X8789468Y-15781871D02*
X8789468Y-15839013D01*
X8789468Y-15839013D02*
X8779944Y-15858061D01*
X8779944Y-15858061D02*
X8770420Y-15867585D01*
X8770420Y-15867585D02*
X8751373Y-15877109D01*
X8751373Y-15877109D02*
X8713277Y-15877109D01*
X8713277Y-15877109D02*
X8694230Y-15867585D01*
X8903754Y-15877109D02*
X8884706Y-15867585D01*
X8884706Y-15867585D02*
X8875182Y-15848537D01*
X8875182Y-15848537D02*
X8875182Y-15677109D01*
X9065658Y-15877109D02*
X9065658Y-15772347D01*
X9065658Y-15772347D02*
X9056135Y-15753299D01*
X9056135Y-15753299D02*
X9037087Y-15743775D01*
X9037087Y-15743775D02*
X8998992Y-15743775D01*
X8998992Y-15743775D02*
X8979944Y-15753299D01*
X9065658Y-15867585D02*
X9046611Y-15877109D01*
X9046611Y-15877109D02*
X8998992Y-15877109D01*
X8998992Y-15877109D02*
X8979944Y-15867585D01*
X8979944Y-15867585D02*
X8970420Y-15848537D01*
X8970420Y-15848537D02*
X8970420Y-15829490D01*
X8970420Y-15829490D02*
X8979944Y-15810442D01*
X8979944Y-15810442D02*
X8998992Y-15800918D01*
X8998992Y-15800918D02*
X9046611Y-15800918D01*
X9046611Y-15800918D02*
X9065658Y-15791394D01*
X9132325Y-15743775D02*
X9208515Y-15743775D01*
X9160896Y-15677109D02*
X9160896Y-15848537D01*
X9160896Y-15848537D02*
X9170420Y-15867585D01*
X9170420Y-15867585D02*
X9189468Y-15877109D01*
X9189468Y-15877109D02*
X9208515Y-15877109D01*
X9351373Y-15867585D02*
X9332325Y-15877109D01*
X9332325Y-15877109D02*
X9294230Y-15877109D01*
X9294230Y-15877109D02*
X9275182Y-15867585D01*
X9275182Y-15867585D02*
X9265658Y-15848537D01*
X9265658Y-15848537D02*
X9265658Y-15772347D01*
X9265658Y-15772347D02*
X9275182Y-15753299D01*
X9275182Y-15753299D02*
X9294230Y-15743775D01*
X9294230Y-15743775D02*
X9332325Y-15743775D01*
X9332325Y-15743775D02*
X9351373Y-15753299D01*
X9351373Y-15753299D02*
X9360896Y-15772347D01*
X9360896Y-15772347D02*
X9360896Y-15791394D01*
X9360896Y-15791394D02*
X9265658Y-15810442D01*
X9532325Y-15877109D02*
X9532325Y-15677109D01*
X9532325Y-15867585D02*
X9513277Y-15877109D01*
X9513277Y-15877109D02*
X9475182Y-15877109D01*
X9475182Y-15877109D02*
X9456135Y-15867585D01*
X9456135Y-15867585D02*
X9446611Y-15858061D01*
X9446611Y-15858061D02*
X9437087Y-15839013D01*
X9437087Y-15839013D02*
X9437087Y-15781871D01*
X9437087Y-15781871D02*
X9446611Y-15762823D01*
X9446611Y-15762823D02*
X9456135Y-15753299D01*
X9456135Y-15753299D02*
X9475182Y-15743775D01*
X9475182Y-15743775D02*
X9513277Y-15743775D01*
X9513277Y-15743775D02*
X9532325Y-15753299D01*
X9608516Y-15953299D02*
X9618039Y-15943775D01*
X9618039Y-15943775D02*
X9637087Y-15915204D01*
X9637087Y-15915204D02*
X9646611Y-15896156D01*
X9646611Y-15896156D02*
X9656135Y-15867585D01*
X9656135Y-15867585D02*
X9665658Y-15819966D01*
X9665658Y-15819966D02*
X9665658Y-15781871D01*
X9665658Y-15781871D02*
X9656135Y-15734252D01*
X9656135Y-15734252D02*
X9646611Y-15705680D01*
X9646611Y-15705680D02*
X9637087Y-15686633D01*
X9637087Y-15686633D02*
X9618039Y-15658061D01*
X9618039Y-15658061D02*
X9608516Y-15648537D01*
X2823211Y-16176336D02*
X2823211Y-16034914D01*
X2681789Y-16034914D01*
X2681789Y-16176336D01*
X2823211Y-16176336D01*
X3198991Y-16063775D02*
X3198991Y-16197109D01*
X3151372Y-15987585D02*
X3103753Y-16130442D01*
X3103753Y-16130442D02*
X3227562Y-16130442D01*
X3303753Y-16178061D02*
X3313277Y-16187585D01*
X3313277Y-16187585D02*
X3303753Y-16197109D01*
X3303753Y-16197109D02*
X3294229Y-16187585D01*
X3294229Y-16187585D02*
X3303753Y-16178061D01*
X3303753Y-16178061D02*
X3303753Y-16197109D01*
X3437086Y-15997109D02*
X3456134Y-15997109D01*
X3456134Y-15997109D02*
X3475182Y-16006633D01*
X3475182Y-16006633D02*
X3484705Y-16016156D01*
X3484705Y-16016156D02*
X3494229Y-16035204D01*
X3494229Y-16035204D02*
X3503753Y-16073299D01*
X3503753Y-16073299D02*
X3503753Y-16120918D01*
X3503753Y-16120918D02*
X3494229Y-16159013D01*
X3494229Y-16159013D02*
X3484705Y-16178061D01*
X3484705Y-16178061D02*
X3475182Y-16187585D01*
X3475182Y-16187585D02*
X3456134Y-16197109D01*
X3456134Y-16197109D02*
X3437086Y-16197109D01*
X3437086Y-16197109D02*
X3418039Y-16187585D01*
X3418039Y-16187585D02*
X3408515Y-16178061D01*
X3408515Y-16178061D02*
X3398991Y-16159013D01*
X3398991Y-16159013D02*
X3389467Y-16120918D01*
X3389467Y-16120918D02*
X3389467Y-16073299D01*
X3389467Y-16073299D02*
X3398991Y-16035204D01*
X3398991Y-16035204D02*
X3408515Y-16016156D01*
X3408515Y-16016156D02*
X3418039Y-16006633D01*
X3418039Y-16006633D02*
X3437086Y-15997109D01*
X3627562Y-15997109D02*
X3646610Y-15997109D01*
X3646610Y-15997109D02*
X3665658Y-16006633D01*
X3665658Y-16006633D02*
X3675182Y-16016156D01*
X3675182Y-16016156D02*
X3684705Y-16035204D01*
X3684705Y-16035204D02*
X3694229Y-16073299D01*
X3694229Y-16073299D02*
X3694229Y-16120918D01*
X3694229Y-16120918D02*
X3684705Y-16159013D01*
X3684705Y-16159013D02*
X3675182Y-16178061D01*
X3675182Y-16178061D02*
X3665658Y-16187585D01*
X3665658Y-16187585D02*
X3646610Y-16197109D01*
X3646610Y-16197109D02*
X3627562Y-16197109D01*
X3627562Y-16197109D02*
X3608515Y-16187585D01*
X3608515Y-16187585D02*
X3598991Y-16178061D01*
X3598991Y-16178061D02*
X3589467Y-16159013D01*
X3589467Y-16159013D02*
X3579943Y-16120918D01*
X3579943Y-16120918D02*
X3579943Y-16073299D01*
X3579943Y-16073299D02*
X3589467Y-16035204D01*
X3589467Y-16035204D02*
X3598991Y-16016156D01*
X3598991Y-16016156D02*
X3608515Y-16006633D01*
X3608515Y-16006633D02*
X3627562Y-15997109D01*
X3818039Y-15997109D02*
X3837086Y-15997109D01*
X3837086Y-15997109D02*
X3856134Y-16006633D01*
X3856134Y-16006633D02*
X3865658Y-16016156D01*
X3865658Y-16016156D02*
X3875182Y-16035204D01*
X3875182Y-16035204D02*
X3884705Y-16073299D01*
X3884705Y-16073299D02*
X3884705Y-16120918D01*
X3884705Y-16120918D02*
X3875182Y-16159013D01*
X3875182Y-16159013D02*
X3865658Y-16178061D01*
X3865658Y-16178061D02*
X3856134Y-16187585D01*
X3856134Y-16187585D02*
X3837086Y-16197109D01*
X3837086Y-16197109D02*
X3818039Y-16197109D01*
X3818039Y-16197109D02*
X3798991Y-16187585D01*
X3798991Y-16187585D02*
X3789467Y-16178061D01*
X3789467Y-16178061D02*
X3779943Y-16159013D01*
X3779943Y-16159013D02*
X3770420Y-16120918D01*
X3770420Y-16120918D02*
X3770420Y-16073299D01*
X3770420Y-16073299D02*
X3779943Y-16035204D01*
X3779943Y-16035204D02*
X3789467Y-16016156D01*
X3789467Y-16016156D02*
X3798991Y-16006633D01*
X3798991Y-16006633D02*
X3818039Y-15997109D01*
X3970420Y-16197109D02*
X3970420Y-16063775D01*
X3970420Y-16082823D02*
X3979943Y-16073299D01*
X3979943Y-16073299D02*
X3998991Y-16063775D01*
X3998991Y-16063775D02*
X4027563Y-16063775D01*
X4027563Y-16063775D02*
X4046610Y-16073299D01*
X4046610Y-16073299D02*
X4056134Y-16092347D01*
X4056134Y-16092347D02*
X4056134Y-16197109D01*
X4056134Y-16092347D02*
X4065658Y-16073299D01*
X4065658Y-16073299D02*
X4084705Y-16063775D01*
X4084705Y-16063775D02*
X4113277Y-16063775D01*
X4113277Y-16063775D02*
X4132324Y-16073299D01*
X4132324Y-16073299D02*
X4141848Y-16092347D01*
X4141848Y-16092347D02*
X4141848Y-16197109D01*
X4237086Y-16197109D02*
X4237086Y-16063775D01*
X4237086Y-16082823D02*
X4246610Y-16073299D01*
X4246610Y-16073299D02*
X4265658Y-16063775D01*
X4265658Y-16063775D02*
X4294229Y-16063775D01*
X4294229Y-16063775D02*
X4313277Y-16073299D01*
X4313277Y-16073299D02*
X4322801Y-16092347D01*
X4322801Y-16092347D02*
X4322801Y-16197109D01*
X4322801Y-16092347D02*
X4332325Y-16073299D01*
X4332325Y-16073299D02*
X4351372Y-16063775D01*
X4351372Y-16063775D02*
X4379944Y-16063775D01*
X4379944Y-16063775D02*
X4398991Y-16073299D01*
X4398991Y-16073299D02*
X4408515Y-16092347D01*
X4408515Y-16092347D02*
X4408515Y-16197109D01*
X4798991Y-15987585D02*
X4627563Y-16244728D01*
X5056134Y-15997109D02*
X5075182Y-15997109D01*
X5075182Y-15997109D02*
X5094229Y-16006633D01*
X5094229Y-16006633D02*
X5103753Y-16016156D01*
X5103753Y-16016156D02*
X5113277Y-16035204D01*
X5113277Y-16035204D02*
X5122801Y-16073299D01*
X5122801Y-16073299D02*
X5122801Y-16120918D01*
X5122801Y-16120918D02*
X5113277Y-16159013D01*
X5113277Y-16159013D02*
X5103753Y-16178061D01*
X5103753Y-16178061D02*
X5094229Y-16187585D01*
X5094229Y-16187585D02*
X5075182Y-16197109D01*
X5075182Y-16197109D02*
X5056134Y-16197109D01*
X5056134Y-16197109D02*
X5037087Y-16187585D01*
X5037087Y-16187585D02*
X5027563Y-16178061D01*
X5027563Y-16178061D02*
X5018039Y-16159013D01*
X5018039Y-16159013D02*
X5008515Y-16120918D01*
X5008515Y-16120918D02*
X5008515Y-16073299D01*
X5008515Y-16073299D02*
X5018039Y-16035204D01*
X5018039Y-16035204D02*
X5027563Y-16016156D01*
X5027563Y-16016156D02*
X5037087Y-16006633D01*
X5037087Y-16006633D02*
X5056134Y-15997109D01*
X5208515Y-16178061D02*
X5218039Y-16187585D01*
X5218039Y-16187585D02*
X5208515Y-16197109D01*
X5208515Y-16197109D02*
X5198991Y-16187585D01*
X5198991Y-16187585D02*
X5208515Y-16178061D01*
X5208515Y-16178061D02*
X5208515Y-16197109D01*
X5408515Y-16197109D02*
X5294229Y-16197109D01*
X5351372Y-16197109D02*
X5351372Y-15997109D01*
X5351372Y-15997109D02*
X5332325Y-16025680D01*
X5332325Y-16025680D02*
X5313277Y-16044728D01*
X5313277Y-16044728D02*
X5294229Y-16054252D01*
X5589468Y-15997109D02*
X5494229Y-15997109D01*
X5494229Y-15997109D02*
X5484706Y-16092347D01*
X5484706Y-16092347D02*
X5494229Y-16082823D01*
X5494229Y-16082823D02*
X5513277Y-16073299D01*
X5513277Y-16073299D02*
X5560896Y-16073299D01*
X5560896Y-16073299D02*
X5579944Y-16082823D01*
X5579944Y-16082823D02*
X5589468Y-16092347D01*
X5589468Y-16092347D02*
X5598991Y-16111394D01*
X5598991Y-16111394D02*
X5598991Y-16159013D01*
X5598991Y-16159013D02*
X5589468Y-16178061D01*
X5589468Y-16178061D02*
X5579944Y-16187585D01*
X5579944Y-16187585D02*
X5560896Y-16197109D01*
X5560896Y-16197109D02*
X5513277Y-16197109D01*
X5513277Y-16197109D02*
X5494229Y-16187585D01*
X5494229Y-16187585D02*
X5484706Y-16178061D01*
X5665658Y-15997109D02*
X5798991Y-15997109D01*
X5798991Y-15997109D02*
X5713277Y-16197109D01*
X5970420Y-15997109D02*
X5875182Y-15997109D01*
X5875182Y-15997109D02*
X5865658Y-16092347D01*
X5865658Y-16092347D02*
X5875182Y-16082823D01*
X5875182Y-16082823D02*
X5894229Y-16073299D01*
X5894229Y-16073299D02*
X5941848Y-16073299D01*
X5941848Y-16073299D02*
X5960896Y-16082823D01*
X5960896Y-16082823D02*
X5970420Y-16092347D01*
X5970420Y-16092347D02*
X5979944Y-16111394D01*
X5979944Y-16111394D02*
X5979944Y-16159013D01*
X5979944Y-16159013D02*
X5970420Y-16178061D01*
X5970420Y-16178061D02*
X5960896Y-16187585D01*
X5960896Y-16187585D02*
X5941848Y-16197109D01*
X5941848Y-16197109D02*
X5894229Y-16197109D01*
X5894229Y-16197109D02*
X5875182Y-16187585D01*
X5875182Y-16187585D02*
X5865658Y-16178061D01*
X6056134Y-15997109D02*
X6056134Y-16035204D01*
X6132325Y-15997109D02*
X6132325Y-16035204D01*
X6427563Y-16273299D02*
X6418039Y-16263775D01*
X6418039Y-16263775D02*
X6398991Y-16235204D01*
X6398991Y-16235204D02*
X6389468Y-16216156D01*
X6389468Y-16216156D02*
X6379944Y-16187585D01*
X6379944Y-16187585D02*
X6370420Y-16139966D01*
X6370420Y-16139966D02*
X6370420Y-16101871D01*
X6370420Y-16101871D02*
X6379944Y-16054252D01*
X6379944Y-16054252D02*
X6389468Y-16025680D01*
X6389468Y-16025680D02*
X6398991Y-16006633D01*
X6398991Y-16006633D02*
X6418039Y-15978061D01*
X6418039Y-15978061D02*
X6427563Y-15968537D01*
X6532325Y-16082823D02*
X6513277Y-16073299D01*
X6513277Y-16073299D02*
X6503753Y-16063775D01*
X6503753Y-16063775D02*
X6494229Y-16044728D01*
X6494229Y-16044728D02*
X6494229Y-16035204D01*
X6494229Y-16035204D02*
X6503753Y-16016156D01*
X6503753Y-16016156D02*
X6513277Y-16006633D01*
X6513277Y-16006633D02*
X6532325Y-15997109D01*
X6532325Y-15997109D02*
X6570420Y-15997109D01*
X6570420Y-15997109D02*
X6589468Y-16006633D01*
X6589468Y-16006633D02*
X6598991Y-16016156D01*
X6598991Y-16016156D02*
X6608515Y-16035204D01*
X6608515Y-16035204D02*
X6608515Y-16044728D01*
X6608515Y-16044728D02*
X6598991Y-16063775D01*
X6598991Y-16063775D02*
X6589468Y-16073299D01*
X6589468Y-16073299D02*
X6570420Y-16082823D01*
X6570420Y-16082823D02*
X6532325Y-16082823D01*
X6532325Y-16082823D02*
X6513277Y-16092347D01*
X6513277Y-16092347D02*
X6503753Y-16101871D01*
X6503753Y-16101871D02*
X6494229Y-16120918D01*
X6494229Y-16120918D02*
X6494229Y-16159013D01*
X6494229Y-16159013D02*
X6503753Y-16178061D01*
X6503753Y-16178061D02*
X6513277Y-16187585D01*
X6513277Y-16187585D02*
X6532325Y-16197109D01*
X6532325Y-16197109D02*
X6570420Y-16197109D01*
X6570420Y-16197109D02*
X6589468Y-16187585D01*
X6589468Y-16187585D02*
X6598991Y-16178061D01*
X6598991Y-16178061D02*
X6608515Y-16159013D01*
X6608515Y-16159013D02*
X6608515Y-16120918D01*
X6608515Y-16120918D02*
X6598991Y-16101871D01*
X6598991Y-16101871D02*
X6589468Y-16092347D01*
X6589468Y-16092347D02*
X6570420Y-16082823D01*
X6798991Y-16197109D02*
X6684706Y-16197109D01*
X6741848Y-16197109D02*
X6741848Y-15997109D01*
X6741848Y-15997109D02*
X6722801Y-16025680D01*
X6722801Y-16025680D02*
X6703753Y-16044728D01*
X6703753Y-16044728D02*
X6684706Y-16054252D01*
X7037087Y-16197109D02*
X7037087Y-15997109D01*
X7122801Y-16197109D02*
X7122801Y-16092347D01*
X7122801Y-16092347D02*
X7113277Y-16073299D01*
X7113277Y-16073299D02*
X7094230Y-16063775D01*
X7094230Y-16063775D02*
X7065658Y-16063775D01*
X7065658Y-16063775D02*
X7046610Y-16073299D01*
X7046610Y-16073299D02*
X7037087Y-16082823D01*
X7246610Y-16197109D02*
X7227563Y-16187585D01*
X7227563Y-16187585D02*
X7218039Y-16178061D01*
X7218039Y-16178061D02*
X7208515Y-16159013D01*
X7208515Y-16159013D02*
X7208515Y-16101871D01*
X7208515Y-16101871D02*
X7218039Y-16082823D01*
X7218039Y-16082823D02*
X7227563Y-16073299D01*
X7227563Y-16073299D02*
X7246610Y-16063775D01*
X7246610Y-16063775D02*
X7275182Y-16063775D01*
X7275182Y-16063775D02*
X7294230Y-16073299D01*
X7294230Y-16073299D02*
X7303753Y-16082823D01*
X7303753Y-16082823D02*
X7313277Y-16101871D01*
X7313277Y-16101871D02*
X7313277Y-16159013D01*
X7313277Y-16159013D02*
X7303753Y-16178061D01*
X7303753Y-16178061D02*
X7294230Y-16187585D01*
X7294230Y-16187585D02*
X7275182Y-16197109D01*
X7275182Y-16197109D02*
X7246610Y-16197109D01*
X7427563Y-16197109D02*
X7408515Y-16187585D01*
X7408515Y-16187585D02*
X7398991Y-16168537D01*
X7398991Y-16168537D02*
X7398991Y-15997109D01*
X7579944Y-16187585D02*
X7560896Y-16197109D01*
X7560896Y-16197109D02*
X7522801Y-16197109D01*
X7522801Y-16197109D02*
X7503753Y-16187585D01*
X7503753Y-16187585D02*
X7494230Y-16168537D01*
X7494230Y-16168537D02*
X7494230Y-16092347D01*
X7494230Y-16092347D02*
X7503753Y-16073299D01*
X7503753Y-16073299D02*
X7522801Y-16063775D01*
X7522801Y-16063775D02*
X7560896Y-16063775D01*
X7560896Y-16063775D02*
X7579944Y-16073299D01*
X7579944Y-16073299D02*
X7589468Y-16092347D01*
X7589468Y-16092347D02*
X7589468Y-16111394D01*
X7589468Y-16111394D02*
X7494230Y-16130442D01*
X7665658Y-16187585D02*
X7684706Y-16197109D01*
X7684706Y-16197109D02*
X7722801Y-16197109D01*
X7722801Y-16197109D02*
X7741849Y-16187585D01*
X7741849Y-16187585D02*
X7751372Y-16168537D01*
X7751372Y-16168537D02*
X7751372Y-16159013D01*
X7751372Y-16159013D02*
X7741849Y-16139966D01*
X7741849Y-16139966D02*
X7722801Y-16130442D01*
X7722801Y-16130442D02*
X7694230Y-16130442D01*
X7694230Y-16130442D02*
X7675182Y-16120918D01*
X7675182Y-16120918D02*
X7665658Y-16101871D01*
X7665658Y-16101871D02*
X7665658Y-16092347D01*
X7665658Y-16092347D02*
X7675182Y-16073299D01*
X7675182Y-16073299D02*
X7694230Y-16063775D01*
X7694230Y-16063775D02*
X7722801Y-16063775D01*
X7722801Y-16063775D02*
X7741849Y-16073299D01*
X7818039Y-16273299D02*
X7827563Y-16263775D01*
X7827563Y-16263775D02*
X7846611Y-16235204D01*
X7846611Y-16235204D02*
X7856134Y-16216156D01*
X7856134Y-16216156D02*
X7865658Y-16187585D01*
X7865658Y-16187585D02*
X7875182Y-16139966D01*
X7875182Y-16139966D02*
X7875182Y-16101871D01*
X7875182Y-16101871D02*
X7865658Y-16054252D01*
X7865658Y-16054252D02*
X7856134Y-16025680D01*
X7856134Y-16025680D02*
X7846611Y-16006633D01*
X7846611Y-16006633D02*
X7827563Y-15978061D01*
X7827563Y-15978061D02*
X7818039Y-15968537D01*
X8179944Y-16273299D02*
X8170420Y-16263775D01*
X8170420Y-16263775D02*
X8151372Y-16235204D01*
X8151372Y-16235204D02*
X8141849Y-16216156D01*
X8141849Y-16216156D02*
X8132325Y-16187585D01*
X8132325Y-16187585D02*
X8122801Y-16139966D01*
X8122801Y-16139966D02*
X8122801Y-16101871D01*
X8122801Y-16101871D02*
X8132325Y-16054252D01*
X8132325Y-16054252D02*
X8141849Y-16025680D01*
X8141849Y-16025680D02*
X8151372Y-16006633D01*
X8151372Y-16006633D02*
X8170420Y-15978061D01*
X8170420Y-15978061D02*
X8179944Y-15968537D01*
X8256134Y-16063775D02*
X8256134Y-16197109D01*
X8256134Y-16082823D02*
X8265658Y-16073299D01*
X8265658Y-16073299D02*
X8284706Y-16063775D01*
X8284706Y-16063775D02*
X8313277Y-16063775D01*
X8313277Y-16063775D02*
X8332325Y-16073299D01*
X8332325Y-16073299D02*
X8341849Y-16092347D01*
X8341849Y-16092347D02*
X8341849Y-16197109D01*
X8465658Y-16197109D02*
X8446611Y-16187585D01*
X8446611Y-16187585D02*
X8437087Y-16178061D01*
X8437087Y-16178061D02*
X8427563Y-16159013D01*
X8427563Y-16159013D02*
X8427563Y-16101871D01*
X8427563Y-16101871D02*
X8437087Y-16082823D01*
X8437087Y-16082823D02*
X8446611Y-16073299D01*
X8446611Y-16073299D02*
X8465658Y-16063775D01*
X8465658Y-16063775D02*
X8494230Y-16063775D01*
X8494230Y-16063775D02*
X8513277Y-16073299D01*
X8513277Y-16073299D02*
X8522801Y-16082823D01*
X8522801Y-16082823D02*
X8532325Y-16101871D01*
X8532325Y-16101871D02*
X8532325Y-16159013D01*
X8532325Y-16159013D02*
X8522801Y-16178061D01*
X8522801Y-16178061D02*
X8513277Y-16187585D01*
X8513277Y-16187585D02*
X8494230Y-16197109D01*
X8494230Y-16197109D02*
X8465658Y-16197109D01*
X8589468Y-16063775D02*
X8665658Y-16063775D01*
X8618039Y-15997109D02*
X8618039Y-16168537D01*
X8618039Y-16168537D02*
X8627563Y-16187585D01*
X8627563Y-16187585D02*
X8646611Y-16197109D01*
X8646611Y-16197109D02*
X8665658Y-16197109D01*
X8884706Y-16063775D02*
X8884706Y-16263775D01*
X8884706Y-16073299D02*
X8903754Y-16063775D01*
X8903754Y-16063775D02*
X8941849Y-16063775D01*
X8941849Y-16063775D02*
X8960896Y-16073299D01*
X8960896Y-16073299D02*
X8970420Y-16082823D01*
X8970420Y-16082823D02*
X8979944Y-16101871D01*
X8979944Y-16101871D02*
X8979944Y-16159013D01*
X8979944Y-16159013D02*
X8970420Y-16178061D01*
X8970420Y-16178061D02*
X8960896Y-16187585D01*
X8960896Y-16187585D02*
X8941849Y-16197109D01*
X8941849Y-16197109D02*
X8903754Y-16197109D01*
X8903754Y-16197109D02*
X8884706Y-16187585D01*
X9094230Y-16197109D02*
X9075182Y-16187585D01*
X9075182Y-16187585D02*
X9065658Y-16168537D01*
X9065658Y-16168537D02*
X9065658Y-15997109D01*
X9256135Y-16197109D02*
X9256135Y-16092347D01*
X9256135Y-16092347D02*
X9246611Y-16073299D01*
X9246611Y-16073299D02*
X9227563Y-16063775D01*
X9227563Y-16063775D02*
X9189468Y-16063775D01*
X9189468Y-16063775D02*
X9170420Y-16073299D01*
X9256135Y-16187585D02*
X9237087Y-16197109D01*
X9237087Y-16197109D02*
X9189468Y-16197109D01*
X9189468Y-16197109D02*
X9170420Y-16187585D01*
X9170420Y-16187585D02*
X9160896Y-16168537D01*
X9160896Y-16168537D02*
X9160896Y-16149490D01*
X9160896Y-16149490D02*
X9170420Y-16130442D01*
X9170420Y-16130442D02*
X9189468Y-16120918D01*
X9189468Y-16120918D02*
X9237087Y-16120918D01*
X9237087Y-16120918D02*
X9256135Y-16111394D01*
X9322801Y-16063775D02*
X9398992Y-16063775D01*
X9351373Y-15997109D02*
X9351373Y-16168537D01*
X9351373Y-16168537D02*
X9360896Y-16187585D01*
X9360896Y-16187585D02*
X9379944Y-16197109D01*
X9379944Y-16197109D02*
X9398992Y-16197109D01*
X9541849Y-16187585D02*
X9522801Y-16197109D01*
X9522801Y-16197109D02*
X9484706Y-16197109D01*
X9484706Y-16197109D02*
X9465658Y-16187585D01*
X9465658Y-16187585D02*
X9456135Y-16168537D01*
X9456135Y-16168537D02*
X9456135Y-16092347D01*
X9456135Y-16092347D02*
X9465658Y-16073299D01*
X9465658Y-16073299D02*
X9484706Y-16063775D01*
X9484706Y-16063775D02*
X9522801Y-16063775D01*
X9522801Y-16063775D02*
X9541849Y-16073299D01*
X9541849Y-16073299D02*
X9551373Y-16092347D01*
X9551373Y-16092347D02*
X9551373Y-16111394D01*
X9551373Y-16111394D02*
X9456135Y-16130442D01*
X9722801Y-16197109D02*
X9722801Y-15997109D01*
X9722801Y-16187585D02*
X9703754Y-16197109D01*
X9703754Y-16197109D02*
X9665658Y-16197109D01*
X9665658Y-16197109D02*
X9646611Y-16187585D01*
X9646611Y-16187585D02*
X9637087Y-16178061D01*
X9637087Y-16178061D02*
X9627563Y-16159013D01*
X9627563Y-16159013D02*
X9627563Y-16101871D01*
X9627563Y-16101871D02*
X9637087Y-16082823D01*
X9637087Y-16082823D02*
X9646611Y-16073299D01*
X9646611Y-16073299D02*
X9665658Y-16063775D01*
X9665658Y-16063775D02*
X9703754Y-16063775D01*
X9703754Y-16063775D02*
X9722801Y-16073299D01*
X9798992Y-16273299D02*
X9808516Y-16263775D01*
X9808516Y-16263775D02*
X9827563Y-16235204D01*
X9827563Y-16235204D02*
X9837087Y-16216156D01*
X9837087Y-16216156D02*
X9846611Y-16187585D01*
X9846611Y-16187585D02*
X9856135Y-16139966D01*
X9856135Y-16139966D02*
X9856135Y-16101871D01*
X9856135Y-16101871D02*
X9846611Y-16054252D01*
X9846611Y-16054252D02*
X9837087Y-16025680D01*
X9837087Y-16025680D02*
X9827563Y-16006633D01*
X9827563Y-16006633D02*
X9808516Y-15978061D01*
X9808516Y-15978061D02*
X9798992Y-15968537D01*
M02*
