%TF.GenerationSoftware,KiCad,Pcbnew,7.0.10*%
%TF.CreationDate,2024-01-16T21:17:59-03:00*%
%TF.ProjectId,PCB,5043422e-6b69-4636-9164-5f7063625858,rev?*%
%TF.SameCoordinates,Original*%
%TF.FileFunction,Soldermask,Top*%
%TF.FilePolarity,Negative*%
%FSLAX46Y46*%
G04 Gerber Fmt 4.6, Leading zero omitted, Abs format (unit mm)*
G04 Created by KiCad (PCBNEW 7.0.10) date 2024-01-16 21:17:59*
%MOMM*%
%LPD*%
G01*
G04 APERTURE LIST*
%ADD10C,1.750000*%
%ADD11C,4.000000*%
%ADD12C,2.500000*%
%ADD13R,1.300000X1.400000*%
%ADD14R,2.000000X1.200000*%
%ADD15O,2.000000X1.200000*%
G04 APERTURE END LIST*
D10*
%TO.C,S79*%
X290988750Y-108516963D03*
D11*
X296068750Y-108516963D03*
D10*
X301148750Y-108516963D03*
D12*
X292258750Y-105976963D03*
X298608750Y-103436963D03*
%TD*%
D13*
%TO.C,D56*%
X220725000Y-72191963D03*
X220725000Y-68641963D03*
%TD*%
D10*
%TO.C,S32*%
X131445000Y-70416963D03*
D11*
X136525000Y-70416963D03*
D10*
X141605000Y-70416963D03*
D12*
X132715000Y-67876963D03*
X139065000Y-65336963D03*
%TD*%
D10*
%TO.C,S54*%
X302895000Y-146616963D03*
D11*
X307975000Y-146616963D03*
D10*
X313055000Y-146616963D03*
D12*
X304165000Y-144076963D03*
X310515000Y-141536963D03*
%TD*%
D10*
%TO.C,S6*%
X38576250Y-146616963D03*
D11*
X43656250Y-146616963D03*
D10*
X48736250Y-146616963D03*
D12*
X39846250Y-144076963D03*
X46196250Y-141536963D03*
%TD*%
D10*
%TO.C,S11*%
X60007500Y-127566963D03*
D11*
X65087500Y-127566963D03*
D10*
X70167500Y-127566963D03*
D12*
X61277500Y-125026963D03*
X67627500Y-122486963D03*
%TD*%
D13*
%TO.C,D72*%
X277875000Y-72191963D03*
X277875000Y-68641963D03*
%TD*%
D10*
%TO.C,S77*%
X293370000Y-70416963D03*
D11*
X298450000Y-70416963D03*
D10*
X303530000Y-70416963D03*
D12*
X294640000Y-67876963D03*
X300990000Y-65336963D03*
%TD*%
D10*
%TO.C,S15*%
X83820000Y-89466963D03*
D11*
X88900000Y-89466963D03*
D10*
X93980000Y-89466963D03*
D12*
X85090000Y-86926963D03*
X91440000Y-84386963D03*
%TD*%
D13*
%TO.C,D13*%
X87375000Y-53141963D03*
X87375000Y-49591963D03*
%TD*%
%TO.C,D29*%
X130237500Y-129341963D03*
X130237500Y-125791963D03*
%TD*%
D10*
%TO.C,S48*%
X274320000Y-146616963D03*
D11*
X279400000Y-146616963D03*
D10*
X284480000Y-146616963D03*
D12*
X275590000Y-144076963D03*
X281940000Y-141536963D03*
%TD*%
D13*
%TO.C,D80*%
X335025000Y-129341963D03*
X335025000Y-125791963D03*
%TD*%
D10*
%TO.C,S23*%
X98107500Y-127566963D03*
D11*
X103187500Y-127566963D03*
D10*
X108267500Y-127566963D03*
D12*
X99377500Y-125026963D03*
X105727500Y-122486963D03*
%TD*%
D10*
%TO.C,S73*%
X274320000Y-89466963D03*
D11*
X279400000Y-89466963D03*
D10*
X284480000Y-89466963D03*
D12*
X275590000Y-86926963D03*
X281940000Y-84386963D03*
%TD*%
D10*
%TO.C,S30*%
X167163750Y-146616963D03*
D11*
X172243750Y-146616963D03*
D10*
X177323750Y-146616963D03*
D12*
X168433750Y-144076963D03*
X174783750Y-141536963D03*
%TD*%
D10*
%TO.C,S71*%
X264795000Y-51366963D03*
D11*
X269875000Y-51366963D03*
D10*
X274955000Y-51366963D03*
D12*
X266065000Y-48826963D03*
X272415000Y-46286963D03*
%TD*%
D13*
%TO.C,D39*%
X173355000Y-91241963D03*
X173355000Y-87691963D03*
%TD*%
D10*
%TO.C,S78*%
X298132500Y-89466963D03*
D11*
X303212500Y-89466963D03*
D10*
X308292500Y-89466963D03*
D12*
X299402500Y-86926963D03*
X305752500Y-84386963D03*
%TD*%
D10*
%TO.C,S51*%
X198120000Y-89466963D03*
D11*
X203200000Y-89466963D03*
D10*
X208280000Y-89466963D03*
D12*
X199390000Y-86926963D03*
X205740000Y-84386963D03*
%TD*%
D13*
%TO.C,D1*%
X49275000Y-53141963D03*
X49275000Y-49591963D03*
%TD*%
D10*
%TO.C,S65*%
X231457500Y-127566963D03*
D11*
X236537500Y-127566963D03*
D10*
X241617500Y-127566963D03*
D12*
X232727500Y-125026963D03*
X239077500Y-122486963D03*
%TD*%
D10*
%TO.C,S53*%
X193357500Y-127566963D03*
D11*
X198437500Y-127566963D03*
D10*
X203517500Y-127566963D03*
D12*
X194627500Y-125026963D03*
X200977500Y-122486963D03*
%TD*%
D10*
%TO.C,S4*%
X43338750Y-108516963D03*
D11*
X48418750Y-108516963D03*
D10*
X53498750Y-108516963D03*
D12*
X44608750Y-105976963D03*
X50958750Y-103436963D03*
%TD*%
D13*
%TO.C,D43*%
X182625000Y-53141963D03*
X182625000Y-49591963D03*
%TD*%
%TO.C,D61*%
X239775000Y-53141963D03*
X239775000Y-49591963D03*
%TD*%
D10*
%TO.C,S18*%
X79057500Y-146616963D03*
D11*
X84137500Y-146616963D03*
D10*
X89217500Y-146616963D03*
D12*
X80327500Y-144076963D03*
X86677500Y-141536963D03*
%TD*%
D10*
%TO.C,S31*%
X131445000Y-51366963D03*
D11*
X136525000Y-51366963D03*
D10*
X141605000Y-51366963D03*
D12*
X132715000Y-48826963D03*
X139065000Y-46286963D03*
%TD*%
D10*
%TO.C,S34*%
X145732500Y-108516963D03*
D11*
X150812500Y-108516963D03*
D10*
X155892500Y-108516963D03*
D12*
X147002500Y-105976963D03*
X153352500Y-103436963D03*
%TD*%
D13*
%TO.C,D25*%
X125475000Y-53141963D03*
X125475000Y-49591963D03*
%TD*%
%TO.C,D70*%
X263587500Y-129341963D03*
X263587500Y-125791963D03*
%TD*%
D10*
%TO.C,S25*%
X112395000Y-51366963D03*
D11*
X117475000Y-51366963D03*
D10*
X122555000Y-51366963D03*
D12*
X113665000Y-48826963D03*
X120015000Y-46286963D03*
%TD*%
D13*
%TO.C,D51*%
X210502500Y-91241963D03*
X210502500Y-87691963D03*
%TD*%
D10*
%TO.C,S70*%
X250507500Y-127566963D03*
D11*
X255587500Y-127566963D03*
D10*
X260667500Y-127566963D03*
D12*
X251777500Y-125026963D03*
X258127500Y-122486963D03*
%TD*%
D13*
%TO.C,D34*%
X158812500Y-110291963D03*
X158812500Y-106741963D03*
%TD*%
%TO.C,D28*%
X139762500Y-110291963D03*
X139762500Y-106741963D03*
%TD*%
%TO.C,D58*%
X235012500Y-110291963D03*
X235012500Y-106741963D03*
%TD*%
%TO.C,D8*%
X68325000Y-72191963D03*
X68325000Y-68641963D03*
%TD*%
%TO.C,D71*%
X277875000Y-53141963D03*
X277875000Y-49591963D03*
%TD*%
D10*
%TO.C,S16*%
X88582500Y-108516963D03*
D11*
X93662500Y-108516963D03*
D10*
X98742500Y-108516963D03*
D12*
X89852500Y-105976963D03*
X96202500Y-103436963D03*
%TD*%
D14*
%TO.C,U1*%
X346706320Y-104772280D03*
D15*
X346706320Y-102232280D03*
X346706320Y-99692280D03*
X346706320Y-97152280D03*
X346706320Y-94612280D03*
X346706320Y-92072280D03*
X346706320Y-89532280D03*
X346706320Y-86992280D03*
X346706320Y-84452280D03*
X346706320Y-81912280D03*
X346706320Y-79372280D03*
X346706320Y-76832280D03*
X346706320Y-74292280D03*
X346706320Y-71752280D03*
X346706320Y-69212280D03*
X346706320Y-66672280D03*
X346706320Y-64132280D03*
X346706320Y-61592280D03*
X346706320Y-59052280D03*
X346710000Y-56515000D03*
X346710000Y-53975000D03*
X346710000Y-51435000D03*
X323846320Y-51432280D03*
X323846320Y-53972280D03*
X323846320Y-56512280D03*
X323846320Y-59052280D03*
X323846320Y-61592280D03*
X323846320Y-64132280D03*
X323846320Y-66672280D03*
X323846320Y-69212280D03*
X323846320Y-71752280D03*
X323846320Y-74292280D03*
X323846320Y-76832280D03*
X323846320Y-79372280D03*
X323846320Y-81912280D03*
X323846320Y-84452280D03*
X323846320Y-86992280D03*
X323846320Y-89532280D03*
X323846320Y-92072280D03*
X323846320Y-94612280D03*
X323846320Y-97152280D03*
X323846320Y-99692280D03*
X323846320Y-102232280D03*
X323846320Y-104772280D03*
%TD*%
D10*
%TO.C,S41*%
X155257500Y-127566963D03*
D11*
X160337500Y-127566963D03*
D10*
X165417500Y-127566963D03*
D12*
X156527500Y-125026963D03*
X162877500Y-122486963D03*
%TD*%
D13*
%TO.C,D22*%
X120712500Y-110291963D03*
X120712500Y-106741963D03*
%TD*%
D10*
%TO.C,S33*%
X140970000Y-89466963D03*
D11*
X146050000Y-89466963D03*
D10*
X151130000Y-89466963D03*
D12*
X142240000Y-86926963D03*
X148590000Y-84386963D03*
%TD*%
D10*
%TO.C,S29*%
X117157500Y-127566963D03*
D11*
X122237500Y-127566963D03*
D10*
X127317500Y-127566963D03*
D12*
X118427500Y-125026963D03*
X124777500Y-122486963D03*
%TD*%
D13*
%TO.C,D81*%
X354075000Y-148391963D03*
X354075000Y-144841963D03*
%TD*%
%TO.C,D33*%
X155257500Y-91241963D03*
X155257500Y-87691963D03*
%TD*%
%TO.C,D19*%
X106425000Y-53141963D03*
X106425000Y-49591963D03*
%TD*%
D10*
%TO.C,S20*%
X93345000Y-70416963D03*
D11*
X98425000Y-70416963D03*
D10*
X103505000Y-70416963D03*
D12*
X94615000Y-67876963D03*
X100965000Y-65336963D03*
%TD*%
D10*
%TO.C,S76*%
X302895000Y-51366963D03*
D11*
X307975000Y-51366963D03*
D10*
X313055000Y-51366963D03*
D12*
X304165000Y-48826963D03*
X310515000Y-46286963D03*
%TD*%
D10*
%TO.C,S45*%
X179070000Y-89466963D03*
D11*
X184150000Y-89466963D03*
D10*
X189230000Y-89466963D03*
D12*
X180340000Y-86926963D03*
X186690000Y-84386963D03*
%TD*%
D10*
%TO.C,S55*%
X207645000Y-51366963D03*
D11*
X212725000Y-51366963D03*
D10*
X217805000Y-51366963D03*
D12*
X208915000Y-48826963D03*
X215265000Y-46286963D03*
%TD*%
D10*
%TO.C,S24*%
X98107500Y-146616963D03*
D11*
X103187500Y-146616963D03*
D10*
X108267500Y-146616963D03*
D12*
X99377500Y-144076963D03*
X105727500Y-141536963D03*
%TD*%
D13*
%TO.C,D60*%
X335025000Y-148391963D03*
X335025000Y-144841963D03*
%TD*%
%TO.C,D4*%
X56418750Y-110291963D03*
X56418750Y-106741963D03*
%TD*%
%TO.C,D32*%
X144525000Y-72191963D03*
X144525000Y-68641963D03*
%TD*%
D10*
%TO.C,S58*%
X221932500Y-108516963D03*
D11*
X227012500Y-108516963D03*
D10*
X232092500Y-108516963D03*
D12*
X223202500Y-105976963D03*
X229552500Y-103436963D03*
%TD*%
D10*
%TO.C,S40*%
X164782500Y-108516963D03*
D11*
X169862500Y-108516963D03*
D10*
X174942500Y-108516963D03*
D12*
X166052500Y-105976963D03*
X172402500Y-103436963D03*
%TD*%
D13*
%TO.C,D49*%
X201675000Y-53141963D03*
X201675000Y-49591963D03*
%TD*%
D10*
%TO.C,S9*%
X64770000Y-89466963D03*
D11*
X69850000Y-89466963D03*
D10*
X74930000Y-89466963D03*
D12*
X66040000Y-86926963D03*
X72390000Y-84386963D03*
%TD*%
D13*
%TO.C,D17*%
X92137500Y-129341963D03*
X92137500Y-125791963D03*
%TD*%
D10*
%TO.C,S68*%
X255270000Y-89466963D03*
D11*
X260350000Y-89466963D03*
D10*
X265430000Y-89466963D03*
D12*
X256540000Y-86926963D03*
X262890000Y-84386963D03*
%TD*%
D10*
%TO.C,S61*%
X226695000Y-51366963D03*
D11*
X231775000Y-51366963D03*
D10*
X236855000Y-51366963D03*
D12*
X227965000Y-48826963D03*
X234315000Y-46286963D03*
%TD*%
D10*
%TO.C,S50*%
X188595000Y-70416963D03*
D11*
X193675000Y-70416963D03*
D10*
X198755000Y-70416963D03*
D12*
X189865000Y-67876963D03*
X196215000Y-65336963D03*
%TD*%
D10*
%TO.C,S14*%
X74295000Y-70416963D03*
D11*
X79375000Y-70416963D03*
D10*
X84455000Y-70416963D03*
D12*
X75565000Y-67876963D03*
X81915000Y-65336963D03*
%TD*%
D13*
%TO.C,D76*%
X315975000Y-53141963D03*
X315975000Y-49591963D03*
%TD*%
%TO.C,D9*%
X77850000Y-91241963D03*
X77850000Y-87691963D03*
%TD*%
D10*
%TO.C,S12*%
X60007500Y-146616963D03*
D11*
X65087500Y-146616963D03*
D10*
X70167500Y-146616963D03*
D12*
X61277500Y-144076963D03*
X67627500Y-141536963D03*
%TD*%
D13*
%TO.C,D6*%
X51656250Y-148391963D03*
X51656250Y-144841963D03*
%TD*%
D10*
%TO.C,S46*%
X183832500Y-108516963D03*
D11*
X188912500Y-108516963D03*
D10*
X193992500Y-108516963D03*
D12*
X185102500Y-105976963D03*
X191452500Y-103436963D03*
%TD*%
D10*
%TO.C,S69*%
X260032500Y-108516963D03*
D11*
X265112500Y-108516963D03*
D10*
X270192500Y-108516963D03*
D12*
X261302500Y-105976963D03*
X267652500Y-103436963D03*
%TD*%
D13*
%TO.C,D45*%
X191452500Y-91241963D03*
X191452500Y-87691963D03*
%TD*%
%TO.C,D47*%
X187387500Y-129341963D03*
X187387500Y-125791963D03*
%TD*%
%TO.C,D18*%
X92137500Y-148391963D03*
X92137500Y-144841963D03*
%TD*%
%TO.C,D23*%
X111187500Y-129341963D03*
X111187500Y-125791963D03*
%TD*%
D10*
%TO.C,S3*%
X40957500Y-89466963D03*
D11*
X46037500Y-89466963D03*
D10*
X51117500Y-89466963D03*
D12*
X42227500Y-86926963D03*
X48577500Y-84386963D03*
%TD*%
D10*
%TO.C,S47*%
X174307500Y-127566963D03*
D11*
X179387500Y-127566963D03*
D10*
X184467500Y-127566963D03*
D12*
X175577500Y-125026963D03*
X181927500Y-122486963D03*
%TD*%
D10*
%TO.C,S60*%
X321945000Y-146616963D03*
D11*
X327025000Y-146616963D03*
D10*
X332105000Y-146616963D03*
D12*
X323215000Y-144076963D03*
X329565000Y-141536963D03*
%TD*%
D13*
%TO.C,D52*%
X215962500Y-110291963D03*
X215962500Y-106741963D03*
%TD*%
D10*
%TO.C,S49*%
X188595000Y-51366963D03*
D11*
X193675000Y-51366963D03*
D10*
X198755000Y-51366963D03*
D12*
X189865000Y-48826963D03*
X196215000Y-46286963D03*
%TD*%
D13*
%TO.C,D65*%
X244537500Y-129341963D03*
X244537500Y-125791963D03*
%TD*%
D10*
%TO.C,S75*%
X283845000Y-51366963D03*
D11*
X288925000Y-51366963D03*
D10*
X294005000Y-51366963D03*
D12*
X285115000Y-48826963D03*
X291465000Y-46286963D03*
%TD*%
D13*
%TO.C,D37*%
X163575000Y-53141963D03*
X163575000Y-49591963D03*
%TD*%
D10*
%TO.C,S7*%
X55245000Y-51366963D03*
D11*
X60325000Y-51366963D03*
D10*
X65405000Y-51366963D03*
D12*
X56515000Y-48826963D03*
X62865000Y-46286963D03*
%TD*%
D13*
%TO.C,D12*%
X73087500Y-148391963D03*
X73087500Y-144841963D03*
%TD*%
%TO.C,D14*%
X87375000Y-72191963D03*
X87375000Y-68641963D03*
%TD*%
D10*
%TO.C,S28*%
X126682500Y-108516963D03*
D11*
X131762500Y-108516963D03*
D10*
X136842500Y-108516963D03*
D12*
X127952500Y-105976963D03*
X134302500Y-103436963D03*
%TD*%
D13*
%TO.C,D11*%
X73087500Y-129341963D03*
X73087500Y-125791963D03*
%TD*%
%TO.C,D68*%
X267652500Y-91241963D03*
X267652500Y-87691963D03*
%TD*%
D10*
%TO.C,S19*%
X93345000Y-51366963D03*
D11*
X98425000Y-51366963D03*
D10*
X103505000Y-51366963D03*
D12*
X94615000Y-48826963D03*
X100965000Y-46286963D03*
%TD*%
D13*
%TO.C,D54*%
X315975000Y-148391963D03*
X315975000Y-144841963D03*
%TD*%
%TO.C,D36*%
X249300000Y-148391963D03*
X249300000Y-144841963D03*
%TD*%
%TO.C,D35*%
X149287500Y-129341963D03*
X149287500Y-125791963D03*
%TD*%
D10*
%TO.C,S62*%
X226695000Y-70416963D03*
D11*
X231775000Y-70416963D03*
D10*
X236855000Y-70416963D03*
D12*
X227965000Y-67876963D03*
X234315000Y-65336963D03*
%TD*%
D10*
%TO.C,S56*%
X207645000Y-70416963D03*
D11*
X212725000Y-70416963D03*
D10*
X217805000Y-70416963D03*
D12*
X208915000Y-67876963D03*
X215265000Y-65336963D03*
%TD*%
D10*
%TO.C,S10*%
X69532500Y-108516963D03*
D11*
X74612500Y-108516963D03*
D10*
X79692500Y-108516963D03*
D12*
X70802500Y-105976963D03*
X77152500Y-103436963D03*
%TD*%
D13*
%TO.C,D16*%
X101662500Y-110291963D03*
X101662500Y-106741963D03*
%TD*%
D10*
%TO.C,S63*%
X236220000Y-89466963D03*
D11*
X241300000Y-89466963D03*
D10*
X246380000Y-89466963D03*
D12*
X237490000Y-86926963D03*
X243840000Y-84386963D03*
%TD*%
D13*
%TO.C,D31*%
X144525000Y-53141963D03*
X144525000Y-49591963D03*
%TD*%
D10*
%TO.C,S74*%
X286226250Y-127566963D03*
D11*
X291306250Y-127566963D03*
D10*
X296386250Y-127566963D03*
D12*
X287496250Y-125026963D03*
X293846250Y-122486963D03*
%TD*%
D13*
%TO.C,D73*%
X287400000Y-91241963D03*
X287400000Y-87691963D03*
%TD*%
D10*
%TO.C,S39*%
X160020000Y-89466963D03*
D11*
X165100000Y-89466963D03*
D10*
X170180000Y-89466963D03*
D12*
X161290000Y-86926963D03*
X167640000Y-84386963D03*
%TD*%
D10*
%TO.C,S36*%
X236220000Y-146616963D03*
D11*
X241300000Y-146616963D03*
D10*
X246380000Y-146616963D03*
D12*
X237490000Y-144076963D03*
X243840000Y-141536963D03*
%TD*%
D13*
%TO.C,D40*%
X177862500Y-110291963D03*
X177862500Y-106741963D03*
%TD*%
%TO.C,D66*%
X258825000Y-53141963D03*
X258825000Y-49591963D03*
%TD*%
%TO.C,D21*%
X115252500Y-91241963D03*
X115252500Y-87691963D03*
%TD*%
%TO.C,D74*%
X299306250Y-129341963D03*
X299306250Y-125791963D03*
%TD*%
D10*
%TO.C,S26*%
X112395000Y-70416963D03*
D11*
X117475000Y-70416963D03*
D10*
X122555000Y-70416963D03*
D12*
X113665000Y-67876963D03*
X120015000Y-65336963D03*
%TD*%
D13*
%TO.C,D48*%
X287400000Y-148391963D03*
X287400000Y-144841963D03*
%TD*%
%TO.C,D38*%
X163575000Y-72191963D03*
X163575000Y-68641963D03*
%TD*%
%TO.C,D77*%
X306450000Y-72191963D03*
X306450000Y-68641963D03*
%TD*%
D10*
%TO.C,S42*%
X255270000Y-146616963D03*
D11*
X260350000Y-146616963D03*
D10*
X265430000Y-146616963D03*
D12*
X256540000Y-144076963D03*
X262890000Y-141536963D03*
%TD*%
D10*
%TO.C,S1*%
X36195000Y-51366963D03*
D11*
X41275000Y-51366963D03*
D10*
X46355000Y-51366963D03*
D12*
X37465000Y-48826963D03*
X43815000Y-46286963D03*
%TD*%
D13*
%TO.C,D44*%
X182625000Y-72191963D03*
X182625000Y-68641963D03*
%TD*%
D10*
%TO.C,S66*%
X245745000Y-51366963D03*
D11*
X250825000Y-51366963D03*
D10*
X255905000Y-51366963D03*
D12*
X247015000Y-48826963D03*
X253365000Y-46286963D03*
%TD*%
D13*
%TO.C,D46*%
X196912500Y-110291963D03*
X196912500Y-106741963D03*
%TD*%
%TO.C,D42*%
X268350000Y-148391963D03*
X268350000Y-144841963D03*
%TD*%
D10*
%TO.C,S52*%
X202882500Y-108516963D03*
D11*
X207962500Y-108516963D03*
D10*
X213042500Y-108516963D03*
D12*
X204152500Y-105976963D03*
X210502500Y-103436963D03*
%TD*%
D13*
%TO.C,D5*%
X51656250Y-129341963D03*
X51656250Y-125791963D03*
%TD*%
%TO.C,D53*%
X206437500Y-129341963D03*
X206437500Y-125791963D03*
%TD*%
D10*
%TO.C,S64*%
X240982500Y-108516963D03*
D11*
X246062500Y-108516963D03*
D10*
X251142500Y-108516963D03*
D12*
X242252500Y-105976963D03*
X248602500Y-103436963D03*
%TD*%
D13*
%TO.C,D69*%
X273112500Y-110291963D03*
X273112500Y-106741963D03*
%TD*%
D10*
%TO.C,S22*%
X107632500Y-108516963D03*
D11*
X112712500Y-108516963D03*
D10*
X117792500Y-108516963D03*
D12*
X108902500Y-105976963D03*
X115252500Y-103436963D03*
%TD*%
D10*
%TO.C,S5*%
X38576250Y-127566963D03*
D11*
X43656250Y-127566963D03*
D10*
X48736250Y-127566963D03*
D12*
X39846250Y-125026963D03*
X46196250Y-122486963D03*
%TD*%
D13*
%TO.C,D7*%
X68325000Y-53141963D03*
X68325000Y-49591963D03*
%TD*%
D10*
%TO.C,S80*%
X321945000Y-127566963D03*
D11*
X327025000Y-127566963D03*
D10*
X332105000Y-127566963D03*
D12*
X323215000Y-125026963D03*
X329565000Y-122486963D03*
%TD*%
D10*
%TO.C,S57*%
X217170000Y-89466963D03*
D11*
X222250000Y-89466963D03*
D10*
X227330000Y-89466963D03*
D12*
X218440000Y-86926963D03*
X224790000Y-84386963D03*
%TD*%
D13*
%TO.C,D50*%
X201675000Y-72191963D03*
X201675000Y-68641963D03*
%TD*%
%TO.C,D15*%
X97155000Y-91241963D03*
X97155000Y-87691963D03*
%TD*%
%TO.C,D20*%
X106425000Y-72191963D03*
X106425000Y-68641963D03*
%TD*%
%TO.C,D79*%
X304068750Y-110291963D03*
X304068750Y-106741963D03*
%TD*%
%TO.C,D30*%
X180243750Y-148391963D03*
X180243750Y-144841963D03*
%TD*%
D10*
%TO.C,S37*%
X150495000Y-51366963D03*
D11*
X155575000Y-51366963D03*
D10*
X160655000Y-51366963D03*
D12*
X151765000Y-48826963D03*
X158115000Y-46286963D03*
%TD*%
D10*
%TO.C,S17*%
X79057500Y-127566963D03*
D11*
X84137500Y-127566963D03*
D10*
X89217500Y-127566963D03*
D12*
X80327500Y-125026963D03*
X86677500Y-122486963D03*
%TD*%
D13*
%TO.C,D63*%
X249555000Y-91241963D03*
X249555000Y-87691963D03*
%TD*%
D10*
%TO.C,S38*%
X150495000Y-70416963D03*
D11*
X155575000Y-70416963D03*
D10*
X160655000Y-70416963D03*
D12*
X151765000Y-67876963D03*
X158115000Y-65336963D03*
%TD*%
D13*
%TO.C,D67*%
X258825000Y-72191963D03*
X258825000Y-68641963D03*
%TD*%
%TO.C,D2*%
X49275000Y-72191963D03*
X49275000Y-68641963D03*
%TD*%
D10*
%TO.C,S2*%
X36195000Y-70416963D03*
D11*
X41275000Y-70416963D03*
D10*
X46355000Y-70416963D03*
D12*
X37465000Y-67876963D03*
X43815000Y-65336963D03*
%TD*%
D13*
%TO.C,D57*%
X230505000Y-91241963D03*
X230505000Y-87691963D03*
%TD*%
%TO.C,D62*%
X239775000Y-72191963D03*
X239775000Y-68641963D03*
%TD*%
%TO.C,D75*%
X296925000Y-53141963D03*
X296925000Y-49591963D03*
%TD*%
D10*
%TO.C,S44*%
X169545000Y-70416963D03*
D11*
X174625000Y-70416963D03*
D10*
X179705000Y-70416963D03*
D12*
X170815000Y-67876963D03*
X177165000Y-65336963D03*
%TD*%
D13*
%TO.C,D78*%
X311212500Y-91241963D03*
X311212500Y-87691963D03*
%TD*%
%TO.C,D59*%
X225487500Y-129341963D03*
X225487500Y-125791963D03*
%TD*%
%TO.C,D26*%
X125475000Y-72191963D03*
X125475000Y-68641963D03*
%TD*%
%TO.C,D55*%
X220725000Y-53141963D03*
X220725000Y-49591963D03*
%TD*%
D10*
%TO.C,S8*%
X55245000Y-70416963D03*
D11*
X60325000Y-70416963D03*
D10*
X65405000Y-70416963D03*
D12*
X56515000Y-67876963D03*
X62865000Y-65336963D03*
%TD*%
D13*
%TO.C,D64*%
X254062500Y-110291963D03*
X254062500Y-106741963D03*
%TD*%
%TO.C,D24*%
X111187500Y-148391963D03*
X111187500Y-144841963D03*
%TD*%
D10*
%TO.C,S35*%
X136207500Y-127566963D03*
D11*
X141287500Y-127566963D03*
D10*
X146367500Y-127566963D03*
D12*
X137477500Y-125026963D03*
X143827500Y-122486963D03*
%TD*%
D10*
%TO.C,S67*%
X245745000Y-70416963D03*
D11*
X250825000Y-70416963D03*
D10*
X255905000Y-70416963D03*
D12*
X247015000Y-67876963D03*
X253365000Y-65336963D03*
%TD*%
D13*
%TO.C,D3*%
X54037500Y-91241963D03*
X54037500Y-87691963D03*
%TD*%
D10*
%TO.C,S59*%
X212407500Y-127566963D03*
D11*
X217487500Y-127566963D03*
D10*
X222567500Y-127566963D03*
D12*
X213677500Y-125026963D03*
X220027500Y-122486963D03*
%TD*%
D13*
%TO.C,D41*%
X168337500Y-129341963D03*
X168337500Y-125791963D03*
%TD*%
%TO.C,D27*%
X136207500Y-91241963D03*
X136207500Y-87691963D03*
%TD*%
D10*
%TO.C,S21*%
X102870000Y-89466963D03*
D11*
X107950000Y-89466963D03*
D10*
X113030000Y-89466963D03*
D12*
X104140000Y-86926963D03*
X110490000Y-84386963D03*
%TD*%
D10*
%TO.C,S27*%
X121920000Y-89466963D03*
D11*
X127000000Y-89466963D03*
D10*
X132080000Y-89466963D03*
D12*
X123190000Y-86926963D03*
X129540000Y-84386963D03*
%TD*%
D13*
%TO.C,D10*%
X82612500Y-110291963D03*
X82612500Y-106741963D03*
%TD*%
D10*
%TO.C,S43*%
X169545000Y-51366963D03*
D11*
X174625000Y-51366963D03*
D10*
X179705000Y-51366963D03*
D12*
X170815000Y-48826963D03*
X177165000Y-46286963D03*
%TD*%
D10*
%TO.C,S81*%
X340995000Y-146616963D03*
D11*
X346075000Y-146616963D03*
D10*
X351155000Y-146616963D03*
D12*
X342265000Y-144076963D03*
X348615000Y-141536963D03*
%TD*%
D10*
%TO.C,S72*%
X264795000Y-70416963D03*
D11*
X269875000Y-70416963D03*
D10*
X274955000Y-70416963D03*
D12*
X266065000Y-67876963D03*
X272415000Y-65336963D03*
%TD*%
D10*
%TO.C,S13*%
X74295000Y-51366963D03*
D11*
X79375000Y-51366963D03*
D10*
X84455000Y-51366963D03*
D12*
X75565000Y-48826963D03*
X81915000Y-46286963D03*
%TD*%
M02*
