%TF.GenerationSoftware,KiCad,Pcbnew,7.0.10*%
%TF.CreationDate,2024-01-16T21:17:59-03:00*%
%TF.ProjectId,PCB,5043422e-6b69-4636-9164-5f7063625858,rev?*%
%TF.SameCoordinates,Original*%
%TF.FileFunction,Paste,Top*%
%TF.FilePolarity,Positive*%
%FSLAX46Y46*%
G04 Gerber Fmt 4.6, Leading zero omitted, Abs format (unit mm)*
G04 Created by KiCad (PCBNEW 7.0.10) date 2024-01-16 21:17:59*
%MOMM*%
%LPD*%
G01*
G04 APERTURE LIST*
%ADD10R,1.300000X1.400000*%
G04 APERTURE END LIST*
D10*
%TO.C,D56*%
X220725000Y-72191963D03*
X220725000Y-68641963D03*
%TD*%
%TO.C,D72*%
X277875000Y-72191963D03*
X277875000Y-68641963D03*
%TD*%
%TO.C,D13*%
X87375000Y-53141963D03*
X87375000Y-49591963D03*
%TD*%
%TO.C,D29*%
X130237500Y-129341963D03*
X130237500Y-125791963D03*
%TD*%
%TO.C,D80*%
X335025000Y-129341963D03*
X335025000Y-125791963D03*
%TD*%
%TO.C,D39*%
X173355000Y-91241963D03*
X173355000Y-87691963D03*
%TD*%
%TO.C,D1*%
X49275000Y-53141963D03*
X49275000Y-49591963D03*
%TD*%
%TO.C,D43*%
X182625000Y-53141963D03*
X182625000Y-49591963D03*
%TD*%
%TO.C,D61*%
X239775000Y-53141963D03*
X239775000Y-49591963D03*
%TD*%
%TO.C,D25*%
X125475000Y-53141963D03*
X125475000Y-49591963D03*
%TD*%
%TO.C,D70*%
X263587500Y-129341963D03*
X263587500Y-125791963D03*
%TD*%
%TO.C,D51*%
X210502500Y-91241963D03*
X210502500Y-87691963D03*
%TD*%
%TO.C,D34*%
X158812500Y-110291963D03*
X158812500Y-106741963D03*
%TD*%
%TO.C,D28*%
X139762500Y-110291963D03*
X139762500Y-106741963D03*
%TD*%
%TO.C,D58*%
X235012500Y-110291963D03*
X235012500Y-106741963D03*
%TD*%
%TO.C,D8*%
X68325000Y-72191963D03*
X68325000Y-68641963D03*
%TD*%
%TO.C,D71*%
X277875000Y-53141963D03*
X277875000Y-49591963D03*
%TD*%
%TO.C,D22*%
X120712500Y-110291963D03*
X120712500Y-106741963D03*
%TD*%
%TO.C,D81*%
X354075000Y-148391963D03*
X354075000Y-144841963D03*
%TD*%
%TO.C,D33*%
X155257500Y-91241963D03*
X155257500Y-87691963D03*
%TD*%
%TO.C,D19*%
X106425000Y-53141963D03*
X106425000Y-49591963D03*
%TD*%
%TO.C,D60*%
X335025000Y-148391963D03*
X335025000Y-144841963D03*
%TD*%
%TO.C,D4*%
X56418750Y-110291963D03*
X56418750Y-106741963D03*
%TD*%
%TO.C,D32*%
X144525000Y-72191963D03*
X144525000Y-68641963D03*
%TD*%
%TO.C,D49*%
X201675000Y-53141963D03*
X201675000Y-49591963D03*
%TD*%
%TO.C,D17*%
X92137500Y-129341963D03*
X92137500Y-125791963D03*
%TD*%
%TO.C,D76*%
X315975000Y-53141963D03*
X315975000Y-49591963D03*
%TD*%
%TO.C,D9*%
X77850000Y-91241963D03*
X77850000Y-87691963D03*
%TD*%
%TO.C,D6*%
X51656250Y-148391963D03*
X51656250Y-144841963D03*
%TD*%
%TO.C,D45*%
X191452500Y-91241963D03*
X191452500Y-87691963D03*
%TD*%
%TO.C,D47*%
X187387500Y-129341963D03*
X187387500Y-125791963D03*
%TD*%
%TO.C,D18*%
X92137500Y-148391963D03*
X92137500Y-144841963D03*
%TD*%
%TO.C,D23*%
X111187500Y-129341963D03*
X111187500Y-125791963D03*
%TD*%
%TO.C,D52*%
X215962500Y-110291963D03*
X215962500Y-106741963D03*
%TD*%
%TO.C,D65*%
X244537500Y-129341963D03*
X244537500Y-125791963D03*
%TD*%
%TO.C,D37*%
X163575000Y-53141963D03*
X163575000Y-49591963D03*
%TD*%
%TO.C,D12*%
X73087500Y-148391963D03*
X73087500Y-144841963D03*
%TD*%
%TO.C,D14*%
X87375000Y-72191963D03*
X87375000Y-68641963D03*
%TD*%
%TO.C,D11*%
X73087500Y-129341963D03*
X73087500Y-125791963D03*
%TD*%
%TO.C,D68*%
X267652500Y-91241963D03*
X267652500Y-87691963D03*
%TD*%
%TO.C,D54*%
X315975000Y-148391963D03*
X315975000Y-144841963D03*
%TD*%
%TO.C,D36*%
X249300000Y-148391963D03*
X249300000Y-144841963D03*
%TD*%
%TO.C,D35*%
X149287500Y-129341963D03*
X149287500Y-125791963D03*
%TD*%
%TO.C,D16*%
X101662500Y-110291963D03*
X101662500Y-106741963D03*
%TD*%
%TO.C,D31*%
X144525000Y-53141963D03*
X144525000Y-49591963D03*
%TD*%
%TO.C,D73*%
X287400000Y-91241963D03*
X287400000Y-87691963D03*
%TD*%
%TO.C,D40*%
X177862500Y-110291963D03*
X177862500Y-106741963D03*
%TD*%
%TO.C,D66*%
X258825000Y-53141963D03*
X258825000Y-49591963D03*
%TD*%
%TO.C,D21*%
X115252500Y-91241963D03*
X115252500Y-87691963D03*
%TD*%
%TO.C,D74*%
X299306250Y-129341963D03*
X299306250Y-125791963D03*
%TD*%
%TO.C,D48*%
X287400000Y-148391963D03*
X287400000Y-144841963D03*
%TD*%
%TO.C,D38*%
X163575000Y-72191963D03*
X163575000Y-68641963D03*
%TD*%
%TO.C,D77*%
X306450000Y-72191963D03*
X306450000Y-68641963D03*
%TD*%
%TO.C,D44*%
X182625000Y-72191963D03*
X182625000Y-68641963D03*
%TD*%
%TO.C,D46*%
X196912500Y-110291963D03*
X196912500Y-106741963D03*
%TD*%
%TO.C,D42*%
X268350000Y-148391963D03*
X268350000Y-144841963D03*
%TD*%
%TO.C,D5*%
X51656250Y-129341963D03*
X51656250Y-125791963D03*
%TD*%
%TO.C,D53*%
X206437500Y-129341963D03*
X206437500Y-125791963D03*
%TD*%
%TO.C,D69*%
X273112500Y-110291963D03*
X273112500Y-106741963D03*
%TD*%
%TO.C,D7*%
X68325000Y-53141963D03*
X68325000Y-49591963D03*
%TD*%
%TO.C,D50*%
X201675000Y-72191963D03*
X201675000Y-68641963D03*
%TD*%
%TO.C,D15*%
X97155000Y-91241963D03*
X97155000Y-87691963D03*
%TD*%
%TO.C,D20*%
X106425000Y-72191963D03*
X106425000Y-68641963D03*
%TD*%
%TO.C,D79*%
X304068750Y-110291963D03*
X304068750Y-106741963D03*
%TD*%
%TO.C,D30*%
X180243750Y-148391963D03*
X180243750Y-144841963D03*
%TD*%
%TO.C,D63*%
X249555000Y-91241963D03*
X249555000Y-87691963D03*
%TD*%
%TO.C,D67*%
X258825000Y-72191963D03*
X258825000Y-68641963D03*
%TD*%
%TO.C,D2*%
X49275000Y-72191963D03*
X49275000Y-68641963D03*
%TD*%
%TO.C,D57*%
X230505000Y-91241963D03*
X230505000Y-87691963D03*
%TD*%
%TO.C,D62*%
X239775000Y-72191963D03*
X239775000Y-68641963D03*
%TD*%
%TO.C,D75*%
X296925000Y-53141963D03*
X296925000Y-49591963D03*
%TD*%
%TO.C,D78*%
X311212500Y-91241963D03*
X311212500Y-87691963D03*
%TD*%
%TO.C,D59*%
X225487500Y-129341963D03*
X225487500Y-125791963D03*
%TD*%
%TO.C,D26*%
X125475000Y-72191963D03*
X125475000Y-68641963D03*
%TD*%
%TO.C,D55*%
X220725000Y-53141963D03*
X220725000Y-49591963D03*
%TD*%
%TO.C,D64*%
X254062500Y-110291963D03*
X254062500Y-106741963D03*
%TD*%
%TO.C,D24*%
X111187500Y-148391963D03*
X111187500Y-144841963D03*
%TD*%
%TO.C,D3*%
X54037500Y-91241963D03*
X54037500Y-87691963D03*
%TD*%
%TO.C,D41*%
X168337500Y-129341963D03*
X168337500Y-125791963D03*
%TD*%
%TO.C,D27*%
X136207500Y-91241963D03*
X136207500Y-87691963D03*
%TD*%
%TO.C,D10*%
X82612500Y-110291963D03*
X82612500Y-106741963D03*
%TD*%
M02*
